<?xml version="1.0" encoding="utf-8"?>
<!-- Generator: Adobe Illustrator 25.0.0, SVG Export Plug-In . SVG Version: 6.00 Build 0)  -->
<svg version="1.1" id="Layer_1" xmlns="http://www.w3.org/2000/svg" xmlns:xlink="http://www.w3.org/1999/xlink" x="0px" y="0px"
	 viewBox="0 0 372.41 249.14" style="enable-background:new 0 0 372.41 249.14;" xml:space="preserve">
<style type="text/css">
	.st0{fill:#A6A6A8;}
	.st1{fill:#273877;}
	.st2{fill:#AAAAAD;}
	.st3{fill:#CCD533;}
	.st4{fill:#71B645;}
	.st5{fill:#26B4BB;}
	.st6{fill:#59B25A;}
	.st7{fill:#2885C7;}
	.st8{fill:#1D3A6D;}
	.st9{fill:#70777F;}
</style>
<g>
	<g>
		<rect x="219.38" y="4.51" class="st0" width="4.19" height="4.18"/>
		<rect x="306.47" y="56.48" class="st0" width="4.19" height="4.18"/>
		<path class="st0" d="M357.38,52c1.03-0.49,1.86-1.19,2.49-2.12c0.63-0.92,1.07-2.04,1.33-3.34c0.26-1.31,0.39-2.78,0.39-4.41
			V12.87h-4.19v29.26c0,1.18-0.06,2.18-0.18,3c-0.12,0.82-0.33,1.48-0.63,1.99c-0.3,0.5-0.7,0.87-1.2,1.1
			c-0.51,0.23-1.16,0.34-1.96,0.34c-0.38,0-0.72-0.02-0.99-0.05c-0.28-0.03-0.66-0.12-1.15-0.26l-1.1,4.02
			c1.15,0.32,2.29,0.47,3.4,0.47C355.09,52.73,356.35,52.49,357.38,52z"/>
		<path class="st0" d="M342.98,5.47h-5.75V4.5c0-0.53,0.11-0.94,0.34-1.23c0.19-0.24,0.64-0.36,1.29-0.36h2.88V0h-2.95
			c-1.6,0-2.85,0.42-3.69,1.25c-0.85,0.83-1.28,2.19-1.28,4.02v3.41h9.17V5.47z"/>
		<rect x="298.1" y="56.48" class="st0" width="4.19" height="4.18"/>
		<rect x="227.76" y="4.51" class="st0" width="4.19" height="4.18"/>
		<path class="st0" d="M324.11,37.92c1.59,1.13,3.43,1.97,5.52,2.51c2.09,0.54,4.31,0.81,6.65,0.81h1.11l1.41-2.95v4.15
			c0,2.19-0.63,3.76-1.88,4.7c-1.26,0.94-3.02,1.41-5.29,1.41c-1.29,0-2.45-0.12-3.48-0.37c-1.03-0.24-2.21-0.66-3.53-1.25
			l-1.31,4.02c1.6,0.59,3.03,1.04,4.27,1.33c1.24,0.3,2.49,0.44,3.74,0.44c4.08,0,7.05-0.97,8.9-2.9c1.85-1.94,2.77-4.54,2.77-7.81
			V12.87h-6.7c-2.58,0-4.94,0.37-7.07,1.1c-2.13,0.73-3.95,1.73-5.47,3c-1.52,1.27-2.7,2.79-3.53,4.55
			c-0.84,1.76-1.26,3.67-1.26,5.72c0,2.47,0.46,4.59,1.39,6.35C321.27,35.34,322.52,36.79,324.11,37.92z M324.11,23.11
			c0.64-1.25,1.5-2.32,2.56-3.21c1.06-0.89,2.28-1.57,3.64-2.06c1.32-0.47,2.69-0.71,4.11-0.72V17.1h6.77l-2.39,1.19v18.77h-4.24
			c-1.57,0-3.04-0.22-4.42-0.66c-1.38-0.43-2.59-1.07-3.64-1.91c-1.05-0.84-1.87-1.86-2.46-3.08c-0.59-1.22-0.89-2.61-0.89-4.18
			C323.14,25.74,323.47,24.37,324.11,23.11z"/>
		<path class="st0" d="M220.53,52.15h8.7v-3.13c0.08,0.15,0.17,0.3,0.26,0.43c0.63,0.92,1.46,1.63,2.49,2.12
			c1.03,0.49,2.29,0.73,3.79,0.73h76.35V12.87h-4.19v35.26h-4.35h-67.66c-0.8,0-1.46-0.11-1.96-0.34c-0.5-0.23-0.91-0.59-1.2-1.1
			c-0.29-0.51-0.5-1.17-0.63-1.99c-0.12-0.82-0.18-1.82-0.18-3V12.87h-11.32c-11.58,0-19.46,9.17-19.46,19.64v0.11
			C201.17,43.09,208.95,52.15,220.53,52.15z M205.63,32.4c0-8.63,6.2-15.57,14.89-15.57h9.8l-2.57,1.28V41.7
			c0,1.64,0.13,3.11,0.39,4.41c0.15,0.76,0.37,1.45,0.65,2.08l-8.17,0c-8.7,0-15-7.05-15-15.68V32.4z"/>
		<polygon class="st0" points="180.23,41.77 182.05,46.59 155.46,12.83 151.3,12.83 151.3,52.07 155.63,52.07 155.63,22.49 
			153.16,16.77 181.01,52.07 184.55,52.07 184.55,12.83 180.23,12.83 		"/>
		<path class="st0" d="M239.87,114.78l24.14-23.01V75.98h-64.52v17.97h33.08l12.27-7.88l-30.63,30.75l3.28,13.34h8.73
			c11.73,0,18.69,4.36,18.69,12.12v0.27c0,7.08-5.59,11.57-13.5,11.57c-9.68,0-16.5-4.08-23.05-11.44l-14.46,13.75
			c8.18,9.67,20.05,16.47,37.24,16.47c21.28,0,34.37-13.21,34.37-31.18v-0.27C265.51,123.76,252.83,116.96,239.87,114.78z"/>
		<path class="st0" d="M124.04,12.15c-11.96,0-20.11,9.47-20.11,20.3v0.11c0,10.82,8.03,20.18,20,20.18s20.11-9.47,20.11-20.29
			v-0.11C144.04,21.52,136,12.15,124.04,12.15z M139.43,32.56c0,8.91-6.4,16.09-15.39,16.09s-15.5-7.29-15.5-16.2v-0.11
			c0-8.91,6.41-16.09,15.39-16.09c8.99,0,15.5,7.29,15.5,16.2V32.56z"/>
		<path class="st0" d="M321.8,74.34c-29.46,0-50.88,22.19-50.88,49.28v0.27c0,27.09,21.14,49.01,50.6,49.01
			c29.46,0,50.88-22.19,50.88-49.28v-0.27C372.41,96.26,351.27,74.34,321.8,74.34z M350.45,123.9c0,16.34-11.73,29.68-28.65,29.68
			c-16.91,0-28.92-13.61-28.92-29.95v-0.27c0-16.34,11.73-29.68,28.64-29.68c16.91,0,28.92,13.61,28.92,29.95V123.9z"/>
		<rect x="91.84" y="12.83" class="st0" width="4.44" height="39.24"/>
		<path class="st0" d="M20.55,160.39l4.05-3.12l20.87-16.08c16.91-13.07,25.1-20.96,25.1-36.89v-0.27
			c0-17.84-13.09-29.41-32.87-29.41c-17.05,0-26.19,6.94-35.6,19.74l14.73,11.84c7.09-8.71,12.14-12.79,19.51-12.79
			c7.5,0,12.82,4.36,12.82,12.39c0,7.89-4.64,13.07-16.5,22.87l-31.78,26v16.61h70.66v-18.11H35.12L20.55,160.39z"/>
		<polygon class="st0" points="20.84,52.35 37.75,12.83 32.97,12.83 19.61,45 20.04,49.31 18.93,46.63 7.36,18.67 4.94,12.83 
			0,12.83 16.91,52.35 		"/>
		<rect x="43.78" y="12.83" class="st0" width="4.44" height="39.24"/>
		<path class="st0" d="M71.71,30.32c-8.65-1.85-10.67-3.92-10.67-7.62v-0.11c0-3.53,3.26-6.33,8.37-6.33c4.04,0,7.7,1.29,11.35,4.26
			l2.58-3.42c-3.99-3.2-8.09-4.82-13.82-4.82c-7.47,0-12.92,4.54-12.92,10.71v0.11c0,6.45,4.16,9.36,13.2,11.33
			c8.26,1.74,10.22,3.81,10.22,7.46v0.11c0,3.87-3.48,6.67-8.76,6.67c-5.45,0-9.38-1.85-13.48-5.55l-2.75,3.25
			c4.72,4.21,9.83,6.28,16.06,6.28c7.81,0,13.42-4.37,13.42-11.1v-0.11C84.52,35.42,80.47,32.23,71.71,30.32z"/>
	</g>
	<polygon class="st1" points="128.6,68.08 133.43,72.71 128.79,77.53 123.96,72.9 	"/>
	<polygon class="st2" points="139.66,72.9 144.5,77.53 149.14,72.71 144.3,68.08 	"/>
	<polygon class="st3" points="132.85,78.98 136.62,82.59 140.23,78.83 136.47,75.23 	"/>
	<polygon class="st4" points="146.66,81.05 150.42,84.65 154.04,80.9 150.27,77.29 	"/>
	<polygon class="st3" points="126.7,84.73 130.46,88.34 134.07,84.58 130.31,80.97 	"/>
	<polygon class="st5" points="139.33,85.17 143.09,88.77 146.71,85.02 142.94,81.41 	"/>
	<polygon class="st4" points="134.39,89.49 137.04,92.03 139.58,89.38 136.93,86.84 	"/>
	<polygon class="st6" points="144.38,91.48 147.03,94.02 149.57,91.37 146.92,88.84 	"/>
	
		<rect x="166.88" y="70.56" transform="matrix(0.9836 -0.1803 0.1803 0.9836 -10.669 32.0647)" class="st7" width="8.35" height="8.34"/>
	
		<rect x="156.03" y="74.15" transform="matrix(0.9836 -0.1801 0.1801 0.9836 -11.3514 29.9742)" class="st8" width="6.7" height="6.69"/>
	
		<rect x="168.77" y="83.32" transform="matrix(0.9836 -0.1804 0.1804 0.9836 -12.81 32.4685)" class="st5" width="6.7" height="6.69"/>
	
		<rect x="159.56" y="84.43" transform="matrix(0.9836 -0.1802 0.1802 0.9836 -13.029 30.6499)" class="st3" width="5.22" height="5.21"/>
	
		<rect x="169.54" y="94.16" transform="matrix(0.9836 -0.1802 0.1802 0.9836 -14.6196 32.6086)" class="st2" width="5.22" height="5.21"/>
	
		<rect x="151.87" y="86.51" transform="matrix(0.9836 -0.1802 0.1802 0.9836 -13.5307 29.2981)" class="st5" width="5.22" height="5.21"/>
	
		<rect x="161.18" y="93.22" transform="matrix(0.9836 -0.1802 0.1802 0.9836 -14.5872 31.087)" class="st4" width="5.22" height="5.21"/>
	
		<rect x="154.52" y="93.99" transform="matrix(0.9836 -0.1803 0.1803 0.9836 -14.716 29.7643)" class="st2" width="3.67" height="3.66"/>
	
		<rect x="161.45" y="101.44" transform="matrix(0.9837 -0.1798 0.1798 0.9837 -15.9091 31.0458)" class="st6" width="3.67" height="3.66"/>
	<polygon class="st1" points="190.63,98.24 187.04,105.77 194.59,109.35 198.17,101.82 	"/>
	<polygon class="st5" points="179.92,94.76 177.05,100.8 183.1,103.67 185.98,97.63 	"/>
	<polygon class="st4" points="184.88,109.64 182,115.68 188.05,118.55 190.93,112.51 	"/>
	<polygon class="st3" points="176.95,105.11 174.71,109.81 179.42,112.05 181.66,107.34 	"/>
	<polygon class="st3" points="179.34,118.83 177.1,123.53 181.81,125.77 184.05,121.07 	"/>
	<polygon class="st7" points="169.49,102.31 167.25,107.01 171.96,109.25 174.2,104.54 	"/>
	<polygon class="st2" points="173.11,113.19 170.87,117.89 175.58,120.13 177.82,115.42 	"/>
	<polygon class="st4" points="167.44,109.87 165.87,113.18 169.18,114.75 170.76,111.45 	"/>
	
		<rect x="167.74" y="120.57" transform="matrix(0.4297 -0.903 0.903 0.4297 -13.825 222.9176)" class="st5" width="3.66" height="3.67"/>
	<polygon class="st7" points="194.7,134.29 187.37,138.3 191.39,145.61 198.71,141.6 	"/>
	<polygon class="st5" points="188.05,125.22 182.18,128.43 185.4,134.3 191.28,131.08 	"/>
	<polygon class="st5" points="183.35,140.17 177.47,143.39 180.7,149.25 186.57,146.04 	"/>
	<polygon class="st1" points="179.57,131.87 175,134.37 177.51,138.94 182.08,136.43 	"/>
	<polygon class="st6" points="173.47,144.39 168.89,146.9 171.4,151.46 175.98,148.96 	"/>
	<polygon class="st8" points="175.17,125.24 170.59,127.75 173.1,132.31 177.68,129.81 	"/>
	<polygon class="st3" points="171.72,136.18 167.15,138.69 169.66,143.25 174.23,140.75 	"/>
	<polygon class="st2" points="169.07,130.18 165.85,131.95 167.62,135.16 170.84,133.4 	"/>
	<polygon class="st5" points="164.18,139.1 160.96,140.86 162.72,144.07 165.94,142.31 	"/>
	
		<rect x="168.03" y="165.35" transform="matrix(0.1226 -0.9925 0.9925 0.1226 -17.1648 319.6321)" class="st4" width="8.34" height="8.35"/>
	
		<rect x="169.71" y="154.22" transform="matrix(0.123 -0.9924 0.9924 0.123 -4.5982 309.9333)" class="st8" width="6.69" height="6.7"/>
	
		<rect x="157.12" y="163.6" transform="matrix(0.123 -0.9924 0.9924 0.123 -24.9469 305.6732)" class="st5" width="6.69" height="6.7"/>
	
		<rect x="160.5" y="154.76" transform="matrix(0.1227 -0.9924 0.9924 0.1227 -13.0827 299.9381)" class="st4" width="5.21" height="5.22"/>
	
		<rect x="148.2" y="161.35" transform="matrix(0.1227 -0.9924 0.9924 0.1227 -30.4119 293.5202)" class="st2" width="5.21" height="5.22"/>
	
		<rect x="160.81" y="146.81" transform="matrix(0.123 -0.9924 0.9924 0.123 -4.9685 293.2202)" class="st2" width="5.21" height="5.22"/>
	
		<rect x="151.6" y="153.67" transform="matrix(0.123 -0.9924 0.9924 0.123 -19.8498 290.104)" class="st4" width="5.21" height="5.22"/>
	
		<rect x="154.61" y="147.36" transform="matrix(0.1228 -0.9924 0.9924 0.1228 -10.8376 286.1355)" class="st2" width="3.66" height="3.67"/>
	
		<rect x="145.41" y="151.73" transform="matrix(0.1227 -0.9924 0.9924 0.1227 -23.2363 280.8517)" class="st2" width="3.66" height="3.67"/>
	<polygon class="st3" points="143.86,181.12 137.74,175.44 132.06,181.56 138.18,187.23 	"/>
	<polygon class="st4" points="142.73,64.34 136.61,58.66 130.93,64.77 137.05,70.45 	"/>
	<polygon class="st5" points="150.39,171.96 145.48,167.41 140.92,172.32 145.84,176.86 	"/>
	<polygon class="st4" points="134.69,172.22 129.78,167.67 125.22,172.58 130.13,177.12 	"/>
	<polygon class="st7" points="141.39,166.03 137.57,162.49 134.02,166.3 137.84,169.84 	"/>
	<polygon class="st3" points="127.56,164.19 123.74,160.65 120.19,164.47 124.01,168.01 	"/>
	<polygon class="st3" points="146.3,159.77 142.48,156.22 138.93,160.04 142.75,163.58 	"/>
	<polygon class="st2" points="134.82,159.96 130.99,156.41 127.44,160.23 131.27,163.77 	"/>
	<polygon class="st8" points="139.68,155.55 136.99,153.06 134.5,155.74 137.19,158.24 	"/>
	<polygon class="st2" points="129.66,153.72 126.97,151.23 124.48,153.92 127.17,156.41 	"/>
	
		<rect x="99.09" y="166.75" transform="matrix(0.9805 -0.1965 0.1965 0.9805 -31.5734 23.625)" class="st7" width="8.35" height="8.34"/>
	
		<rect x="111.55" y="164.61" transform="matrix(0.9805 -0.1964 0.1964 0.9805 -30.7476 25.8365)" class="st5" width="6.7" height="6.69"/>
	
		<rect x="98.66" y="155.65" transform="matrix(0.9805 -0.1967 0.1967 0.9805 -29.2758 23.1664)" class="st4" width="6.7" height="6.69"/>
	
		<rect x="109.35" y="155.87" transform="matrix(0.9805 -0.1964 0.1964 0.9805 -28.943 25.0743)" class="st3" width="5.22" height="5.21"/>
	
		<rect x="117" y="153.65" transform="matrix(0.9805 -0.1964 0.1964 0.9805 -28.3596 26.5346)" class="st1" width="5.22" height="5.21"/>
	
		<rect x="107.57" y="147.1" transform="matrix(0.9805 -0.1964 0.1964 0.9805 -27.256 24.5555)" class="st7" width="5.22" height="5.21"/>
	
		<rect x="115.79" y="147.75" transform="matrix(0.9806 -0.1962 0.1962 0.9806 -27.0657 25.9891)" class="st4" width="3.67" height="3.66"/>
	
		<rect x="108.73" y="140.42" transform="matrix(0.9805 -0.1967 0.1967 0.9805 -25.8213 24.5288)" class="st2" width="3.67" height="3.66"/>
	<polygon class="st5" points="83.31,147.73 86.77,140.15 79.17,136.69 75.7,144.28 	"/>
	<polygon class="st3" points="94.07,151.04 96.85,144.95 90.75,142.18 87.97,148.26 	"/>
	<polygon class="st7" points="88.87,136.24 91.65,130.16 85.55,127.38 82.77,133.47 	"/>
	
		<rect x="92.98" y="134.58" transform="matrix(0.4149 -0.9098 0.9098 0.4149 -68.9011 167.2299)" class="st5" width="5.21" height="5.22"/>
	<polygon class="st2" points="103.23,152.49 105.39,147.75 100.64,145.59 98.48,150.33 	"/>
	
		<rect x="90.36" y="120.9" transform="matrix(0.4151 -0.9098 0.9098 0.4151 -57.9892 156.8206)" class="st1" width="5.21" height="5.22"/>
	
		<rect x="100.48" y="137.26" transform="matrix(0.4151 -0.9098 0.9098 0.4151 -66.9516 175.5989)" class="st6" width="5.21" height="5.22"/>
	
		<rect x="96.68" y="126.44" transform="matrix(0.4154 -0.9096 0.9096 0.4154 -59.3437 165.7571)" class="st3" width="5.21" height="5.22"/>
	<polygon class="st8" points="106.3,135.72 107.82,132.38 104.48,130.86 102.96,134.2 	"/>
	<polygon class="st4" points="104.88,125.65 106.4,122.31 103.06,120.8 101.53,124.13 	"/>
	<polygon class="st5" points="78.64,111.75 85.9,107.63 81.76,100.38 74.5,104.51 	"/>
	<polygon class="st4" points="85.44,120.72 91.26,117.4 87.94,111.59 82.12,114.91 	"/>
	<polygon class="st8" points="89.89,105.68 95.72,102.37 92.39,96.56 86.57,99.87 	"/>
	<polygon class="st7" points="93.81,113.93 98.34,111.34 95.75,106.82 91.22,109.4 	"/>
	<polygon class="st4" points="99.71,101.3 104.24,98.72 101.65,94.2 97.12,96.78 	"/>
	<polygon class="st5" points="98.32,120.48 102.86,117.9 100.27,113.37 95.74,115.95 	"/>
	<polygon class="st3" points="101.58,109.48 106.11,106.9 103.53,102.38 99,104.96 	"/>
	<polygon class="st2" points="104.33,115.44 107.52,113.62 105.7,110.44 102.51,112.25 	"/>
	<polygon class="st4" points="109.08,106.44 112.27,104.63 110.45,101.44 107.26,103.26 	"/>
	
		<rect x="96.38" y="71.98" transform="matrix(0.1063 -0.9943 0.9943 0.1063 14.1429 168.041)" class="st4" width="8.34" height="8.35"/>
	
		<rect x="96.55" y="84.77" transform="matrix(0.1064 -0.9943 0.9943 0.1064 1.6479 178.0733)" class="st2" width="6.69" height="6.7"/>
	
		<rect x="108.98" y="75.18" transform="matrix(0.1064 -0.9943 0.9943 0.1064 22.2875 181.8617)" class="st5" width="6.69" height="6.7"/>
	
		<rect x="107.25" y="85.55" transform="matrix(0.1065 -0.9943 0.9943 0.1065 10.5016 187.9984)" class="st3" width="5.21" height="5.22"/>
	
		<rect x="119.43" y="78.75" transform="matrix(0.1061 -0.9944 0.9944 0.1061 28.1804 194.0714)" class="st7" width="5.21" height="5.22"/>
	
		<rect x="107.07" y="93.5" transform="matrix(0.1065 -0.9943 0.9943 0.1065 2.4305 194.9205)" class="st5" width="5.21" height="5.22"/>
	
		<rect x="116.16" y="86.49" transform="matrix(0.1065 -0.9943 0.9943 0.1065 17.526 197.6913)" class="st4" width="5.21" height="5.22"/>
	
		<rect x="114.82" y="94.38" transform="matrix(0.1064 -0.9943 0.9943 0.1064 8.5698 201.9654)" class="st8" width="3.66" height="3.67"/>
	
		<rect x="123.94" y="89.86" transform="matrix(0.1058 -0.9944 0.9944 0.1058 21.2931 207.0627)" class="st2" width="3.66" height="3.67"/>
	<path class="st9" d="M163.17,128.07c-0.62-0.35-1.75-0.94-3.31-1.43c-2.25-0.72-5.39-1.26-9.11-0.67c-1.25,0.2-2.57,0.53-3.94,1.02
		c-0.13,0.05-0.26,0.09-0.39,0.14c-0.7,0.26-1.39,0.58-2.09,0.93c-0.59,0.3-1.19,0.63-1.78,0.99c-1.35,0.81-2.68,1.73-3.97,2.73
		c-1.47-8.89-0.75-17.14-0.41-21.19c0-0.02,0.03-0.03,0.05-0.02c3.15,1.98,2.27,7.51,1.6,9.1c-0.01,0.03,0.03,0.05,0.06,0.03
		c3.92-4.63,2.01-9.75,1.2-11.04c-0.02-0.03,0.02-0.06,0.05-0.04c0.57,0.46,1.03,0.95,1.42,1.45c1.21,1.55,1.66,3.22,1.78,4.7
		c0.06,0.78,0.04,1.5,0,2.12c-0.01,0.17-0.02,0.32-0.04,0.47c0,0.02,0.02,0.03,0.04,0.02c0.01,0,0.02,0,0.02-0.01
		c1.06-2.08,1.57-5.22-0.02-8.27c-0.43-0.83-1.01-1.65-1.78-2.44c-0.22-0.23-0.46-0.45-0.71-0.68c-0.02-0.02,0-0.06,0.03-0.05
		c0.24,0.06,0.46,0.13,0.68,0.2c0.67,0.23,1.26,0.55,1.78,0.94c1.19,0.88,2,2.08,2.48,3.34c0.4,1.04,0.58,2.11,0.58,3.06
		c0,0.04,0.05,0.04,0.06,0.01c0.74-2.71,0.29-4.76-0.64-6.25c-0.66-1.07-1.57-1.85-2.48-2.4c-0.62-0.37-1.24-0.63-1.78-0.79
		c-0.32-0.1-0.6-0.16-0.85-0.19c-0.04,0-0.03-0.06,0.01-0.06c0.29-0.03,0.57-0.04,0.84-0.05c0.66-0.01,1.25,0.05,1.78,0.14
		c1.05,0.2,1.87,0.56,2.48,0.98c1,0.67,1.5,1.46,1.67,1.78c0.02,0.03,0.06,0.01,0.06-0.02c-0.14-1.43-0.8-2.55-1.72-3.35
		c-0.71-0.62-1.58-1.05-2.48-1.31c-0.59-0.16-1.19-0.25-1.78-0.26c-0.8-0.01-1.57,0.12-2.22,0.4c-0.03,0.01-0.05-0.02-0.04-0.05
		c0.58-0.83,1.4-1.33,2.26-1.6c0.6-0.18,1.21-0.25,1.78-0.21c0.55,0.03,1.05,0.15,1.46,0.34c0.03,0.01,0.05-0.02,0.03-0.05
		c-0.45-0.51-0.96-0.91-1.49-1.21c-0.57-0.32-1.17-0.51-1.78-0.58c-1.59-0.18-3.21,0.5-4.29,2.13c-0.01,0.02-0.04,0.02-0.05,0
		c-0.21-0.37-0.41-0.78-0.59-1.21c-0.43-1-0.78-2.12-0.97-3.24c-0.01-0.04-0.05-0.04-0.05,0c-0.19,1.12-0.55,2.25-0.98,3.25
		c-0.19,0.43-0.38,0.83-0.59,1.19c-0.01,0.02-0.04,0.02-0.05,0c-1.88-2.85-5.41-2.79-7.56-0.33c-0.02,0.02,0,0.06,0.03,0.05
		c1.43-0.68,4.14-0.48,5.5,1.47c0.02,0.03-0.01,0.06-0.04,0.05c-2.09-0.88-5.33-0.31-7.06,1.75c-0.62,0.73-1.04,1.66-1.15,2.77
		c0,0.03,0.04,0.05,0.06,0.02c0.13-0.25,0.47-0.79,1.09-1.34c1.01-0.89,2.77-1.79,5.68-1.52c0.04,0.01,0.04,0.06,0.01,0.06
		c-1.49,0.18-4.56,1.51-5.69,4.55c-0.5,1.34-0.63,3.02-0.07,5.08c0.01,0.03,0.06,0.03,0.06-0.01c0-0.05,0-0.09,0.01-0.14
		c0.03-2.76,1.61-6.46,5.52-7.4c0.03-0.01,0.05,0.03,0.03,0.05c-4.37,3.84-3.94,8.58-2.51,11.38c0.01,0.03,0.06,0.02,0.06-0.02
		c-0.19-2.12-0.34-5.89,3.16-8.74c0.03-0.02,0.07,0.01,0.05,0.04c-0.81,1.3-2.72,6.41,1.2,11.04c0.02,0.03,0.07,0.01,0.06-0.03
		c-0.66-1.58-1.54-7.12,1.6-9.1c0.02-0.01,0.05,0,0.05,0.02c0.34,4.05,1.06,12.3-0.41,21.19c-2.53-1.94-5.2-3.64-7.84-4.64
		c-0.33-0.12-0.65-0.23-0.96-0.34c-2.73-0.9-5.23-1.15-7.41-1.05c-3.5,0.15-6.18,1.2-7.65,1.93c-0.3,0.15-0.55,0.29-0.74,0.4
		c-0.08,0.05-0.02,0.16,0.06,0.13c0.23-0.07,0.45-0.14,0.68-0.2c2.69-0.76,5.24-0.96,7.65-0.75c2.63,0.23,5.1,0.95,7.41,1.99
		c3.24,1.46,6.17,3.54,8.82,5.74c-3.74,3.26-6.9,6.43-8.82,7.54c-0.1,0.05-0.19,0.11-0.28,0.16c-0.46-0.63-1.26-0.99-2.13-0.8
		c-0.76,0.17-1.38,0.78-1.55,1.53c-0.15,0.67,0.02,1.4,0.4,1.78c1.02,1.02,2.2,1.09,3.56,0.52c2.59-1.09,5.81-4.51,9.76-8.13
		c0.33-0.3,0.66-0.61,1-0.91c0.34,0.3,0.67,0.6,1,0.9c1.79,1.64,3.43,3.24,4.93,4.6c0.62,0.56,1.21,1.08,1.78,1.54
		c0.88,0.72,1.71,1.31,2.48,1.72c1.51,0.8,2.82,0.9,3.94-0.09c0.06-0.05,0.12-0.1,0.18-0.16c0.26-0.26,0.56-1.11,0.4-1.78
		c-0.09-0.39-0.3-0.74-0.59-1.01c-0.26-0.25-0.6-0.44-0.96-0.52c-0.87-0.19-1.67,0.17-2.13,0.8c-0.26-0.13-0.54-0.31-0.85-0.52
		c-0.71-0.49-1.54-1.18-2.48-2c-0.56-0.49-1.15-1.03-1.78-1.6c-1.22-1.11-2.56-2.33-3.98-3.58c1.26-1.05,2.59-2.07,3.98-3.01
		c0.58-0.39,1.17-0.77,1.78-1.13c0.81-0.48,1.63-0.92,2.48-1.33c1.27-0.61,2.58-1.12,3.94-1.51c2.82-0.81,5.85-1.08,9.11-0.56
		c1.06,0.17,2.14,0.42,3.25,0.76C163.19,128.22,163.25,128.11,163.17,128.07"/>
	<g>
		<rect x="19.4" y="218.88" class="st0" width="2.46" height="2.46"/>
		<path class="st0" d="M185.02,216.04V199.8h-2.4v13.84h-9.05V199.8h-2.4v13.84h-9.53V199.8h-3.77c-1.5,0-2.86,0.2-4.08,0.61
			c-1.22,0.41-2.26,0.98-3.12,1.7c-0.86,0.73-1.52,1.59-1.99,2.59c-0.47,1-0.7,2.07-0.7,3.23c0,1.42,0.27,2.63,0.81,3.65
			c0.54,1.02,1.26,1.85,2.16,2.51c0.9,0.66,1.95,1.15,3.15,1.46c1.2,0.32,2.46,0.48,3.78,0.48H185.02z M154.36,213.26
			c-0.79-0.26-1.48-0.63-2.07-1.12c-0.59-0.49-1.05-1.09-1.39-1.79c-0.34-0.71-0.51-1.51-0.51-2.41c0-0.86,0.19-1.64,0.56-2.35
			c0.37-0.71,0.86-1.31,1.47-1.82c0.61-0.51,1.3-0.9,2.08-1.17c0.78-0.27,1.58-0.4,2.4-0.4h2.37v11.45h-2.37
			C155.99,213.64,155.15,213.52,154.36,213.26z"/>
		<rect x="133.75" y="194.57" class="st0" width="2.4" height="21.46"/>
		<rect x="159.18" y="194.57" class="st0" width="2.46" height="2.46"/>
		<rect x="182.59" y="218.85" class="st0" width="2.46" height="2.46"/>
		<rect x="23.59" y="218.88" class="st0" width="2.46" height="2.46"/>
		<path class="st0" d="M124.37,213.64h-3.92c-1.4,0-2.5-0.2-3.3-0.6c-0.8-0.4-1.43-1-1.89-1.79c0.14-0.62,0.21-1.37,0.21-2.24v-7.72
			h-2.4v8.1c0,1.38-0.37,2.48-1.11,3.31c-0.74,0.83-1.86,1.24-3.36,1.24c-0.7,0-1.34-0.11-1.92-0.33c-0.58-0.22-1.08-0.52-1.5-0.9
			c-0.42-0.38-0.75-0.82-0.99-1.33c-0.24-0.51-0.37-1.05-0.39-1.63v-8.46h-2.4v8.28c0,0.74-0.11,1.36-0.33,1.87
			c-0.22,0.51-0.52,0.93-0.9,1.26c-0.38,0.33-0.81,0.57-1.29,0.72c-0.48,0.15-0.99,0.22-1.53,0.22h-4.64v-12.35h-2.4v12.35H77.75
			l4.19-10.02c-0.64-0.56-1.32-1.08-2.04-1.57c-0.72-0.49-1.46-0.92-2.22-1.29c-0.76-0.37-1.53-0.66-2.31-0.87
			c-0.78-0.21-1.55-0.31-2.31-0.31c-0.78,0-1.56,0.11-2.34,0.31c-0.78,0.21-1.55,0.49-2.32,0.85c-0.77,0.36-1.51,0.79-2.22,1.29
			c-0.71,0.5-1.37,1.02-1.99,1.58l4.22,10.02h-8.3V199.8H56.3c-1.48,0-2.83,0.21-4.05,0.63c-1.22,0.42-2.26,0.99-3.13,1.72
			c-0.87,0.73-1.54,1.6-2.02,2.6c-0.48,1.01-0.72,2.1-0.72,3.28c0,1.42,0.26,2.63,0.79,3.63c0.53,1.01,1.25,1.84,2.16,2.48
			c0.91,0.65,1.96,1.13,3.16,1.43c1.2,0.31,2.47,0.46,3.81,0.46h1.44v0.69c0,1.26-0.36,2.15-1.08,2.69s-1.73,0.81-3.03,0.81
			c-0.74,0-1.4-0.07-1.99-0.21c-0.59-0.14-1.26-0.38-2.02-0.72l-0.75,2.3c0.92,0.34,1.73,0.59,2.44,0.76
			c0.71,0.17,1.42,0.26,2.14,0.26c2.34,0,4.03-0.55,5.09-1.66c1.06-1.11,1.59-2.6,1.59-4.47v-0.45h37.24c1.16,0,2.19-0.25,3.1-0.75
			c0.91-0.5,1.64-1.17,2.2-2c0.58,0.96,1.37,1.71,2.37,2.24c1,0.54,2.19,0.81,3.57,0.81c1.44,0,2.66-0.25,3.67-0.75
			c1.01-0.5,1.78-1.26,2.32-2.3c0.2,0.34,0.44,0.67,0.73,1c0.29,0.33,0.66,0.62,1.12,0.88c0.46,0.26,1.02,0.47,1.66,0.63
			c0.49,0.12,1.08,0.18,1.72,0.21v0.03h6.92v-21.46h-2.4V213.64z M57.74,213.64h-2.43c-0.9,0-1.74-0.12-2.53-0.37
			c-0.79-0.25-1.48-0.61-2.08-1.09c-0.6-0.48-1.07-1.07-1.41-1.76c-0.34-0.7-0.51-1.5-0.51-2.39c0-0.86,0.18-1.64,0.55-2.36
			c0.37-0.72,0.86-1.33,1.47-1.84c0.61-0.51,1.3-0.9,2.08-1.18c0.78-0.28,1.59-0.42,2.43-0.42h2.43V213.64z M70.95,213.64
			l-3.74-9.18c0.92-0.78,1.86-1.35,2.83-1.7c0.97-0.36,1.98-0.54,3.04-0.54c1.08,0,2.15,0.21,3.21,0.64c1.06,0.43,1.96,0.96,2.7,1.6
			l-3.74,9.18H70.95z"/>
		<rect x="11.19" y="194.57" class="st0" width="2.46" height="2.46"/>
		<rect x="253.62" y="194.57" class="st0" width="2.46" height="2.46"/>
		<rect x="232.39" y="194.57" class="st0" width="2.4" height="21.46"/>
		<rect x="154.98" y="194.57" class="st0" width="2.46" height="2.46"/>
		<path class="st0" d="M42.58,206.62c0-0.94-0.12-1.81-0.38-2.63c-0.25-0.82-0.63-1.51-1.15-2.09c-0.64-0.7-1.35-1.22-2.14-1.57
			c-0.79-0.35-1.75-0.52-2.89-0.52h-1.77v2.39h2.1c0.58,0,1.13,0.13,1.65,0.37c0.52,0.25,0.95,0.57,1.29,0.97
			c0.34,0.42,0.57,0.88,0.7,1.38c0.13,0.5,0.2,1.1,0.2,1.79v6.94H28.94v2.39h13.63V206.62z"/>
		<rect x="359.2" y="194.57" class="st0" width="2.4" height="21.46"/>
		<rect x="257.82" y="194.57" class="st0" width="2.46" height="2.46"/>
		<path class="st0" d="M352.22,194.57h-2.4v19.07h-8.24c0.5-1.1,0.75-2.27,0.75-3.53c0-1.23-0.23-2.39-0.67-3.45
			c-0.45-1.07-1.06-1.99-1.84-2.76c-0.78-0.78-1.7-1.39-2.77-1.84c-1.07-0.45-2.22-0.67-3.46-0.67c-1.2,0-2.32,0.23-3.36,0.69
			c-1.04,0.46-1.94,1.08-2.71,1.87c-0.77,0.79-1.37,1.71-1.81,2.77c-0.44,1.06-0.66,2.19-0.66,3.41c0,0.64,0.07,1.25,0.2,1.84
			c0.13,0.59,0.3,1.15,0.52,1.69h-7.43c0.5-1.1,0.75-2.27,0.75-3.53c0-1.23-0.23-2.39-0.67-3.45c-0.45-1.07-1.06-1.99-1.84-2.76
			c-0.78-0.78-1.7-1.39-2.77-1.84c-1.07-0.45-2.22-0.67-3.46-0.67c-1.2,0-2.31,0.23-3.35,0.69c-1.04,0.46-1.94,1.08-2.71,1.87
			c-0.77,0.79-1.37,1.71-1.81,2.77c-0.44,1.06-0.66,2.19-0.66,3.41c0,0.64,0.07,1.25,0.2,1.84c0.13,0.59,0.3,1.15,0.52,1.69h-7.61
			v-19.07h-2.4v19.07h-7.64v-3.66c0-0.92-0.12-1.79-0.36-2.62c-0.24-0.83-0.62-1.53-1.14-2.11c-0.62-0.7-1.32-1.22-2.1-1.56
			c-0.78-0.34-1.77-0.51-2.97-0.51H267.7l4.51-8.62h-2.61l-4.6,8.59c0.08,0.52,0.2,0.97,0.38,1.35s0.4,0.74,0.7,1.08h12.22
			c0.76,0,1.41,0.11,1.96,0.35c0.55,0.23,0.99,0.54,1.33,0.94c0.34,0.4,0.57,0.86,0.69,1.38c0.12,0.52,0.18,1.1,0.18,1.73v3.66
			h-22.17V199.8h-3.78c-1.5,0-2.86,0.2-4.07,0.61c-1.22,0.41-2.26,0.98-3.12,1.7c-0.86,0.73-1.52,1.59-1.99,2.59
			c-0.47,1-0.7,2.07-0.7,3.23c0,1.42,0.27,2.63,0.81,3.65c0.54,1.02,1.26,1.85,2.16,2.51c0.9,0.66,1.95,1.15,3.15,1.46
			c1.2,0.32,2.46,0.48,3.77,0.48h47.55c0.78,0.84,1.7,1.5,2.77,1.99c1.07,0.49,2.23,0.73,3.49,0.73c1.28,0,2.47-0.24,3.58-0.72
			c1.11-0.48,2.06-1.15,2.86-2h10.55c0.78,0.84,1.7,1.5,2.77,1.99c1.07,0.49,2.23,0.73,3.49,0.73c1.28,0,2.47-0.24,3.58-0.72
			c1.11-0.48,2.06-1.15,2.86-2h12.19V194.57z M257.9,213.64h-2.37c-0.9,0-1.74-0.13-2.53-0.39c-0.79-0.26-1.48-0.63-2.07-1.12
			c-0.59-0.49-1.05-1.09-1.39-1.79c-0.34-0.71-0.51-1.51-0.51-2.41c0-0.86,0.18-1.64,0.55-2.35c0.37-0.71,0.86-1.31,1.47-1.82
			c0.61-0.51,1.3-0.9,2.08-1.17c0.78-0.27,1.58-0.4,2.4-0.4h2.37V213.64z M316.19,212.58c-0.33,0.77-0.78,1.43-1.35,1.99
			c-0.57,0.56-1.24,0.99-2.01,1.3c-0.77,0.31-1.6,0.46-2.5,0.46c-0.88,0-1.69-0.17-2.44-0.49c-0.75-0.33-1.4-0.78-1.95-1.35
			c-0.55-0.57-0.98-1.23-1.29-1.99c-0.31-0.76-0.46-1.57-0.46-2.42c0-0.86,0.16-1.67,0.46-2.44c0.31-0.77,0.74-1.43,1.28-2
			c0.54-0.57,1.18-1.02,1.93-1.36c0.75-0.34,1.57-0.51,2.47-0.51c0.92,0,1.76,0.16,2.53,0.48c0.77,0.32,1.44,0.76,2.01,1.32
			c0.57,0.56,1.01,1.22,1.33,1.99c0.32,0.77,0.48,1.61,0.48,2.53C316.68,210.98,316.52,211.82,316.19,212.58z M339.44,212.58
			c-0.33,0.77-0.78,1.43-1.35,1.99c-0.57,0.56-1.24,0.99-2.01,1.3c-0.77,0.31-1.6,0.46-2.5,0.46c-0.88,0-1.69-0.17-2.44-0.49
			c-0.75-0.33-1.4-0.78-1.95-1.35c-0.55-0.57-0.98-1.23-1.29-1.99c-0.31-0.76-0.47-1.57-0.47-2.42c0-0.86,0.16-1.67,0.47-2.44
			c0.31-0.77,0.73-1.43,1.27-2c0.54-0.57,1.18-1.02,1.93-1.36c0.75-0.34,1.57-0.51,2.47-0.51c0.92,0,1.76,0.16,2.53,0.48
			c0.77,0.32,1.44,0.76,2.01,1.32c0.57,0.56,1.01,1.22,1.33,1.99c0.32,0.77,0.48,1.61,0.48,2.53
			C339.93,210.98,339.77,211.82,339.44,212.58z"/>
		<path class="st0" d="M6.11,215.56c1.2,0.32,2.46,0.48,3.77,0.48h15.7V199.8h-2.4v13.84h-9.53V199.8H9.89
			c-1.5,0-2.85,0.2-4.07,0.61c-1.22,0.41-2.26,0.98-3.12,1.7c-0.86,0.73-1.52,1.59-1.99,2.59c-0.47,1-0.7,2.07-0.7,3.23
			c0,1.42,0.27,2.63,0.81,3.65c0.54,1.02,1.26,1.85,2.16,2.51C3.87,214.75,4.91,215.24,6.11,215.56z M2.4,207.93
			c0-0.86,0.19-1.64,0.56-2.35c0.37-0.71,0.86-1.31,1.47-1.82c0.61-0.51,1.3-0.9,2.08-1.17c0.78-0.27,1.58-0.4,2.4-0.4h2.37v11.45
			H8.9c-0.9,0-1.74-0.13-2.53-0.39c-0.79-0.26-1.48-0.63-2.07-1.12c-0.59-0.49-1.05-1.09-1.39-1.79
			C2.57,209.63,2.4,208.83,2.4,207.93z"/>
		<rect x="173.83" y="218.88" class="st0" width="2.46" height="2.46"/>
		<rect x="169.63" y="218.88" class="st0" width="2.46" height="2.46"/>
		<path class="st0" d="M194.36,219.07c0.15-0.75,0.23-1.59,0.23-2.53v-0.51h30.83v-21.46h-2.4v19.07h-10.19l4.19-10.02
			c-0.64-0.56-1.32-1.08-2.04-1.57c-0.72-0.49-1.46-0.92-2.22-1.29c-0.76-0.37-1.53-0.66-2.31-0.87c-0.78-0.21-1.55-0.31-2.31-0.31
			c-0.78,0-1.56,0.11-2.34,0.31c-0.78,0.21-1.55,0.49-2.32,0.85c-0.77,0.36-1.51,0.79-2.22,1.29c-0.71,0.5-1.37,1.02-1.99,1.58
			l4.22,10.02h-8.93V199.8h-2.4v16.75c0,0.68-0.03,1.25-0.1,1.72c-0.07,0.47-0.19,0.85-0.36,1.14s-0.4,0.5-0.69,0.63
			c-0.29,0.13-0.66,0.2-1.12,0.2c-0.22,0-0.41-0.01-0.57-0.03c-0.16-0.02-0.38-0.07-0.66-0.15l-0.63,2.3
			c0.66,0.18,1.31,0.27,1.95,0.27c0.86,0,1.58-0.14,2.17-0.42c0.59-0.28,1.06-0.68,1.42-1.21
			C193.95,220.46,194.21,219.82,194.36,219.07z M202.28,204.46c0.92-0.78,1.86-1.35,2.83-1.7c0.97-0.36,1.98-0.54,3.04-0.54
			c1.08,0,2.15,0.21,3.21,0.64c1.06,0.43,1.96,0.96,2.7,1.6l-3.74,9.18h-4.28L202.28,204.46z"/>
		<rect x="6.99" y="194.57" class="st0" width="2.46" height="2.46"/>
		<polygon class="st0" points="17.19,231.76 13.5,231.76 5.36,240.35 5.36,231.76 2.35,231.76 2.35,248.84 5.36,248.84 5.36,243.89 
			8.02,241.16 13.87,248.84 17.51,248.84 10.08,239.11 		"/>
		<rect x="20.25" y="231.76" class="st0" width="3.01" height="17.09"/>
		<polygon class="st0" points="39.85,243.57 30.68,231.76 27.9,231.76 27.9,248.84 30.86,248.84 30.86,236.69 40.3,248.84 
			42.81,248.84 42.81,231.76 39.85,231.76 		"/>
		<path class="st0" d="M55.27,241.91h4.38v3.2c-1.05,0.78-2.52,1.29-4.13,1.29c-3.5,0-5.82-2.59-5.82-6.1v-0.05
			c0-3.27,2.39-6.03,5.55-6.03c2.18,0,3.47,0.71,4.79,1.83l1.91-2.27c-1.76-1.49-3.6-2.32-6.58-2.32c-5.16,0-8.83,4.05-8.83,8.84
			v0.05c0,4.98,3.52,8.79,8.88,8.79c3.03,0,5.46-1.22,7.14-2.66v-7.18h-7.29V241.91z"/>
		<path class="st0" d="M73.1,231.76h-6.38v17.09h6.38c5.38,0,9.1-3.73,9.1-8.55v-0.05C82.2,235.44,78.48,231.76,73.1,231.76z
			 M79.04,240.35c0,3.34-2.35,5.76-5.94,5.76h-3.37v-11.62h3.37c3.6,0,5.94,2.47,5.94,5.81V240.35z"/>
		<path class="st0" d="M93.99,231.46c-5.26,0-8.97,4.03-8.97,8.84v0.05c0,4.81,3.67,8.79,8.93,8.79c5.26,0,8.98-4.03,8.98-8.84
			v-0.05C102.92,235.44,99.25,231.46,93.99,231.46z M99.76,240.35c0,3.32-2.37,6.03-5.77,6.03c-3.4,0-5.82-2.76-5.82-6.08v-0.05
			c0-3.32,2.37-6.03,5.77-6.03c3.4,0,5.82,2.76,5.82,6.08V240.35z"/>
		<polygon class="st0" points="115.07,239.84 109.86,231.76 106.65,231.76 106.65,248.84 109.61,248.84 109.61,236.64 
			114.97,244.65 115.07,244.65 120.47,236.59 120.47,248.84 123.48,248.84 123.48,231.76 120.28,231.76 		"/>
		<path class="st0" d="M143.45,231.46c-5.26,0-8.97,4.03-8.97,8.84v0.05c0,4.81,3.67,8.79,8.93,8.79c5.26,0,8.98-4.03,8.98-8.84
			v-0.05C152.37,235.44,148.7,231.46,143.45,231.46z M149.22,240.35c0,3.32-2.37,6.03-5.77,6.03c-3.4,0-5.82-2.76-5.82-6.08v-0.05
			c0-3.32,2.37-6.03,5.77-6.03c3.4,0,5.82,2.76,5.82,6.08V240.35z"/>
		<polygon class="st0" points="156.11,248.84 159.12,248.84 159.12,241.89 167.75,241.89 167.75,239.15 159.12,239.15 
			159.12,234.49 168.85,234.49 168.85,231.76 156.11,231.76 		"/>
		<path class="st0" d="M186.1,238.93c-3.28-0.78-4.06-1.37-4.06-2.68v-0.05c0-1.12,1.03-2.03,2.79-2.03c1.57,0,3.11,0.61,4.65,1.76
			l1.61-2.27c-1.74-1.39-3.72-2.15-6.21-2.15c-3.4,0-5.85,2.03-5.85,4.95v0.05c0,3.15,2.06,4.22,5.7,5.1
			c3.18,0.73,3.86,1.39,3.86,2.61v0.05c0,1.3-1.17,2.15-3.03,2.15c-2.13,0-3.77-0.81-5.41-2.22l-1.81,2.15
			c2.06,1.83,4.52,2.73,7.14,2.73c3.6,0,6.11-1.9,6.11-5.1v-0.05C191.61,241.11,189.72,239.81,186.1,238.93z"/>
		<path class="st0" d="M200.82,231.64l-7.53,17.21h3.08l1.76-4.13h8.1l1.74,4.13h3.18l-7.53-17.21H200.82z M199.23,242.06l2.94-6.84
			l2.96,6.84H199.23z"/>
		<path class="st0" d="M224.56,241.6c0,3.15-1.64,4.76-4.31,4.76c-2.69,0-4.33-1.71-4.33-4.88v-9.72h-3.01v9.84
			c0,4.95,2.84,7.52,7.29,7.52c4.48,0,7.36-2.56,7.36-7.66v-9.69h-3.01V241.6z"/>
		<path class="st0" d="M238.35,231.76h-6.38v17.09h6.38c5.38,0,9.1-3.73,9.1-8.55v-0.05C247.45,235.44,243.73,231.76,238.35,231.76z
			 M244.29,240.35c0,3.34-2.35,5.76-5.94,5.76h-3.37v-11.62h3.37c3.6,0,5.94,2.47,5.94,5.81V240.35z"/>
		<rect x="251.26" y="231.76" class="st0" width="3.01" height="17.09"/>
		<path class="st0" d="M272.25,231.64l-7.53,17.21h3.08l1.76-4.13h8.1l1.74,4.13h3.18l-7.53-17.21H272.25z M270.66,242.06l2.94-6.84
			l2.96,6.84H270.66z"/>
		<path class="st0" d="M299.4,237.2v-0.05c0-1.49-0.51-2.76-1.42-3.69c-1.1-1.07-2.79-1.71-4.94-1.71h-7.63v17.09h3.01v-5.96h3.72
			h0.05l4.21,5.96h3.55l-4.62-6.47C297.71,241.69,299.4,240.01,299.4,237.2z M288.42,240.23v-5.74h4.38c2.23,0,3.55,1,3.55,2.83
			v0.05c0,1.73-1.37,2.86-3.52,2.86H288.42z"/>
		<path class="st0" d="M309.68,231.64l-7.53,17.21h3.08l1.76-4.13h8.1l1.74,4.13h3.18l-7.53-17.21H309.68z M308.1,242.06l2.94-6.84
			l2.96,6.84H308.1z"/>
		<path class="st0" d="M333.71,239.96c1.27-0.66,2.45-1.76,2.45-3.81v-0.05c0-1.15-0.39-2.07-1.15-2.83
			c-0.98-0.98-2.52-1.51-4.48-1.51h-7.68v17.09h7.92c3.82,0,6.33-1.63,6.33-4.69v-0.05C337.11,241.79,335.71,240.64,333.71,239.96z
			 M325.81,234.42h4.33c1.93,0,3.01,0.83,3.01,2.17v0.05c0,1.56-1.3,2.32-3.23,2.32h-4.11V234.42z M334.1,243.84
			c0,1.54-1.25,2.34-3.3,2.34h-4.99v-4.69h4.77c2.37,0,3.52,0.86,3.52,2.3V243.84z"/>
		<rect x="340.83" y="231.76" class="st0" width="3.01" height="17.09"/>
		<path class="st0" d="M357.03,231.64h-2.79l-7.53,17.21h3.08l1.76-4.13h8.1l1.74,4.13h3.18L357.03,231.64z M352.66,242.06
			l2.94-6.84l2.96,6.84H352.66z"/>
	</g>
</g>
</svg>
