<svg xmlns="http://www.w3.org/2000/svg" viewBox="0 0 1547.03 647.04" xmlns:v="https://vecta.io/nano"><style><![CDATA[.b{opacity:.47}.c{clip-path:url(#B)}.d{fill:#575e64}.e{fill:#c6c6c5}.f{fill:#9b9a9a}.g{clip-path:url(#e)}.h{clip-path:url(#k)}]]></style><path d="M1208.48 627.64c-3.23 6.37-5.92 12.85-8.21 19.4 21.64-22.46 47.34-40 75.3-52.03-10.98-4.73-22.3-8.6-33.86-11.58-13.25 12.31-24.59 27.13-33.23 44.21m211.27-69.37c-47.18-23.86-100.7-21.64-144.18 1.22 12.2 6.4 23.62 14.39 33.87 23.93 52.6-13.57 110.15-8.82 162.44 17.61.13.06.25.13.37.19-13.72-17.44-31.37-32.27-52.5-42.95m-68.88 88.77c-2.28-6.55-4.99-13.04-8.21-19.4-8.63-17.08-19.97-31.91-33.22-44.22-11.56 2.98-22.88 6.86-33.86 11.58 27.95 12.04 53.65 29.57 75.29 52.04m-219.47-88.77c-21.13 10.68-38.78 25.51-52.51 42.95.12-.06.24-.13.37-.19 52.29-26.44 109.85-31.19 162.44-17.61 10.26-9.54 21.68-17.53 33.87-23.93-43.49-22.86-96.99-25.07-144.17-1.22" fill="#fff"/><path d="M1241.7 583.42c11.56 2.99 22.88 6.86 33.87 11.59a233.13 233.13 0 0 1 33.86-11.59c-10.25-9.53-21.67-17.54-33.86-23.94-12.19 6.4-23.61 14.41-33.87 23.94" fill="#d2d2d1"/><g opacity=".37"><defs><path id="A" d="M1016.01 135.28h515.79v344.07h-515.79z"/></defs><clipPath id="B"><use href="#A"/></clipPath><g class="b c"><defs><path id="C" d="M1182.75 135.28h184.12v257.69h-184.12z"/></defs><clipPath id="D"><use href="#C"/></clipPath><path d="M1273.06 391.65l1.75 1.33 1.75-1.33c59.36-45.52 90.3-95.27 90.3-95.27l-92.05-161.1-92.06 161.1s30.96 49.75 90.31 95.27" clip-path="url(#D)" class="d"/></g><g class="b c"><defs><path id="E" d="M1016.01 220.41h309.52v191.92h-309.52z"/></defs><clipPath id="F"><use href="#E"/></clipPath><path d="M1283.24 363.89c1.19-13.53 15.37-22.9 27.67-24.34 3.72-.42 7.62.1 11.36 1.35l3.28-74.64s-46.58-27.85-114.79-40.19l-2-.34C1104.88 207.57 1016 241.74 1016 241.74l262.51 170.59c.17-16.18 3.3-32.36 4.73-48.44" clip-path="url(#F)" class="d"/></g><g class="b c"><defs><path id="G" d="M1035.17 242.94h306.09v147.87h-306.09z"/></defs><clipPath id="H"><use href="#G"/></clipPath><path d="M1324.78 299.75c2.31-9.08 8.63-15.68 16.47-19.19l-15.26-36.8s-54.01-5.51-121.01 12.19l-1.96.53c-101.78 27.52-167.84 96.08-167.84 96.08l272.94 38.26c-4.29-30.51 9.02-61.15 16.66-91.07" clip-path="url(#H)" class="d"/></g><g class="b c"><defs><path id="I" d="M1134.52 200.74h236.07v276.23h-236.07z"/></defs><clipPath id="J"><use href="#I"/></clipPath><path d="M1360.36 269.93c-.01 0-.04-.01-.04-.01-1.68-.49-3.39-1.43-4.98-2.1l-10.26-4.19-19.57-7.76-41.34-15.62c-14.79-5.45-23.71-18.07-21.9-33.53-2.23-1.84-4.34-3.83-6.21-5.98-13.5 12.48-43.65 42.98-69.77 87.85-.35.58-.68 1.17-1.01 1.76-52.52 91.44-50.75 186.62-50.75 186.62l236.07-178.04c-10.11-4.74.03-24.61-10.24-29" clip-path="url(#J)" class="d"/></g><g class="b c"><defs><path id="K" d="M1222.79 219.79h309.01v194.53h-309.01z"/></defs><clipPath id="L"><use href="#K"/></clipPath><path d="M1266.99 365.98c-1.46-13.49-15.82-22.6-28.14-23.8-3.72-.35-7.62.24-11.33 1.57l-4.73-74.56s46.04-28.76 113.98-42.41l2-.39c103.49-20.17 193.01 12.26 193.01 12.26l-259.13 175.67c-.48-16.18-3.92-32.28-5.66-48.34" clip-path="url(#L)" class="d"/></g><g class="b c"><defs><path id="M" d="M1208.07 242.94h306.09v147.87h-306.09z"/></defs><clipPath id="N"><use href="#M"/></clipPath><path d="M1224.54 299.75c-2.31-9.08-8.63-15.68-16.47-19.19l15.26-36.8s54.01-5.51 121.01 12.19l1.96.53c101.78 27.52 167.84 96.08 167.84 96.08l-272.94 38.26c4.28-30.51-9.02-61.15-16.66-91.07" clip-path="url(#N)" class="d"/></g><g class="b c"><defs><path id="O" d="M1189.54 203.13h223.66v276.23h-223.66z"/></defs><clipPath id="P"><use href="#O"/></clipPath><path d="M1362.45 292.73h0l-1.01-1.76c-26.12-44.87-56.3-75.36-69.79-87.84-1.86 2.15-3.97 4.14-6.21 5.98 1.82 15.45-7.11 28.08-21.89 33.53l-41.35 15.62-19.57 7.76-10.26 4.21c-.93.37-1.88.84-2.85 1.27 3.57 1.24 7.12 2.54 10.63 4.03 16.68 7.03 30.84 19.6 34.79 38.05 2.17 10.13-.07 19.77-5.85 26.98l184.08 138.81c.02-.02 1.78-95.21-50.72-186.64" clip-path="url(#P)" class="d"/></g></g><g opacity=".141"><defs><path id="Q" d="M1165.95 169.93h219.26V476.8h-219.26z"/></defs><clipPath id="R"><use href="#Q"/></clipPath><g clip-path="url(#R)"><defs><path id="S" d="M1277.65 171.51l-2.07-1.58-2.09 1.58c-70.69 54.21-107.54 113.45-107.54 113.45l109.63 191.84 109.62-191.84c-.01 0-36.86-59.24-107.55-113.45"/></defs><clipPath id="T"><use href="#S"/></clipPath><linearGradient id="U" gradientUnits="userSpaceOnUse" x1="1165.94" y1="323.385" x2="1385.184" y2="323.385"><stop offset="0" stop-color="#257ec2"/><stop offset=".841" stop-color="#1f3669"/></linearGradient><path d="M1165.95 169.93h219.24V476.8h-219.24z" clip-path="url(#T)" fill="url(#U)"/></g></g><g opacity=".92"><defs><path id="V" d="M1165.75 0h381.29v474.87h-381.29z"/></defs><clipPath id="W"><use href="#V"/></clipPath><g clip-path="url(#W)"><defs><path id="X" d="M1165.75 283.75s36.72-59.01 107.13-113.02C1381.01 87.8 1547.03 0 1547.03 0l-272.08 474.87-109.2-191.12z"/></defs><use href="#X" fill="#e8e8e8"/><clipPath id="Y"><use href="#X"/></clipPath><path d="M1165.75 0h381.29v474.87h-381.29z" clip-path="url(#Y)" fill="#e8e8e8"/></g></g><g opacity=".77"><defs><path id="Z" d="M1046.14 74.44h338.03v400.43h-338.03z"/></defs><clipPath id="a"><use href="#Z"/></clipPath><g clip-path="url(#a)"><defs><path id="b" d="M1384.16 283.75s-36.72-59.01-107.13-113.02c-108.12-82.94-230.89-96.28-230.89-96.28l228.82 400.42 109.2-191.12z"/></defs><use href="#b" fill="#fff"/><clipPath id="c"><use href="#b"/></clipPath><path transform="matrix(.9933 -.1152 .1152 .9933 -23.5469 141.7751)" d="M1024.2 56.32h381.89v436.69H1024.2z" clip-path="url(#c)" fill="#fff"/></g></g><g opacity=".22"><defs><path id="d" d="M1103.51 175.28h342.35v109.75h-342.35z"/></defs><clipPath id="e"><use href="#d"/></clipPath><g class="g"><defs><path id="f" d="M1383.64 284.59l-.16.28c.07.06.13.1.21.16l62.18-108.51c-29.23 1.39-60.82 5.35-93.29 13.41l-2.58.64a509.1 509.1 0 0 0-37.5 11.16c46.88 43.9 71.14 82.86 71.14 82.86"/></defs><use href="#f" class="e"/><clipPath id="g"><use href="#f"/></clipPath><path d="M1312.49 176.52h133.38v108.51h-133.38z" clip-path="url(#g)" class="e"/></g><g class="g"><defs><path id="h" d="M1165.87 284.35l-.46-.8s24.73-39.75 72.55-84.19c-10.62-3.51-21.81-6.85-33.57-9.84l-2.56-.64c-17.17-4.27-34.1-7.39-50.56-9.58-16.44-2.18-32.44-3.45-47.76-4.03l62.35 109.09.01-.01z"/></defs><use href="#h" class="e"/><clipPath id="i"><use href="#h"/></clipPath><path d="M1103.51 175.28h134.45v109.09h-134.45z" clip-path="url(#i)" class="e"/></g></g><g opacity=".22"><defs><path id="j" d="M1146.22 231.29h258.07v54.03h-258.07z"/></defs><clipPath id="k"><use href="#j"/></clipPath><g class="h"><defs><path id="l" d="M1185.56 236.81c-13.65 3.68-26.76 7.96-39.36 12.63l19.4 33.91s13.75-22.13 40.6-51.66c-5.94 1.35-12.01 2.81-18.15 4.42l-2.49.7"/></defs><use href="#l" class="f"/><clipPath id="m"><use href="#l"/></clipPath><path d="M1146.2 231.7h60v51.66h-60z" clip-path="url(#m)" class="f"/></g><g class="h"><defs><path id="n" d="M1368.97 237.78l-2.48-.69a517.57 517.57 0 0 0-18.84-4.57l-5.81-1.24c3.53 3.86 6.85 7.58 9.93 11.18 21.14 24.48 31.96 41.87 31.96 41.87l-.47.83.19.16 20.84-36.38c-11.36-4.1-23.15-7.86-35.32-11.16"/></defs><use href="#n" class="f"/><clipPath id="o"><use href="#n"/></clipPath><path d="M1341.83 231.29h62.46v54.03h-62.46z" clip-path="url(#o)" class="f"/></g></g><path d="M191.67 321.83c8.99 0 16.18 9.67 13.71 15.96l-9.67 28.32c-2.02 5.85-10.79 10.57-17.08 10.57H66.25c-11.91 0-19.11 13.26-31.92 5.39l-21.35-17.98c-6.74-4.72-6.74-15.51-1.35-20.46 9.67-9.22 27.87-20.01 44.73-20.01-12.14-4.95-15.06-21.58-15.06-31.47v-39.11c0-41.13 36.41-70.13 78.67-70.13 42.03 0 78.45 29 78.45 70.13v22.93c0 5.39-4.5 12.59-9.67 16.18l-29.22 14.16-.45.45c-7.64 3.15-19.33-3.37-19.33-11.24v-42.48c0-12.59-9.89-21.8-19.78-21.8s-20.01 9.22-20.01 21.8v52.15c0 7.42 2.92 13.04 7.19 16.63h84.52zm145.85 0v54.85h-13.94c-43.83 0-77.77-53.05-77.77-92.83v-183.2c0-4.95 4.95-15.96 13.04-17.76h-.45l26.75-9.22c8.99-3.37 19.56 4.95 19.56 12.14v214.44c0 12.36 8.99 21.58 18.88 21.58h13.93zm235.68 0v54.85h-53.05c-3.82 0-9.89-1.12-14.16-2.92l-15.73-10.57-17.31 9.44c-3.82 2.25-12.14 4.05-17.53 4.05H324.36v-54.85h114.19c-27.65-7.87-55.3-30.79-55.3-44.51v-19.78c0-62.71 53.72-129.47 121.16-133.3 6.52 0 15.29 3.82 18.43 6.97L533.63 142c3.82 4.05 6.97 11.46 6.97 16.41v163.42h32.6zm-130.83-55.07c0 9.22 22.7 26.75 39.34 38.21V180.89c-22.7 14.16-39.34 50.13-39.34 76.65v9.22zm27.65-188.14c-6.29-5.62-6.29-16.41 0-21.35l22.7-23.83c3.37-2.7 7.19-2.7 10.56 0l22.48 23.83c6.29 4.94 6.29 15.73 0 21.35l-22.48 22.03c-3.37 2.92-7.19 2.92-10.56 0l-22.7-22.03zm89.5 298.06v-54.85h78.67c1.8 0 3.15-1.12 3.15-5.17V172.35c0-6.07 5.62-13.71 12.81-15.96l26.97-8.99c8.32-3.37 19.11 4.5 19.11 11.91v157.35c0 31.69-28.55 60.02-62.04 60.02h-78.67zm115.31 97.33c-5.84 6.52-15.73 6.52-21.8 0l-16.41-15.73c-2.92-2.92-7.19-2.92-10.57 0l-16.18 15.73c-5.84 6.52-15.73 6.52-21.58 0l-23.38-22.25c-2.92-3.15-2.92-7.19 0-10.56l23.38-22.93c5.85-5.84 15.74-5.84 21.58 0L626.05 434c3.37 3.82 7.64 3.82 10.57 0l16.41-15.74c6.07-5.84 15.96-5.84 21.8 0l22.93 22.93c3.15 3.37 3.15 7.42 0 10.56l-22.93 22.26zm75.77-26.98s-7.19-5.39-5.85-16.41c1.8-16.18 15.74-31.92 31.47-35.96 13.04-4.05 25.18 1.12 29.9 11.01.23 1.35 0 4.05-1.8 4.72l-11.91 8.77c-.9 1.12-2.02 1.12-3.15-.9-1.8-4.72-7.19-7.19-13.04-5.62-6.29 2.25-11.91 8.32-13.04 15.51-2.02 9.67 4.72 14.39 4.72 14.39l37.09-9.67c2.25-.9 3.15 0 3.15 2.02v12.14c0 1.57-.9 3.6-3.15 3.82l-58.89 15.73c-1.8.9-3.37-.22-3.37-2.92v-11.24c0-1.8 1.57-3.6 3.37-3.82l4.5-1.57zm54.39-86.76c0 6.74-5.62 13.49-12.59 15.96l-26.75 9.44c-9.22 3.15-19.56-4.72-19.56-11.91V99.75c0-5.84 5.17-13.94 11.69-16.63l29.67-9.22c8.32-1.12 17.53 5.85 17.53 12.14v274.23zM19.36 586.38c-5.17 0-10.5-2.47-13.87-6.7C1.84 575.49 0 570 0 564.48v-6.31c0-1.02.86-2.23 1.8-2.82l4.31-2.9c1.37-.82 3.6.31 3.6 1.72v10.3c0 3.56 1.1 6.82 3.06 9.05 1.8 2.27 3.8 3.29 6.07 3.29h14.89c.35 0 .55-.2.55-.9v-25.15c0-1.06.98-2.39 2.19-2.78l4.66-1.57c1.53-.59 3.41.78 3.41 2.08v27.43c0 5.52-4.98 10.46-10.81 10.46H19.36zm-8.59-46.35c-.63-.59-.63-1.25 0-1.84l3.92-3.88c1.06-1.17 2.74-1.17 3.8 0l2.78 2.74c.67.55 1.33.55 1.96 0l2.82-2.74a2.45 2.45 0 0 1 3.76 0l3.96 3.88c.63.59.63 1.25 0 1.84l-3.96 3.88c-1.02 1.18-2.74 1.18-3.76 0l-2.82-2.74c-.63-.55-1.29-.55-1.96 0l-2.78 2.74c-1.06 1.18-2.74 1.18-3.8 0l-3.92-3.88zm56.54 36.79v9.56h-2.43c-7.64 0-13.56-9.25-13.56-16.18v-31.93c0-.86.86-2.78 2.27-3.09h-.08l4.66-1.61c1.57-.59 3.41.86 3.41 2.12v37.38c0 2.16 1.57 3.76 3.29 3.76h2.44zm41.05 0v9.56h-9.25a7.42 7.42 0 0 1-2.47-.51l-2.74-1.84-3.02 1.65c-.67.39-2.12.71-3.06.71H64.98v-9.56h19.9c-4.82-1.37-9.64-5.37-9.64-7.76v-3.45c0-10.93 9.36-22.57 21.12-23.23 1.14 0 2.66.67 3.21 1.21l1.88 1.88c.67.71 1.21 2 1.21 2.86v28.48h5.7zm-22.81-9.6c0 1.61 3.96 4.66 6.86 6.66v-21.63c-3.96 2.47-6.86 8.74-6.86 13.36v1.61zm4.82-32.79c-1.1-.98-1.1-2.86 0-3.72l3.96-4.15c.59-.47 1.25-.47 1.84 0l3.92 4.15c1.1.86 1.1 2.74 0 3.72l-3.92 3.84c-.59.51-1.25.51-1.84 0l-3.96-3.84zm36.73-.75c1.57-.55 3.33.82 3.33 2.04v37.34c0 3.06-1.29 6.03-3.49 8.42-2.59 2.86-7.13 4.9-11.32 4.9h-9.72v-9.56h9.72c1.96 0 4.54-1.84 4.54-3.76v-34.79c0-.74.82-2.55 2.04-3.06l4.9-1.53zm26.12 43.14v9.56h-2.43c-7.64 0-13.56-9.25-13.56-16.18v-31.93c0-.86.86-2.78 2.27-3.09h-.08l4.66-1.61c1.57-.59 3.41.86 3.41 2.12v37.38c0 2.16 1.57 3.76 3.29 3.76h2.44zm12.6-23.31c-.78-.86-1.06-2.51-.08-3.45 2.62-2.94 6.39-5.33 10.46-6.5 3.96-1.25 8.03-1.25 10.38-1.06 9.36.86 14.58 6.7 18.49 11.24l1.65 1.76c.55.2 1.41.51 3.45.71 1.06.08 1.88.08 2.59.08 1.14.16 2.7 1.37 2.7 2.66v4.51c0 1.02-1.57 2.63-3.06 2.43-1.02 0-2.35-.08-3.8-.2l-2.7-.47-2.27 7.95c.04 2.04 1.65 3.6 3.33 3.6h5.09v9.6h-5.09c-3.29 0-5.99-1.57-7.88-3.61-1.72 1.92-4.31 3.61-7.88 3.61h-40.3v-9.6h40.32c.43 0 .86-.31 1.25-1.37l5.09-15.24c-3.96-4.47-6.86-7.56-11.95-8.07-3.13-.31-7.99-.12-12.07 4.15-.86.9-2.98.9-3.84.24l-3.88-2.97zm15.44-19.2c-1.1-.86-1.1-2.74 0-3.6l3.92-4.15c.55-.47 1.29-.47 1.8 0l3.88 4.15c1.18.86 1.18 2.74 0 3.6l-3.88 4.11c-.51.51-1.25.51-1.8 0l-3.92-4.11zm75.69 42.51v9.56h-2.43c-2.7 0-5.13-1.14-6.82-2.86-1.65 1.49-3.8 2.43-5.96 2.78-.9.08-2.16 0-2.9-.12l-8.86-2.04c-1.76 1.41-4.27 2.23-6.78 2.23h-13.71v-9.56h13.71c.31 0 .55-.2.55-.9v-25.15c0-.86.59-2.12 1.37-2.9l1.8-1.84c.51-.55 1.96-1.25 3.17-1.25 11.64.63 21.08 10.58 21.08 21.98v7.29c.43 1.65 1.96 2.78 3.33 2.78h2.45zm-16.06-10.07c0-4.98-2.94-9.99-6.86-12.22v21.39l-.04.43 6.35.47c.35 0 .55-.2.55-.9v-9.17zm43.82 10.07v9.56h-2.43c-3.17 0-6.27-1.65-8.46-3.88-2.39 2.31-6.03 3.88-9.68 3.88h-9.72v-9.56h9.72c1.96 0 4.54-1.84 4.54-3.76v-34.79c0-.74.82-2.55 2.04-3.06l4.9-1.53c1.57-.55 3.33.82 3.33 2.04v37.34c0 2.16 1.57 3.76 3.33 3.76h2.43zm18.77-43.14c1.57-.55 3.33.82 3.33 2.04v37.34c0 3.06-1.29 6.03-3.49 8.42-2.59 2.86-7.13 4.9-11.32 4.9h-9.72v-9.56H292c1.96 0 4.54-1.84 4.54-3.76v-34.79c0-.74.82-2.55 2.04-3.06l4.9-1.53zm71.75 52.7h-2.39c-2.94 0-5.68-1.53-7.64-3.61-2.47 2.23-5.92 3.61-9.36 3.61-7.41 0-13.71-6.35-13.71-13.32v-15.99c0-7.13 6.31-13.36 13.63-13.4 3.17-.08 6.11-.47 9.01-1.49 2.7-1.02 3.41.47 3.72 1.49l1.21 3.21c.7 1.8-.39 1.61-4.15 3.06 3.76 1.96 4 5.29 4 7.13v16.53c.31 1.84 1.8 3.21 3.29 3.21h2.39v9.57zm-30.91-52.93c-.63-.47-.63-1.06 0-1.65l3.96-3.8a2.6 2.6 0 0 1 3.8 0l2.82 2.74c.59.59 1.25.59 1.84 0l2.82-2.74a2.6 2.6 0 0 1 3.8 0l4 3.88c.59.59.59 1.25 0 1.88l-4 3.84c-1.06 1.18-2.74 1.18-3.8 0l-2.82-2.74c-.59-.55-1.25-.55-1.84 0l-2.82 2.74c-1.06 1.18-2.74 1.18-3.8 0l-3.96-4.15zm14.93 23.04c0-2.12-1.61-3.8-3.41-3.8-1.84 0-3.45 1.68-3.45 3.8v17.12c0 2.08 1.68 3.84 3.45 3.84 1.72 0 3.41-1.76 3.41-3.84v-17.12zm41.45 29.89c-2.7 0-5.02-1.14-6.82-2.86-1.92 1.72-4.54 2.86-7.33 2.86h-13.71v-9.56h13.71c.31 0 .55-.2.55-.9v-25.15c0-1.06.98-2.39 2.23-2.78l4.7-1.57c1.45-.59 3.33.78 3.33 2.08v25.55c.47 1.65 1.96 2.78 3.33 2.78h2.43v9.56h-2.42zm-1.57 11.25c.55.59.55 1.29 0 1.84l-3.96 3.88c-1.14 1.14-2.74 1.14-3.88 0l-2.78-2.74c-.63-.51-1.33-.51-1.88 0l-2.78 2.74c-1.14 1.14-2.74 1.14-3.88 0l-3.96-3.88c-.59-.55-.59-1.25 0-1.84l3.96-4a2.84 2.84 0 0 1 3.88 0l2.78 2.74c.55.67 1.25.67 1.88 0l2.78-2.74a2.84 2.84 0 0 1 3.88 0l3.96 4zm29.43-11.25c-2.7 0-5.02-1.14-6.82-2.86-1.92 1.72-4.54 2.86-7.33 2.86H400.7v-9.56h13.71c.31 0 .55-.2.55-.9v-25.15c0-1.06.98-2.39 2.23-2.78l4.7-1.57c1.45-.59 3.33.78 3.33 2.08v25.55c.47 1.65 1.96 2.78 3.33 2.78h2.43v9.56h-2.42zm-13.28-49.68c-1.1-1.02-1.1-2.9 0-3.76l3.92-4.11c.55-.51 1.25-.51 1.88 0l3.84 4.11c1.14.86 1.14 2.74 0 3.76l-3.84 3.92c-.63.39-1.33.39-1.88 0l-3.92-3.92zm37.82 15.67c3.57-5.88 10.74-10.97 17.16-10.97 4.78 0 9.36 1.88 12.34 4.9 3.17 3.29 4.78 7.72 4.78 12.46v14.3c0 7.13-6.23 13.32-13.71 13.32h-17.12c-3.45 0-6.74-1.33-9.17-3.33-2.31 2-5.64 3.33-9.09 3.33h-9.72v-9.56h9.72c1.96 0 4.54-1.84 4.54-3.76v-35.11c0-.94.98-2.47 2.35-2.78l4.82-1.57c1.49-.16 3.1 1.02 3.1 2.31v16.46zm24.01 6.39c0-4.94-2.66-7.8-6.86-7.8-9.01 0-17.16 12.11-17.16 14.65v7.44c0 2.16 1.65 3.76 3.45 3.76h17.12c1.84 0 3.45-1.61 3.45-3.76v-14.29zm50.17 18.06v9.56h-5.76c-.43 5.17-2.86 9.64-7.01 12.89-3.57 2.43-8.54 4.07-14.03 4.23-1.53 0-2.9-1.29-2.9-2.47v-4.51c0-.98 1.18-2.43 2.78-2.55 3.33-.2 5.92-.94 7.88-2.43 1.68-1.33 2.59-2.94 3.02-5.17h-6.27c-5.84 0-10.81-4.94-10.81-10.46v-9.17c0-11.52 9.6-21.43 21.47-21.98 1.1 0 2.16.63 2.66 1.06l2.23 2.23c.59.63 1.06 1.57 1.06 2.39v26.37h5.68zm-15.98-21.74c-3.96 2.04-6.86 6.7-6.86 11.68v9.17c0 .7.2.9.55.9h6.31v-21.75zm34.79-21.4c1.57-.55 3.33.82 3.33 2.04v37.34c0 3.06-1.29 6.03-3.49 8.42-2.59 2.86-7.13 4.9-11.32 4.9h-9.72v-9.56h9.72c1.96 0 4.54-1.84 4.54-3.76v-34.79c0-.74.82-2.55 2.04-3.06l4.9-1.53zm21.54 49.84c0 1.18-.98 2.35-2.19 2.78l-4.66 1.65c-1.61.55-3.41-.82-3.41-2.08v-47.76c0-1.02.9-2.43 2.04-2.9l5.17-1.61c1.45-.2 3.06 1.02 3.06 2.12v47.8zm67.34 2.86h-2.39c-2.94 0-5.68-1.53-7.64-3.61-2.47 2.23-5.92 3.61-9.36 3.61-7.4 0-13.71-6.35-13.71-13.32v-15.99c0-7.13 6.31-13.36 13.63-13.4 3.17-.08 6.11-.47 9.01-1.49 2.7-1.02 3.41.47 3.72 1.49l1.21 3.21c.71 1.8-.39 1.61-4.15 3.06 3.76 1.96 4 5.29 4 7.13v16.53c.31 1.84 1.8 3.21 3.29 3.21h2.39v9.57zm-30.91-52.93c-.63-.47-.63-1.06 0-1.65l3.96-3.8a2.6 2.6 0 0 1 3.8 0l2.82 2.74c.59.59 1.25.59 1.84 0l2.82-2.74a2.6 2.6 0 0 1 3.8 0l4 3.88c.59.59.59 1.25 0 1.88l-4 3.84c-1.06 1.18-2.74 1.18-3.8 0l-2.82-2.74c-.59-.55-1.25-.55-1.84 0l-2.82 2.74c-1.06 1.18-2.74 1.18-3.8 0l-3.96-4.15zm14.93 23.04c0-2.12-1.61-3.8-3.41-3.8-1.84 0-3.45 1.68-3.45 3.8v17.12c0 2.08 1.68 3.84 3.45 3.84 1.72 0 3.41-1.76 3.41-3.84v-17.12zm78.24 20.29v9.6h-2.39c-3.1 0-5.84-1.57-7.76-3.61-2.35 2.12-5.84 3.61-9.4 3.61h-17.12c-3.45 0-6.74-1.37-9.17-3.41-2.31 2.08-5.64 3.41-9.09 3.41h-9.72v-9.56h9.72c1.96 0 4.54-1.84 4.54-3.76v-23.31c0-.98.98-2.47 2.35-2.78l3.41-1.14.31-.08c1.41-.23 3.09 1.02 3.09 2.27v5.6c4.82-7.68 11.4-12.22 18.26-12.22 4.78 0 9.36 1.88 12.34 4.9 3.17 3.29 4.78 7.72 4.78 12.46v14.3c0 2.16 1.65 3.76 3.45 3.72h2.4zm-16.1-18.02c0-5.02-2.66-7.8-6.86-7.8-9.01 0-17.16 11.99-17.16 14.57v7.48c0 2.12 1.65 3.76 3.45 3.76h17.12c1.84 0 3.45-1.65 3.45-3.76v-14.25zm41.44 27.62c-2.7 0-5.02-1.14-6.82-2.86-1.92 1.72-4.54 2.86-7.33 2.86h-13.71v-9.56h13.71c.31 0 .55-.2.55-.9v-25.15c0-1.06.98-2.39 2.23-2.78l4.7-1.57c1.45-.59 3.33.78 3.33 2.08v25.55c.47 1.65 1.96 2.78 3.33 2.78H725v9.56h-2.43zm-13.28-49.68c-1.1-1.02-1.1-2.9 0-3.76l3.92-4.11c.55-.51 1.25-.51 1.88 0l3.84 4.11c1.14.86 1.14 2.74 0 3.76l-3.84 3.92c-.63.39-1.33.39-1.88 0l-3.92-3.92zm60.73 40.12v9.56h-2.43c-2.7 0-5.13-1.14-6.82-2.86-1.65 1.49-3.8 2.43-5.96 2.78-.9.08-2.15 0-2.9-.12l-8.85-2.04c-1.76 1.41-4.27 2.23-6.78 2.23h-13.71v-9.56h13.71c.31 0 .55-.2.55-.9v-25.15c0-.86.59-2.12 1.37-2.9l1.8-1.84c.51-.55 1.96-1.25 3.17-1.25 11.64.63 21.08 10.58 21.08 21.98v7.29c.43 1.65 1.96 2.78 3.33 2.78h2.44zm-16.06-10.07c0-4.98-2.94-9.99-6.86-12.22v21.39l-.04.43 6.35.47c.35 0 .55-.2.55-.9v-9.17zm34.73-33.07c1.57-.55 3.33.82 3.33 2.04v37.34c0 3.06-1.29 6.03-3.49 8.42-2.59 2.86-7.13 4.9-11.32 4.9h-9.72v-9.56h9.72c1.96 0 4.54-1.84 4.54-3.76v-34.79c0-.74.82-2.55 2.04-3.06l4.9-1.53zm21.54 49.84c0 1.18-.98 2.35-2.19 2.78l-4.66 1.65c-1.61.55-3.41-.82-3.41-2.08v-47.76c0-1.02.9-2.43 2.04-2.9l5.17-1.61c1.45-.2 3.06 1.02 3.06 2.12v47.8z" fill="#fff"/></svg>