<svg id="Layer_1" data-name="Layer 1" xmlns="http://www.w3.org/2000/svg" viewBox="0 0 477.92 640.11"><defs><style>.cls-1{fill:#8fb956;}.cls-2{fill:#306a69;}</style></defs><g id="Layer_2" data-name="Layer 2"><g id="Layer_1-2" data-name="Layer 1-2"><g id="ubupDt.tif"><path class="cls-1" d="M238.9.1a.8.8,0,0,0,.2.9c3,3.9,4.4,8.4,5.5,13.1.4,1.7.5,1.9,1.9.9,6.1-4.1,12.8-4.1,19.6-2.9,1.3.2,2.6.6,3.9.9.6.2,1.3.2,1.5,1.2-3.9,1.5-7.6,3.3-10.6,6.4.4,1,1.1.6,1.7.6,13.3-.1,25,4.4,35.7,11.9a87.89,87.89,0,0,1,19.5,19c2.3,3,4.4,6,6.7,9.1a1.13,1.13,0,0,1,.2,1.1c-1.7-.7-3-2.1-4.4-3.1a96.62,96.62,0,0,0-33.2-14.9,42.76,42.76,0,0,0-10.7-1.1,2.78,2.78,0,0,0-2.3.7A83.46,83.46,0,0,1,314,86.8a77.35,77.35,0,0,1,5.9,26.4c-1,0-.9-.7-1.2-1.2-5.4-10.5-12.5-19.6-20.6-28.2A94.9,94.9,0,0,0,282.2,70a41.34,41.34,0,0,0-9.5-5.1c-.3-.1-.6-.3-.9-.1-.2.6.2.9.5,1.2a104.9,104.9,0,0,1,13.4,22.9,91.69,91.69,0,0,1,5.4,17.6,94.45,94.45,0,0,1,1.8,21.2,119,119,0,0,1-1,13.3c-1.9-5.6-3.4-11.2-5.6-16.7s-4.6-10.7-7.2-15.9-5.3-10.3-8.4-15.3-6.2-9.8-10.4-13.8c5.2,24.2,4.8,48.3.2,72.9a11.56,11.56,0,0,1-.8-3.2,267.15,267.15,0,0,0-6.4-40.7,92.85,92.85,0,0,0-7-20.4,2.56,2.56,0,0,0-1-1.3,8.08,8.08,0,0,0-.5,3.1c-.7,5.7-1.3,11.4-2.1,17.1-.1,1.1-.3,1.8,1.2,1.9,1,0,.9,1,.9,1.7-.2,3.8-.3,7.7-.5,11.5-.3,5.5-.6,11-.8,16.5,0,.9-.3,1.9,1.2,2,.9,0,.7.9.7,1.5,0,1.8-.1,3.5-.2,5.3-.4,5.3-.8,10.7-1.1,16-.2,2.9-.3,5.7-.6,8.6-.2,1.6-.1,1.7,1.6,1.7,1.1,0,1.4.4,1.3,1.4q-.9,7.95-1.5,15.9c-.4,5-.8,10-1.4,15a2.12,2.12,0,0,0,1.3,2.5,27.75,27.75,0,0,1,5.2,3.8,5.2,5.2,0,0,1,2,2.4c.5,1.6,0,2.4-1.7,2.4h-25c-.7,0-1.6.4-1.9-.6a2.3,2.3,0,0,1,.6-2.6,38.55,38.55,0,0,1,6.6-5.5,2.55,2.55,0,0,0,1.4-2.7c-.4-4.8-.8-9.7-1.2-14.6s-.9-10-1.5-15c-.1-1.1.2-1.8,1.2-1.9,1.5-.2,1.5-1,1.4-2.2-.4-5.1-.7-10.2-1.1-15.3-.3-4.6-.7-9.2-1.1-13.8-.1-1,.1-1.6,1.2-1.6s1.4-.5,1.3-1.5c-.2-4.6-.4-9.2-.6-13.9-.2-5-.5-10-.8-15.1,0-.8,0-1.7,1-1.9s.9-1,.8-1.7c-.9-6.5-1.9-13-2.8-19.4a5.36,5.36,0,0,0-.5-1.1,152.33,152.33,0,0,0-6.3,20.9c-1.8,7-3.1,14-4.2,21.1s-1.6,14.3-2.4,21.5a44.61,44.61,0,0,1-3.4-9.9,113.1,113.1,0,0,1-2.3-19.2A135.13,135.13,0,0,1,214.2,85c.3-1.2.6-2.3.9-3.5,0-.3-.1-.6-.1-.8A116.32,116.32,0,0,0,195.7,108a112.79,112.79,0,0,0-11,31.4c-.8,0-.8-.4-.9-.8a60.51,60.51,0,0,1-1.1-25.4c2.4-14.6,8.3-27.8,15.6-40.5,1.1-1.9,2.2-3.7,3.4-5.5.2-.4.7-.7.3-1.5-1.2.6-2.5,1.2-3.7,1.8a93.14,93.14,0,0,0-26,22,181.15,181.15,0,0,0-16.2,22.8c-.3.5-.5,1.2-1.5,1.4.7-3.2,1.2-6.3,2-9.4,2.9-12.4,7.5-24.1,14.8-34.6A71.91,71.91,0,0,1,200.5,45c.5-.2,1.1-.2,1.3-1.1a10.23,10.23,0,0,0-3.9-.5,49.37,49.37,0,0,0-13.8,1.3,71.68,71.68,0,0,0-21.3,8.6,80.12,80.12,0,0,0-7.5,5.5c-.5.4-.9,1-1.7.5a1.35,1.35,0,0,1-.4-2.2c2-2.7,4-5.4,6-8a77.22,77.22,0,0,1,13.6-13.8,59.52,59.52,0,0,1,21.6-10.5A81.23,81.23,0,0,1,214,22.1c.2-.1.4-.1.6-.2-.9-2.1-2.8-3.1-4.5-4.4s-3.7-1.6-5.9-2.7a22,22,0,0,1,13-3.3,22.89,22.89,0,0,1,12.4,4.3,3.73,3.73,0,0,0,1-2.3,41.87,41.87,0,0,1,2.3-6.8A16.21,16.21,0,0,1,237.8,0h1.1Z"/><path class="cls-1" d="M223.6,410.7c0-.9-.7-.7-1.2-.7a199.37,199.37,0,0,1-30.7-4.5,220.16,220.16,0,0,1-76.2-32.2A223.83,223.83,0,0,1,23.9,246.4a219.11,219.11,0,0,1-6.2-31.9c-.8-7.2-1.3-14.5-1.5-21.7-.2-6.6.4-13.2.7-19.8.2-4.6.5-9.2.8-13.9.1-2.1.1-2.1,2.2-2.1H47.2c1.4,0,2.9-.1,4.3-.1,1,0,1.3-.4,1.2-1.3V111.7c-.1-1,.3-1.5,1.3-1.5h1.2a1.16,1.16,0,0,0,1.3-1.3c-.1-1.5,0-3,0-4.6,0-1.1.4-1.5,1.6-1.5H72.5a1.54,1.54,0,0,1,1.5,1c1.1,1.8,2.3,3.7,3.3,5.5a2.37,2.37,0,0,0,2.7,1.5c1.7-.1,3.4,0,5,0,1.9,0,1.9.1,2,2.1v54.9c0,2.6,0,2.6,2.5,2.6h2.6c1.6,0,1.7.1,1.8,1.8v5.7c.1.7.6.9,1.2.9a1,1,0,0,0,1-.8V132.1c0-.8.4-1.2,1.2-1.1h25.2c1.9,0,2,0,2,2v8.4c0,1.8.1,1.9,1.9,1.9h5.5c1.8,0,1.9.1,1.9,1.9v18.5c0,2.5,0,2.5,2.5,2.5h10.3c2.5,0,2.6,0,2.6-2.5V145.5c-.1-1,.3-1.5,1.4-1.5H152c5.7,0,11.3,0,17-.1a2.35,2.35,0,0,1,2.2,1c1.9,2.5,3.9,5.1,5.9,7.5a4.28,4.28,0,0,1,.8,2.9v22.1c0,.9.4,1.4,1.3,1.4h39.3c2.3,0,2.4,0,2.4,2.4,0,4.6.5,4.1-4.1,4.1H173.9c-2.7,0-2.7,0-2.7-2.6V158a8,8,0,0,0-8.5-7.5h-.5a28.05,28.05,0,0,1-4.1,0c-2.4,0-2.4,0-2.4,2.4v26.2c0,1-.5,1.4-1.5,1.4-2,0-4-.1-6,0-1.2,0-1.6-.5-1.5-1.6v-3.8c0-2.3,0-2.3-2.2-2.3H128.4c-1,0-1.5-.4-1.4-1.5V152.1c0-2.4,0-2.4-2.4-2.4h-3.8c-3.2,0-3.2.4-3.2-3.1v-7.2c0-1.9,0-1.9-1.8-1.9h-11c-1.9,0-1.9.1-2,1.8v44.3c0,1-.3,1.5-1.4,1.5h-13c-1.1,0-1.3-.6-1.3-1.5v-5.3c0-1-.4-1.4-1.4-1.4H81.6c-1.1,0-1.6-.4-1.6-1.6V118.7c.1-1.2-.5-1.6-1.6-1.5h-.5c-2.9.7-4.6-.8-5.7-3.3a4.73,4.73,0,0,0-.7-1.2c-2.2-3.6-3.2-4-7.4-3.4a1,1,0,0,0-1.1,1v4.5c0,1.7,0,1.7-1.7,1.8h-1a1.06,1.06,0,0,0-1.2,1.2v44.4a1.07,1.07,0,0,1-1.1,1.2H25.9c-2,0-2,0-2.1,2-.2,3.2-.5,6.4-.6,9.6-.2,5.5-.8,11-.6,16.5.1,6.6.5,13.1,1.2,19.6.6,5.2,1.2,10.3,2.2,15.4a213.89,213.89,0,0,0,37.1,87,226.39,226.39,0,0,0,18.8,22.7,217.32,217.32,0,0,0,108.8,62.3,219.6,219.6,0,0,0,31.2,4.7,198.82,198.82,0,0,0,24.4.6,236.47,236.47,0,0,0,23.8-2.2,204.61,204.61,0,0,0,37.1-8.9,219.36,219.36,0,0,0,85.6-53.4,217.07,217.07,0,0,0,57-103.8,223.67,223.67,0,0,0,4.2-25.8c.6-6,.8-12,1.2-17.9v-1.9a1.07,1.07,0,0,0-1.1-1.2H435.6c-2.5,0-2.5,0-2.5-2.5V153.3c0-2.8,0-2.8-2.7-2.8h-8.6c-1.8,0-1.9,0-1.9-1.8V132.8c-.1-1.7-.1-1.8-1.8-1.8H406.3c-1.4-.1-1.6-.3-1.6-1.8,0-1.8,0-3.5.1-5.3,0-1-.4-1.5-1.4-1.5H387.6c-.9,0-1.4.5-1.2,1.4.6,3.3-.8,5.9-3.1,8-.8.8-.7,1.7-.7,2.7v32.2c0,.8-.4,1.1-1.2,1.1H364.6c-1.1,0-1.3-.6-1.2-1.5,0-7-.2-14.1.2-21.1.2-4.1-2.4-6-4.6-8.4a2.32,2.32,0,0,0-1.8-.4H350c-1.8,0-1.9-.1-1.9-2v-5.3c0-1.8-.1-1.7-1.8-1.8h-7.9c-1.9,0-1.9.1-1.9,2.1v52.8c0,2.6,0,2.6-2.6,2.6H319.3c-2.3,0-2.3-.1-2.3-2.3V165.7c0-2.1,0-2.1-2.2-2.1H302.1c-2,0-2,.1-2,2v17c0,2.2,0,2.2-2.1,2.2H255.8c-.7,0-1.2-.3-1.2-1.1v-.2c.1-6.1-.9-5.1,4.7-5.1,10.6-.1,21.3,0,31.9-.1,2.2,0,2.2,0,2.3-2.2V159.3c0-2.4,0-2.4,2.3-2.4h25.9c2,0,2.1.1,2.1,2.2v16.8c0,2.5,0,2.5,2.6,2.5,4.1,0,3.6.4,3.6-3.6V123.5c0-2.6,0-2.6,2.6-2.6h19.9c2.5,0,2.5,0,2.5,2.6v3.6c0,2.6,0,2.6,2.7,2.6h1.2c2.2-.4,3.6.6,4.9,2.2,1.7,2,3.5,4,5.3,5.9a4.14,4.14,0,0,1,1.2,3.2c-.1,6,0,12,0,18,0,2.2,0,2.3,2.2,2.3,4,0,3.5.4,3.5-3.4V132.5a4.72,4.72,0,0,1,1.6-4.1,6.15,6.15,0,0,0,2.3-5.9c-.2-1.7,0-3.3-.1-5,0-.9.4-1.3,1.3-1.3h28.3c2.1,0,2.2.1,2.2,2.1v4.3c0,1.6.2,1.8,1.8,1.8h11c2.4,0,2.4,0,2.4,2.4v15.1c0,2,0,2,2,2h8.9c2.1,0,2.1,0,2.1,2.2v34.3c0,1.5,0,1.6,1.6,1.6h19.2c1-.1,1.5.4,1.4,1.4v5.3c0,6.5-.3,12.9-.9,19.4a177,177,0,0,1-2.4,17.8c-1.1,6.3-2.4,12.5-4,18.7a222.21,222.21,0,0,1-50.5,92.9,227.2,227.2,0,0,1-46.4,38.9,244.6,244.6,0,0,1-29.9,15.9,198,198,0,0,1-28,9.9c-7.8,2.2-15.7,4-23.6,5.4-5.9,1-11.8,1.7-17.8,2.4-.6.1-1.5-.3-1.6.8h-.5c-.7-1-1.3-1-1.9,0Z"/><path class="cls-1" d="M43.9,217c4.7-.9,9.3-1.9,14-2.8,5.8-1.1,11.6-2.1,17.5-2.9,6.5-.8,13-1.3,19.6-1.5a219.33,219.33,0,0,1,29.2,1.1,215.1,215.1,0,0,1,27.8,4.7,203.83,203.83,0,0,1,27.6,8.3,204,204,0,0,1,28.6,13.9,320.49,320.49,0,0,1,29.6,19.4c2.1,1.6,1.5,1.6,3.6-.1a199.52,199.52,0,0,1,79.3-40.4,214,214,0,0,1,41.3-6.5c8.1-.5,16.3-.5,24.4-.2a201.4,201.4,0,0,1,32,4c5.1,1.1,10.3,1.9,15.5,2.8.1,0,.2.2.5.4a3.4,3.4,0,0,1-2,.3c-8.7.3-17.4.4-26.1.9-6.5.3-13,.9-19.6,1.6-6.9.8-13.8,1.7-20.6,2.9-6.6,1.1-13.1,2.6-19.6,4.2s-12.7,3.4-18.9,5.5a214.76,214.76,0,0,0-37.7,16.6,200.33,200.33,0,0,0-20,12.9,156.64,156.64,0,0,0-14,11.6c-1.1,1-1.1,1.1.1,2.2,3.8,3.5,7.6,7.1,11.4,10.6l15.1,14a19.42,19.42,0,0,0,3.1,2.6c.9-.8.9-1.8,1.3-2.6a52.58,52.58,0,0,1,3.2-8.3c3.4-6.2,8.8-9.3,15.6-10.6,7.4-1.4,16.1,4.3,17.3,13.1a13.77,13.77,0,0,1-3.9,11.4c-4.5,4.9-10.2,5.5-16.3,4-1.2-.4-2.4-.8-3.6-1.3s-1.7-.2-2,1.1a4,4,0,0,0,1.3,3.5,25.8,25.8,0,0,0,8.9,6.8c.1,0,.1.1.2.1,2.2,1.4,3.9,1.3,6.3-.5a15.22,15.22,0,0,1,24,8.9c1.3,5.6-1.6,12.5-7.7,14.9-7.1,2.8-14.3,2.6-21.5.3-7.9-2.5-14.7-6.9-21.3-11.7-.3-.2-.5-.4-.8-.6-1.5-1-1.5-1-2.6.3-5.1,6-11.2,10.7-19,12.7-7.6,2-14.4.6-19.9-5.3a13,13,0,0,1-3-14c2.1-6,6.4-9.9,12.9-10.7a16.25,16.25,0,0,1,11.1,2.9,7.69,7.69,0,0,1,3.9,7,1.42,1.42,0,0,0,.2.6c.8.1,1.2-.5,1.7-.8a1.52,1.52,0,0,0,.5-2.2c-.1-.1-.1-.2-.2-.3a58.89,58.89,0,0,0-7.5-9.6c-4.5-4.8-9.7-8.8-14.8-12.9-3.2-2.6-6.6-5.1-9.7-7.9-1.3-1.2-1.3-1.1-2.7.1-4.3,3.6-8.8,7.2-13.1,10.8-7,5.8-13.8,11.9-19.1,19.4-1.4,1.9-1.1,1.9.8,3.2,1.2.9,1.7.6,2.2-.9a16.91,16.91,0,0,1,1.5-4.3,6.46,6.46,0,0,1,3.4-3.1c3.7-1.5,7.5-2.4,11.5-1.6,5.4,1.2,8.7,4.9,10.6,9.8,2.8,7.3-.3,14.6-7.3,18.1-6.5,3.2-13,3-19.6.2a36.23,36.23,0,0,1-13.6-9.9c-.4-.4-.7-.9-1.1-1.3-1.2-1.4-1.3-1.4-2.7-.3a72.07,72.07,0,0,1-7.2,5.1,62.7,62.7,0,0,1-16.5,7.9,37.87,37.87,0,0,1-14.2,1.5c-7.2-.9-12.2-5.4-12.9-13.2a15.2,15.2,0,0,1,4.5-12.4c4.5-4.9,12.9-5.1,18.3-1.5a8.34,8.34,0,0,1,2.1,1.6,2.35,2.35,0,0,0,3.2.6c3.7-1.7,7.2-3.5,10-6.5.6-.7,1.2-1.5,1.8-2.2a3.16,3.16,0,0,0,.1-3.6c-.4-.8-.8-1-1.7-.6a25,25,0,0,1-7,2.3c-8,1-14.1-3.4-16-11.4a13.84,13.84,0,0,1,4.7-14.2c4.4-4,9.6-4.7,15.2-2.7a32.8,32.8,0,0,1,8.7,5c3.1,2.5,4.6,6,5.9,9.7.7,2,1.1,4.1,2.3,6.1a24.38,24.38,0,0,0,4.6-3.9c8.3-7.7,16.6-15.4,24.9-23.2,1.3-1.2,1.3-1.2.1-2.4a185.83,185.83,0,0,0-28.1-21.1,217.37,217.37,0,0,0-39.3-18.6c-7.4-2.6-15-4.9-22.6-6.8-6.6-1.7-13.2-3.1-19.8-4.3q-13.5-2.4-27-3.6c-7.7-.7-15.4-1.1-23.2-1.3l-16.5-.6c-.5,0-.9-.1-1.4-.1ZM89,214.6a2.73,2.73,0,0,0,1.9.8c1.8.1,3.7.4,5.5.6a273.24,273.24,0,0,1,31.1,5.4,276.27,276.27,0,0,1,30.7,9,229.43,229.43,0,0,1,23.9,10.3,199.54,199.54,0,0,1,31.4,19.7c5.4,4.2,10.4,8.7,15.4,13.3.8.8.8,1.2,0,1.9-1.4,1.2-2.7,2.5-4.1,3.7-10.3,9.6-20.7,19.3-31.1,28.9a10.86,10.86,0,0,1-2.6,2.2,23.4,23.4,0,0,1-3.9-7.1c-.8-2.4-1.6-4.7-2.4-7a12.62,12.62,0,0,0-4.1-5.8,27.41,27.41,0,0,0-7.7-4.2,10.63,10.63,0,0,0-10.9,3c-4.8,5.7-2.1,12.1,1.7,15.3a7.28,7.28,0,0,0,6.5,1.5,43.45,43.45,0,0,0,7.2-2.4c2.4-.9,3.7-.5,5.4,1.3,1.9,2,3.1,6.8,1,9.8a21.05,21.05,0,0,1-3.9,4.5,37.77,37.77,0,0,1-12.2,6.9c-2.9,1.1-2.8,1-4.8-1.2a11,11,0,0,0-12.6-3.2c-4.2,1.8-6.4,7.1-5.9,10.9a10.05,10.05,0,0,0,9.4,8.9,36.1,36.1,0,0,0,10.9-1.1,58,58,0,0,0,18.8-9.3c3-2.1,5.9-4.4,8.8-6.6.9-.7,1.4-.6,1.9.3.2.3.3.5.5.8a32.05,32.05,0,0,0,16,13.5c5.8,2.3,11.4,2.1,16.7-1.5a9,9,0,0,0,4.2-7.9A10.49,10.49,0,0,0,220,319.4a24.61,24.61,0,0,0-3.9.9,4.12,4.12,0,0,0-3,3.1,29.07,29.07,0,0,1-1.2,3.9c-.9,2.3-2.3,3-4.7,2.7a9.26,9.26,0,0,1-5.6-2.9c-2.4-2.4-2.5-4.5-.6-7.3A92.06,92.06,0,0,1,216.6,303c6.9-6,14.3-11.5,21-17.8,1.2-1.1,1.3-1.1,2.5,0,4.9,4.4,10.1,8.4,15.2,12.5,5.3,4.3,10.6,8.5,15,13.7a61.66,61.66,0,0,1,6.9,9.8,3.38,3.38,0,0,1,.3,3.6,10.24,10.24,0,0,1-8.2,5.5,3.3,3.3,0,0,1-3.6-2.7v-2.3a4.1,4.1,0,0,0-1.8-3.7,11.67,11.67,0,0,0-9-2.3c-4.5.8-7.2,3.8-8.6,8.1a8.27,8.27,0,0,0,1.7,8.1c4,4.8,9.2,6.4,15.3,4.9a31.25,31.25,0,0,0,11.5-5.8,36.26,36.26,0,0,0,8.6-9.3c.9-1.4,1-1.4,2.3-.4,1.6,1.2,3.1,2.5,4.7,3.6,5.8,4.4,11.9,8.3,18.9,10.7,6.1,2.1,12.3,2.6,18.5.4a8.62,8.62,0,0,0,4.6-3.6c4.2-7-1.7-13.6-7.1-14.4-4.6-.7-8.5.5-11.2,4.6a1.67,1.67,0,0,1-2.1.9c-.1,0-.1-.1-.2-.1a79.12,79.12,0,0,1-7.9-3.5,28,28,0,0,1-8.7-7c-2.8-3.4-3.1-6.8-1-10.6,1.5-2.6,3.1-3.2,5.8-1.8a18.88,18.88,0,0,0,6,2.2c4.2.6,7.8-.4,10.5-3.8,2.4-3.2,3.1-6.7,1.1-10.3-2.1-3.9-5.3-6.3-9.8-6-6.3.5-11.2,3.5-14,9.3a74.12,74.12,0,0,0-2.8,7.9,19.62,19.62,0,0,1-4,7.2,2.19,2.19,0,0,1-.5-.3l-29.7-27.5c-2.5-2.3-4.9-4.6-7.4-6.9-.9-.8-.9-1.4,0-2.1,1.3-1.1,2.6-2.3,3.9-3.5a183.11,183.11,0,0,1,43.6-29.8,243.35,243.35,0,0,1,59.9-20.3,244.42,244.42,0,0,1,30.5-4.7c.4,0,1,0,1.1-.8-.4,0-.8-.1-1.2-.1a214.64,214.64,0,0,0-26.6.2c-6.8.5-13.5,1.2-20.2,2.3a210,210,0,0,0-51.1,15.4,187.21,187.21,0,0,0-20.8,10.9,177.67,177.67,0,0,0-19.7,13.7,94.54,94.54,0,0,0-7.7,6.5,1.23,1.23,0,0,1-1.9.1c-.4-.3-.8-.5-1.2-.8a311.66,311.66,0,0,0-30.8-20.6,187.27,187.27,0,0,0-39.8-17.9c-6.4-2-12.8-3.6-19.4-5-5.2-1.1-10.5-2.1-15.8-2.9-4.3-.6-8.7-1.1-13.1-1.5-4.1-.4-8.3-.5-12.4-.7A173.25,173.25,0,0,0,89,214.6Z"/></g></g></g><path class="cls-2" d="M299.7,453.6a3.24,3.24,0,0,1,3.2-3.3,3.55,3.55,0,0,1,3.3,3.3,3.38,3.38,0,0,1-3.6,3.2h-.1A3,3,0,0,1,299.7,453.6Z"/><path class="cls-1" d="M0,617.5c1.1,0,2.1-.1,3.1-.1s1.1,0,1.4,1c1.3,4.3,2.6,8.6,3.9,12.8,0,.2.2.4.4.6.4-.1.4-.4.4-.7,1.3-4.1,2.6-8.3,3.9-12.5.4-1.2.4-1.2,1.6-1.2h1.6c1,0,1,0,1,1.1v15.3c0,1-.1,1-1,1.1h-.7c-.6,0-.8-.3-.8-.9V621.7a3.81,3.81,0,0,0-.8,1.7c-1.1,3.4-2.1,6.8-3.2,10.2-.4,1.3-.4,1.3-1.8,1.3H8.6c-1.4,0-1.3,0-1.7-1.2-1.1-3.6-2.3-7.3-3.4-10.9a1.61,1.61,0,0,0-.4-.7c-.4.3-.2.7-.2,1.1v10.5c0,1.4,0,1.3-1.5,1.3-.4,0-.9-.3-1.3,0V617.5Z"/><path class="cls-2" d="M107.9,583.2H58.4a19.53,19.53,0,0,1-3.4-.3,9.09,9.09,0,0,1-6.5-8.2c-.2-8.9,0-17.8-.1-26.7v-6.9c0-1.2,0-1.2,1.3-1.2h3.9c.9,0,1,.1,1,1v31.4a14.77,14.77,0,0,0,.1,2.1,3,3,0,0,0,2.6,2.8,8.08,8.08,0,0,0,1.6.1H93.5c.5,0,.7-.2.7-.7V563.2a8.52,8.52,0,0,0-.3-2.3,3.46,3.46,0,0,0-2.9-2.4,8.08,8.08,0,0,0-1.6-.1H75.3c-.9,0-1-.1-1-1v-8.1a8.15,8.15,0,0,1,.6-3.1,7.85,7.85,0,0,1,5.7-5.7,13.86,13.86,0,0,1,4-.6h9.8c1.3,0,1.3,0,1.3,1.3v3.7c0,1,0,1-1,1.1H84.4a3.71,3.71,0,0,0-4,4.3v.7c0,1.5,0,1.4,1.5,1.4h8.3a10.3,10.3,0,0,1,4.6,1,8.35,8.35,0,0,1,4.8,6.4,18.4,18.4,0,0,1,.4,4.1V576c0,1.3,0,1.3,1.3,1.3h28.1a.56.56,0,0,0,.6-.5V553.7c0-1.1,0-1.1,1.2-1.2h3.9c.7,0,1,.2,1,.9v23.1c0,.6.2.8.8.8h8.7c.5,0,.7-.2.7-.7V553.3c0-.6.2-.9.8-.9h4.2c.9,0,1,.1,1,1.1V576c0,1.1,0,1.1,1.1,1.1a28.89,28.89,0,0,0,5.9-.2,3.43,3.43,0,0,0,3.1-3.2V553.8c0-1.5,0-1.5,1.5-1.5h3.7c.6,0,.8.2.8.8v20a9.94,9.94,0,0,1-2.2,6.6,9.6,9.6,0,0,1-7.4,3.4c-1.2.1-2.4,0-3.6,0Z"/><path class="cls-2" d="M244.3,514.2c1.1-.1,2.3-.1,3.5-.2a12.86,12.86,0,0,0,5.7-1.6,7.85,7.85,0,0,0,3.9-6.7c.1-2.3.1-2.3-2.1-2.3h-4.5a11.6,11.6,0,0,1-5.7-1.8,8.53,8.53,0,0,1-3.6-5.6,18.41,18.41,0,0,1-.3-3.3v-10a10,10,0,0,1,1.9-6.3,8.82,8.82,0,0,1,5.5-3.5,15,15,0,0,1,3.7-.3h9.8c1.4,0,1.4,0,1.4,1.5v22.5c0,.9.1,1,1,1,1.7,0,3.4.1,5.1.1h12.9c1.4,0,1.4,0,1.4-1.5V473.5a.53.53,0,0,1,.6-.6H289c.5,0,.7.2.7.7v23.2c-.1.6.2.9.8.9h8.7c.7,0,.8-.3.8-.9V474.1c0-1.2,0-1.2,1.2-1.2h3.9c1,0,1,.1,1,1.1v22.6c0,1.1,0,1.2,1.2,1.2H315c1.3,0,1.3,0,1.3-1.3V473.8c0-.6.2-.8.8-.8h4.5c.6,0,.8.2.8.8V497c0,.5,0,.8.6.8a27.85,27.85,0,0,0,5-.1c2.4-.4,3.2-1.3,3.4-3.7.1-1.5.1-3,.1-4.5V461.2c0-.5.2-.6.6-.6h4.7a.53.53,0,0,1,.6.6v33.2a8.72,8.72,0,0,1-5.2,8.5,12.88,12.88,0,0,1-5.1,1H268c-1.1,0-2.2-.1-3.3-.1s-1.2,0-1.2,1.1a29.56,29.56,0,0,1-.6,5.1c-1.2,5-4.4,7.8-9.2,9.1a26.38,26.38,0,0,1-4.9.8,1,1,0,0,1-1.1-.5c-1.1-1.5-2.1-2.9-3.2-4.3C244.2,514.6,244.2,514.4,244.3,514.2Zm13.1-26.1h0v-8.4c0-.9-.1-1-.9-1-1.9,0-3.8,0-5.7.1s-3.1,1.1-3.5,3.2a4.87,4.87,0,0,0-.1,1.2v9.9a5.7,5.7,0,0,0,.1,1.3c.4,2,1.1,2.7,3.1,3a36.22,36.22,0,0,0,5.7.2c1.3,0,1.3-.1,1.3-1.4Z"/><path class="cls-2" d="M86.2,503.5H52.6a.44.44,0,0,1-.6-.4v-5a.68.68,0,0,1,.4-.6H69a.8.8,0,0,0,.9-.9v-3.4c0-2.4.1-4.8-.1-7.2-.5-4.5-2.8-6.7-7.3-7.2-1.4-.1-2.8,0-4.2-.1-1.1,0-1.1,0-1.1-1.1v-4c0-.5.1-.9.7-.9,2.9.1,5.9-.3,8.7.8a13.29,13.29,0,0,1,8.8,9.7,16.41,16.41,0,0,1,.4,4.4v8.7c0,1.2,0,1.2,1.2,1.2h7.8c1.3,0,1.3,0,1.3-1.3V461.6c0-1.3-.1-1.3,1.3-1.3h3.7c.7,0,.9.3.9.9V496c0,1.7-.2,1.6,1.5,1.6H106a.63.63,0,0,0,.7-.7V473.6a.63.63,0,0,1,.7-.7H112a.56.56,0,0,1,.6.5h0V497a.44.44,0,0,0,.4.6h.2c2.3-.1,4.7.3,7-.3a3.11,3.11,0,0,0,2.4-2.4,5.54,5.54,0,0,0,.2-1.8V461c0-.4.2-.7.6-.7h4.7c.4,0,.7.2.6.6v33c0,3.4-1.2,6.3-4.3,8.1a11.45,11.45,0,0,1-6.1,1.4Z"/><path class="cls-2" d="M361.2,594.1a26.32,26.32,0,0,0,3.5-1.5,6.64,6.64,0,0,0,3.7-5.4c.2-1,.2-2,.3-3V553.3c0-.6.2-.9.9-.9H374c.5,0,.7.2.7.7v23.1c0,.9.1,1,1,1h7.8c1.2,0,1.3,0,1.3-1.2V562.7a13.59,13.59,0,0,1,.9-4.8,8.59,8.59,0,0,1,6.2-5.2,13.17,13.17,0,0,1,3.4-.4h10.3c1.5,0,1.5,0,1.5,1.5v22.1c0,1.3,0,1.3,1.3,1.3h13.3a8.08,8.08,0,0,0,3.1-.5,2.71,2.71,0,0,0,1.8-2.3,10.55,10.55,0,0,0,.2-2.5V541.4c0-2,0-1.6,1.7-1.6h3.4c.6,0,.9.2.9.8v32.2a12.21,12.21,0,0,1-.6,4.2,8.49,8.49,0,0,1-6.7,5.8,13.94,13.94,0,0,1-4.1.3H377.8c-1,0-2.3-.4-2.9.2s-.2,1.9-.2,2.9a14.74,14.74,0,0,1-1.5,6.5c-1.5,3.1-4.1,5-7.1,6.4a.65.65,0,0,1-.9-.2Zm39.6-26.3v-8.4c0-.6-.1-1-.9-1-2,.1-3.9-.1-5.9.1a3.73,3.73,0,0,0-3.2,2.9,16.2,16.2,0,0,0-.1,2.2v12.5c0,1,0,1.1,1,1.1h8.1c1.1,0,1.1-.1,1.1-1.1-.1-2.8-.1-5.5-.1-8.3Z"/><path class="cls-2" d="M288.3,579.8c-.8,1-1.4,1.9-2.1,2.8a1.1,1.1,0,0,1-1,.6c-2.3,0-4.6.1-6.9-.8a8.7,8.7,0,0,1-5.8-7.1,15.14,15.14,0,0,1-.2-3v-9.2a11.55,11.55,0,0,1,1.1-5.5,9,9,0,0,1,6.3-4.9,12.31,12.31,0,0,1,3.3-.3h10.3c1.3,0,1.3,0,1.3,1.3v22.4c0,1.2,0,1.1,1.2,1.2,5.9.2,11.8.1,17.7.1.7,0,1.3-.1,2-.1a3.34,3.34,0,0,0,3.3-3.6V553.8c0-1.1,0-1.1,1.1-1.1h4c1,0,1,0,1,1v3.9c0,5.4.1,10.8,0,16.2s-2.8,8-6.8,9.3a11.15,11.15,0,0,1-3.1.5H289.8c-1.1,0-1.1,0-1.1-1.2a13.4,13.4,0,0,0-.1-2C288.5,580,288.5,580,288.3,579.8Zm.3-12h0v-8.5c0-.6,0-1-.7-1-2.1.1-4.2-.2-6.3.1a3.29,3.29,0,0,0-2.9,2.6,7.77,7.77,0,0,0-.2,1.6v10.1a4.68,4.68,0,0,0,.5,2.6,3.76,3.76,0,0,0,3.3,1.8h5.3c1,0,1,0,1-1v-8.3Z"/><path class="cls-2" d="M16.8,500.2a6.86,6.86,0,0,0-2,2.3,2.18,2.18,0,0,1-2.1,1,20.87,20.87,0,0,1-6.1-.8,8.48,8.48,0,0,1-5.7-6.3A13.17,13.17,0,0,1,.5,493v-9.9A10.34,10.34,0,0,1,3,475.8a8.76,8.76,0,0,1,5.4-2.9,24.33,24.33,0,0,1,3.8-.3h9.2c1.3,0,1.3,0,1.3,1.3v22.4c0,1.2,0,1.2,1.2,1.2H33a5.93,5.93,0,0,0,2.3-.5,2.92,2.92,0,0,0,1.9-2.5,10.87,10.87,0,0,0,.1-1.8V474c0-1.3,0-1.3,1.3-1.3h3.7c.9,0,.9,0,1,1V493a12.48,12.48,0,0,1-.9,5.1,8.64,8.64,0,0,1-5.8,4.9,13.72,13.72,0,0,1-4,.5H17.7q-1.05.15-.9-.9Zm0-12.2h0v-8.3c0-1,0-1-1-1.1h-5c-2.5,0-3.8,1.4-4,3.4a5.7,5.7,0,0,0-.1,1.3v9.5a7.61,7.61,0,0,0,.3,2.1,2.85,2.85,0,0,0,1.9,2.2,5.87,5.87,0,0,0,2.3.4h4.6c1,0,1,0,1-1.1Z"/><path class="cls-2" d="M213.5,514.2a20.67,20.67,0,0,0,4.3-.2,13.91,13.91,0,0,0,4.4-1.3c3-1.4,4.3-4,4.4-7.2.1-2.4.2-2.1-2-2.1a46.88,46.88,0,0,1-5.3-.1c-5.8-.6-8.5-4.1-8.8-8.8a95.45,95.45,0,0,1,0-13.1,8.74,8.74,0,0,1,5.7-8.1,12.4,12.4,0,0,1,4.6-.8h10.6c1.3,0,1.3,0,1.3,1.3v30.5a20.52,20.52,0,0,1-1,6.5c-1.4,4.3-4.4,6.7-8.6,7.8a21,21,0,0,1-5,.9c-.4,0-.8.1-1.1-.3l-3.6-4.8Zm13.1-26.1h0v-8.4c0-.7-.2-1-.9-1-1.9,0-3.8-.1-5.7,0s-3.4,1.1-3.5,3.2c-.2,4.1-.2,8.3,0,12.4v.3a2.79,2.79,0,0,0,2.5,2.6,26.64,26.64,0,0,0,6.3.3c1.2,0,1.2,0,1.2-1.2.2-2.7.1-5.5.1-8.2Z"/><path class="cls-2" d="M355.6,569.3v15.2a19,19,0,0,1-1.1,6.3,10.79,10.79,0,0,1-6.8,7,20.21,20.21,0,0,1-6.9,1.4,1.07,1.07,0,0,1-1.2-.6c-1-1.3-1.9-2.6-2.9-3.9-.2-.2-.4-.4-.3-.7s.5-.2.7-.2a25.7,25.7,0,0,0,6.2-.8,8,8,0,0,0,5.3-4.2,11.6,11.6,0,0,0,.8-5.2c0-.6-.4-.6-.8-.6h-5.4a11,11,0,0,1-6.1-1.9,8.54,8.54,0,0,1-3.7-7c-.1-4.4-.2-8.8,0-13.2a9,9,0,0,1,7.4-8.6,16.28,16.28,0,0,1,3.1-.3h10.5c1.2,0,1.2,0,1.2,1.2Zm-6.2-1.6v-8.3c0-.5.1-1-.7-1-2,.1-4.1-.1-6.1.1s-3.3,1.4-3.3,3.5c-.1,3.9,0,7.7,0,11.5,0,2.1.9,3.3,3.4,3.5a54.21,54.21,0,0,0,5.7.1c.9,0,.9,0,.9-1C349.4,573.3,349.4,570.5,349.4,567.7Z"/><path class="cls-2" d="M233.2,594l2.9-.2a15.77,15.77,0,0,0,5.6-1.3c3.1-1.4,4.4-4,4.5-7.3,0-2.5.1-1.9-1.9-2h-4.5a11,11,0,0,1-6.7-2.4c-2.3-2-3-4.6-3.1-7.4q-.15-5.55,0-11.1c.1-3.4,1.2-6.3,4.2-8.3a10.56,10.56,0,0,1,5.7-1.7H251c1.3,0,1.3,0,1.3,1.3v27.2c0,1.9,0,3.8-.1,5.7a18,18,0,0,1-1,4.6,11.25,11.25,0,0,1-7.6,7.1,18.83,18.83,0,0,1-6.2,1.1,1.09,1.09,0,0,1-.9-.4c-1.1-1.5-2.1-2.9-3.2-4.3A.47.47,0,0,1,233.2,594Zm13.1-26.2h0v-8.5c0-.6-.1-1-.8-1-1.9,0-3.8-.1-5.7,0-2.9.2-3.4,1.7-3.7,3.9v10.9c.1,2.1.6,3.7,3.6,3.9a50.48,50.48,0,0,0,5.5.1c1,0,1-.1,1-1.1.1-2.7.1-5.4.1-8.2Z"/><path class="cls-2" d="M458.6,514.3a22.81,22.81,0,0,0,6.4-.6c2.8-.7,5.1-2,6.3-4.9a13.21,13.21,0,0,0,.6-4.8c0-.5-.4-.5-.8-.5h-4.8a12.74,12.74,0,0,1-5.4-1.1,8.59,8.59,0,0,1-5.2-8c-.2-4.3-.2-8.5,0-12.8a9,9,0,0,1,8.3-8.9c3.2-.4,6.5-.1,9.8-.2h3.3c.6,0,.9.3.8.9v31.7a18.35,18.35,0,0,1-1.5,7.3,10.91,10.91,0,0,1-6.3,5.8,26.72,26.72,0,0,1-6.8,1.5c-.4,0-.7.1-1-.2C461.1,517.8,459.8,516.2,458.6,514.3Zm13.2-26.1h0v-8.6c0-.9,0-1-1-1-1.8,0-3.7-.1-5.5,0-2.3.2-3.3,1.1-3.5,3.5-.1,1.4-.1,2.8-.1,4.1,0,2.6,0,5.2.1,7.8a3,3,0,0,0,2.7,3.2,45.72,45.72,0,0,0,6.4.3c.7,0,.9-.2.9-.9Z"/><path class="cls-2" d="M458.6,594a53.49,53.49,0,0,0,5.9-.6,10.05,10.05,0,0,0,4.7-2.1,7.23,7.23,0,0,0,2.6-5.9c0-.7.3-1.5-.2-2s-1.3-.1-2-.2a44.31,44.31,0,0,1-6.3-.3,8.78,8.78,0,0,1-7.5-8.7c-.2-4.3-.2-8.5,0-12.8a8.92,8.92,0,0,1,7.6-8.8,13.58,13.58,0,0,1,2.9-.3h10.4c1.2,0,1.2,0,1.2,1.2V585a16.75,16.75,0,0,1-1.9,7.9,11.13,11.13,0,0,1-5.8,4.9,20.32,20.32,0,0,1-6.9,1.5c-.4,0-.8.1-1.1-.3C461,597.4,459.9,595.8,458.6,594Zm13.2-26.2v-8.4c0-.5.1-1-.7-1-2,0-4-.1-6.1.1s-3.2,1.3-3.3,3.6c-.1,3.8-.1,7.6,0,11.3,0,1.9.8,3.4,3.4,3.6a50.48,50.48,0,0,0,5.5.1c1.1,0,1.1,0,1.1-1.1.1-2.7.1-5.5.1-8.2Z"/><path class="cls-2" d="M169.4,485.8a.73.73,0,0,1,.2.6c0,5.8.1,11.7,0,17.6-.1,4.5,2.3,7.1,5.8,8.5a19.45,19.45,0,0,0,8.9,1.2,16.54,16.54,0,0,0,7.2-2,8.08,8.08,0,0,0,4.4-7.4V473.4c0-.5.2-.7.7-.7H201c1,0,1,.1,1,1.1v31a12.9,12.9,0,0,1-4.3,10.1,20.28,20.28,0,0,1-6.9,3.8,27.6,27.6,0,0,1-13.4.7,17.78,17.78,0,0,1-10.8-5.8,12,12,0,0,1-3-8.3V490.4a1.72,1.72,0,0,1,.6-1.5c1.6-1,3.2-2,4.8-3.1A.3.3,0,0,0,169.4,485.8Z"/><path class="cls-2" d="M7.5,565.6a4.87,4.87,0,0,1,.1,1.2v16.1a15.14,15.14,0,0,0,.2,3c.7,3.3,3,5.3,6.1,6.4a20.44,20.44,0,0,0,13.8,0,9.87,9.87,0,0,0,4.9-3.6c1.2-1.7,1.3-3.7,1.3-5.7V553.3c0-.9.1-1,1-1h4.2c.6,0,.9.2.9.8v30.1a18.49,18.49,0,0,1-.7,6.2,13.4,13.4,0,0,1-5.5,6.7,19.49,19.49,0,0,1-8,3,33.48,33.48,0,0,1-7.1.4A23.48,23.48,0,0,1,9,596.8a13.52,13.52,0,0,1-7.2-9.4,11,11,0,0,1-.2-1.8V570.3a1.68,1.68,0,0,1,.9-1.7c1.4-.9,2.8-1.8,4.2-2.8A3.09,3.09,0,0,1,7.5,565.6Z"/><path class="cls-2" d="M207,557.6V573a11.56,11.56,0,0,1-.8,4.5,8.54,8.54,0,0,1-6.2,5.3,15.81,15.81,0,0,1-3.8.4H177.5a.53.53,0,0,1-.6-.6V578c0-.7.4-.7,1-.7h8.6c1-.1,1.1-.2.7-1.1-.9-2.5-1.9-4.9-2.9-7.4-2-5.1-4-10.2-5.9-15.3-.1-.2-.1-.3-.2-.5-.1-.4,0-.6.4-.6h5.3c.7,0,.8.5.9.9.8,1.9,1.5,3.8,2.2,5.7,2.2,5.8,4.5,11.6,6.7,17.3a1.09,1.09,0,0,0,1.2.9c1.1,0,2.3-.1,3.4-.2a3.29,3.29,0,0,0,2.7-3,13.4,13.4,0,0,0,.1-2V540.7c0-.6.3-.8.9-.8h4.4c.6,0,.8.2.8.8v1.5l-.2,15.4Z"/><path class="cls-2" d="M394.3,484v9.5a10.32,10.32,0,0,1-2.1,6.5,8.76,8.76,0,0,1-4.4,2.9,15.1,15.1,0,0,1-9.4-.1c-3.9-1.4-5.8-4.4-6.2-8.4-.1-1.4-.1-2.8-.1-4.2,0-2.9-.1-5.7.1-8.6a9.44,9.44,0,0,1,4.4-7.5,11.29,11.29,0,0,1,5.7-1.5h11.1c1,0,1,0,1,1.1-.1,3.4-.1,6.9-.1,10.3Zm-6.1,2.6h0v-7c0-.9,0-1-1-1h-5a3.81,3.81,0,0,0-4.1,4c0,3.6-.1,7.2,0,10.8a3.75,3.75,0,0,0,2.7,3.8,8.2,8.2,0,0,0,3.1.3,4,4,0,0,0,4.2-4.3C388.2,491,388.2,488.8,388.2,486.6Z"/><path class="cls-2" d="M447.1,490.7c0,5.4.1,10.7,0,16.1-.1,6.2-3.2,10.1-8.5,12.7a.89.89,0,0,1-1.1-.2h0c-1.1-1.4-2.2-2.8-3.2-4.2-.5-.6-.4-.7.3-1a29.17,29.17,0,0,0,3.1-1.4,6.72,6.72,0,0,0,3.2-4.5,16.28,16.28,0,0,0,.3-3.1V473.5c0-.4.2-.7.6-.7h4.7c.5,0,.7.3.7.8v.8l-.1,16.3Z"/><path class="cls-2" d="M413.3,490.7v16.1a14.11,14.11,0,0,1-1.9,7.2,15.29,15.29,0,0,1-6.5,5.6.84.84,0,0,1-1.2-.3h0c-1-1.4-2.1-2.7-3.2-4-.5-.6-.4-.8.3-1a12.27,12.27,0,0,0,2.6-1.2,6.75,6.75,0,0,0,3.7-5.1,19.53,19.53,0,0,0,.3-3.4V473.8c-.1-.7.3-.9.9-.9h4.1c.9,0,.9.1.9,1v16.8Z"/><path class="cls-2" d="M441.1,563.4V540.6a.56.56,0,0,1,.5-.6h5c.3,0,.5.1.5.4v41.7a2,2,0,0,1-1.1,2c-1.3.6-2.6,1.5-3.9,2.2-.9.5-1.1.4-1.1-.7C441.1,578,441.1,570.7,441.1,563.4Z"/><path class="cls-2" d="M215.5,563.2V540.7c-.1-.7.3-.9.9-.9h4.2c.7,0,1,.2,1,.9v41.2a1.68,1.68,0,0,1-1.1,1.8c-1.5.7-2.9,1.6-4.4,2.4-.5.3-.7.1-.7-.3v-1.1l.1-21.5Z"/><path class="cls-2" d="M421.9,483.5V461.6c0-1.2,0-1.2,1.2-1.2h4.1c.6,0,.8.2.8.8v41.2a1.75,1.75,0,0,1-1.1,1.9c-1.4.7-2.8,1.6-4.3,2.3-.6.3-.8.2-.8-.5v-1.3Z"/><path class="cls-2" d="M137.4,483.5V460.9c0-.4.1-.6.6-.6h4.9a.53.53,0,0,1,.6.6v41.4a1.75,1.75,0,0,1-1.1,1.8c-1.4.7-2.8,1.5-4.1,2.3-.5.3-.7.2-.8-.4v-.8l-.1-21.7Z"/><path class="cls-2" d="M346,506.6a1.41,1.41,0,0,1-.1-.9V461c0-.5.2-.7.7-.7h4.8c.5,0,.7.2.7.7v41.1a2,2,0,0,1-1.3,2.1c-1.4.7-2.7,1.5-4,2.2A1.34,1.34,0,0,1,346,506.6Z"/><path class="cls-1" d="M127.6,632c.4-1.2.7-2.1,1-3.1,1.1-3.6,2.2-7.1,3.3-10.7.2-.6.4-.9,1.1-.8a13.35,13.35,0,0,0,2,0c1.1,0,1.1,0,1.1,1.2v14.9c0,1.3-.1,1.3-1.4,1.3h-.4c-.6,0-.8-.3-.7-.8V622a.76.76,0,0,0-.2-.5,6.94,6.94,0,0,0-.5,1.3c-1.1,3.6-2.3,7.3-3.4,10.9-.3,1.1-.4,1.1-1.6,1.1-2.3,0-1.8.2-2.5-1.8-1.1-3.3-2.1-6.7-3.2-10-.1-.3-.1-.7-.5-.9a2,2,0,0,0-.1,1.3v10.9a.58.58,0,0,1-.6.6h-1.2c-.5,0-.7-.3-.7-.8V618.5c0-1.1,0-1.1,1.1-1.1.9,0,1.9-.3,2.6.1s.7,1.6.9,2.4c1.2,3.8,2.4,7.6,3.5,11.4A5.74,5.74,0,0,1,127.6,632Z"/><path class="cls-1" d="M377.3,624.4h.8c.5.1,1.1-.3,1.3.3a3,3,0,0,1-.3,1.8c-.2.5-.7.3-1.1.3-.7,0-1,.3-1,1a6,6,0,0,1-.8,2.9.89.89,0,0,0,.3,1.3h0a2.49,2.49,0,0,0,2,.7c.8-.1.8-.1.7.8,0,.2-.1.4-.1.6,0,.7-.4.9-1,1a3.75,3.75,0,0,1-3.2-1.1c-.4-.4-.7-.5-1.3-.1a7.16,7.16,0,0,1-7.2.7,3.87,3.87,0,0,1-2.4-3.1c-.4-2.4.1-4.6,2.3-6,.6-.4.7-.7.3-1.3a5.8,5.8,0,0,1-.9-3.4,3.78,3.78,0,0,1,3.4-3.7,9,9,0,0,1,4,.4c.4.1.9.2.9.8a3.09,3.09,0,0,1-.5,1.8c-.1.2-.4.1-.6,0a6,6,0,0,0-2.7-.6c-1.7.1-2.4,1-1.9,2.6a7.55,7.55,0,0,0,1.3,2.3c1.2,1.5,2.5,3,3.8,4.4.6.7.8.6,1.1-.3a9.69,9.69,0,0,0,.3-2.3c0-1.6,0-1.6,1.5-1.6Zm-7.4,8.4a4.53,4.53,0,0,0,2.2-.8c.4-.2.4-.5.1-.9-1.2-1.3-2.3-2.7-3.5-4a.57.57,0,0,0-.9-.2,3.63,3.63,0,0,0-1.1,3.9C367.2,632.2,368.2,632.8,369.9,632.8Z"/><path class="cls-1" d="M471,633.8c-.6.2-.9.7-1.3.9-2.4.8-6.1.6-7.1-3.1a11.13,11.13,0,0,1-.2-4.8,5.2,5.2,0,0,1,5.2-4.6,18,18,0,0,1,5.2.4c.7.1,1,.4,1,1.1-.1,4,.1,7.9-.1,11.9a5.66,5.66,0,0,1-.8,2.5,3.33,3.33,0,0,1-2.3,1.7,15.06,15.06,0,0,1-7.3-.3c-.4-.1-.9-.2-.9-.7a3.92,3.92,0,0,1,.4-1.8c.1-.2.4,0,.6,0a23.35,23.35,0,0,0,2.5.7,7.08,7.08,0,0,0,2.9,0,2.37,2.37,0,0,0,2.2-2.2A3.26,3.26,0,0,0,471,633.8Zm.1-6.4v-1.8c.1-.7-.3-1-1-1.2a14.77,14.77,0,0,0-2.1-.1,2.81,2.81,0,0,0-2.9,2.2,7.85,7.85,0,0,0,0,4.3c.4,1.5,1.2,2,2.8,2a2.88,2.88,0,0,0,2.8-2.2A6.91,6.91,0,0,0,471.1,627.4Z"/><path class="cls-1" d="M228.3,626.1v-7.6c0-1,0-1,1-1h5.4c3.5,0,5.5,2.7,5.1,6.2a5.08,5.08,0,0,1-2.3,4c-.6.3-.6.8-.2,1.3.9,1.6,1.7,3.2,2.6,4.8a2.12,2.12,0,0,1,.3.7c.1.2,0,.4-.2.4h-2.2c-.5,0-.6-.4-.8-.8-.8-1.5-1.6-2.9-2.3-4.4a1.68,1.68,0,0,0-2-1.2c-1.8.1-1.7-.2-1.7,1.7v4c0,.6-.2.8-.8.9-1.9.1-1.9.1-1.9-1.8v-7.2Zm4.8,0h.9c2.1-.1,3.2-1.2,3.1-3.2a3,3,0,0,0-3.2-3.2h-2.1c-.6,0-.8.2-.7.8V624c0,2.4-.4,2,2,2.1Z"/><path class="cls-1" d="M387,626.2v-7.8c0-.9,0-.9,1-1,1.9,0,1.8-.3,1.8,1.7v4.5c0,.9.1,1,1,1h5.5c.9,0,.9-.1,1-1v-5.3c0-1,0-1,.9-1,2,0,1.8-.3,1.8,1.7v15.2a.47.47,0,0,1-.5.5h-.1c-1.9.3-2.1.1-2.1-1.8V628c0-.9-.1-1-1-1h-5.4c-1,0-1.1.1-1.1,1.2v5.1c0,1.4,0,1.4-1.4,1.4h-.7a.63.63,0,0,1-.7-.7v-7.8Z"/><path class="cls-1" d="M295,617.3c1.4,0,1.4,0,1.9,1.4l5,14.8a1.42,1.42,0,0,1,.2.6c.1.5.1.8-.5.8h-.1c-2.4-.1-2,.4-2.7-1.9-.8-2.5-.4-2.1-2.8-2.1h-3.2a1.13,1.13,0,0,0-1.3.9h0c-.2.8-.5,1.6-.7,2.4a.85.85,0,0,1-.8.7c-.7,0-1.6.3-2-.2s.2-1.2.4-1.8c1.6-4.7,3.2-9.4,4.7-14.1C293.6,617,293.6,617.3,295,617.3Zm-.2,4-2.3,7.2h4c.8,0,.8-.1.6-.9-.6-1.8-1.1-3.6-1.7-5.4,0-.3-.3-.6-.6-.9Z"/><path class="cls-1" d="M193.5,634.3a.83.83,0,0,0-.3.8V638c0,1.8,0,1.8-1.8,1.7-.6,0-.8-.2-.8-.8V623.2c0-.6.3-.9.9-.8h.4c1.2,0,1.2,0,1.5,1.1a10.08,10.08,0,0,1,2.3-1.2c3.6-.8,5.7.8,6.3,4.1a10.64,10.64,0,0,1-.2,5,5.24,5.24,0,0,1-6.3,3.6A7.71,7.71,0,0,1,193.5,634.3Zm-.4-5h0v1.4c-.2.9.4,1.4,1.1,1.7l.9.3a3.15,3.15,0,0,0,4-1.7,8.19,8.19,0,0,0,0-4.9,2.59,2.59,0,0,0-1.1-1.4,3.34,3.34,0,0,0-4.8,3,9.15,9.15,0,0,1-.1,1.6Z"/><path class="cls-1" d="M265.7,624.7c.1-.5.2-.9.3-1.4a1.18,1.18,0,0,1,.9-.9,11.38,11.38,0,0,1,5.5-.1,2.77,2.77,0,0,1,2.2,2.2,7.46,7.46,0,0,1,.4,2.6v4.7c0,.6,0,1.2.8,1.2.6.1.6.6.7,1,.1.6-.4.6-.8.7-1.4.5-2.3.1-3.4-1.2a8.78,8.78,0,0,1-2.1,1.2,6.47,6.47,0,0,1-2.4.1,3.2,3.2,0,0,1-2.9-2.9,4.15,4.15,0,0,1,2.3-4.5,8.65,8.65,0,0,1,2.3-.6h1.6c.5,0,1.1.3,1.2-.4a1.73,1.73,0,0,0-.5-1.8,2.35,2.35,0,0,0-1.3-.5,9.82,9.82,0,0,0-3.4.3A1.49,1.49,0,0,1,265.7,624.7Zm4.8,4.2a4.48,4.48,0,0,0-2,.4,1.94,1.94,0,0,0-.8,2.5,1,1,0,0,0,.4.5,2.63,2.63,0,0,0,4.1-1.4c.4-1.6.1-2-1.7-2Z"/><path class="cls-1" d="M321.2,624.9c0-2.1.2-2.2,1.9-2.5a11.25,11.25,0,0,1,4.1-.1,3.35,3.35,0,0,1,3,3.3c.2,1.9.1,4,.1,6.1,0,.7-.1,1.4.9,1.6.6.1.5.7.6,1.1s-.4.5-.7.6a2.69,2.69,0,0,1-3.5-1.2,4.81,4.81,0,0,1-3.7,1.4,3.73,3.73,0,0,1-3.5-5.1c.5-1.7,1.8-2.7,4.3-2.9a8.1,8.1,0,0,1,2.2,0c.5,0,.7-.1.8-.6a1.54,1.54,0,0,0-1.2-1.9,7.31,7.31,0,0,0-3.6,0A3.33,3.33,0,0,0,321.2,624.9Zm4.6,4a3.44,3.44,0,0,0-2,.4,1.9,1.9,0,0,0-.8,2.1,1.6,1.6,0,0,0,1.2,1.3,2.74,2.74,0,0,0,3.5-1.9h0c.4-1.4,0-1.9-1.5-1.9Z"/><path class="cls-1" d="M205.3,624.8c-.1-1.9.1-2.1,1.8-2.5a10.86,10.86,0,0,1,4.4,0,3,3,0,0,1,2.5,2.8,20.76,20.76,0,0,1,.1,3.5v3.2c0,.6.1,1.2.8,1.3s.7.8.7,1.2-.5.5-.8.6a2.62,2.62,0,0,1-3-.7c-.3-.4-.6-.5-.9-.1a4.9,4.9,0,0,1-5.2.5c-1.1-.4-1.8-2-1.7-3.5.2-2.3,1.7-3.8,4.3-4a10.45,10.45,0,0,1,2.5,0c.6,0,.8-.2.8-.8a1.79,1.79,0,0,0-1.8-2,9.11,9.11,0,0,0-4.3.5C205.6,624.9,205.4,624.9,205.3,624.8Zm6.5,5.3c-.1-.4.2-1.1-.5-1.1a6.15,6.15,0,0,0-3.3.3,2,2,0,0,0-1,2,1.59,1.59,0,0,0,1.3,1.4,2.65,2.65,0,0,0,3.3-1.9,1.17,1.17,0,0,0,.2-.7Z"/><path class="cls-1" d="M149.8,627.7v4.4c0,.6.1,1,.7,1s.7.5.8,1-.4.7-.8.8c-1.2.2-2.3.2-3-.9-.3-.5-.6-.4-1-.1a6.28,6.28,0,0,1-3.7,1.2c-2.5-.2-3.1-1.1-3.3-3-.2-3,0-6-.1-9,0-.4.2-.7.6-.7h.4c1.7,0,1.6-.2,1.6,1.5v6.6c0,1.9.7,2.4,2.5,2a3.1,3.1,0,0,0,1.3-.6,1.91,1.91,0,0,0,1.3-2.2c-.1-2.1,0-4.2,0-6.3,0-1,0-1,1-1,1.9,0,1.6-.2,1.6,1.7.1,1.2.1,2.4.1,3.6Z"/><path class="cls-1" d="M415,628.5a8,8,0,0,1-1,4.3c-1,1.6-2.5,2-4.2,2.3a7.36,7.36,0,0,1-3.6-.5,4.36,4.36,0,0,1-2.8-3.1,9.25,9.25,0,0,1,0-5.7,4.49,4.49,0,0,1,3.6-3.4,9.33,9.33,0,0,1,4.4.1,4.34,4.34,0,0,1,3.2,3.2A8.25,8.25,0,0,1,415,628.5Zm-2.8.1v-1.1c-.2-2.6-1.5-3.6-4-3.3a2.35,2.35,0,0,0-2.2,1.9,9,9,0,0,0-.1,4.6,2.6,2.6,0,0,0,2.9,2.2c1.5,0,2.5-.4,3.1-1.7a5.66,5.66,0,0,0,.3-2.6Z"/><path class="cls-1" d="M153,628.5v-5.1c0-.9,0-.9,1-1h.9c.4,0,.7,0,.8.5.1.8.6.5.9.3a7,7,0,0,1,3.7-1.1c2.2.1,3.2,1,3.3,3.2.1,1.4,0,2.9,0,4.3v2c0,.7-.1,1.4.9,1.5.6.1.4.7.5,1.1s-.3.5-.6.6a3.76,3.76,0,0,1-2.1.1c-1-.2-1.4-.8-1.4-1.9v-7.1a1.54,1.54,0,0,0-1.5-1.5.9.9,0,0,0-.5.1,10.24,10.24,0,0,0-2.7,1.1,1.69,1.69,0,0,0-.8,1.7v6.2c0,1.3,0,1.3-1.3,1.3s-1.4,0-1.4-1.4Z"/><path class="cls-1" d="M91.3,628.5a19.42,19.42,0,0,1,.2-2.4,4.89,4.89,0,0,1,4-3.9,8.13,8.13,0,0,1,3.8,0,4.9,4.9,0,0,1,3.9,4.4,10.28,10.28,0,0,1,0,3.5c-.4,2.7-1.8,4.3-4.5,4.7a9.08,9.08,0,0,1-4-.3,5.17,5.17,0,0,1-3.3-4.1C91.4,629.9,91.3,629.2,91.3,628.5Zm2.8.1a8.6,8.6,0,0,0,.1,1.6c.3,1.8,1.1,2.6,2.8,2.8a3,3,0,0,0,3.5-2.5,7.36,7.36,0,0,0,.1-3.3c-.4-2.3-1.4-3.1-3.7-3a2.78,2.78,0,0,0-2.7,2.3,14.77,14.77,0,0,0-.1,2.1Z"/><path class="cls-1" d="M451.6,623.5a9,9,0,0,1,2.8-1.3,6.09,6.09,0,0,1,3,0,2.48,2.48,0,0,1,1.7,1.6,8.63,8.63,0,0,1,.4,2.8v5.3c0,.6,0,1.2.8,1.2.6.1.6.6.6,1a.75.75,0,0,1-.6.7,3.1,3.1,0,0,1-1.9.1c-1-.2-1.4-.8-1.5-1.9v-5.5a9.7,9.7,0,0,0-.1-1.7,1.26,1.26,0,0,0-1.6-1.3,6.07,6.07,0,0,0-3.2,1.3,1.91,1.91,0,0,0-.6,1.6v6.2c0,.4.2,1-.3,1.2a3,3,0,0,1-2.1-.1c-.3-.1-.2-.6-.2-.8V623.4c0-.9,0-.9,1-1h.8c.6-.1.9.2.9.8C451.3,623.4,451.3,623.5,451.6,623.5Z"/><path class="cls-1" d="M29.4,623.6a11.08,11.08,0,0,1,2.9-1.4,7.57,7.57,0,0,1,3,0,2.43,2.43,0,0,1,1.7,1.7,8.63,8.63,0,0,1,.4,2.8V632c0,.6.1,1,.8,1.1s.6.7.6,1.2-.4.5-.8.6a2.86,2.86,0,0,1-1.6.1,1.88,1.88,0,0,1-1.8-1.9v-5.9a6.15,6.15,0,0,0-.1-1.4,1.4,1.4,0,0,0-1.7-1.4,6.66,6.66,0,0,0-3.3,1.5,1.37,1.37,0,0,0-.4,1.2v6.3c0,1.4,0,1.4-1.4,1.3h-.4c-.6,0-.8-.2-.8-.8V623.5c0-1.1-.2-1.2,1.2-1.2h.1C29.1,622.4,29.1,622.4,29.4,623.6Z"/><path class="cls-1" d="M428.1,627.8v4.3c0,.5.1,1,.7,1s.7.6.7,1.1-.5.6-.8.7a2.49,2.49,0,0,1-3.1-.9c-.3-.5-.5-.4-.9-.1a6.36,6.36,0,0,1-3.8,1.2c-2.1-.1-3.1-1-3.2-3.1-.1-3,0-6-.1-9a.53.53,0,0,1,.6-.6c1.9-.1,2-.1,2,1.8v6.6c0,1.5.5,2,2,1.8a4.42,4.42,0,0,0,1.6-.6,2.37,2.37,0,0,0,1.6-2.4c-.1-2.1,0-4.1,0-6.2,0-1,0-1,.9-1,2.1,0,1.7-.1,1.8,1.8v3.6Z"/><path class="cls-1" d="M74,622.6a.37.37,0,0,1,.3-.1c2.3-.2,2.3-.2,3.1,2,.6,1.8,1.3,3.6,1.9,5.3a1.8,1.8,0,0,0,.6.9,13.09,13.09,0,0,0,.9-2.8c.5-1.5.9-2.9,1.3-4.4.3-1,.3-1,1.3-1,1.8,0,1.8,0,1.2,1.7-1.2,3.6-2.4,7.2-3.7,10.7a13.9,13.9,0,0,1-1.2,2.8,4.12,4.12,0,0,1-4.8,2.2h-.3c-1.3-.3-1.4-.4-1.1-1.7.2-.6.4-.8,1-.7a1.27,1.27,0,0,0,.6.1,2,2,0,0,0,2.5-1.3,2,2,0,0,1,.4-.8,2.12,2.12,0,0,0,0-1.9c-1.4-3.5-2.8-7-4.1-10.5A.51.51,0,0,0,74,622.6Z"/><path class="cls-1" d="M243,627.5v-4.2c0-.6.2-.9.8-.9h.1c1.6-.1,1.6-.1,1.6,1.5,0,2.4-.1,4.8.1,7.2.1,1.1.6,1.6,1.7,1.5a6.65,6.65,0,0,0,2.9-1.2,1.82,1.82,0,0,0,.6-1.4v-6.6c0-1,0-1,1-1.1h.5c.9,0,1,0,1,1V632c0,.6.2,1,.8,1s.6.5.8.9,0,.6-.3.7a2.72,2.72,0,0,1-3.4-.5c-.5-.7-.9-.6-1.5-.2a5.77,5.77,0,0,1-4.6.8,2.4,2.4,0,0,1-1.8-1.7,6.17,6.17,0,0,1-.2-2.3c-.1-1.1-.1-2.2-.1-3.2Z"/><path class="cls-1" d="M434.6,635a15.26,15.26,0,0,1-3-.3c-.5-.1-.7-.3-.6-.8,0-.1.1-.3.1-.4.3-1.2.4-1.3,1.6-.9a8.2,8.2,0,0,0,3.1.3,1.85,1.85,0,0,0,1.2-.5,1.28,1.28,0,0,0,.5-1.7,1.21,1.21,0,0,0-.5-.5,8.82,8.82,0,0,0-2-.9,13.55,13.55,0,0,1-2.1-1,3.21,3.21,0,0,1-1-4.4,3.1,3.1,0,0,1,1.8-1.4,10.19,10.19,0,0,1,5.2-.1c.4.1.8.2.8.7s.1,1.1-.3,1.5-.6.1-.9,0a5.24,5.24,0,0,0-2.5-.3,5,5,0,0,0-1.2.2,1.18,1.18,0,0,0-.9.9c-.1.5.3.8.7,1,1.2.6,2.5,1.1,3.7,1.7a3.43,3.43,0,0,1,.6,5.8,6,6,0,0,1-3.1,1.2A5.28,5.28,0,0,1,434.6,635Z"/><path class="cls-1" d="M353.2,622.1a9.08,9.08,0,0,1,2.3.3c1.3.3,1.3.4,1,1.7-.2.6-.4.8-1,.6a5.69,5.69,0,0,0-2.6-.4c-.3,0-.6.1-.9.1a1.06,1.06,0,0,0-1,.9.92.92,0,0,0,.7,1.1c1,.4,1.9.8,2.9,1.2a4.16,4.16,0,0,1,2.4,2.1,3.64,3.64,0,0,1-2.5,5,10.17,10.17,0,0,1-4.6.2c-.2,0-.4-.1-.6-.1-.4-.1-1,.1-1.2-.4a2.89,2.89,0,0,1,.3-1.8c.2-.4.6-.2.9-.1a6.92,6.92,0,0,0,3.5.4,2.57,2.57,0,0,0,1.2-.5,1.19,1.19,0,0,0,.4-1.7.78.78,0,0,0-.4-.4,5.08,5.08,0,0,0-1.8-.9,9.43,9.43,0,0,1-2.3-1,3,3,0,0,1-1.7-3.1,3.18,3.18,0,0,1,2.5-2.8A6.9,6.9,0,0,1,353.2,622.1Z"/><path class="cls-1" d="M313.5,629.7v-4.1c0-1,0-1-1-1.1-.4,0-.8.1-.9-.6a1.77,1.77,0,0,1,.9-1.6c1-.2,1-.2,1-1.2a10.55,10.55,0,0,1,.2-2.5,2.45,2.45,0,0,1,2.1-1.9,13.09,13.09,0,0,1,2.8,0c.9.1,1,.4.9,1.3a1.27,1.27,0,0,1-.1.6.54.54,0,0,1-.5.5h-.1c-.2,0-.3-.1-.5-.1-1.7-.2-2,.1-2,1.7s0,1.6,1.7,1.7c.9,0,.9.1.9,1s-.1,1-.9,1.1h-.6c-1.2,0-1.2,0-1.2,1.2v8c0,1.1,0,1.1-1.1,1.1h-.4c-1.2,0-1.2,0-1.2-1.2Z"/><path class="cls-1" d="M49.9,635a10.55,10.55,0,0,1-3.1-.4c-.5-.1-.8-.4-.6-.9,0-.1.1-.2.1-.3.3-1.3.3-1.3,1.5-.9a8.2,8.2,0,0,0,3.1.3,1.61,1.61,0,0,0,.9-.3c1.2-.7,1.3-1.7.2-2.4a8.86,8.86,0,0,0-1.7-.8,9.06,9.06,0,0,1-2.6-1.3,3.05,3.05,0,0,1,.6-5.4,8.54,8.54,0,0,1,6.1-.1c.3.1.6.4.5.7,0,.1,0,.1-.1.2a.9.9,0,0,0-.1.5c-.2.8-.3.9-1,.6a5.53,5.53,0,0,0-3.1-.3,2.35,2.35,0,0,0-.8.2c-.8.5-.9,1.2-.1,1.8a9.43,9.43,0,0,0,2.3,1c.4.2.9.4,1.3.6a3.72,3.72,0,0,1,2.2,3.6c-.1,1.8-1.4,2.8-3,3.3A6,6,0,0,1,49.9,635Z"/><path class="cls-1" d="M106.8,629.6v-4.1c0-.9,0-1-.9-1-.4,0-.9.1-1-.6,0-1,.3-1.5,1-1.5s.9-.3.8-.9v-2.1c.2-1.8,1.2-2.6,3-2.7a8.13,8.13,0,0,1,2.2.1c.8.2.9.4.7,1.2-.1.2-.1.4-.2.6-.1.5-.3.6-.8.5-2.1-.4-2.4-.1-2.3,2,0,1.3,0,1.3,1.3,1.3h.3c1.1,0,1.5.6,1.1,1.6-.1.2-.2.4-.5.4h-.4c-.6.1-1.3-.3-1.7.3s-.1,1.2-.1,1.8v7.1c0,1.2,0,1.2-1.2,1.2h-.4c-1,0-1.1-.1-1.1-1A29.54,29.54,0,0,0,106.8,629.6Z"/><path class="cls-1" d="M305,629.6v-4.2c0-.7-.2-1-.9-.9-.4,0-1,.2-1-.5a1.51,1.51,0,0,1,1.1-1.6c.6,0,.8-.3.8-.9a16.2,16.2,0,0,1,.1-2.2,2.63,2.63,0,0,1,2.8-2.6,9.66,9.66,0,0,1,2.4.1c.6.1,1,.4.7,1.1a1.27,1.27,0,0,0-.1.6c-.1.5-.3.6-.8.6-2.3-.3-2.3-.2-2.4,2.2,0,1.4.3,1.2,1.2,1.2h.3c1.1,0,1.2.1,1.2,1.2,0,.6-.2.9-.9.9-1.7,0-1.7,0-1.7,1.7V634c0,.9,0,.9-1,1H306c-.6,0-.9-.2-.9-.9C305,632.5,305,631.1,305,629.6Z"/><path class="cls-2" d="M182.6,599.4h-4.7c-.7,0-1-.2-.9-.9v-.7c0-1,0-1,1-1.1h.5c.9,0,.9,0,.6-1a4.74,4.74,0,0,1,4.6-6.3h2c.5,0,.7.2.7.7v.4c0,1.5,0,1.5-1.5,1.5a3.72,3.72,0,0,0-1.8.2,2.29,2.29,0,0,0-1.5,2.4,2.23,2.23,0,0,0,1.8,2,19.33,19.33,0,0,0,3.4.1c.4,0,1-.2,1.2.3a3.75,3.75,0,0,1,0,2.1c-.1.3-.5.3-.8.3Z"/><path class="cls-1" d="M58.5,628.9v-3.4c0-.9,0-1-.9-1-.4,0-.9.1-.9-.6,0-.9.3-1.5.9-1.5.8,0,1-.3.9-1v-.7c0-1.7.5-2.1,2.1-2.3.4,0,.6.2.6.5v2.6c0,.6.2.9.9.9h.5a1.11,1.11,0,0,1,1.1,1.7.87.87,0,0,1-.9.4c-1.6.1-1.6.1-1.6,1.6v5.1c0,1.4.3,1.7,1.6,1.5.3,0,.7-.3.9.2a3.89,3.89,0,0,1,.2,1.5c0,.1-.2.2-.3.2a7,7,0,0,1-2.9.3c-1.4-.2-2.1-1.1-2.2-2.7Z"/><path class="cls-2" d="M248.9,462.7a1.64,1.64,0,0,0-.2-1c-.8-3.1,1.4-6.2,4.4-6h2.2c.5,0,.7.2.7.7v.7c0,1.1,0,1.1-1.1,1.1h-1.4a2.05,2.05,0,0,0-2.1,2.1v.2a2.14,2.14,0,0,0,2,2.3h.2a19.3,19.3,0,0,0,3.4,0c.7,0,1,.2.9.9v.8c.1.7-.3.9-.9.9h-9.5c-.7,0-1-.2-.9-.9v-.6c0-1.1,0-1.1,1.1-1.1a4.1,4.1,0,0,0,1.1-.1Z"/><path class="cls-1" d="M181.8,625a5.5,5.5,0,0,0-4.5-.4,2.77,2.77,0,0,0-1.8,2.1,6.54,6.54,0,0,0-.1,3.4,3.52,3.52,0,0,0,3.3,2.8,13.33,13.33,0,0,0,2.8-.3c.7-.2.8,0,.6.6-.2,1.4-.2,1.4-1.7,1.7a7.22,7.22,0,0,1-5-.5c-2.5-1.5-3-3.9-2.9-6.6a6.62,6.62,0,0,1,1.2-3.3,5.33,5.33,0,0,1,4.5-2.3,15.26,15.26,0,0,1,3,.3c1.1.3,1.3.5,1,1.5A2.6,2.6,0,0,1,181.8,625Z"/><path class="cls-1" d="M217.5,625.4v-7.1c0-.9.1-.9.9-.9,1.8-.1,1.8-.1,1.8,1.8v12.4c0,.7-.1,1.5,1,1.7.5,0,.4.6.5,1a.67.67,0,0,1-.5.7c-1.8.8-3.6-.2-3.6-2.1-.1-2.6-.1-5-.1-7.5Z"/><path class="cls-1" d="M256.5,628.6v-5.3c0-.6.2-1,.8-.9s1.5-.4,2,.6c.1.3.4,0,.5-.1a2.72,2.72,0,0,1,3.2-.4c.6.2.9.5.6,1.2a.9.9,0,0,0-.1.5c0,.7-.3.9-1,.7-1.1-.3-2.2-.3-2.9.8a2.6,2.6,0,0,0-.4,1.5v6.7c0,1,0,1-1.1,1h-.7c-.9,0-1-.1-1-1a31.47,31.47,0,0,0,.1-5.3Z"/><path class="cls-1" d="M346.1,624.9c-.6-.1-1-.2-1.5-.3a2.09,2.09,0,0,0-2.5,1.7v7.3c0,1.2,0,1.2-1.3,1.2H340a.58.58,0,0,1-.6-.6V623.3c0-1,0-1.1,1-1,.6,0,1.3-.4,1.7.6.1.2.4,0,.6-.1a2.75,2.75,0,0,1,3.1-.5c.9.3,1,.5.7,1.5A4.87,4.87,0,0,0,346.1,624.9Z"/><path class="cls-2" d="M395,541.4a3.83,3.83,0,0,1-3.6,3.8,4,4,0,0,1-3.9-3.8,3.71,3.71,0,0,1,3.8-3.7h0A3.76,3.76,0,0,1,395,541.4Z"/><path class="cls-2" d="M298.5,465.5a3.7,3.7,0,1,1-.2-7.4h.3a3.77,3.77,0,0,1,3.7,3.8A3.83,3.83,0,0,1,298.5,465.5Z"/><path class="cls-2" d="M307.7,465.5a3.5,3.5,0,0,1-3.7-3.4v-.2a3.75,3.75,0,1,1,3.9,3.6Z"/><path class="cls-1" d="M68.7,623.5c1.2-1.5,2.4-1.7,3.8-1.1a.85.85,0,0,1,.7.8,1.94,1.94,0,0,1-.5,1.6c-.3.3-.8,0-1.2-.1a2.28,2.28,0,0,0-2.5,1.1,2.06,2.06,0,0,0-.3,1.5v6.4c0,1.1,0,1.2-1.2,1.2h-.7c-.6,0-.8-.3-.8-.8V623.4c0-.9,0-.9.9-1h.7C68.2,622.3,68.7,622.5,68.7,623.5Z"/><path class="cls-2" d="M400.3,537.8a3.58,3.58,0,0,1,3.7,3.5v.2a3.6,3.6,0,0,1-3.7,3.8,3.87,3.87,0,0,1-3.7-3.9A3.55,3.55,0,0,1,400.3,537.8Z"/><path class="cls-2" d="M7.3,465.5a3.83,3.83,0,0,1-3.7-3.7,3.71,3.71,0,0,1,3.8-3.7,3.71,3.71,0,0,1,.2,7.4Z"/><path class="cls-2" d="M183,465.5a3.55,3.55,0,0,1-3.6-3.7,3.69,3.69,0,0,1,3.7-3.7h.3a3.72,3.72,0,0,1,3.5,3.7C186.8,463.6,185.2,465.7,183,465.5Z"/><path class="cls-2" d="M275.3,541.4a3.69,3.69,0,0,1,3.7-3.7,3.45,3.45,0,0,1,3.7,3.4v.2a3.61,3.61,0,0,1-3.5,3.8h-.1A3.65,3.65,0,0,1,275.3,541.4Z"/><path class="cls-2" d="M37,516.1a3.53,3.53,0,0,1,3.5-3.7h.2a3.79,3.79,0,0,1,3.6,3.6,3.59,3.59,0,0,1-3.4,3.8h-.2a3.42,3.42,0,0,1-3.6-3.4C37,516.2,37,516.2,37,516.1Z"/><path class="cls-2" d="M325.5,595.7a3.65,3.65,0,0,1-3.5,3.7h-.1a3.71,3.71,0,0,1-3.8-3.7,3.76,3.76,0,0,1,3.7-3.7,3.69,3.69,0,0,1,3.7,3.7Z"/><path class="cls-2" d="M378.7,465.5c-1.9.2-3.8-1.8-3.8-3.7a3.92,3.92,0,0,1,3.8-3.7,3.69,3.69,0,0,1,3.7,3.7C382.5,463.4,380.9,465.7,378.7,465.5Z"/><path class="cls-2" d="M387.7,465.5a3.57,3.57,0,0,1-3.6-3.8h0a3.75,3.75,0,1,1,7.5.1C391.5,463.6,389.8,465.7,387.7,465.5Z"/><path class="cls-2" d="M17.4,541.4a3.67,3.67,0,0,1,3.8-3.5,3.63,3.63,0,0,1,3.5,3.6,3.87,3.87,0,0,1-3.7,3.9A4.09,4.09,0,0,1,17.4,541.4Z"/><path class="cls-2" d="M27.7,516.1a3.83,3.83,0,0,1,3.6-3.8h.1a3.7,3.7,0,0,1-.1,7.4,3.42,3.42,0,0,1-3.6-3.4Z"/><path class="cls-1" d="M278.3,625.7v-7.1c0-1.1,0-1.1,1.1-1.1h.7c.6-.1.8.1.8.7v13.3c0,.8-.2,1.7,1,1.8.5.1.4.6.5,1s-.3.6-.7.7a3.4,3.4,0,0,1-1.4.2,1.77,1.77,0,0,1-1.9-2c-.1-2.6-.1-5.1-.1-7.5Z"/><path class="cls-2" d="M444.1,465.5a3.57,3.57,0,0,1-3.7-3.4v-.2a3.76,3.76,0,0,1,3.7-3.7h.1a3.65,3.65,0,0,1,3.5,3.7,3.47,3.47,0,0,1-3.6,3.6Z"/><path class="cls-2" d="M312.7,592.1a3.56,3.56,0,0,1,3.6,3.5v.2a3.66,3.66,0,0,1-7.3.3v-.4a3.59,3.59,0,0,1,3.6-3.6Z"/><path class="cls-2" d="M16.4,465.5a3.69,3.69,0,0,1-3.7-3.7,3.63,3.63,0,0,1,3.7-3.7,3.67,3.67,0,0,1,3.7,3.6C20.1,463.7,18.3,465.7,16.4,465.5Z"/><path class="cls-2" d="M288.2,537.8a3.67,3.67,0,0,1,3.6,3.7h0a3.76,3.76,0,0,1-3.7,3.7,3.59,3.59,0,0,1-3.6-3.6v-.2a3.56,3.56,0,0,1,3.5-3.6C288,537.7,288.1,537.8,288.2,537.8Z"/><path class="cls-2" d="M113.3,516.1a3.65,3.65,0,0,1-7.3.1V516a3.67,3.67,0,0,1,3.7-3.6h0A3.55,3.55,0,0,1,113.3,516.1Z"/><path class="cls-1" d="M40.6,628.1v-4.7c0-.6.1-1,.8-1,2,0,1.8-.2,1.8,1.7v7.7c0,.6-.1,1.2.8,1.4.6.1.6.7.6,1.2s-.4.5-.7.6a3.22,3.22,0,0,1-1.7.1,1.88,1.88,0,0,1-1.7-2C40.6,631.4,40.6,629.7,40.6,628.1Z"/><path class="cls-1" d="M187.3,627.7v4.2c0,.6,0,1.1.8,1.2.6.1.6.6.6,1s-.3.6-.7.7a3.75,3.75,0,0,1-2.1,0c-1-.3-1.4-.9-1.4-2.1V623c0-.6.2-.8.8-.8,1.8-.1,1.9-.1,1.9,1.8Z"/><path class="cls-1" d="M20.7,628v-4.7c0-.6.2-.9.8-.9h.1c2.1,0,1.7,0,1.7,1.7v7.8c0,.6,0,1.2.9,1.3.5.1.6.6.6,1.1s-.4.5-.7.6a3.22,3.22,0,0,1-1.7.1,1.88,1.88,0,0,1-1.7-2h0Z"/><path class="cls-1" d="M167,628.2v-4.9c0-.6.2-.9.8-.9h.4c1.5,0,1.5,0,1.5,1.4v7.8c0,.7-.1,1.4.9,1.6.5.1.6.7.6,1.1s-.4.5-.7.6a2.86,2.86,0,0,1-1.6.1,2,2,0,0,1-1.9-2.1v-4.7Z"/><path class="cls-1" d="M442.8,628v-4.7c0-.9,0-.9.9-.9,2.2,0,1.7-.1,1.7,1.8v7.6c0,.6-.1,1.2.8,1.4.6.1.6.6.6,1.1s-.4.6-.7.7a4.44,4.44,0,0,1-2,.1c-1-.2-1.4-.8-1.4-1.9,0-1.8,0-3.5.1-5.2Z"/><path class="cls-1" d="M333.5,628.2v-4.9c0-.7.2-1,.9-.9h.1c1.6,0,1.6,0,1.6,1.5v7.8c0,.6-.1,1.3.9,1.5.5.1.6.6.6,1.1s-.5.6-.8.7a2.88,2.88,0,0,1-1.3.1,1.88,1.88,0,0,1-2-1.7v-5.2Z"/><path class="cls-1" d="M186,616.7a1.58,1.58,0,0,1,1.6,1.6,1.92,1.92,0,0,1-1.7,1.7,1.82,1.82,0,0,1-1.6-1.7A1.67,1.67,0,0,1,186,616.7Z"/><path class="cls-1" d="M41.9,616.7a1.58,1.58,0,0,1,1.6,1.6,1.67,1.67,0,0,1-1.6,1.7,1.69,1.69,0,0,1-1.7-1.7A1.67,1.67,0,0,1,41.9,616.7Z"/><path class="cls-1" d="M442.4,618.3a1.69,1.69,0,0,1,1.7-1.7h.1a1.82,1.82,0,0,1,1.6,1.7,1.92,1.92,0,0,1-1.7,1.7A1.75,1.75,0,0,1,442.4,618.3Z"/><path class="cls-1" d="M334.8,616.7a1.73,1.73,0,0,1,1.7,1.6,1.92,1.92,0,0,1-1.7,1.7,1.82,1.82,0,0,1-1.7-1.6A1.75,1.75,0,0,1,334.8,616.7Z"/><path class="cls-1" d="M20.4,618.3a1.67,1.67,0,0,1,1.7-1.6h0a1.82,1.82,0,0,1,1.6,1.7,1.92,1.92,0,0,1-1.7,1.7A1.75,1.75,0,0,1,20.4,618.3Z"/><path class="cls-1" d="M168.3,616.7a1.62,1.62,0,0,1,1.6,1.4v.1a1.55,1.55,0,0,1-1.6,1.7h0a1.6,1.6,0,1,1,0-3.2Z"/></svg>