<svg id="Layer_1" data-name="Layer 1" xmlns="http://www.w3.org/2000/svg" viewBox="0 0 474.98 475.49"><defs><style>.cls-1{fill:#0c9648;}</style></defs><path class="cls-1" d="M173.71,395.69c-48.58,2.51-53.82,9.35-53.82,9.35,28.51,4.33,60-7.3,60-7.3Z"/><path class="cls-1" d="M149.08,383.6c-28.28-2.05-45.16.69-45.16.69s-10.26,1.59-.45,3.65c33.29,4.1,51.08-1.6,51.08-1.6Z"/><path class="cls-1" d="M128.55,369.92c-10.72-4.33-40.14-5.25-44.7-5.25-4.33,0-6.15,1.37-.22,3.65,28.5,8.67,50.17,5.48,50.17,5.48Z"/><path class="cls-1" d="M108,351.67c-28.28-8.89-39-8.43-42.19-8.43s-4.11.22,0,2.28c31,11.86,46.52,10.26,46.52,10.26Z"/><path class="cls-1" d="M94.57,336.17C90,331.83,62,324.54,56.94,323.85s-7.07-.23-1.14,3.19c14.6,8.44,41.74,12.32,41.74,12.32Z"/><path class="cls-1" d="M82.94,320.43c-2.51-2.28-31.7-16.42-34.89-17.56s-7.07-1.6-1.37,3.19C70.17,322.94,82.94,323.62,85,323.62Z"/><path class="cls-1" d="M73.13,302.41c-1.36-2.51-25.77-18-29.87-19.61s-6.16-2.28-1.37,3.42C54,297.17,75.42,307.66,75.42,307.66Z"/><path class="cls-1" d="M66.29,285.76C65.15,283,42.57,267.06,39.61,265s-7.3-3.88-2,2.51c10.94,11,29.64,21.21,29.64,21.21Z"/><path class="cls-1" d="M60.59,267.75c-2.74-4.11-17.79-18.25-23.26-22.35-5.48-4.34-5.93-2.51-2.74,1.82A107.92,107.92,0,0,0,62,271.62Z"/><path class="cls-1" d="M56.49,247c-1.14-2.28-15.28-20.52-19.85-24.63-4.79-4.1-3.87-.91-1.14,3.42,3,6.62,22.35,26.23,22.35,26.23Z"/><path class="cls-1" d="M55.12,224.64c-2.06-4.79-11.41-19.38-14.6-23.94-3-4.56-5.93-6.16-3.42,0a114.45,114.45,0,0,0,18.25,28.5Z"/><path class="cls-1" d="M56.71,204.57c-.45-2.28-9.35-25.54-11.4-28.73s-3.65-4.11-2.51,1.59c3.42,16.42,13,31.48,13,31.48Z"/><path class="cls-1" d="M61.05,181.31c-.23-2.28-6.16-22.58-7.3-25.54s-3.65-6.16-3.42-.91c2.51,21.21,9.35,30.78,9.35,30.78Z"/><path class="cls-1" d="M66.29,161.93c-.23-13-2.51-23.72-2.73-26.23-.23-2.28-1.83-5.48-2.51-.91a86.19,86.19,0,0,0,3.87,31.92Z"/><path class="cls-1" d="M75,140.26s-.69-17.33-.91-21.44c-.46-4.1-2.28-5.47-2.28-.91a141.61,141.61,0,0,0,1.14,27.37Z"/><path class="cls-1" d="M85,123.84c1.83-8,1.6-23,1.6-23.72s-.23-2.51-.91-.46c-3.65,9.81-3,27.83-3,27.83Z"/><path class="cls-1" d="M97.08,108.33c1.14-3.19,3.65-20.3,3.65-23s-1.6-.23-1.6-.23c-4.79,8.89-5,27.14-5,27.14Z"/><path class="cls-1" d="M109.17,94.87c.91-1.82,6.61-18.7,6.84-21.66s-1.6-.69-1.6-.69c-4.79,7.3-8.43,25.32-8.43,25.32Z"/><path class="cls-1" d="M124.9,82.56c1.6-3,6.39-18.25,7.07-20.53.46-2.28-1.59-.68-1.59-.68a81.68,81.68,0,0,0-8,23.26Z"/><path class="cls-1" d="M142.92,67.73c2.28-2.5,7.76-14.36,8-16.19s-1.14-.45-1.14-.45c-4.79,6.38-9.57,18.24-9.57,18.24Z"/><path class="cls-1" d="M148.62,65.91c12.78-2.74,23.72-10.26,25.09-11.17s1.6-1.83-1.14-1.14c-18.47,5.7-24.63,12.08-24.63,12.08Z"/><path class="cls-1" d="M130.38,77.77c8.66,2,21.21,1.14,24.4,1.14s4.33-1.37.69-2.28c-6.62-1.14-23-1.14-23-1.14Z"/><path class="cls-1" d="M114.87,91.45a154.25,154.25,0,0,0,24.63-2.28c3.65-.45,5-2.28,1.37-2.28-8.21,0-23.49,2-23.49,2Z"/><path class="cls-1" d="M100.05,107.19a177.8,177.8,0,0,0,25.77-4.56c7.3-2,3-2.74-.69-2.74s-22.8,4.34-22.8,4.34Z"/><path class="cls-1" d="M88,123.84s14.37-1.83,24.63-5.93c10.49-4.11-.68-2.74-.68-2.74a120.16,120.16,0,0,0-22.13,5.93Z"/><path class="cls-1" d="M77.7,142.54c1.82-.46,18.7-5.47,26.91-10s4.33-4.57-1.37-3.2a170.08,170.08,0,0,0-23.49,9.35Z"/><path class="cls-1" d="M69.71,158.73c9.81-2.51,26.69-11.4,28.51-12.54s6.39-4.56-1.59-2.51S72,153.94,72,153.94Z"/><path class="cls-1" d="M62.64,177c8.21-2.28,24.41-11.63,29.2-14.83s3.19-4.79-2.06-3C79.06,163.52,64,173.1,64,173.1Z"/><path class="cls-1" d="M60.13,198.42c5.93-1.14,23.5-15.51,27.83-20.07,4.33-4.34.91-4.11-2-2.28C68.35,187,60.82,195.68,60.82,195.68Z"/><path class="cls-1" d="M59.68,217.8c3.42-1.82,18.47-13,24.86-20.52s3-6.16-2.05-2.74c-8.44,5.47-22.36,20.07-22.36,20.07Z"/><path class="cls-1" d="M60.59,237.41c5.7-3.42,20.75-20.29,24-24.4,3-4.1,1.82-5-2.28-1.59-12.09,9.35-21.9,23.94-21.9,23.94Z"/><path class="cls-1" d="M64.24,261.59c5.47-3.88,18.47-24.63,21.89-31.7,3.2-7.07.69-6.39-3.42-1.83-9.8,11.86-19.38,30.56-19.38,30.56Z"/><path class="cls-1" d="M71.08,280.75C74.5,276.64,87.73,253.61,90,247s2.51-9.35-3.65-2.28-16.87,31.93-16.87,31.93Z"/><path class="cls-1" d="M76.78,299.45c6.62-6.39,16.65-35.12,17.34-37.4.45-2.06,3.65-11.18-3.2-1.83s-15.28,36.49-15.28,36.49Z"/><path class="cls-1" d="M88,314.73c5.24-4.56,11.4-31.47,12.31-38.32s.46-9.8-3.87-1.36-10.27,37.17-10.27,37.17Z"/><path class="cls-1" d="M100.73,331.61c3.19-6.16,6.84-35.13,6.61-42.88,0-7.53-.91-11.4-4.56-.69-3.42,10.72-5.24,39.46-5.24,39.46Z"/><path class="cls-1" d="M114.41,345.52c2.06-7.07,3.2-35.35,3.2-41.51,0-5.93-2.28-15.51-4.79-1.37S111,341.87,111,341.87Z"/><path class="cls-1" d="M129.92,360.34c2.51-3.88.23-32.38-1.82-42.65s-3.88-11.63-5,0,3.65,40.14,3.65,40.14Z"/><path class="cls-1" d="M150,372.88c.23-11.17-5.24-35.57-8.21-44.24s-6.38-12.54-5.24,1.37,10.26,41.51,10.26,41.51Z"/><path class="cls-1" d="M169.61,383.38c-.23-8.44-8-34.44-12.55-43.56-4.56-8.9-7.3-11.86-5,1.36s14.37,41.06,14.37,41.06Z"/><path class="cls-1" d="M189.9,390.22c0-4.34-8.89-32.62-13.91-41.51s-6.84-9.12-4.56,1.6,13.91,39,13.91,39Z"/><path class="cls-1" d="M169.83,396.15s-11.17-9.58-20.07-8.67c-1.36.23-4.1-3.42-4.1-3.42s-9.12-10.72-16.65-10c-1.37.23-3.88-4.78-3.88-4.78s-9.35-12.09-17.56-13.46l-4.1-5.25S103,343.69,91.84,338c-1.37-.68-2.51-4.79-2.51-4.79s-3-7.3-9.13-10.72l-.45-4.1s-.69-7.3-9.12-13.69c-1.14-.91,0-4.56,0-4.56a22.89,22.89,0,0,0-9.58-15.51c-.92-.68,1.82-1.82,1.82-1.82s.69-9.81-4.33-13.91l.23-3.2s1.82-8.21-3.88-17.1c-.68-1.14,0-3.88,0-3.88s2.28-10.72-2.51-18.93c-.68-1.37,1.37-3.19,1.37-3.19a29,29,0,0,0-.23-18.24c-.46-1.6,1.6-3.2,1.6-3.2s6.16-5.93,1.59-20.52c-.45-1.6,3-1.6,3-1.6s6.38-4.33,3.88-16.65c-.46-1.82,1.59-4.79,1.59-4.79s7.3,1.83,6.84-18l2.51-1.37s5.48-1.37,8-14.37c.22-1.6,2.05-.23,2.05-.23s9.12-7.3,9.58-13.68l3-3.2s5.93-1.82,8.9-10l3.19-3s10.49-6.38,13.68-12.31l3.2-2.28s10.26-5,14.14-10.26l2.5-1.6s3.88-.91,11.86-5.93l-3.65,3.42s-11.63,5.7-15.28,11l-3,2s-8.67,3.65-13.46,11L116.92,91s-8,4.56-11.86,12.08l-1.59,3s-9.35,6.16-9.81,13l-.23,3a18.11,18.11,0,0,0-11.17,14.83l-2.06,4.1a18.86,18.86,0,0,0-4.56,10.49l-2.28,5.25s-4.1,3.88-3.65,12.77l-1.36,5.48s-5.25,10-3,16.64v4.34s-5,9.12-1.82,15.28c0,0,.91,1.82,1.36,3-2.73,6.84-1.36,14.37-1.14,16.65l1.14,3.42c-3.19,2.05-1.59,12.55,1.14,20.53,0,0,3.88.23,3.65.91-2.28,9.35,1.14,14.6,2.28,16.65l3.2,3.19s-2.06,9.81,3.65,13.46a27.15,27.15,0,0,1,3,3.42s-1.14,10,6.16,13.23l3.42,4.1a13.67,13.67,0,0,0,6.84,13l4.56,3.19s-1.37,8.67,8.44,12.09l4.56.69s-.91,11.4,10.49,14.14l5,1.59s-.46,6.39,15.28,13.69l3,.45s1.36,5.93,15.73,9.12l3.42-2.73s3.42,11.17,15.06,9.35l2.5,3.42s25.55,8.89,50.18,8h6.16c18.7-.68,37.63,5.93,37.63,5.93h0c23.72,8.67,45.61,24.86,45.61,24.86l-23.95,9.81c-32.15-32.16-62.49-29.2-65.22-29.2,0,0-3,0-7.07-.22-11.41-.46-29.88-3.65-36.72-5.48,0,0-11.63-2.73-12.77-3.42Z"/><path class="cls-1" d="M301.2,395.69C349.78,398.2,355,405,355,405c-28.51,4.33-60-7.3-60-7.3Z"/><path class="cls-1" d="M325.83,383.6c28.28-2.05,45.16.69,45.16.69s10.26,1.59.45,3.65c-33.3,4.1-51.08-1.6-51.08-1.6Z"/><path class="cls-1" d="M346.58,369.92c10.72-4.33,40.14-5.25,44.7-5.25,4.34,0,6.16,1.37.23,3.65C363,377,341.34,373.8,341.34,373.8Z"/><path class="cls-1" d="M367.11,351.67c28.28-8.89,39-8.43,42.19-8.43s4.11.22,0,2.28c-31,11.86-46.52,10.26-46.52,10.26Z"/><path class="cls-1" d="M380.56,336.17c4.57-4.34,32.62-11.63,37.64-12.32s7.07-.23,1.14,3.19c-14.6,8.44-41.74,12.32-41.74,12.32Z"/><path class="cls-1" d="M392.2,320.43c2.5-2.28,31.7-16.42,34.89-17.56s7.07-1.6,1.37,3.19c-23.49,16.88-36.26,17.56-38.32,17.56Z"/><path class="cls-1" d="M401.77,302.41c1.37-2.51,25.78-18,29.88-19.61s6.16-2.28,1.37,3.42c-12.09,10.95-33.53,21.44-33.53,21.44Z"/><path class="cls-1" d="M408.84,285.76C410,283,432.56,267.06,435.53,265s7.3-3.88,2.05,2.51c-10.95,11-29.65,21.21-29.65,21.21Z"/><path class="cls-1" d="M414.32,267.75c2.73-4.11,17.79-18.25,23.26-22.35,5.47-4.34,5.93-2.51,2.74,1.82A107.92,107.92,0,0,1,413,271.62Z"/><path class="cls-1" d="M418.42,247c1.14-2.28,15.28-20.52,19.84-24.63,4.79-4.1,3.88-.91,1.15,3.42-3,6.62-22.36,26.23-22.36,26.23Z"/><path class="cls-1" d="M419.79,224.64c2-4.79,11.4-19.38,14.6-23.94,3-4.56,5.93-6.16,3.42,0a114.45,114.45,0,0,1-18.25,28.5Z"/><path class="cls-1" d="M418.2,204.57c.45-2.28,9.35-25.54,11.4-28.73s3.65-4.11,2.51,1.59c-3.42,16.42-13,31.48-13,31.48Z"/><path class="cls-1" d="M413.86,181.31c.23-2.28,6.16-22.58,7.3-25.54s3.65-6.16,3.42-.91c-2.51,21.21-9.35,30.78-9.35,30.78Z"/><path class="cls-1" d="M408.62,161.93c.45-13.23,2.51-23.72,2.73-26.23.23-2.28,1.83-5.48,2.51-.91A86.07,86.07,0,0,1,410,166.71Z"/><path class="cls-1" d="M400,140.26s.68-17.33.91-21.44c.46-4.1,2.28-5.47,2.28-.91A141.61,141.61,0,0,1,402,145.28Z"/><path class="cls-1" d="M389.92,123.84c-1.83-8-1.6-23-1.6-23.72s.23-2.51.91-.46c3.65,9.81,3,27.83,3,27.83Z"/><path class="cls-1" d="M377.83,108.33c-1.14-3.19-3.65-20.3-3.65-23s1.6-.23,1.6-.23c4.78,8.89,5,27.14,5,27.14Z"/><path class="cls-1" d="M366,94.87c-.91-1.82-6.62-18.7-6.84-21.66s1.59-.69,1.59-.69c4.79,7.3,8.44,25.32,8.44,25.32Z"/><path class="cls-1" d="M350,82.56c-1.59-3-6.38-18.25-7.07-20.53-.45-2.28,1.6-.68,1.6-.68a81.68,81.68,0,0,1,8,23.26Z"/><path class="cls-1" d="M332,67.73c-2.28-2.5-7.76-14.36-8-16.19s1.15-.45,1.15-.45c4.78,6.38,9.57,18.24,9.57,18.24Z"/><path class="cls-1" d="M326.29,65.91c-12.78-2.74-23.72-10.26-25.09-11.17s-1.6-1.83,1.14-1.14C320.81,59.3,327,65.68,327,65.68Z"/><path class="cls-1" d="M344.53,77.77c-8.67,2-21.21,1.14-24.4,1.14s-4.34-1.37-.69-2.28c6.62-1.14,23-1.14,23-1.14Z"/><path class="cls-1" d="M360,91.45a154.25,154.25,0,0,1-24.63-2.28c-3.65-.45-5-2.28-1.37-2.28,8.21,0,23.49,2,23.49,2Z"/><path class="cls-1" d="M374.86,107.19a177.8,177.8,0,0,1-25.77-4.56c-7.3-2-3-2.74.69-2.74s22.8,4.34,22.8,4.34Z"/><path class="cls-1" d="M387.18,123.84s-14.37-1.83-24.63-5.93c-10.49-4.11.68-2.74.68-2.74a120.2,120.2,0,0,1,22.12,5.93Z"/><path class="cls-1" d="M397.44,142.54c-1.82-.46-18.7-5.47-26.91-10s-4.33-4.57,1.37-3.2a160.46,160.46,0,0,1,23.26,9.35Z"/><path class="cls-1" d="M405.2,158.73c-9.81-2.51-26.69-11.4-28.51-12.54s-6.39-4.56,1.59-2.51,24.63,10.26,24.63,10.26Z"/><path class="cls-1" d="M412.27,177c-8.21-2.28-24.41-11.63-29.2-14.83s-3.19-4.79,2.06-3c10.71,4.33,25.77,13.91,25.77,13.91Z"/><path class="cls-1" d="M414.77,198.42c-5.93-1.14-23.49-15.51-27.82-20.07-4.33-4.34-.91-4.11,2.05-2.28,17.56,10.94,25.09,19.61,25.09,19.61Z"/><path class="cls-1" d="M415.23,217.8c-3.42-1.82-18.47-13-24.86-20.52s-3-6.16,2.05-2.74c8.44,5.47,22.35,20.07,22.35,20.07Z"/><path class="cls-1" d="M414.32,237.41c-5.7-3.42-20.76-20.29-23.95-24.4-3-4.1-1.82-5,2.28-1.59,12.09,9.35,21.9,23.94,21.9,23.94Z"/><path class="cls-1" d="M410.67,261.59c-5.47-3.88-18.47-24.63-21.89-31.7-3.2-7.07-.69-6.39,3.42-1.83,9.8,11.86,19.38,30.56,19.38,30.56Z"/><path class="cls-1" d="M403.83,280.75c-3.42-4.11-16.65-27.14-18.93-33.76s-2.51-9.35,3.65-2.28,16.87,31.93,16.87,31.93Z"/><path class="cls-1" d="M398.13,299.45c-6.62-6.39-16.65-35.12-17.34-37.4-.45-2.06-3.65-11.18,3.2-1.83s15.28,36.49,15.28,36.49Z"/><path class="cls-1" d="M387.18,314.73c-5.25-4.56-11.4-31.47-12.32-38.32s-.45-9.8,3.88-1.36S389,312.22,389,312.22Z"/><path class="cls-1" d="M374.41,331.61c-3.2-6.16-6.84-35.13-6.62-42.88,0-7.53.92-11.4,4.56-.69,3.43,10.72,5.25,39.46,5.25,39.46Z"/><path class="cls-1" d="M360.5,345.52c-2.06-7.07-3.2-35.35-3.2-41.51,0-5.93,2.28-15.51,4.79-1.37s1.83,39.23,1.83,39.23Z"/><path class="cls-1" d="M345,360.34c-2.51-3.88-.23-32.38,1.82-42.65s3.88-11.63,5,0-3.65,40.14-3.65,40.14Z"/><path class="cls-1" d="M325.15,372.88c-.23-11.17,5.24-35.57,8.21-44.24s6.38-12.54,5.24,1.37-10.26,41.51-10.26,41.51Z"/><path class="cls-1" d="M305.53,383.38c.23-8.44,8-34.44,12.55-43.56,4.56-8.9,7.29-11.86,5,1.36s-14.37,41.06-14.37,41.06Z"/><path class="cls-1" d="M285,390.22c0-4.34,8.89-32.62,13.91-41.51s6.84-9.12,4.56,1.6-13.91,39-13.91,39Z"/><path class="cls-1" d="M305.08,396.15s11.17-9.58,20.07-8.67c1.36.23,4.1-3.42,4.1-3.42s9.12-10.72,16.65-10c1.37.23,3.88-4.78,3.88-4.78s9.35-12.09,17.56-13.46l4.1-5.25s.46-6.84,11.63-12.54c1.37-.68,2.51-4.79,2.51-4.79s3-7.3,9.12-10.72l.46-4.1s.69-7.3,9.12-13.69c1.14-.91,0-4.56,0-4.56a22.89,22.89,0,0,1,9.58-15.51c.91-.68-1.82-1.82-1.82-1.82s-.69-9.81,4.33-13.91l-.23-3.2s-1.82-8.21,3.88-17.1c.68-1.14,0-3.88,0-3.88s-2.28-10.72,2.51-18.93c.68-1.37-1.37-3.19-1.37-3.19a29,29,0,0,1,.23-18.24c.45-1.6-1.6-3.2-1.6-3.2s-6.16-5.93-1.59-20.52c.45-1.6-3-1.6-3-1.6s-6.39-4.33-3.88-16.65c.46-1.82-1.59-4.79-1.59-4.79s-7.3,1.83-6.84-18l-2.51-1.37s-5.48-1.37-8-14.37c-.22-1.6-2.05-.23-2.05-.23s-9.12-7.3-9.58-13.68l-3-3.2s-5.93-1.82-8.9-10l-3.19-3s-10.49-6.38-13.68-12.31l-3.2-2.28s-10.26-5-14.14-10.26l-2.5-1.6s-3.88-.91-11.86-5.93L324,64.77s11.64,5.7,15.29,11l3,2s8.67,3.65,13.46,11L358,91s8,4.56,11.86,12.08l1.59,3s9.35,6.16,9.81,13l.23,3a18.11,18.11,0,0,1,11.17,14.83l2.05,4.1a18.83,18.83,0,0,1,4.57,10.49l2.28,5.25s4.1,3.88,3.65,12.77l2.05,4.79s5.24,10,3,16.65v4.33s5,9.13,1.83,15.28c0,0-.91,1.83-1.37,3,2.74,6.84,1.37,14.37,1.14,16.65l-1.14,3.42c3.19,2.05,1.6,12.54-1.14,20.52,0,0-3.88.23-3.65.92,2.28,9.35-1.14,14.59-2.28,16.64l-3.19,3.2s2,9.8-3.65,13.45a28.19,28.19,0,0,0-3,3.42s1.14,10-6.16,13.23L384.21,309a13.67,13.67,0,0,1-6.84,13l-4.56,3.19s1.37,8.67-8.44,12.09l-4.56.68s.91,11.4-10.49,14.14l-5,1.6s.46,6.38-15.28,13.68l-3,.46s-1.37,5.93-15.74,9.12l-3.42-2.74s-3.42,11.18-15,9.35L289.34,387s-25.54,8.9-50.17,8H233c-18.7-.69-37.63,5.93-37.63,5.93h0c-23.72,8.66-45.62,24.86-45.62,24.86l24,9.8c32.16-32.15,62.49-29.19,65.23-29.19,0,0,3,0,7.07-.23,11.4-.45,29.87-3.65,36.72-5.47,0,0,11.63-2.74,12.77-3.42Z"/><path class="cls-1" d="M475,230.34v-.45A259.76,259.76,0,0,0,472.25,200a231.55,231.55,0,0,0-15.06-53.59c-18.7-44.25-47.89-79.6-87.57-106.51A228.15,228.15,0,0,0,297.09,7.53a222.6,222.6,0,0,0-36.94-6.39c-5.93-.46-12.09-.91-18-1.14H233L218,.68a273.23,273.23,0,0,0-33.3,5.48,227.35,227.35,0,0,0-49.95,17.56,238.61,238.61,0,0,0-104,97.38A233.9,233.9,0,0,0,.15,229.2a242.47,242.47,0,0,0,4.79,57.25,231.56,231.56,0,0,0,28.74,73.43,239.36,239.36,0,0,0,69.1,73.67,229,229,0,0,0,72.53,33.75,237.45,237.45,0,0,0,82.56,7.3,255.25,255.25,0,0,0,37.4-6.16,229.75,229.75,0,0,0,65.91-27.59A237.56,237.56,0,0,0,422.3,387a232.92,232.92,0,0,0,51.54-126.11c.46-5.25.92-10.5,1.14-16ZM236.66,463.65c-125-.22-226.93-103.08-225.1-229.43C13.38,111.07,114.64,10.72,239.17,11.86c123.61.68,224.41,101.94,224.18,226C463.12,363.31,361,463.88,236.66,463.65Z"/><path class="cls-1" d="M153.41,292.83c-.23.23-.45,0-.68-.45a3.56,3.56,0,0,1-.91-1.6,1.35,1.35,0,0,1,.22-1.59c1.14-.23,1.83-.23,2.06.22C154.55,290.1,154.33,291.24,153.41,292.83Z"/><path class="cls-1" d="M342.48,266.15c-.91-.46-1.6-.46-1.83,0a5.34,5.34,0,0,0-.68,2.05,13.89,13.89,0,0,0,2-1.37c.46-.22.69-.45.69-.68Zm0,0c-.91-.46-1.6-.46-1.83,0a5.34,5.34,0,0,0-.68,2.05,13.89,13.89,0,0,0,2-1.37c.46-.22.69-.45.69-.68Zm0,0c-.91-.46-1.6-.46-1.83,0a5.34,5.34,0,0,0-.68,2.05,13.89,13.89,0,0,0,2-1.37c.46-.22.69-.45.69-.68Zm0,0c-.91-.46-1.6-.46-1.83,0a5.34,5.34,0,0,0-.68,2.05,13.89,13.89,0,0,0,2-1.37c.46-.22.69-.45.69-.68Zm0,0c-.91-.46-1.6-.46-1.83,0a5.34,5.34,0,0,0-.68,2.05,13.89,13.89,0,0,0,2-1.37c.46-.22.69-.45.69-.68Zm0,0c-.91-.46-1.6-.46-1.83,0a5.34,5.34,0,0,0-.68,2.05,13.89,13.89,0,0,0,2-1.37c.46-.22.69-.45.69-.68Zm0,0c-.91-.46-1.6-.46-1.83,0a5.34,5.34,0,0,0-.68,2.05,13.89,13.89,0,0,0,2-1.37c.46-.22.69-.45.69-.68Zm0,0c-.91-.46-1.6-.46-1.83,0a5.34,5.34,0,0,0-.68,2.05,13.89,13.89,0,0,0,2-1.37c.46-.22.69-.45.69-.68Zm0,0c-.91-.46-1.6-.46-1.83,0a5.34,5.34,0,0,0-.68,2.05,13.89,13.89,0,0,0,2-1.37c.46-.22.69-.45.69-.68Zm0,0c-.91-.46-1.6-.46-1.83,0a5.34,5.34,0,0,0-.68,2.05,13.89,13.89,0,0,0,2-1.37c.46-.22.69-.45.69-.68Zm0,0c-.91-.46-1.6-.46-1.83,0a5.34,5.34,0,0,0-.68,2.05,13.89,13.89,0,0,0,2-1.37c.46-.22.69-.45.69-.68Zm0,0c-.91-.46-1.6-.46-1.83,0a5.34,5.34,0,0,0-.68,2.05,13.89,13.89,0,0,0,2-1.37c.46-.22.69-.45.69-.68Zm0,0c-.91-.46-1.6-.46-1.83,0a5.34,5.34,0,0,0-.68,2.05,13.89,13.89,0,0,0,2-1.37c.46-.22.69-.45.69-.68Zm0,0c-.91-.46-1.6-.46-1.83,0a5.34,5.34,0,0,0-.68,2.05,13.89,13.89,0,0,0,2-1.37c.46-.22.69-.45.69-.68Zm0,0c-.91-.46-1.6-.46-1.83,0a5.34,5.34,0,0,0-.68,2.05,13.89,13.89,0,0,0,2-1.37c.46-.22.69-.45.69-.68Zm0,0c-.91-.46-1.6-.46-1.83,0a5.34,5.34,0,0,0-.68,2.05,13.89,13.89,0,0,0,2-1.37c.46-.22.69-.45.69-.68Zm0,0c-.91-.46-1.6-.46-1.83,0a5.34,5.34,0,0,0-.68,2.05,13.89,13.89,0,0,0,2-1.37c.46-.22.69-.45.69-.68Zm0,0c-.91-.46-1.6-.46-1.83,0a5.34,5.34,0,0,0-.68,2.05,13.89,13.89,0,0,0,2-1.37c.46-.22.69-.45.69-.68Zm0,0c-.91-.46-1.6-.46-1.83,0a5.34,5.34,0,0,0-.68,2.05,13.89,13.89,0,0,0,2-1.37c.46-.22.69-.45.69-.68Zm0,0c-.91-.46-1.6-.46-1.83,0a5.34,5.34,0,0,0-.68,2.05,13.89,13.89,0,0,0,2-1.37c.46-.22.69-.45.69-.68Zm0,0c-.91-.46-1.6-.46-1.83,0a5.34,5.34,0,0,0-.68,2.05,13.89,13.89,0,0,0,2-1.37c.46-.22.69-.45.69-.68Zm0,0c-.91-.46-1.6-.46-1.83,0a5.34,5.34,0,0,0-.68,2.05,13.89,13.89,0,0,0,2-1.37c.46-.22.69-.45.69-.68Zm0,0c-.91-.46-1.6-.46-1.83,0a5.34,5.34,0,0,0-.68,2.05,13.89,13.89,0,0,0,2-1.37c.46-.22.69-.45.69-.68Zm0,0c-.91-.46-1.6-.46-1.83,0a5.34,5.34,0,0,0-.68,2.05,13.89,13.89,0,0,0,2-1.37c.46-.22.69-.45.69-.68Zm0,0c-.91-.46-1.6-.46-1.83,0a5.34,5.34,0,0,0-.68,2.05,13.89,13.89,0,0,0,2-1.37c.46-.22.69-.45.69-.68Zm0,0c-.91-.46-1.6-.46-1.83,0a5.34,5.34,0,0,0-.68,2.05,13.89,13.89,0,0,0,2-1.37c.46-.22.69-.45.69-.68Zm0,0c-.91-.46-1.6-.46-1.83,0a5.34,5.34,0,0,0-.68,2.05,13.89,13.89,0,0,0,2-1.37c.46-.22.69-.45.69-.68Zm0,0c-.91-.46-1.6-.46-1.83,0a5.34,5.34,0,0,0-.68,2.05,13.89,13.89,0,0,0,2-1.37c.46-.22.69-.45.69-.68Zm0,0c-.91-.46-1.6-.46-1.83,0a5.34,5.34,0,0,0-.68,2.05,13.89,13.89,0,0,0,2-1.37c.46-.22.69-.45.69-.68Zm0,0c-.91-.46-1.6-.46-1.83,0a5.34,5.34,0,0,0-.68,2.05,13.89,13.89,0,0,0,2-1.37c.46-.22.69-.45.69-.68Zm0,0c-.91-.46-1.6-.46-1.83,0a5.34,5.34,0,0,0-.68,2.05,13.89,13.89,0,0,0,2-1.37c.46-.22.69-.45.69-.68Zm0,0c-.91-.46-1.6-.46-1.83,0a5.34,5.34,0,0,0-.68,2.05,13.89,13.89,0,0,0,2-1.37c.46-.22.69-.45.69-.68Zm0,0c-.91-.46-1.6-.46-1.83,0a5.34,5.34,0,0,0-.68,2.05,13.89,13.89,0,0,0,2-1.37c.46-.22.69-.45.69-.68Zm0,0c-.91-.46-1.6-.46-1.83,0a5.34,5.34,0,0,0-.68,2.05,13.89,13.89,0,0,0,2-1.37c.46-.22.69-.45.69-.68Zm0,0c-.91-.46-1.6-.46-1.83,0a5.34,5.34,0,0,0-.68,2.05,13.89,13.89,0,0,0,2-1.37c.46-.22.69-.45.69-.68Zm0,0c-.91-.46-1.6-.46-1.83,0a5.34,5.34,0,0,0-.68,2.05,13.89,13.89,0,0,0,2-1.37c.46-.22.69-.45.69-.68Zm0,0c-.91-.46-1.6-.46-1.83,0a5.34,5.34,0,0,0-.68,2.05,13.89,13.89,0,0,0,2-1.37c.46-.22.69-.45.69-.68Zm0,0c-.91-.46-1.6-.46-1.83,0a5.34,5.34,0,0,0-.68,2.05,13.89,13.89,0,0,0,2-1.37c.46-.22.69-.45.69-.68Zm0,0c-.91-.46-1.6-.46-1.83,0a5.34,5.34,0,0,0-.68,2.05,13.89,13.89,0,0,0,2-1.37c.46-.22.69-.45.69-.68Zm0,0c-.91-.46-1.6-.46-1.83,0a5.34,5.34,0,0,0-.68,2.05,13.89,13.89,0,0,0,2-1.37c.46-.22.69-.45.69-.68Zm0,0c-.91-.46-1.6-.46-1.83,0a5.34,5.34,0,0,0-.68,2.05,13.89,13.89,0,0,0,2-1.37c.46-.22.69-.45.69-.68Zm0,0c-.91-.46-1.6-.46-1.83,0a5.34,5.34,0,0,0-.68,2.05,13.89,13.89,0,0,0,2-1.37c.46-.22.69-.45.69-.68Zm0,0c-.91-.46-1.6-.46-1.83,0a5.34,5.34,0,0,0-.68,2.05,13.89,13.89,0,0,0,2-1.37c.46-.22.69-.45.69-.68Zm0,0c-.91-.46-1.6-.46-1.83,0a5.34,5.34,0,0,0-.68,2.05,13.89,13.89,0,0,0,2-1.37c.46-.22.69-.45.69-.68Zm0,0c-.91-.46-1.6-.46-1.83,0a5.34,5.34,0,0,0-.68,2.05,13.89,13.89,0,0,0,2-1.37c.46-.22.69-.45.69-.68Zm0,0c-.91-.46-1.6-.46-1.83,0a5.34,5.34,0,0,0-.68,2.05,13.89,13.89,0,0,0,2-1.37c.46-.22.69-.45.69-.68Zm0,0c-.91-.46-1.6-.46-1.83,0a5.34,5.34,0,0,0-.68,2.05,13.89,13.89,0,0,0,2-1.37c.46-.22.69-.45.69-.68Zm0,0c-.91-.46-1.6-.46-1.83,0a5.34,5.34,0,0,0-.68,2.05,13.89,13.89,0,0,0,2-1.37c.46-.22.69-.45.69-.68Zm0,0c-.91-.46-1.6-.46-1.83,0a5.34,5.34,0,0,0-.68,2.05,13.89,13.89,0,0,0,2-1.37c.46-.22.69-.45.69-.68Zm0,0c-.91-.46-1.6-.46-1.83,0a5.34,5.34,0,0,0-.68,2.05,13.89,13.89,0,0,0,2-1.37c.46-.22.69-.45.69-.68Zm0,0c-.91-.46-1.6-.46-1.83,0a5.34,5.34,0,0,0-.68,2.05,13.89,13.89,0,0,0,2-1.37c.46-.22.69-.45.69-.68Zm0,0c-.91-.46-1.6-.46-1.83,0a5.34,5.34,0,0,0-.68,2.05,13.89,13.89,0,0,0,2-1.37c.46-.22.69-.45.69-.68Zm0,0c-.91-.46-1.6-.46-1.83,0a5.34,5.34,0,0,0-.68,2.05,13.89,13.89,0,0,0,2-1.37c.46-.22.69-.45.69-.68Zm0,0c-.91-.46-1.6-.46-1.83,0a5.34,5.34,0,0,0-.68,2.05,13.89,13.89,0,0,0,2-1.37c.46-.22.69-.45.69-.68Zm0,0c-.91-.46-1.6-.46-1.83,0a5.34,5.34,0,0,0-.68,2.05,13.89,13.89,0,0,0,2-1.37c.46-.22.69-.45.69-.68Zm0,0c-.91-.46-1.6-.46-1.83,0a5.34,5.34,0,0,0-.68,2.05,13.89,13.89,0,0,0,2-1.37c.46-.22.69-.45.69-.68Zm-9.81-31.7C321,276.19,283,307,237.57,307s-83.47-30.78-95.1-72.52H102.33C114.64,297.85,170.52,346,237.57,346S360.5,297.85,372.81,234.45Zm12.09,11a28.46,28.46,0,0,1,4.79.91,8.94,8.94,0,0,1,5.7,4.1c-5.25-.68-8-.91-13.23-1.82-.23,0-.91-.68-2-1.82s-1.6-1.83-2.05-2.29C338.37,244.48,340.43,244.71,344.76,245.4Zm-134.1,64.54a16.52,16.52,0,0,0,1.14,1.37l1.14,1.14c.23,0,.45-.23,1.14-.69s1.14-.68,1.14-.91a24.75,24.75,0,0,0,2.51,2.51l-1.37,1.37a10.52,10.52,0,0,1-1.37.91c-.23,0-1.14-.91-2.74-2.51l-2.05,1.37a7.45,7.45,0,0,1-1.37-1.37,17,17,0,0,1-1.14-1.37A11.23,11.23,0,0,0,210.66,309.94Zm-75.95-64.09a9.36,9.36,0,0,1,.46-2c.91.46,2.28,1.14,3.87,1.82-.22.23-.22.92-.45,1.83s-.23,1.6,0,1.82c0,.23.45.46,1.37.69a6.17,6.17,0,0,0,1.59.68c-.22,1.6-.22,2.51-.45,4.11a21.19,21.19,0,0,1-2.06-.69c-1.14-.45-1.82-.68-1.82-.68a23.12,23.12,0,0,1,.46-4.11c-.92-.45-1.6-.91-2.74-1.36C134.48,247.68,134.48,247,134.71,245.85Zm-5.47,32.39c-1.14-.23-1.6-.46-1.83-.46a27.19,27.19,0,0,1-.22-3.88,15.7,15.7,0,0,1-2.51-.91,5,5,0,0,1-.23-2.05c0-.91,0-1.6.23-1.82a8.4,8.4,0,0,0,2.51.68c.45.23.68.23,1.14.46a12,12,0,0,0-.23,1.82c0,.91,0,1.37.23,1.6a10.21,10.21,0,0,0,1.14.45,7.12,7.12,0,0,1,1.36.46c0,1.6.23,2.28.23,3.88A6.35,6.35,0,0,1,129.24,278.24ZM128.78,268c-.23-.46-.23-.69-.45-.92s-.23-.45-.46-.91a3.41,3.41,0,0,1-.23-3,10.24,10.24,0,0,1,1.6-2.28,5.2,5.2,0,0,0,.91-1.15,7.37,7.37,0,0,0-4.1-3c-2.29-.68-3.43-.91-5.71-1.6-1.82-.68-3.19-1.36-3.42-2.28-1.14-2.51,1.83-4.79,8.44-6.38.46,0,.69-.23.91-.23a2.9,2.9,0,0,0,1.37.23,18.56,18.56,0,0,0-3.88,1.82c-1.82,1.14-2.73,2.28-2.28,3,.46,1.36,1.83,2.28,3.88,3,1.14.46,3,.91,5.47,1.6,2.06.68,3.2,1.37,3.65,2.28a1.72,1.72,0,0,1,0,1.82,9,9,0,0,1-1.59,1.14,6,6,0,0,0-1.14,1.37,2.51,2.51,0,0,0,0,1.83c.22.22.22.45.45.68l.46.91A73.26,73.26,0,0,0,137,273a9.58,9.58,0,0,0,2.51-4.33,15,15,0,0,0,4.56,0,21,21,0,0,1-2.73,4.56,6.22,6.22,0,0,1-1.37,1.14,54.46,54.46,0,0,1-5.7,2.28A94,94,0,0,1,128.78,268Zm11.63,10.26c1.83,2.51,3,3.88,5,6.38.46-.22.68-.91.91-1.82a6.25,6.25,0,0,0,.23-2.05,9.11,9.11,0,0,0-.46-2.28c.23,0,.92-.23,2.06-.46a13.26,13.26,0,0,0,2.73-.91,5.66,5.66,0,0,1,.23,2.28,7,7,0,0,1-.23,2.28,9,9,0,0,1-.91,2.28A7.92,7.92,0,0,1,148.4,286l-.46.46c-.23.23-.46.23-.46.45-2.28,1.83-3.87,2.29-4.56,1.37-2.51-3-3.65-4.56-6.16-7.75A14.29,14.29,0,0,1,140.41,278.24Zm52.69,39.45a5.28,5.28,0,0,1-1.14,1.6c-.46.68-.92,1.14-1.37,1.82a1.23,1.23,0,0,1-1.83.46c-1.14-.46-1.59-.68-2.73-1.14-.69-.23-.92-.46-1.6-.68a7.52,7.52,0,0,0-1.37-.69v-1.14c-.45.23-.68.46-1.14.69-1.82-.92-2.74-1.37-4.33-2.29a2.37,2.37,0,0,0-.23-.91h-1.14c-1.83-1.14-2.74-1.59-4.56-2.73a2.38,2.38,0,0,0-.23-.92c-.46.23-1.14.23-1.37-.22a.23.23,0,0,1-.23-.23h0c-2.73-1.83-4.1-2.74-6.61-4.56a9.88,9.88,0,0,1,.46-2.28c-.46.22-.69.22-1.14.45a2.49,2.49,0,0,1-1.14.23c-3.2-2.51-4.79-3.88-8-6.84l-1.14-1.14c-3.87,1.59-6.84,1.59-8.44-.23-.68-.91-1.82-2.05-3-3.65a7.41,7.41,0,0,1-1.83-4.1l2.06,2.05a12.36,12.36,0,0,0,6.38,3.42,15.56,15.56,0,0,0,3,.45c-2.74-2.73-3.19-4.56-1.6-5.92a8.48,8.48,0,0,1,3.19-1.37c1.37-.46,2.51-.69,3.43-.92a3.12,3.12,0,0,1,3,.69c.68.68.68,1.82-.23,3.65a26.89,26.89,0,0,1-2,3.42l.68.68.46.46c2.74,2.51,4.11,3.65,6.84,5.93a5,5,0,0,0-.23-1.83,7,7,0,0,0-.91-1.59,5.15,5.15,0,0,0-1.14-.69,19.81,19.81,0,0,1,3.88-1.36c.23-.23.91,0,2.05.45a14.77,14.77,0,0,1,1.83.91,5.21,5.21,0,0,1,1.82,2.51,2.71,2.71,0,0,1-.46,3,3.43,3.43,0,0,1-1.36.91c-.69.23-1.37.46-1.37.68.45.46.68.46,1.14.92l3.42,2.28a3.07,3.07,0,0,1,.91.68c.46.23.91,0,1.37-.68a5.71,5.71,0,0,1,2-.92,9.94,9.94,0,0,1,2.05-.68,15.73,15.73,0,0,1-3.87,3.42c1.59.91,2.28,1.37,3.65,2.05.45.23.68,0,1.14-.45a.22.22,0,0,1,.22-.23v-.23a10.7,10.7,0,0,1,4.11-1.6c-.23.23-.23.46-.68.92a3.25,3.25,0,0,1-.69.91,11.43,11.43,0,0,1-1.82,2.05l2.28,1.14c.23,0,.45-.23.68-.68a.8.8,0,0,0,.23-.46c0-.23.23-.23.23-.45,2.05-1.14,3-1.83,3.42-1.6-.46,1.14-.69,1.6-1.14,2.74a1,1,0,0,0,0,1.14,1.22,1.22,0,0,0,.45.91c.46.23.69.23,1.14.45a9.55,9.55,0,0,0,2.29.92s.22,0,.22-.46a23.32,23.32,0,0,0,1.37-3.88c.46-1.36.69-2.73,1.14-4.1a3.21,3.21,0,0,1-.45-1.37c2.5-2.05,3.87-3,4.33-3a3.75,3.75,0,0,0-.46,1.14,2.49,2.49,0,0,0,.23,1.14,19.21,19.21,0,0,0,2.05,3.19c-1.59.91-2.28,1.37-3.87,2.28C194.46,313.36,194,315,193.1,317.69Zm8.21-3c-.46,1.59-.92,3-1.37,4.33a9.89,9.89,0,0,1-4.34,5.25c1.15-4.79,1.83-7.07,3.2-11.86,0-.23.68-.91,1.82-1.83a26.39,26.39,0,0,1,2.28-1.82S202.22,310.85,201.31,314.73Zm33.75,21.21-1.14,1.14s-1.14-.69-3-1.83c-.45.46-1.14.92-1.82,1.6a14.35,14.35,0,0,1-1.6-.91,8.43,8.43,0,0,1-1.36-1.14,10,10,0,0,0,1.59-1.6,3.25,3.25,0,0,1,.91-.68,9.15,9.15,0,0,0,1.37,1.14,3.62,3.62,0,0,0,1.37.68,3.93,3.93,0,0,0,.91-.68,2.79,2.79,0,0,0,.92-.91c1.14.68,1.82,1.14,3,1.82A6,6,0,0,1,235.06,335.94Zm1.37-4.79h-.91a2.24,2.24,0,0,1-1.83-.69,6.6,6.6,0,0,1-.91-1.82c-.68.91-.91,1.6-1.6,2.51a36.88,36.88,0,0,1-5-.46h-.92A42.7,42.7,0,0,1,220,330a3.3,3.3,0,0,1-2.28-1.6,11.93,11.93,0,0,1-.69-2.51c-.23-.91-.23-1.36-.45-1.36-1.14-.23-2.51.22-3.88,1.59s-2.28,2.28-3.88,3.65c-1.37,1.14-2.51,1.6-3.19,1.37-2.28-.69-2.51-3.88-.46-10a1.34,1.34,0,0,0,.23-.91l.91-.91a17.44,17.44,0,0,0-.45,4.1c0,2.06.23,3.2.91,3.43a4.84,4.84,0,0,0,3.88-1.37,43.85,43.85,0,0,0,3.65-3.42c1.36-1.14,2.5-1.83,3.42-1.6.68.23,1.14.46,1.14,1.14a5,5,0,0,0,.23,1.82,3.25,3.25,0,0,0,.45,1.6,1.16,1.16,0,0,0,1.14.91c2.05.23,3,.46,5,.69h.91c2.28.23,3.42.23,5.93.45.23-.22.23-1.36.46-3.19a9.63,9.63,0,0,0,1.14-1.6,18.2,18.2,0,0,0,1.37-1.59v.68a29,29,0,0,1-.46,3.88,1.61,1.61,0,0,0,1.82,1.82h1.37c2.74,0,3.88,0,6.62-.22a9.13,9.13,0,0,0-2.51-4.34c.23-.45.91-1.82,1.82-3.87a6.68,6.68,0,0,1,1.6,1.82c.45.91.91,1.6,1.14,2.05a6.66,6.66,0,0,1,.46,2.06,15.54,15.54,0,0,1-.46,4.1,10.11,10.11,0,0,1-.46,1.82c-3.42.23-5,.23-8.44.23h-1.59Zm6.61,5.47c-.91.69-1.37,1.14-1.82,1.14-.23,0-.69-.23-1.6-.91a13.79,13.79,0,0,1-1.37-1.14c0-.23.46-.68,1.37-1.37s1.37-1.14,1.6-1.14c0,0,.68.46,1.59,1.14.92.91,1.6,1.14,1.6,1.37C244.41,335.48,244,335.94,243,336.62ZM276.8,325a13.34,13.34,0,0,0-2.74.91h0a39,39,0,0,1-5,1.37,10.86,10.86,0,0,1-1.6-1.59,2.1,2.1,0,0,0-.22,1.14c-.23.45-.23.68-.46,1.14-2.74.68-3.88.91-6.61,1.36h-.46c-.91,0-1.6,0-1.82-.22a11.93,11.93,0,0,1-1.83,4.33c-1.14,1.6-2.28,2.74-3.65,2.74a18,18,0,0,1-4.79-.92c-2.51-.68-3.65-1.59-3.87-2.05,0,0,.68.23,1.59.46a11.73,11.73,0,0,0,2.51.45,6.8,6.8,0,0,0,2.51-.68,17.88,17.88,0,0,0,2.74-2.05,9.88,9.88,0,0,0,1.59-1.6,3,3,0,0,0,.69-1.6c0-.45-.91-1.36-2.74-3,.46-.91.91-2.28,1.6-3.65,1.37,1.6,2.28,2.51,2.51,2.74a5,5,0,0,0,3.19,1.14c.91-.23,1.14-.23,2.05-.46,1.37-.23,2-.45,3.65-.68a3.67,3.67,0,0,0-1.6-.92,7.54,7.54,0,0,0-1.82-.22,8.1,8.1,0,0,1-1.37.45,22.89,22.89,0,0,1,.91-3.87c0-.23.46-.69,1.37-1.14l1.83-.92a5.33,5.33,0,0,1,3.19.23,3.47,3.47,0,0,1,2.28,2.05,4.41,4.41,0,0,1-.23,1.6,4,4,0,0,0-.23,1.37,2.06,2.06,0,0,1,1.14-.23c.69-.23.92-.23,1.6-.46.91-.22,1.37-.45,2.28-.68v-.46a17.7,17.7,0,0,0-1.82-3.64c-.69-1.15-1.37-2.51-2.06-3.65l-1.36-.69c.45-3.19.68-4.79.91-4.79a3.76,3.76,0,0,1,.45,1.14,5.16,5.16,0,0,0,1.14.69,18.86,18.86,0,0,0,3.88.91c-.45,1.6-.68,2.51-1.14,4.33a38,38,0,0,0,2.28,4.56c.23.46.23,1.14.46,1.83,0,.91.23,1.37.23,2.05S277.71,325,276.8,325Zm7.29-2.05c-2.51-4.33-3.87-6.39-6.38-10.72v-2.51c0-1.37.23-2.28.23-2.74.22,0,1.14,1.83,3.19,5.25a17.27,17.27,0,0,1,2.05,4.1A9.69,9.69,0,0,1,284.09,322.94Zm.92-16.19a12.18,12.18,0,0,1-1.83-.23q.35-1.36.69-3.42c.22.23.91.23,1.82.23h1.6a11,11,0,0,0,.45-1.15,4.79,4.79,0,0,0,.23-1.36c1.6,0,2.28.22,3.88.22a5.66,5.66,0,0,1-.23,1.83c-.23,1.14-.23,1.6-.46,1.6s-1.36,0-3.87-.23c-.23.68-.46,1.59-.69,2.28C286.6,307,285.92,307,285,306.75ZM351.6,258.4a.7.7,0,0,1-.23.45,3.21,3.21,0,0,0-.45,1.37,37.71,37.71,0,0,0-2.06,4.33.87.87,0,0,0-.22.69c0,.23,0,.45.45.91s.69.91.46,1.14a80.94,80.94,0,0,1-8,5.25c0,.22.22.45.45.68a9.38,9.38,0,0,1,.69.91c.22.46,0,.92-.46,1.6a.23.23,0,0,1-.23.23,7.2,7.2,0,0,0-.91,1.37,21.14,21.14,0,0,1-2.05,2.73c-.23.46-.69.46-1.14.23a6.79,6.79,0,0,0-1.83-.91s.46.91,1.37,2.74c-.46.45-.46.68-.91,1.14-1.6,2.05-2.51,3.19-4.33,5.24h0c-.23.23-.46.69-.69.69a1.72,1.72,0,0,1-1.82.22c-.23,0-.46-.22-.69-.22a15.77,15.77,0,0,1,.91,2.05c-3,3.19-5.47,5.7-7.75,7.75-2.51,2.28-4.79,4.11-7.3,6.16a72.39,72.39,0,0,1-8.66,6.16h0c-.23.23-.23.23-.46.23a3.36,3.36,0,0,1-3,.22,14.29,14.29,0,0,1-2.5-1.36,3.54,3.54,0,0,0-1.37-.69c-1.14.69-1.6,1.83-1.83,3.65a38.41,38.41,0,0,1-.22,5c-.23,1.82-.69,2.73-1.37,3.19-2.06,1.14-4.79-1.37-7.53-7.07l-.46-.91v-1.14a21.56,21.56,0,0,0,2.51,3.19c1.6,1.6,2.51,2.28,3.2,2.05,1.14-.45,1.82-1.59,2-3.42,0-1.14.23-2.73.45-4.79.23-1.82.69-3,1.6-3.42.69-.45,1.14-.45,1.6,0l1.37,1.37a3.62,3.62,0,0,0,1.59.91,1.92,1.92,0,0,0,1.6,0,6.91,6.91,0,0,0,1.37-.91c4.33-3,7.52-5.25,10.72-7.75a111.17,111.17,0,0,0,10-9.13c-.23-.22-.91,0-1.82.23a4.49,4.49,0,0,0-1.83.91c-1.14,1.14-2.73,3-5.24,5.25-1.6,1.37-2.74,2.51-3.88,3.42-4.11,3.19-6.84,4.79-8,5-.46,0-.91,0-1.14-.46-.69-.91-.69-2.28-.46-4.33a21.44,21.44,0,0,1,2.51-7.3c.68-1.14,1.14-2.28,1.82-3.42a15.18,15.18,0,0,0,1.14-2.05c.23,1.59.46,2.51.69,4.1-.46.46-.91,1.37-1.6,2.28a22.87,22.87,0,0,1-1.37,2.51A24.15,24.15,0,0,0,305.3,299a7.61,7.61,0,0,0-.68,2.28c.23.23,3.42-1.59,8.67-6.16a45.18,45.18,0,0,0,3.42-3.19l4.1-4.1a5,5,0,0,1,2.05-1.6,5.92,5.92,0,0,1,2.51-.68,8.29,8.29,0,0,1,1.37.45c.46.23.91.23,1.37.46.46,0,.68-.23,1.14-.46,1.6-1.82,2.51-3,4.11-5,.68-.91,1.14-1.36,1.82-2.28-3.88-1.82-5.93-2.73-9.81-4.56a10.54,10.54,0,0,1-1.14-2.05,7.21,7.21,0,0,1-.91-2.05c.23-.23,1.37.45,3.88,1.59,1.82.92,3.65,1.83,5.24,2.51,2.06.92,3.2,1.6,3.42,1.6.69.46,1.14.23,1.6-.46h0c.23-.45.46-.68.91-1.37s.69-1.14,1.14-1.82c.23-.23,0-.68-.45-1.37-.23-.45-.69-.91-.92-1.37a10.82,10.82,0,0,1-.45-3.19,6.67,6.67,0,0,1,.68-3.19,1,1,0,0,1,1.37-.69c.46.23,1.14.23,1.6.46a9.38,9.38,0,0,0,2.28-.23c1.14-.23,1.82-.45,2.05-.91.69-1.14.91-1.83,1.6-3a.22.22,0,0,0-.23-.22,80.06,80.06,0,0,0-8.9-1.83,6.09,6.09,0,0,1-1.82.69,6,6,0,0,1-1.6-2.06,6.68,6.68,0,0,1-1.14-2.28c.23,0,.23,0,.23.23,1.14.46,3.19-.46,5.93-3.19.91,1.59,1.37,2.51,2.28,4.33a23.91,23.91,0,0,1,2.74.69c1.37.22,2.28.45,2.74.45.22,0,.91-.68,2.05-1.82.91-.92,1.82-1.37,2.51-1.14a7.5,7.5,0,0,1,4.33,3.19,27.19,27.19,0,0,0-3.19,1.82A1.82,1.82,0,0,0,351.6,258.4Zm-11,7.75a5.34,5.34,0,0,0-.68,2.05,13.89,13.89,0,0,0,2-1.37c.46-.22.69-.45.69-.68a.23.23,0,0,1-.23-.23C341.34,265.69,340.88,265.69,340.65,266.15Zm1.83,0c-.91-.46-1.6-.46-1.83,0a5.34,5.34,0,0,0-.68,2.05,13.89,13.89,0,0,0,2-1.37c.46-.22.69-.45.69-.68Zm0,0c-.91-.46-1.6-.46-1.83,0a5.34,5.34,0,0,0-.68,2.05,13.89,13.89,0,0,0,2-1.37c.46-.22.69-.45.69-.68Zm0,0c-.91-.46-1.6-.46-1.83,0a5.34,5.34,0,0,0-.68,2.05,13.89,13.89,0,0,0,2-1.37c.46-.22.69-.45.69-.68Zm0,0c-.91-.46-1.6-.46-1.83,0a5.34,5.34,0,0,0-.68,2.05,13.89,13.89,0,0,0,2-1.37c.46-.22.69-.45.69-.68Zm0,0c-.91-.46-1.6-.46-1.83,0a5.34,5.34,0,0,0-.68,2.05,13.89,13.89,0,0,0,2-1.37c.46-.22.69-.45.69-.68Zm0,0c-.91-.46-1.6-.46-1.83,0a5.34,5.34,0,0,0-.68,2.05,13.89,13.89,0,0,0,2-1.37c.46-.22.69-.45.69-.68Zm0,0c-.91-.46-1.6-.46-1.83,0a5.34,5.34,0,0,0-.68,2.05,13.89,13.89,0,0,0,2-1.37c.46-.22.69-.45.69-.68Zm0,0c-.91-.46-1.6-.46-1.83,0a5.34,5.34,0,0,0-.68,2.05,13.89,13.89,0,0,0,2-1.37c.46-.22.69-.45.69-.68Zm0,0c-.91-.46-1.6-.46-1.83,0a5.34,5.34,0,0,0-.68,2.05,13.89,13.89,0,0,0,2-1.37c.46-.22.69-.45.69-.68Zm0,0c-.91-.46-1.6-.46-1.83,0a5.34,5.34,0,0,0-.68,2.05,13.89,13.89,0,0,0,2-1.37c.46-.22.69-.45.69-.68Zm0,0c-.91-.46-1.6-.46-1.83,0a5.34,5.34,0,0,0-.68,2.05,13.89,13.89,0,0,0,2-1.37c.46-.22.69-.45.69-.68Zm0,0c-.91-.46-1.6-.46-1.83,0a5.34,5.34,0,0,0-.68,2.05,13.89,13.89,0,0,0,2-1.37c.46-.22.69-.45.69-.68Zm0,0c-.91-.46-1.6-.46-1.83,0a5.34,5.34,0,0,0-.68,2.05,13.89,13.89,0,0,0,2-1.37c.46-.22.69-.45.69-.68Zm0,0c-.91-.46-1.6-.46-1.83,0a5.34,5.34,0,0,0-.68,2.05,13.89,13.89,0,0,0,2-1.37c.46-.22.69-.45.69-.68Zm0,0c-.91-.46-1.6-.46-1.83,0a5.34,5.34,0,0,0-.68,2.05,13.89,13.89,0,0,0,2-1.37c.46-.22.69-.45.69-.68Zm0,0c-.91-.46-1.6-.46-1.83,0a5.34,5.34,0,0,0-.68,2.05,13.89,13.89,0,0,0,2-1.37c.46-.22.69-.45.69-.68Zm0,0c-.91-.46-1.6-.46-1.83,0a5.34,5.34,0,0,0-.68,2.05,13.89,13.89,0,0,0,2-1.37c.46-.22.69-.45.69-.68Zm0,0c-.91-.46-1.6-.46-1.83,0a5.34,5.34,0,0,0-.68,2.05,13.89,13.89,0,0,0,2-1.37c.46-.22.69-.45.69-.68Zm0,0c-.91-.46-1.6-.46-1.83,0a5.34,5.34,0,0,0-.68,2.05,13.89,13.89,0,0,0,2-1.37c.46-.22.69-.45.69-.68Zm0,0c-.91-.46-1.6-.46-1.83,0a5.34,5.34,0,0,0-.68,2.05,13.89,13.89,0,0,0,2-1.37c.46-.22.69-.45.69-.68Zm0,0c-.91-.46-1.6-.46-1.83,0a5.34,5.34,0,0,0-.68,2.05,13.89,13.89,0,0,0,2-1.37c.46-.22.69-.45.69-.68Zm0,0c-.91-.46-1.6-.46-1.83,0a5.34,5.34,0,0,0-.68,2.05,13.89,13.89,0,0,0,2-1.37c.46-.22.69-.45.69-.68Zm0,0c-.91-.46-1.6-.46-1.83,0a5.34,5.34,0,0,0-.68,2.05,13.89,13.89,0,0,0,2-1.37c.46-.22.69-.45.69-.68Zm0,0c-.91-.46-1.6-.46-1.83,0a5.34,5.34,0,0,0-.68,2.05,13.89,13.89,0,0,0,2-1.37c.46-.22.69-.45.69-.68Zm0,0c-.91-.46-1.6-.46-1.83,0a5.34,5.34,0,0,0-.68,2.05,13.89,13.89,0,0,0,2-1.37c.46-.22.69-.45.69-.68Zm0,0c-.91-.46-1.6-.46-1.83,0a5.34,5.34,0,0,0-.68,2.05,13.89,13.89,0,0,0,2-1.37c.46-.22.69-.45.69-.68Zm0,0c-.91-.46-1.6-.46-1.83,0a5.34,5.34,0,0,0-.68,2.05,13.89,13.89,0,0,0,2-1.37c.46-.22.69-.45.69-.68Zm0,0c-.91-.46-1.6-.46-1.83,0a5.34,5.34,0,0,0-.68,2.05,13.89,13.89,0,0,0,2-1.37c.46-.22.69-.45.69-.68Zm0,0c-.91-.46-1.6-.46-1.83,0a5.34,5.34,0,0,0-.68,2.05,13.89,13.89,0,0,0,2-1.37c.46-.22.69-.45.69-.68Zm0,0c-.91-.46-1.6-.46-1.83,0a5.34,5.34,0,0,0-.68,2.05,13.89,13.89,0,0,0,2-1.37c.46-.22.69-.45.69-.68Zm0,0c-.91-.46-1.6-.46-1.83,0a5.34,5.34,0,0,0-.68,2.05,13.89,13.89,0,0,0,2-1.37c.46-.22.69-.45.69-.68Zm0,0c-.91-.46-1.6-.46-1.83,0a5.34,5.34,0,0,0-.68,2.05,13.89,13.89,0,0,0,2-1.37c.46-.22.69-.45.69-.68Zm0,0c-.91-.46-1.6-.46-1.83,0a5.34,5.34,0,0,0-.68,2.05,13.89,13.89,0,0,0,2-1.37c.46-.22.69-.45.69-.68Zm0,0c-.91-.46-1.6-.46-1.83,0a5.34,5.34,0,0,0-.68,2.05,13.89,13.89,0,0,0,2-1.37c.46-.22.69-.45.69-.68Zm0,0c-.91-.46-1.6-.46-1.83,0a5.34,5.34,0,0,0-.68,2.05,13.89,13.89,0,0,0,2-1.37c.46-.22.69-.45.69-.68Zm0,0c-.91-.46-1.6-.46-1.83,0a5.34,5.34,0,0,0-.68,2.05,13.89,13.89,0,0,0,2-1.37c.46-.22.69-.45.69-.68Zm0,0c-.91-.46-1.6-.46-1.83,0a5.34,5.34,0,0,0-.68,2.05,13.89,13.89,0,0,0,2-1.37c.46-.22.69-.45.69-.68Zm0,0c-.91-.46-1.6-.46-1.83,0a5.34,5.34,0,0,0-.68,2.05,13.89,13.89,0,0,0,2-1.37c.46-.22.69-.45.69-.68Zm0,0c-.91-.46-1.6-.46-1.83,0a5.34,5.34,0,0,0-.68,2.05,13.89,13.89,0,0,0,2-1.37c.46-.22.69-.45.69-.68Zm0,0c-.91-.46-1.6-.46-1.83,0a5.34,5.34,0,0,0-.68,2.05,13.89,13.89,0,0,0,2-1.37c.46-.22.69-.45.69-.68Zm0,0c-.91-.46-1.6-.46-1.83,0a5.34,5.34,0,0,0-.68,2.05,13.89,13.89,0,0,0,2-1.37c.46-.22.69-.45.69-.68Zm0,0c-.91-.46-1.6-.46-1.83,0a5.34,5.34,0,0,0-.68,2.05,13.89,13.89,0,0,0,2-1.37c.46-.22.69-.45.69-.68Zm0,0c-.91-.46-1.6-.46-1.83,0a5.34,5.34,0,0,0-.68,2.05,13.89,13.89,0,0,0,2-1.37c.46-.22.69-.45.69-.68Zm0,0c-.91-.46-1.6-.46-1.83,0a5.34,5.34,0,0,0-.68,2.05,13.89,13.89,0,0,0,2-1.37c.46-.22.69-.45.69-.68Zm0,0c-.91-.46-1.6-.46-1.83,0a5.34,5.34,0,0,0-.68,2.05,13.89,13.89,0,0,0,2-1.37c.46-.22.69-.45.69-.68Zm0,0c-.91-.46-1.6-.46-1.83,0a5.34,5.34,0,0,0-.68,2.05,13.89,13.89,0,0,0,2-1.37c.46-.22.69-.45.69-.68Zm0,0c-.91-.46-1.6-.46-1.83,0a5.34,5.34,0,0,0-.68,2.05,13.89,13.89,0,0,0,2-1.37c.46-.22.69-.45.69-.68Zm0,0c-.91-.46-1.6-.46-1.83,0a5.34,5.34,0,0,0-.68,2.05,13.89,13.89,0,0,0,2-1.37c.46-.22.69-.45.69-.68Zm0,0c-.91-.46-1.6-.46-1.83,0a5.34,5.34,0,0,0-.68,2.05,13.89,13.89,0,0,0,2-1.37c.46-.22.69-.45.69-.68Zm0,0c-.91-.46-1.6-.46-1.83,0a5.34,5.34,0,0,0-.68,2.05,13.89,13.89,0,0,0,2-1.37c.46-.22.69-.45.69-.68Zm0,0c-.91-.46-1.6-.46-1.83,0a5.34,5.34,0,0,0-.68,2.05,13.89,13.89,0,0,0,2-1.37c.46-.22.69-.45.69-.68Zm0,0c-.91-.46-1.6-.46-1.83,0a5.34,5.34,0,0,0-.68,2.05,13.89,13.89,0,0,0,2-1.37c.46-.22.69-.45.69-.68Zm0,0c-.91-.46-1.6-.46-1.83,0a5.34,5.34,0,0,0-.68,2.05,13.89,13.89,0,0,0,2-1.37c.46-.22.69-.45.69-.68Zm0,0c-.91-.46-1.6-.46-1.83,0a5.34,5.34,0,0,0-.68,2.05,13.89,13.89,0,0,0,2-1.37c.46-.22.69-.45.69-.68Zm0,0c-.91-.46-1.6-.46-1.83,0a5.34,5.34,0,0,0-.68,2.05,13.89,13.89,0,0,0,2-1.37c.46-.22.69-.45.69-.68Zm0,0c-.91-.46-1.6-.46-1.83,0a5.34,5.34,0,0,0-.68,2.05,13.89,13.89,0,0,0,2-1.37c.46-.22.69-.45.69-.68Z"/><path class="cls-1" d="M296.87,247.22a2.43,2.43,0,0,1-.46,1.37,4.41,4.41,0,0,1-2.05,1.14,1.73,1.73,0,0,1-.46-1.14,1.69,1.69,0,0,1,.23-1.14,1.92,1.92,0,0,1,1.37-.46A1.54,1.54,0,0,1,296.87,247.22Z"/><path class="cls-1" d="M270.64,269.8c-1.37-.46-2.28-.68-2.28-.46v3c.45.91,1.37,1.14,2.51.45a6.65,6.65,0,0,0,2.28-1.82A8.81,8.81,0,0,0,270.64,269.8Zm0,0c-1.37-.46-2.28-.68-2.28-.46v3c.45.91,1.37,1.14,2.51.45a6.65,6.65,0,0,0,2.28-1.82A8.81,8.81,0,0,0,270.64,269.8Zm0,0c-1.37-.46-2.28-.68-2.28-.46v3c.45.91,1.37,1.14,2.51.45a6.65,6.65,0,0,0,2.28-1.82A8.81,8.81,0,0,0,270.64,269.8Zm0,0c-1.37-.46-2.28-.68-2.28-.46v3c.45.91,1.37,1.14,2.51.45a6.65,6.65,0,0,0,2.28-1.82A8.81,8.81,0,0,0,270.64,269.8Zm0,0c-1.37-.46-2.28-.68-2.28-.46v3c.45.91,1.37,1.14,2.51.45a6.65,6.65,0,0,0,2.28-1.82A8.81,8.81,0,0,0,270.64,269.8Zm0,0c-1.37-.46-2.28-.68-2.28-.46v3c.45.91,1.37,1.14,2.51.45a6.65,6.65,0,0,0,2.28-1.82A8.81,8.81,0,0,0,270.64,269.8Zm0,0c-1.37-.46-2.28-.68-2.28-.46v3c.45.91,1.37,1.14,2.51.45a6.65,6.65,0,0,0,2.28-1.82A8.81,8.81,0,0,0,270.64,269.8Zm0,0c-1.37-.46-2.28-.68-2.28-.46v3c.45.91,1.37,1.14,2.51.45a6.65,6.65,0,0,0,2.28-1.82A8.81,8.81,0,0,0,270.64,269.8Zm0,0c-1.37-.46-2.28-.68-2.28-.46v3c.45.91,1.37,1.14,2.51.45a6.65,6.65,0,0,0,2.28-1.82A8.81,8.81,0,0,0,270.64,269.8Zm0,0c-1.37-.46-2.28-.68-2.28-.46v3c.45.91,1.37,1.14,2.51.45a6.65,6.65,0,0,0,2.28-1.82A8.81,8.81,0,0,0,270.64,269.8Zm0,0c-1.37-.46-2.28-.68-2.28-.46v3c.45.91,1.37,1.14,2.51.45a6.65,6.65,0,0,0,2.28-1.82A8.81,8.81,0,0,0,270.64,269.8Zm0,0c-1.37-.46-2.28-.68-2.28-.46v3c.45.91,1.37,1.14,2.51.45a6.65,6.65,0,0,0,2.28-1.82A8.81,8.81,0,0,0,270.64,269.8Zm0,0c-1.37-.46-2.28-.68-2.28-.46v3c.45.91,1.37,1.14,2.51.45a6.65,6.65,0,0,0,2.28-1.82A8.81,8.81,0,0,0,270.64,269.8Zm0,0c-1.37-.46-2.28-.68-2.28-.46v3c.45.91,1.37,1.14,2.51.45a6.65,6.65,0,0,0,2.28-1.82A8.81,8.81,0,0,0,270.64,269.8Zm0,0c-1.37-.46-2.28-.68-2.28-.46v3c.45.91,1.37,1.14,2.51.45a6.65,6.65,0,0,0,2.28-1.82A8.81,8.81,0,0,0,270.64,269.8Zm0,0c-1.37-.46-2.28-.68-2.28-.46v3c.45.91,1.37,1.14,2.51.45a6.65,6.65,0,0,0,2.28-1.82A8.81,8.81,0,0,0,270.64,269.8Zm0,0c-1.37-.46-2.28-.68-2.28-.46v3c.45.91,1.37,1.14,2.51.45a6.65,6.65,0,0,0,2.28-1.82A8.81,8.81,0,0,0,270.64,269.8Zm0,0c-1.37-.46-2.28-.68-2.28-.46v3c.45.91,1.37,1.14,2.51.45a6.65,6.65,0,0,0,2.28-1.82A8.81,8.81,0,0,0,270.64,269.8Zm0,0c-1.37-.46-2.28-.68-2.28-.46v3c.45.91,1.37,1.14,2.51.45a6.65,6.65,0,0,0,2.28-1.82A8.81,8.81,0,0,0,270.64,269.8Zm0,0c-1.37-.46-2.28-.68-2.28-.46v3c.45.91,1.37,1.14,2.51.45a6.65,6.65,0,0,0,2.28-1.82A8.81,8.81,0,0,0,270.64,269.8Zm0,0c-1.37-.46-2.28-.68-2.28-.46v3c.45.91,1.37,1.14,2.51.45a6.65,6.65,0,0,0,2.28-1.82A8.81,8.81,0,0,0,270.64,269.8Zm0,0c-1.37-.46-2.28-.68-2.28-.46v3c.45.91,1.37,1.14,2.51.45a6.65,6.65,0,0,0,2.28-1.82A8.81,8.81,0,0,0,270.64,269.8Zm0,0c-1.37-.46-2.28-.68-2.28-.46v3c.45.91,1.37,1.14,2.51.45a6.65,6.65,0,0,0,2.28-1.82A8.81,8.81,0,0,0,270.64,269.8Zm0,0c-1.37-.46-2.28-.68-2.28-.46v3c.45.91,1.37,1.14,2.51.45a6.65,6.65,0,0,0,2.28-1.82A8.81,8.81,0,0,0,270.64,269.8Zm0,0c-1.37-.46-2.28-.68-2.28-.46v3c.45.91,1.37,1.14,2.51.45a6.65,6.65,0,0,0,2.28-1.82A8.81,8.81,0,0,0,270.64,269.8Zm0,0c-1.37-.46-2.28-.68-2.28-.46v3c.45.91,1.37,1.14,2.51.45a6.65,6.65,0,0,0,2.28-1.82A8.81,8.81,0,0,0,270.64,269.8Zm0,0c-1.37-.46-2.28-.68-2.28-.46v3c.45.91,1.37,1.14,2.51.45a6.65,6.65,0,0,0,2.28-1.82A8.81,8.81,0,0,0,270.64,269.8Zm0,0c-1.37-.46-2.28-.68-2.28-.46v3c.45.91,1.37,1.14,2.51.45a6.65,6.65,0,0,0,2.28-1.82A8.81,8.81,0,0,0,270.64,269.8Zm0,0c-1.37-.46-2.28-.68-2.28-.46v3c.45.91,1.37,1.14,2.51.45a6.65,6.65,0,0,0,2.28-1.82A8.81,8.81,0,0,0,270.64,269.8Zm0,0c-1.37-.46-2.28-.68-2.28-.46v3c.45.91,1.37,1.14,2.51.45a6.65,6.65,0,0,0,2.28-1.82A8.81,8.81,0,0,0,270.64,269.8Zm0,0c-1.37-.46-2.28-.68-2.28-.46v3c.45.91,1.37,1.14,2.51.45a6.65,6.65,0,0,0,2.28-1.82A8.81,8.81,0,0,0,270.64,269.8Zm0,0c-1.37-.46-2.28-.68-2.28-.46v3c.45.91,1.37,1.14,2.51.45a6.65,6.65,0,0,0,2.28-1.82A8.81,8.81,0,0,0,270.64,269.8Zm0,0c-1.37-.46-2.28-.68-2.28-.46v3c.45.91,1.37,1.14,2.51.45a6.65,6.65,0,0,0,2.28-1.82A8.81,8.81,0,0,0,270.64,269.8Zm0,0c-1.37-.46-2.28-.68-2.28-.46v3c.45.91,1.37,1.14,2.51.45a6.65,6.65,0,0,0,2.28-1.82A8.81,8.81,0,0,0,270.64,269.8Zm0,0c-1.37-.46-2.28-.68-2.28-.46v3c.45.91,1.37,1.14,2.51.45a6.65,6.65,0,0,0,2.28-1.82A8.81,8.81,0,0,0,270.64,269.8Zm0,0c-1.37-.46-2.28-.68-2.28-.46v3c.45.91,1.37,1.14,2.51.45a6.65,6.65,0,0,0,2.28-1.82A8.81,8.81,0,0,0,270.64,269.8Zm0,0c-1.37-.46-2.28-.68-2.28-.46v3c.45.91,1.37,1.14,2.51.45a6.65,6.65,0,0,0,2.28-1.82A8.81,8.81,0,0,0,270.64,269.8Zm0,0c-1.37-.46-2.28-.68-2.28-.46v3c.45.91,1.37,1.14,2.51.45a6.65,6.65,0,0,0,2.28-1.82A8.81,8.81,0,0,0,270.64,269.8Zm0,0c-1.37-.46-2.28-.68-2.28-.46v3c.45.91,1.37,1.14,2.51.45a6.65,6.65,0,0,0,2.28-1.82A8.81,8.81,0,0,0,270.64,269.8Zm0,0c-1.37-.46-2.28-.68-2.28-.46v3c.45.91,1.37,1.14,2.51.45a6.65,6.65,0,0,0,2.28-1.82A8.81,8.81,0,0,0,270.64,269.8Zm0,0c-1.37-.46-2.28-.68-2.28-.46v3c.45.91,1.37,1.14,2.51.45a6.65,6.65,0,0,0,2.28-1.82A8.81,8.81,0,0,0,270.64,269.8Zm0,0c-1.37-.46-2.28-.68-2.28-.46v3c.45.91,1.37,1.14,2.51.45a6.65,6.65,0,0,0,2.28-1.82A8.81,8.81,0,0,0,270.64,269.8Zm0,0c-1.37-.46-2.28-.68-2.28-.46v3c.45.91,1.37,1.14,2.51.45a6.65,6.65,0,0,0,2.28-1.82A8.81,8.81,0,0,0,270.64,269.8Zm0,0c-1.37-.46-2.28-.68-2.28-.46v3c.45.91,1.37,1.14,2.51.45a6.65,6.65,0,0,0,2.28-1.82A8.81,8.81,0,0,0,270.64,269.8Zm0,0c-1.37-.46-2.28-.68-2.28-.46v3c.45.91,1.37,1.14,2.51.45a6.65,6.65,0,0,0,2.28-1.82A8.81,8.81,0,0,0,270.64,269.8Zm0,0c-1.37-.46-2.28-.68-2.28-.46v3c.45.91,1.37,1.14,2.51.45a6.65,6.65,0,0,0,2.28-1.82A8.81,8.81,0,0,0,270.64,269.8Zm0,0c-1.37-.46-2.28-.68-2.28-.46v3c.45.91,1.37,1.14,2.51.45a6.65,6.65,0,0,0,2.28-1.82A8.81,8.81,0,0,0,270.64,269.8Zm0,0c-1.37-.46-2.28-.68-2.28-.46v3c.45.91,1.37,1.14,2.51.45a6.65,6.65,0,0,0,2.28-1.82A8.81,8.81,0,0,0,270.64,269.8Zm0,0c-1.37-.46-2.28-.68-2.28-.46v3c.45.91,1.37,1.14,2.51.45a6.65,6.65,0,0,0,2.28-1.82A8.81,8.81,0,0,0,270.64,269.8Zm0,0c-1.37-.46-2.28-.68-2.28-.46v3c.45.91,1.37,1.14,2.51.45a6.65,6.65,0,0,0,2.28-1.82A8.81,8.81,0,0,0,270.64,269.8Zm10.94-35.35a51.55,51.55,0,0,1-88.48,0H150.9a90.25,90.25,0,0,0,172.88,0Zm-4.1,14.14h4.1c.23.23.23.68.23,1.6s0,1.59-.23,1.82a6.21,6.21,0,0,1-1.82.23h-1.82c-.23-.23-.23-.69-.46-1.83Zm3,8c1.37,1.14,2.51,2.28,3.65,3.19a9.37,9.37,0,0,1,3.42,6.39c-4.33-3.42-6.38-5-10.49-8.44a13.09,13.09,0,0,1-.91-2.51,18.51,18.51,0,0,1-.91-2.73S277,253.84,280.44,256.57Zm-64.54,9.12a13.66,13.66,0,0,1,1.83-1.14,5.25,5.25,0,0,1,.91,1.6c.68.91,1.14,1.6,1.14,1.6a7.23,7.23,0,0,1-1.37,1.59c-1.14.92-1.82,1.37-1.82,1.37a14.23,14.23,0,0,1-2.28-3.42C214.08,267.06,214.76,266.38,215.9,265.69Zm-36.26-26.45c.91.23,2.28.23,3.88.46-.23.22-.23.91-.23,1.82s0,1.37.23,1.6a3.38,3.38,0,0,0,1.37.22h1.59a19.47,19.47,0,0,0,.23,3.65c-.46,0-1.14.23-2.05.23-1.14,0-1.6,0-1.83-.23s-.45-1.37-.68-3.65c-.69,0-1.6-.22-2.51-.22-.23-.46-.23-1.14-.46-1.83C179.41,240.15,179.41,239.47,179.64,239.24Zm8,37.4c-.91.23-1.59.46-1.59.23,0,0-.46-1.14-1.14-3.42-.69,0-1.37.23-2.28.23a7.85,7.85,0,0,1-.69-1.83,7.23,7.23,0,0,1-.23-1.82,10.41,10.41,0,0,1,2.28-.23,2,2,0,0,0,1.14-.23c0,.23.23.91.46,1.83s.46,1.36.46,1.59h1.14a4,4,0,0,1,1.36-.23l1.15,3.43A6.64,6.64,0,0,0,187.62,276.64Zm32.62,6.16c-2.51-.68-4.34-1.37-5.71-1.6-.68-.23-1.82,0-3.64.23a6.92,6.92,0,0,1-3.65.23,33.14,33.14,0,0,1-5.71-2.51h0A13.05,13.05,0,0,0,199,278c-.46-.23-.46-.68-.23-1.14.45-.68.45-1.14.91-1.82,0,0-.91.68-2.51,1.82-.45-.23-.68-.46-1.14-.68a43,43,0,0,1-4.1-2.74c-.46-.23-.69-.69-1.37-.91a2.07,2.07,0,0,1-.91-1.83,3.79,3.79,0,0,1,.45-2c-.91.46-1.6.68-2.51,1.14a27.91,27.91,0,0,1-3.65-3.65c-1.36-1.37-2.28-2.28-3.65-3.88-.22-.22-.45-.68-.91-.91a4,4,0,0,1-.91-2.74,6,6,0,0,1,.68-2.5c.23-.92.46-1.37.23-1.37-.68-.91-2-1.37-3.87-1.6h-5c-1.83,0-3.2-.46-3.65-1.37-1.6-2.28.68-5,5.24-8,.23-.23.46-.23.69-.46h1.14a12.81,12.81,0,0,0-2.28,2.51c-1.14,1.6-1.6,2.74-1.14,3.2a4.27,4.27,0,0,0,3.87,1.82H179c1.59,0,2.73.23,3.42,1.14a1.52,1.52,0,0,1,.45,1.6,11.71,11.71,0,0,1-.91,1.59,4.22,4.22,0,0,0-.46,1.6,1.93,1.93,0,0,0,.46,1.6c.23.22.23.45.46.45l.45.46.23.23a15.39,15.39,0,0,0,2.74,2.73l.45.46.46.46h0c1.37,1.36,2.28,2.05,3.88,3.42a19.35,19.35,0,0,0,2-2.51s.68-.23,1.82-.69,1.83-.68,1.83-.68a2543197716450.62,2543197716450.62,0,0,0-.46.46.22.22,0,0,1-.23.22c-.68.92-1.36,2.06-2.28,3.2a3.3,3.3,0,0,0-.45,1.37,2,2,0,0,0,.68,1.14h0a3.45,3.45,0,0,0,.91.68h0a16.41,16.41,0,0,0,2.51,1.6c.23.22.46.22.69.45a.76.76,0,0,1,.45.23,10.34,10.34,0,0,0,1.6.91c1.6-4.1,2.28-6.16,4.11-10.26,1.14-.91,1.82-1.37,2.05-1.6a15.76,15.76,0,0,1,2-1.37c.23,0-.46,1.6-1.6,4.11-.91,1.82-1.59,3.88-2.5,5.7a29.29,29.29,0,0,0-1.37,3.65c-.46.68-.23,1.14.45,1.37.23,0,.23,0,.46.23s.46.23.91.45h0c1.6.69,2.74,1.14,4.79,1.83a5.41,5.41,0,0,0,3.19.23,23.85,23.85,0,0,0-1.59-1.83l-1.6-1.6c-.68-.22-1.14-.45-1.6-.22-.45,0-.91.22-1.36.22a13.08,13.08,0,0,1,3-2.28c1.37-.91,2.51-1.14,3.19-.91a5.38,5.38,0,0,1,2.74,2.05c.68.69,1.37,1.83,2.74,3.2a10.92,10.92,0,0,0,3,2.05,6.92,6.92,0,0,0,2.05.91C222.52,280.06,221.6,281.2,220.24,282.8Zm7.29-3.65A11.49,11.49,0,0,1,224.8,286c0-5.24.23-8,.45-13.45a9.32,9.32,0,0,1,1.37-2.51,9.56,9.56,0,0,1,1.6-2.51c.23,0,0,2.28,0,6.61A43.52,43.52,0,0,0,227.53,279.15Zm27.14,4.11a22.13,22.13,0,0,1-3.65.91,36.56,36.56,0,0,1-4.78.91c-1.6.23-2.74.46-4.34.68-.68,0-1.59.23-2.51.23-.22,0-.68-.23-.91-.91a3.23,3.23,0,0,1-.46-1.37l-.68,1.37a2.32,2.32,0,0,1-.91,1.37H228.9c-.23,0-.45-.23-.68-.46a.83.83,0,0,1-.23-.68,24.44,24.44,0,0,1,1.14-4.79,9.4,9.4,0,0,1,.46-1.37c.22-.68.45-.91.68-.91a2.46,2.46,0,0,1-.23,1.14,10.17,10.17,0,0,1-.23,1.14c0,.91.23,1.6.69,1.6a35.53,35.53,0,0,0,6.84,0c0-.46-.23-1.37-.46-2.74-.45-1.83-.68-2.74-1.14-4.33,0,0,.23-.92.69-2.29s.68-2.28.91-2.28c.46,1.37.91,3.88,2,7.3.46,1.37.69,2.28.69,2.28a4.83,4.83,0,0,0,1.14,1.83c1.37-.23,2.51-.23,3.65-.46h.68a.84.84,0,0,0,.69-.23h0c1.14-.23,2-.45,3-.68h0a.82.82,0,0,0,.68-.23.84.84,0,0,0,.69-.23h0a12.93,12.93,0,0,0,2.28-.68v-.46c-.23-.91-.91-2.28-1.6-4.1-.68-1.37-1.14-2.74-1.82-4.11a3.83,3.83,0,0,1-1.14-.91c.45-3.19.68-5,.91-5,.23.69.23,1.14.46,1.37a2.82,2.82,0,0,0,.91.68A21.21,21.21,0,0,0,254,268.2c-.46,1.83-.68,2.74-1.14,4.34.23.68.91,2.28,2.05,5.24a14.59,14.59,0,0,1,.46,2.05c0,.92.23,1.37.23,2.29C255.81,282.57,255.59,283.26,254.67,283.26Zm8.21-2.29c-2.51-4.56-3.87-7.07-6.38-11.63v-5.7c.23,0,1.14,1.83,3.19,5.7.91,1.6,1.6,3,2.28,4.34A10.38,10.38,0,0,1,262.88,281Zm1.37-16.64h-1.59a2.17,2.17,0,0,1-1.6-.46c.23-1.14.23-2.28.46-3.19.22.23.68.23,1.59.45.69.23,1.14.23,1.37,0a2.71,2.71,0,0,0,.23-1.14,2.77,2.77,0,0,1,.23-1.14,17.06,17.06,0,0,0,3.42.23v1.83c0,.91,0,1.36-.23,1.59h-1.6c-.91,0-1.59,0-1.82-.23A15.2,15.2,0,0,0,264.25,264.33Zm8.44,12.08a10.24,10.24,0,0,1-2.51,1.14,2,2,0,0,1-2.28-.91,7.55,7.55,0,0,1-.68-3.42v-5.93a8,8,0,0,1,.22-2.28,7.35,7.35,0,0,1,2.06.46,13.67,13.67,0,0,0,2.28.45,6.34,6.34,0,0,1,2.73,1.83,1.72,1.72,0,0,1,.46.91c.23.68.23,1.37.46,2a7,7,0,0,1-.23,2.28,6.56,6.56,0,0,1-1.14,1.83A13.18,13.18,0,0,1,272.69,276.41Zm11.86-2.73c-.23,1.37-.68,2.05-1.14,2.28a19.29,19.29,0,0,1-8.67,2.73h-1.59a11,11,0,0,0,3-1.14,13.1,13.1,0,0,0,3.42-3c1.37-1.6,2.05-4.11,1.6-7.3a8.19,8.19,0,0,0-2.51-.46c-1.14,0-1.82-.22-2.74-.22a37.61,37.61,0,0,0-1.37-3.88,21.86,21.86,0,0,1,3.65.68c1.83.46,3.2.92,3.42,1.37C284.32,267.52,285.46,270.48,284.55,273.68ZM297.32,263a4.72,4.72,0,0,1-.68,2.51,17.31,17.31,0,0,1-8.44,4.33c-.46,0-1.14.23-1.6.23,1.37-.91,2.51-1.83,3.2-2.28a8.2,8.2,0,0,0,2.5-3.2,9.75,9.75,0,0,0,.23-7.29c-.91-.23-2.73,0-5.7.22a20.42,20.42,0,0,0-2.05-3.64,14.06,14.06,0,0,1,3.87-.23c2.06.23,3.43.23,3.88.68C296,257,297.55,259.76,297.32,263Zm4.33-3.2a19.75,19.75,0,0,1-4.1,2.74,25,25,0,0,0,4.1-6.61,11.08,11.08,0,0,0,.23-4.79q-.35-3.07-2.05-4.11c-.23,0-.46-.22-.68-.22.68,1.14,1.14,1.82,1.36,2.28a2.85,2.85,0,0,1-.68,2.5,2.6,2.6,0,0,1-2.74,1.14,14.7,14.7,0,0,1-2.73-1.36c-.92-.46-1.6-1.6-2.51-3.42s-1.14-3-.69-3.65,1.83-.92,3.88-.69a11,11,0,0,1,4.33,1.14,12.15,12.15,0,0,1,5.48,4.79q2.73,4.11.68,6.84A44.38,44.38,0,0,0,301.65,259.76Zm-31,10c-1.37-.46-2.28-.68-2.28-.46v3c.45.91,1.37,1.14,2.51.45a6.65,6.65,0,0,0,2.28-1.82A8.81,8.81,0,0,0,270.64,269.8Zm0,0c-1.37-.46-2.28-.68-2.28-.46v3c.45.91,1.37,1.14,2.51.45a6.65,6.65,0,0,0,2.28-1.82A8.81,8.81,0,0,0,270.64,269.8Zm0,0c-1.37-.46-2.28-.68-2.28-.46v3c.45.91,1.37,1.14,2.51.45a6.65,6.65,0,0,0,2.28-1.82A8.81,8.81,0,0,0,270.64,269.8Zm0,0c-1.37-.46-2.28-.68-2.28-.46v3c.45.91,1.37,1.14,2.51.45a6.65,6.65,0,0,0,2.28-1.82A8.81,8.81,0,0,0,270.64,269.8Zm0,0c-1.37-.46-2.28-.68-2.28-.46v3c.45.91,1.37,1.14,2.51.45a6.65,6.65,0,0,0,2.28-1.82A8.81,8.81,0,0,0,270.64,269.8Zm0,0c-1.37-.46-2.28-.68-2.28-.46v3c.45.91,1.37,1.14,2.51.45a6.65,6.65,0,0,0,2.28-1.82A8.81,8.81,0,0,0,270.64,269.8Zm0,0c-1.37-.46-2.28-.68-2.28-.46v3c.45.91,1.37,1.14,2.51.45a6.65,6.65,0,0,0,2.28-1.82A8.81,8.81,0,0,0,270.64,269.8Zm0,0c-1.37-.46-2.28-.68-2.28-.46v3c.45.91,1.37,1.14,2.51.45a6.65,6.65,0,0,0,2.28-1.82A8.81,8.81,0,0,0,270.64,269.8Zm0,0c-1.37-.46-2.28-.68-2.28-.46v3c.45.91,1.37,1.14,2.51.45a6.65,6.65,0,0,0,2.28-1.82A8.81,8.81,0,0,0,270.64,269.8Zm0,0c-1.37-.46-2.28-.68-2.28-.46v3c.45.91,1.37,1.14,2.51.45a6.65,6.65,0,0,0,2.28-1.82A8.81,8.81,0,0,0,270.64,269.8Zm0,0c-1.37-.46-2.28-.68-2.28-.46v3c.45.91,1.37,1.14,2.51.45a6.65,6.65,0,0,0,2.28-1.82A8.81,8.81,0,0,0,270.64,269.8Zm0,0c-1.37-.46-2.28-.68-2.28-.46v3c.45.91,1.37,1.14,2.51.45a6.65,6.65,0,0,0,2.28-1.82A8.81,8.81,0,0,0,270.64,269.8Zm0,0c-1.37-.46-2.28-.68-2.28-.46v3c.45.91,1.37,1.14,2.51.45a6.65,6.65,0,0,0,2.28-1.82A8.81,8.81,0,0,0,270.64,269.8Zm0,0c-1.37-.46-2.28-.68-2.28-.46v3c.45.91,1.37,1.14,2.51.45a6.65,6.65,0,0,0,2.28-1.82A8.81,8.81,0,0,0,270.64,269.8Zm0,0c-1.37-.46-2.28-.68-2.28-.46v3c.45.91,1.37,1.14,2.51.45a6.65,6.65,0,0,0,2.28-1.82A8.81,8.81,0,0,0,270.64,269.8Zm0,0c-1.37-.46-2.28-.68-2.28-.46v3c.45.91,1.37,1.14,2.51.45a6.65,6.65,0,0,0,2.28-1.82A8.81,8.81,0,0,0,270.64,269.8Zm0,0c-1.37-.46-2.28-.68-2.28-.46v3c.45.91,1.37,1.14,2.51.45a6.65,6.65,0,0,0,2.28-1.82A8.81,8.81,0,0,0,270.64,269.8Zm0,0c-1.37-.46-2.28-.68-2.28-.46v3c.45.91,1.37,1.14,2.51.45a6.65,6.65,0,0,0,2.28-1.82A8.81,8.81,0,0,0,270.64,269.8Zm0,0c-1.37-.46-2.28-.68-2.28-.46v3c.45.91,1.37,1.14,2.51.45a6.65,6.65,0,0,0,2.28-1.82A8.81,8.81,0,0,0,270.64,269.8Zm0,0c-1.37-.46-2.28-.68-2.28-.46v3c.45.91,1.37,1.14,2.51.45a6.65,6.65,0,0,0,2.28-1.82A8.81,8.81,0,0,0,270.64,269.8Zm0,0c-1.37-.46-2.28-.68-2.28-.46v3c.45.91,1.37,1.14,2.51.45a6.65,6.65,0,0,0,2.28-1.82A8.81,8.81,0,0,0,270.64,269.8Zm0,0c-1.37-.46-2.28-.68-2.28-.46v3c.45.91,1.37,1.14,2.51.45a6.65,6.65,0,0,0,2.28-1.82A8.81,8.81,0,0,0,270.64,269.8Zm0,0c-1.37-.46-2.28-.68-2.28-.46v3c.45.91,1.37,1.14,2.51.45a6.65,6.65,0,0,0,2.28-1.82A8.81,8.81,0,0,0,270.64,269.8Zm0,0c-1.37-.46-2.28-.68-2.28-.46v3c.45.91,1.37,1.14,2.51.45a6.65,6.65,0,0,0,2.28-1.82A8.81,8.81,0,0,0,270.64,269.8Zm0,0c-1.37-.46-2.28-.68-2.28-.46v3c.45.91,1.37,1.14,2.51.45a6.65,6.65,0,0,0,2.28-1.82A8.81,8.81,0,0,0,270.64,269.8Zm0,0c-1.37-.46-2.28-.68-2.28-.46v3c.45.91,1.37,1.14,2.51.45a6.65,6.65,0,0,0,2.28-1.82A8.81,8.81,0,0,0,270.64,269.8Zm0,0c-1.37-.46-2.28-.68-2.28-.46v3c.45.91,1.37,1.14,2.51.45a6.65,6.65,0,0,0,2.28-1.82A8.81,8.81,0,0,0,270.64,269.8Zm0,0c-1.37-.46-2.28-.68-2.28-.46v3c.45.91,1.37,1.14,2.51.45a6.65,6.65,0,0,0,2.28-1.82A8.81,8.81,0,0,0,270.64,269.8Zm0,0c-1.37-.46-2.28-.68-2.28-.46v3c.45.91,1.37,1.14,2.51.45a6.65,6.65,0,0,0,2.28-1.82A8.81,8.81,0,0,0,270.64,269.8Zm0,0c-1.37-.46-2.28-.68-2.28-.46v3c.45.91,1.37,1.14,2.51.45a6.65,6.65,0,0,0,2.28-1.82A8.81,8.81,0,0,0,270.64,269.8Zm0,0c-1.37-.46-2.28-.68-2.28-.46v3c.45.91,1.37,1.14,2.51.45a6.65,6.65,0,0,0,2.28-1.82A8.81,8.81,0,0,0,270.64,269.8Zm0,0c-1.37-.46-2.28-.68-2.28-.46v3c.45.91,1.37,1.14,2.51.45a6.65,6.65,0,0,0,2.28-1.82A8.81,8.81,0,0,0,270.64,269.8Zm0,0c-1.37-.46-2.28-.68-2.28-.46v3c.45.91,1.37,1.14,2.51.45a6.65,6.65,0,0,0,2.28-1.82A8.81,8.81,0,0,0,270.64,269.8Zm0,0c-1.37-.46-2.28-.68-2.28-.46v3c.45.91,1.37,1.14,2.51.45a6.65,6.65,0,0,0,2.28-1.82A8.81,8.81,0,0,0,270.64,269.8Zm0,0c-1.37-.46-2.28-.68-2.28-.46v3c.45.91,1.37,1.14,2.51.45a6.65,6.65,0,0,0,2.28-1.82A8.81,8.81,0,0,0,270.64,269.8Zm0,0c-1.37-.46-2.28-.68-2.28-.46v3c.45.91,1.37,1.14,2.51.45a6.65,6.65,0,0,0,2.28-1.82A8.81,8.81,0,0,0,270.64,269.8Zm0,0c-1.37-.46-2.28-.68-2.28-.46v3c.45.91,1.37,1.14,2.51.45a6.65,6.65,0,0,0,2.28-1.82A8.81,8.81,0,0,0,270.64,269.8Zm0,0c-1.37-.46-2.28-.68-2.28-.46v3c.45.91,1.37,1.14,2.51.45a6.65,6.65,0,0,0,2.28-1.82A8.81,8.81,0,0,0,270.64,269.8Zm0,0c-1.37-.46-2.28-.68-2.28-.46v3c.45.91,1.37,1.14,2.51.45a6.65,6.65,0,0,0,2.28-1.82A8.81,8.81,0,0,0,270.64,269.8Zm0,0c-1.37-.46-2.28-.68-2.28-.46v3c.45.91,1.37,1.14,2.51.45a6.65,6.65,0,0,0,2.28-1.82A8.81,8.81,0,0,0,270.64,269.8Zm0,0c-1.37-.46-2.28-.68-2.28-.46v3c.45.91,1.37,1.14,2.51.45a6.65,6.65,0,0,0,2.28-1.82A8.81,8.81,0,0,0,270.64,269.8Zm0,0c-1.37-.46-2.28-.68-2.28-.46v3c.45.91,1.37,1.14,2.51.45a6.65,6.65,0,0,0,2.28-1.82A8.81,8.81,0,0,0,270.64,269.8Zm0,0c-1.37-.46-2.28-.68-2.28-.46v3c.45.91,1.37,1.14,2.51.45a6.65,6.65,0,0,0,2.28-1.82A8.81,8.81,0,0,0,270.64,269.8Zm0,0c-1.37-.46-2.28-.68-2.28-.46v3c.45.91,1.37,1.14,2.51.45a6.65,6.65,0,0,0,2.28-1.82A8.81,8.81,0,0,0,270.64,269.8Zm0,0c-1.37-.46-2.28-.68-2.28-.46v3c.45.91,1.37,1.14,2.51.45a6.65,6.65,0,0,0,2.28-1.82A8.81,8.81,0,0,0,270.64,269.8Zm0,0c-1.37-.46-2.28-.68-2.28-.46v3c.45.91,1.37,1.14,2.51.45a6.65,6.65,0,0,0,2.28-1.82A8.81,8.81,0,0,0,270.64,269.8Zm0,0c-1.37-.46-2.28-.68-2.28-.46v3c.45.91,1.37,1.14,2.51.45a6.65,6.65,0,0,0,2.28-1.82A8.81,8.81,0,0,0,270.64,269.8Zm0,0c-1.37-.46-2.28-.68-2.28-.46v3c.45.91,1.37,1.14,2.51.45a6.65,6.65,0,0,0,2.28-1.82A8.81,8.81,0,0,0,270.64,269.8Zm0,0c-1.37-.46-2.28-.68-2.28-.46v3c.45.91,1.37,1.14,2.51.45a6.65,6.65,0,0,0,2.28-1.82A8.81,8.81,0,0,0,270.64,269.8Z"/><path class="cls-1" d="M231,180.17l-2.28,2.28-1.36,1.37c-7.3,7.3-11.86,12.32-11.86,12.32l-1.83-.69a1.69,1.69,0,0,0,.23-1.14,3,3,0,1,0-2.74,3.19h.46l.23,1.14s-4.34,4.79-9.81,4.79c-4.56,0-7.75-4.79-11.17-4.1-5.48,1.14-5.93,9.8,4.56,13.91,8.66,3.42,24.17-8.44,24.17-8.44l.69.46c0,.23-.23.68-.23.91a3,3,0,1,0,2.73-3.19.86.86,0,0,0-.68.22l-.23-1.14s4.79-5.47,12.32-12.77l1.14-1.14,2.05-1.82ZM198.8,207.31c-4.79-.46-9.81-3.42-8.21-5.25,2.28-2.73,4.56,2.06,8.66,3,5.25.91,8.67-.23,8.44.23C207.69,205.49,204,207.77,198.8,207.31Z"/><path class="cls-1" d="M314.2,143.45s-19.39-.45-42.42,14.14c-10.26,6.62-21.44,16-30.56,24.63l-1.14,1.14L238,185.42c-2.28-2.28-4.78-4.57-6.38-5.93l1.82-1.6,1.37-1.37c10.72-10.26,24.63-21.89,38.09-29A53.12,53.12,0,0,1,314.2,143.45Z"/><path class="cls-1" d="M281.36,198c-3.42-.46-6.39,4.33-10.95,4.56-5.7.46-10-4.33-10-4.33l.23-1.14h.46a3,3,0,1,0-3-3,2,2,0,0,0,.23,1.14l-1.82.69s-4.79-5-12.32-11.86l-2.51-2.28-3.87-3.42a22.61,22.61,0,0,1-2.51-2.28c-11.18-9.36-25.09-19.85-38.32-26a55.25,55.25,0,0,0-42-1.83s19.38-1.37,43.1,12.09c10.27,5.7,21.21,14.37,30.56,22.12.69.69,1.6,1.37,2.28,2.05l4.34,3.65,2.28,2.06c7.75,6.84,12.77,12.08,12.77,12.08l-.23,1.14c-.23,0-.45-.22-.68-.22a3,3,0,1,0,3,3c0-.46,0-.68-.23-.91l.69-.46s16.19,10.95,24.63,7.3C287.74,207.31,286.83,198.87,281.36,198ZM249,196.59c-.45.69-2.51-2.05-5.47-4.79-1.83-1.82-4.11-3.65-6.39-5.7L231,180.17c-.91-.91-1.36-1.6-1.14-1.82s.92.22,1.83,1.14c1.6,1.36,3.88,3.65,6.38,5.93,1.37,1.14,2.51,2.5,3.65,3.42C246.69,193.4,249.66,195.45,249,196.59Zm24.4,11.63h-2.05a.83.83,0,0,1-.68-.23.87.87,0,0,1-.69-.22c-.45-.23-.91-.23-1.36-.46h-.23c-.23,0-.23,0-.23-.23-.23,0-.46-.23-.69-.23s-.45-.22-.68-.22a.83.83,0,0,0-.68-.23.8.8,0,0,1-.46-.23c-.68-.23-1.14-.68-1.37-.68h1.14a.87.87,0,0,1,.69.22h2.51a13.37,13.37,0,0,0,5.24-.68c4.33-1.6,5.25-5.47,6.84-3.65C281.81,203.43,278.16,207.77,273.37,208.22Z"/><path class="cls-1" d="M232.55,104.68c0,1.14-1.14,1.83-.91,3.19.23,1.6.91,2.51.46,4.34a32.51,32.51,0,0,0-1.37,4.56c0,1.37.22,2.51.22,3.88.23,2.28-.45,4.56-.68,6.84a27.66,27.66,0,0,0,.23,6.16c.45,2,0,4.33-.23,6.38a62.55,62.55,0,0,1-1.14,6.39H216.81c-1.82,0-2.5.91-2.5,2.05,0,3.65,7.29,9.58,7.29,9.58l1.6-3.65,4.33,2.28,1.37-2.74,5.7,4.56a4.21,4.21,0,0,0,2.06-1.59,7.49,7.49,0,0,0,.22-3l7.3,3.65s2,0,2.74-1.37c.68-.91.23-3.65.23-3.65l5.7,1.37s3.65-3.19,4.79-5.47c.45-.91,0-2.28-.91-2.28h-16.2a38.3,38.3,0,0,1-.45-7.76c.23-3.87-3.2-29-2.74-37.85l-.68-13.69-7.3.46C228.9,87.35,232.55,101.49,232.55,104.68Z"/><path class="cls-1" d="M264,64.77c1.37.23,3,1.82,4.57,2.51a26.12,26.12,0,0,0,5.92,1.37,5.55,5.55,0,0,0-2.05-4.34c-1.82-1.59-5.7-2.5-8-3.42a50.84,50.84,0,0,0-15.05-2A5.9,5.9,0,0,1,254,56.1c2.28-.45,2.28.69,5.24.46,1.6,0,3.65-1.6,5.48-1.82,1.14-.23,5.7,1.82,7.52.91,1.37-.69,1.14-2-5.24-4.79a48.29,48.29,0,0,0-9.81-2.28s7.76-3.2,7.76-5.25c0-1.59-6.85-2.73-11.86-.91a20.65,20.65,0,0,0-6.39,3,30.21,30.21,0,0,0-5,5.71l-.22.45a.69.69,0,0,1,.22-.45l3.2-5.48,2.73-2.73-.22-4.34A8.26,8.26,0,0,0,251,40.37a4,4,0,0,0,2.51-.69,9.52,9.52,0,0,0,2.06-1.14,12.32,12.32,0,0,0,2.28-1.82s-3.2-4.33-6.16-4.56c-3.42-.23-7.76,3.19-7.76,3.19s1.14-3.42-.45-5.47c-1.37-1.6-5.7-1.83-5.7-1.83a4.79,4.79,0,0,0-3.65,1.37c-1.6,1.82-1.6,5.47-1.6,5.47S231,31.24,228,29.65a25,25,0,0,0-4.11-.91c-8.66-1.37-9.8,2.5-9.57,3.65,0,1.59,3.87,2.28,7.29,7.52a51.17,51.17,0,0,1,4.11,9.35c-.46-.45-6.84-9.35-11.4-12.31-5.93-3.65-13-3-12.09-1.6,1.14,1.6,3.19,4.33,9.81,9.35,1.14.68,3,.23,4.1,1.14,1.37,1.37.46,3,1.6,4.33,1.37,1.6,4.33,1.83,5.7,3.2a8.05,8.05,0,0,1,2,3.19c-.23-.23-10.26-8-18.93-11.4-5-2.06-10.26-1.83-11.63-.92s1.6,5.25,6.39,4.79c2.05-.22.22,2.51,2.73,3.42,4.34,1.6,9.35,2.29,11.41,3.43,6.38,3.64,3.42,3,3.42,3a51.29,51.29,0,0,0-12.32-2.05,62.54,62.54,0,0,0-11.4,1.59c-8.44,1.83-7.76,7.3-6.39,8.67.92.91,3.65-2.74,7.53-3.42,1.14-.23,1.6,1.37,3,1.14,1.14,0,2.74-2,3.65-2.28,1.14-.23,1.37,1.14,1.37,1.14S197,68,195.15,72.07c-3.42,7.75,1.82,8.44,2.74,8,.68-.46,0-2.28,1.14-3.88,2.05-2.73,4.79-3,4.56-2.73,2.51-4.11,9.12-7.76,10-8.21A45.18,45.18,0,0,0,205,73.66c-.92,1.6-2.29,3-2.74,4.34-1.14,3.19-2.28,6.38.45,5.7.69-.23,1.37-3,4.34-5.25a36.52,36.52,0,0,0,4.33-3.65c-.23.46-2.74,4.34-3.19,7.3-1.37,9.13,1.37,7.53,3.42,4.56,1.14-1.59,2.05-3.87,2.74-4.33a8.53,8.53,0,0,1,3.42-1.82s-1.83,4.56-1.83,7.75c0,6.16,1.83,6.61,2.74,5,.91-1.83.91-6.39,1.37-6.84.45-.92,1.82-1.83,2.28-2.74.45-.68.45-3.42.91-4.11,1.37-2.73,2.74-3,2.74-3s-2.51,7.53-2.28,13a15.56,15.56,0,0,0,2.51,7.75l6.38-2.28s2.74,4.11,2,3l3.2-4.56v-.23a4,4,0,0,1,1.37.91c.45.68.68,1.82,1.36,2.28a4.34,4.34,0,0,0,2.28.69,11.29,11.29,0,0,0,.69-5.71,100.18,100.18,0,0,0-1.6-10l5.93,2.51s-.45,3.65.91,5.93c1.14,1.82,4.34,3,4.34,3s1.14-3.19.23-5.7c-2.51-5.93-9.13-15.51-9.36-16.19a47.53,47.53,0,0,1,5,4.56,23.77,23.77,0,0,1,2.05,3h4.57s.45,3.65,1.59,5c1.6,1.83,4.34,1.37,4.34,1.37s2.5-1.14.68-3.88c-1.6-2-5.93-7.07-8.21-9.58-3.42-3.42-5-4.56-5.25-4.56a20.17,20.17,0,0,1,6.16,2.06,8,8,0,0,1,2.74,3.42l7.3.22L272,76.63s1.82-.68.22-3.19c-2.28-3.65-8.89-8-8.89-8S262.2,64.31,264,64.77Z"/></svg>