<svg id="Layer_1" data-name="Layer 1" xmlns="http://www.w3.org/2000/svg" viewBox="0 0 478.36 426.62"><defs><style>.cls-1{fill:#c29661;}.cls-2{fill:#7394a9;}.cls-3{fill:#3d4d55;}.cls-4{fill:none;stroke:#3d4d55;stroke-miterlimit:10;stroke-width:0.23px;}</style></defs><polygon class="cls-1" points="359.22 220.83 239.66 268.8 239.66 311.46 359.22 263.49 359.22 220.83"/><polygon class="cls-1" points="398.9 119.88 239.66 184.13 239.66 226.79 398.9 162.54 398.9 119.88"/><polygon class="cls-1" points="478.36 0 239.66 98.29 239.66 140.94 478.36 42.66 478.36 0"/><path class="cls-2" d="M239.66,226.15s-20.43,20.95-61.06,28.51A228.6,228.6,0,0,0,120.2,274v42.65s26.49-16.7,63.51-23.51c34.89-6.49,56-24.36,56-24.36V226.15Z"/><path class="cls-2" d="M239.66,141.26s-27.34,28.3-81.38,36c-45.1,6.38-77.86,28-77.86,28v42.66s35.21-25.21,84.67-32.13c46.59-6.48,74.67-31.8,74.67-31.8V141.26Z"/><path class="cls-2" d="M239.66,56.16s-42.44,45-126.48,52.55C43.19,115.1.53,156.79.53,156.79v42.66S47,154.13,123.71,147.22c72.34-6.49,116-48.4,116-48.4Z"/><path class="cls-3" d="M31.38,386.24a78.76,78.76,0,0,1-16.17,1.7c-10.32,0-15.21-5-15.21-15.32V353.05l6.17-6.59V372.2c0,6.7,2.77,9.78,9.36,9.78a52.34,52.34,0,0,0,9.57-.74V335.61l6.28-.85v36.69a15.08,15.08,0,0,0,7.34,1.92h1.6l.63,6.06H39a24.63,24.63,0,0,1-7.66-1.27v8.08Zm8.3-12.87H55.42c-5.32-2.55-9.15-6.92-9.15-14,0-8.73,6.81-12.24,12.24-12.24,8.61,0,12.87,5.54,12.87,12.66a20,20,0,0,1-3.83,12,24,24,0,0,0,8.93,1.6l.53,6.06H75c-3.29,0-7.87-1.17-11.8-2.44a11.51,11.51,0,0,1-6.81,2.44H40.32ZM51,340.82v-7.23h5.53v7.23Zm14,19.25c0-4.89-2.23-7-6.48-7-3.09,0-6.07,1.7-6.07,6.28,0,4.89,3.41,8.4,9.26,10.63A16,16,0,0,0,65,360.07Zm-5.31-19.25v-7.23h5.53v7.23Zm36.48,38.61a21.69,21.69,0,0,1-10.53-2.55c-2.23,1.7-5.42,2.55-9.15,2.55l-.42-6.06c5.42,0,7.23-2.66,7.23-8V349.22l6.28-1v18.19a17.92,17.92,0,0,1-.75,5.22,15.16,15.16,0,0,0,7,1.7h1.6l.64,6.06ZM83.4,342v-7.55h6.27V342Zm33.72,37.44a21.66,21.66,0,0,1-10.53-2.55c-2.24,1.7-5.43,2.55-9.15,2.55L97,373.37c5.43,0,7.24-2.66,7.24-8V335.82l6.27-.85v31.59a18.22,18.22,0,0,1-.74,5.21,15,15,0,0,0,7,1.71h1.59l.64,6.06h-1.91Zm.74-6.06c5.43,0,7.45-2.66,7.45-8V335.82l6.27-.85v31.59c0,8.51-4.15,13-13.08,13Zm54.25,1.38a20.78,20.78,0,0,1-4.36.43c-7,0-12.13-3.51-12.13-12.77,0-9.68,5.75-13.4,12.56-13.4a31.93,31.93,0,0,1,10.1,1.7v22.66h7.34l.43,6.06H172.11v-4.68ZM160.73,342v-7.23h5.53V342Zm11.38,13.51a9.1,9.1,0,0,0-2.87-.32h-1.06c-3.41,0-6.07,1.7-6.07,7.13,0,5.1,2.34,6.48,5.64,6.48a21.17,21.17,0,0,0,4.36-.53V355.5ZM169.35,342v-7.23h5.42V342Zm15.42,31.38h8.72a15,15,0,0,1-1.81-7.55c0-9.26,5.64-13.3,13-13.3,8.83,0,12.87,5.42,12.87,13.3,0,9.36-4.36,13.61-12.87,13.61H185.41ZM211.26,366c0-5.21-2.66-7.66-6.6-7.66s-6.59,2.45-6.59,7.66,2.66,7.45,6.27,7.45h.32C209.45,373.37,211.26,371.24,211.26,366Zm22,13.4c-3.41,0-8.09-1.17-8.09-9.47V335.82l6.28-.85v34.68c0,3.51,1.27,3.83,2.55,3.83h7l.64,6.06h-8.4Zm7-6.06h13.29c-3.29-5.64-6.59-11.92-9.68-17.45a22,22,0,0,1,15.64-6.59,18.22,18.22,0,0,1,14.57,6.81l-8.61,17.12h12.34l.63,6.07H240.93Zm19.25-.75,7.23-15.1a15.47,15.47,0,0,0-7.23-1.7,14.94,14.94,0,0,0-7.66,1.91Zm17.66.75c5.42,0,7.44-2.66,7.44-8V335.82l6.28-.85v31.59c0,8.51-4.15,13-13.08,13Zm21.48,6.06V335.71l6.17-.85v44.57Zm47.23-4.68a20.78,20.78,0,0,1-4.36.43c-7,0-12.12-3.51-12.12-12.77,0-9.68,5.74-13.4,12.55-13.4a31.89,31.89,0,0,1,10.1,1.7v22.66h7.34l.43,6.06H345.92v-4.68ZM334.44,342v-7.23H340V342Zm11.48,13.51a9.1,9.1,0,0,0-2.87-.32H342c-3.41,0-6.06,1.7-6.06,7.13,0,5.1,2.34,6.48,5.63,6.48a21,21,0,0,0,4.36-.53V355.5ZM343.16,342v-7.23h5.42V342Zm16.81-3.3h2.44a7.72,7.72,0,0,1-.85-3.72c0-4.79,3.3-6.6,6.06-6.6,2.24,0,4.05.85,5.86,3.09l-2.13,2.34c-1.39-1.28-2.66-2.13-3.62-2.13-1.38,0-2.66,1.06-2.66,3.3,0,2.44.85,3.72,2.66,3.72H374l-1.7,3.3H358.48Zm18.82,40.74a21.69,21.69,0,0,1-10.53-2.55c-2.23,1.7-5.42,2.55-9.15,2.55l-.42-6.06c5.42,0,7.23-2.66,7.23-8V349.22l6.28-1v18.19a17.92,17.92,0,0,1-.75,5.22,15.19,15.19,0,0,0,7,1.7h1.6l.64,6.06Zm.22,14.79V387h5.53v7.24Zm20.85-14.79a21.7,21.7,0,0,1-10.54-2.55c-2.23,1.7-5.42,2.55-9.14,2.55l-.43-6.06c5.43,0,7.23-2.66,7.23-8V349.22l6.28-1v18.19a18.3,18.3,0,0,1-.74,5.22,15.14,15.14,0,0,0,7,1.7h1.59l.64,6.06Zm-12.13,14.79V387h5.53v7.24Zm21.59-22.45c0-8.83,4.58-11.38,9.26-11.38s9.15,2.45,9.15,11.38v1.71h5.74v-6.71c0-7.55-4.89-12.55-11.17-12.55a22.8,22.8,0,0,0-9.15,2l-1.59-5.85a27.71,27.71,0,0,1,10.74-2.23c9,0,17.45,6.17,17.45,18.29v7.13h8.51l.63,6.06H401.13l-.64-6.06h8.83Zm9.26-5.32c-3,0-3.09,2.77-3.09,5.22v1.7h6.17v-1.7C421.66,369.43,421.24,366.45,418.58,366.45Zm29,6.92c5.42,0,7.44-2.66,7.44-8V335.82l6.28-.85v31.59c0,8.51-4.15,13-13.08,13Zm21.48,6.06V335.71l6.17-.85v44.57Z"/><path class="cls-3" d="M29.78,426l-5.42-6.49H21.27v5.86H18.4V406.56h6.28a8.26,8.26,0,0,1,5.1,1.49,6.11,6.11,0,0,1,1.71,2,6.94,6.94,0,0,1,0,5.32A5.84,5.84,0,0,1,30,417.51a6.13,6.13,0,0,1-2.24,1.39L32,424Zm-8.51-9.46h3.3a5.74,5.74,0,0,0,1.92-.22,4.32,4.32,0,0,0,1.38-.85,3.6,3.6,0,0,0,1.06-2.76,2.82,2.82,0,0,0-1.06-2.45,3.36,3.36,0,0,0-1.38-.64,10.14,10.14,0,0,0-1.92-.21h-3.3Z"/><path class="cls-4" d="M29.78,426l-5.42-6.49H21.27v5.86H18.4V406.56h6.28a8.26,8.26,0,0,1,5.1,1.49,6.11,6.11,0,0,1,1.71,2,6.94,6.94,0,0,1,0,5.32A5.84,5.84,0,0,1,30,417.51a6.13,6.13,0,0,1-2.24,1.39L32,424Zm-8.51-9.46h3.3a5.74,5.74,0,0,0,1.92-.22,4.32,4.32,0,0,0,1.38-.85,3.6,3.6,0,0,0,1.06-2.76,2.82,2.82,0,0,0-1.06-2.45,3.36,3.36,0,0,0-1.38-.64,10.14,10.14,0,0,0-1.92-.21h-3.3Z"/><path class="cls-3" d="M50.31,426l-2.55-5.32h-8L37.34,426l-2.66-1.27,9-19.26,9.15,19.26Zm-9.14-8.19h5.1l-2.55-5.42Z"/><path class="cls-4" d="M50.31,426l-2.55-5.32h-8L37.34,426l-2.66-1.27,9-19.26,9.15,19.26Zm-9.14-8.19h5.1l-2.55-5.42Z"/><polygon class="cls-3" points="58.82 412.51 58.82 425.38 55.85 425.38 55.85 405.6 69.99 419.43 69.99 406.56 72.97 406.56 72.97 426.34 58.82 412.51"/><polygon class="cls-4" points="58.82 412.51 58.82 425.38 55.85 425.38 55.85 405.6 69.99 419.43 69.99 406.56 72.97 406.56 72.97 426.34 58.82 412.51"/><path class="cls-3" d="M84.35,425.81h-.42a6.76,6.76,0,0,1-2-.32,13.77,13.77,0,0,1-1.92-.74,9.83,9.83,0,0,1-1.7-1.17,5.31,5.31,0,0,1-1.17-1.49l2.66-1.39a2,2,0,0,0,.64.75,5.34,5.34,0,0,0,1,.64,4.71,4.71,0,0,0,1.27.53,6.08,6.08,0,0,0,1.38.21h0a7,7,0,0,0,1.39-.1,5.06,5.06,0,0,0,1.59-.64,3,3,0,0,0,1.7-2.45,2,2,0,0,0-.53-1.59,2.89,2.89,0,0,0-1.59-1,8.43,8.43,0,0,0-2.34-.32H83.18a9.15,9.15,0,0,1-1.49-.21,6.51,6.51,0,0,1-3.08-1.6,3.93,3.93,0,0,1-1-1.59,6.13,6.13,0,0,1-.32-1.92,5.89,5.89,0,0,1,1.49-3.51,6.64,6.64,0,0,1,1.39-1.06,4.54,4.54,0,0,1,1.7-.64,8.8,8.8,0,0,1,2.34-.21,8.44,8.44,0,0,1,2.34.42,11.27,11.27,0,0,1,2.23,1.06,5.3,5.3,0,0,1,1.49,1.6l-2.55,1.49a2.68,2.68,0,0,0-.75-.75,4.05,4.05,0,0,0-1.17-.53,9,9,0,0,0-1.59-.32,7.83,7.83,0,0,0-1.6.11,2.61,2.61,0,0,0-2.34,2.45,1.8,1.8,0,0,0,.11.85,1.24,1.24,0,0,0,.32.42,2.49,2.49,0,0,0,1.59.75,12.53,12.53,0,0,0,1.92.21,11.61,11.61,0,0,1,3.51.53,7.58,7.58,0,0,1,2.55,1.6,5,5,0,0,1,1.28,3.83,5.59,5.59,0,0,1-1.07,2.87,5.92,5.92,0,0,1-2.12,1.81,6.41,6.41,0,0,1-2,.74,3,3,0,0,1-2,.64"/><path class="cls-4" d="M84.35,425.81h-.42a6.76,6.76,0,0,1-2-.32,13.77,13.77,0,0,1-1.92-.74,9.83,9.83,0,0,1-1.7-1.17,5.31,5.31,0,0,1-1.17-1.49l2.66-1.39a2,2,0,0,0,.64.75,5.34,5.34,0,0,0,1,.64,4.71,4.71,0,0,0,1.27.53,6.08,6.08,0,0,0,1.38.21h0a7,7,0,0,0,1.39-.1,5.06,5.06,0,0,0,1.59-.64,3,3,0,0,0,1.7-2.45,2,2,0,0,0-.53-1.59,2.89,2.89,0,0,0-1.59-1,8.43,8.43,0,0,0-2.34-.32H83.18a9.15,9.15,0,0,1-1.49-.21,6.51,6.51,0,0,1-3.08-1.6,3.93,3.93,0,0,1-1-1.59,6.13,6.13,0,0,1-.32-1.92,5.89,5.89,0,0,1,1.49-3.51,6.64,6.64,0,0,1,1.39-1.06,4.54,4.54,0,0,1,1.7-.64,8.8,8.8,0,0,1,2.34-.21,8.44,8.44,0,0,1,2.34.42,11.27,11.27,0,0,1,2.23,1.06,5.3,5.3,0,0,1,1.49,1.6l-2.55,1.49a2.68,2.68,0,0,0-.75-.75,4.05,4.05,0,0,0-1.17-.53,9,9,0,0,0-1.59-.32,7.83,7.83,0,0,0-1.6.11,2.61,2.61,0,0,0-2.34,2.45,1.8,1.8,0,0,0,.11.85,1.24,1.24,0,0,0,.32.42,2.49,2.49,0,0,0,1.59.75,12.53,12.53,0,0,0,1.92.21,11.61,11.61,0,0,1,3.51.53,7.58,7.58,0,0,1,2.55,1.6,5,5,0,0,1,1.28,3.83,5.59,5.59,0,0,1-1.07,2.87,5.92,5.92,0,0,1-2.12,1.81,6.41,6.41,0,0,1-2,.74A3,3,0,0,1,84.35,425.81Z"/><path class="cls-3" d="M98.61,425.39H95.74V406.56H102a8.74,8.74,0,0,1,3,.42,8.37,8.37,0,0,1,2.34,1.28,4.78,4.78,0,0,1,1.49,2,6.41,6.41,0,0,1,.53,2.55,7.37,7.37,0,0,1-.53,2.66,6,6,0,0,1-1.49,2.13,5.89,5.89,0,0,1-2.34,1.49,8.1,8.1,0,0,1-2.87.53H98.61v5.75Zm0-8.83h3.3a5.71,5.71,0,0,0,1.91-.22,4.32,4.32,0,0,0,1.38-.85,3.57,3.57,0,0,0,1.07-2.76,2.8,2.8,0,0,0-1.07-2.45,3.3,3.3,0,0,0-1.38-.64,9.89,9.89,0,0,0-1.81-.21h-3.3v7.13Z"/><path class="cls-4" d="M98.61,425.39H95.74V406.56H102a8.74,8.74,0,0,1,3,.42,8.37,8.37,0,0,1,2.34,1.28,4.78,4.78,0,0,1,1.49,2,6.41,6.41,0,0,1,.53,2.55,7.37,7.37,0,0,1-.53,2.66,6,6,0,0,1-1.49,2.13,5.89,5.89,0,0,1-2.34,1.49,8.1,8.1,0,0,1-2.87.53H98.61v5.75Zm0-8.83h3.3a5.71,5.71,0,0,0,1.91-.22,4.32,4.32,0,0,0,1.38-.85,3.57,3.57,0,0,0,1.07-2.76,2.8,2.8,0,0,0-1.07-2.45,3.3,3.3,0,0,0-1.38-.64,9.89,9.89,0,0,0-1.81-.21h-3.3v7.13Z"/><path class="cls-3" d="M121.58,425.81a9.16,9.16,0,0,1-3.83-.74,9.75,9.75,0,0,1-5.31-5.32,9.71,9.71,0,0,1-.75-3.83,9.32,9.32,0,0,1,.75-3.83,9.75,9.75,0,0,1,5.31-5.32,9.88,9.88,0,0,1,3.83-.74,9.12,9.12,0,0,1,3.83.74,9.81,9.81,0,0,1,5.32,5.32,9.82,9.82,0,0,1,.75,3.83,9.51,9.51,0,0,1-.75,3.83,9.81,9.81,0,0,1-5.32,5.32,9.12,9.12,0,0,1-3.83.74m0-16.91a7,7,0,0,0-2.66.53,6.87,6.87,0,0,0-3.72,3.72,7.37,7.37,0,0,0-.53,2.66,6.93,6.93,0,0,0,.53,2.66,6.25,6.25,0,0,0,1.49,2.23,6.34,6.34,0,0,0,2.23,1.49,7.47,7.47,0,0,0,2.66.54,6.93,6.93,0,0,0,2.66-.54,6.38,6.38,0,0,0,2.24-1.49,6.25,6.25,0,0,0,1.49-2.23,7.37,7.37,0,0,0,.53-2.66,7,7,0,0,0-.53-2.66,6.85,6.85,0,0,0-3.73-3.72,6.93,6.93,0,0,0-2.66-.53"/><path class="cls-4" d="M121.58,425.81a9.16,9.16,0,0,1-3.83-.74,9.75,9.75,0,0,1-5.31-5.32,9.71,9.71,0,0,1-.75-3.83,9.32,9.32,0,0,1,.75-3.83,9.75,9.75,0,0,1,5.31-5.32,9.88,9.88,0,0,1,3.83-.74,9.12,9.12,0,0,1,3.83.74,9.81,9.81,0,0,1,5.32,5.32,9.82,9.82,0,0,1,.75,3.83,9.51,9.51,0,0,1-.75,3.83,9.81,9.81,0,0,1-5.32,5.32A9.12,9.12,0,0,1,121.58,425.81Zm0-16.91a7,7,0,0,0-2.66.53,6.87,6.87,0,0,0-3.72,3.72,7.37,7.37,0,0,0-.53,2.66,6.93,6.93,0,0,0,.53,2.66,6.25,6.25,0,0,0,1.49,2.23,6.34,6.34,0,0,0,2.23,1.49,7.47,7.47,0,0,0,2.66.54,6.93,6.93,0,0,0,2.66-.54,6.38,6.38,0,0,0,2.24-1.49,6.25,6.25,0,0,0,1.49-2.23,7.37,7.37,0,0,0,.53-2.66,7,7,0,0,0-.53-2.66,6.85,6.85,0,0,0-3.73-3.72A6.93,6.93,0,0,0,121.58,408.9Z"/><path class="cls-3" d="M146.37,426l-5.43-6.49h-3.08v5.86h-3V406.56h6.28a8.28,8.28,0,0,1,5.1,1.49,6,6,0,0,1,1.7,2,7.38,7.38,0,0,1,.54,2.66,5.65,5.65,0,0,1-.54,2.66,5.81,5.81,0,0,1-1.48,2.12,6.13,6.13,0,0,1-2.24,1.39l4.26,5.1Zm-8.51-9.46h3.3a5.68,5.68,0,0,0,1.91-.22,4.21,4.21,0,0,0,1.38-.85,3.57,3.57,0,0,0,1.07-2.76,2.8,2.8,0,0,0-1.07-2.45,3.3,3.3,0,0,0-1.38-.64,10,10,0,0,0-1.91-.21h-3.3Z"/><path class="cls-4" d="M146.37,426l-5.43-6.49h-3.08v5.86h-3V406.56h6.28a8.28,8.28,0,0,1,5.1,1.49,6,6,0,0,1,1.7,2,7.38,7.38,0,0,1,.54,2.66,5.65,5.65,0,0,1-.54,2.66,5.81,5.81,0,0,1-1.48,2.12,6.13,6.13,0,0,1-2.24,1.39l4.26,5.1Zm-8.51-9.46h3.3a5.68,5.68,0,0,0,1.91-.22,4.21,4.21,0,0,0,1.38-.85,3.57,3.57,0,0,0,1.07-2.76,2.8,2.8,0,0,0-1.07-2.45,3.3,3.3,0,0,0-1.38-.64,10,10,0,0,0-1.91-.21h-3.3Z"/><polygon class="cls-3" points="166.26 409.43 160.3 409.43 160.3 425.38 157.43 425.38 157.43 409.43 151.47 409.43 151.47 406.56 166.26 406.56 166.26 409.43"/><polygon class="cls-4" points="166.26 409.43 160.3 409.43 160.3 425.38 157.43 425.38 157.43 409.43 151.47 409.43 151.47 406.56 166.26 406.56 166.26 409.43"/><path class="cls-3" d="M187.11,425.81a9.84,9.84,0,0,1-3.83-.74,10.61,10.61,0,0,1-3.19-2.13,10.43,10.43,0,0,1-2.13-3.19,9.88,9.88,0,0,1-.74-3.83,9.16,9.16,0,0,1,.74-3.83,6.66,6.66,0,0,1,1-1.7,7.48,7.48,0,0,1,1.17-1.49,9.8,9.8,0,0,1,3.19-2.13,9.16,9.16,0,0,1,3.83-.74,10.56,10.56,0,0,1,4.79,1.17,8.75,8.75,0,0,1,1.91,1.38,12.56,12.56,0,0,1,1.6,1.81L193,412a6.76,6.76,0,0,0-2.55-2.34,7.29,7.29,0,0,0-3.3-.85,7,7,0,0,0-2.66.53,6.85,6.85,0,0,0-3.72,3.73,7.37,7.37,0,0,0-.53,2.66,8,8,0,0,0,.53,2.76,6.87,6.87,0,0,0,3.72,3.72,7.38,7.38,0,0,0,2.66.54,6.29,6.29,0,0,0,2-.32,5.89,5.89,0,0,0,1.81-.85,9.15,9.15,0,0,0,1.49-1.28,9.38,9.38,0,0,0,1.06-1.7h-7v-2.66H197v.53c0,.21,0,.43-.1.53s-.11.43-.11.64a8.17,8.17,0,0,1-1.17,3.19,7.71,7.71,0,0,1-2.23,2.66,12.51,12.51,0,0,1-3,1.81,11.28,11.28,0,0,1-3.3.53"/><path class="cls-4" d="M187.11,425.81a9.84,9.84,0,0,1-3.83-.74,10.61,10.61,0,0,1-3.19-2.13,10.43,10.43,0,0,1-2.13-3.19,9.88,9.88,0,0,1-.74-3.83,9.16,9.16,0,0,1,.74-3.83,6.66,6.66,0,0,1,1-1.7,7.48,7.48,0,0,1,1.17-1.49,9.8,9.8,0,0,1,3.19-2.13,9.16,9.16,0,0,1,3.83-.74,10.56,10.56,0,0,1,4.79,1.17,8.75,8.75,0,0,1,1.91,1.38,12.56,12.56,0,0,1,1.6,1.81L193,412a6.76,6.76,0,0,0-2.55-2.34,7.29,7.29,0,0,0-3.3-.85,7,7,0,0,0-2.66.53,6.85,6.85,0,0,0-3.72,3.73,7.37,7.37,0,0,0-.53,2.66,8,8,0,0,0,.53,2.76,6.87,6.87,0,0,0,3.72,3.72,7.38,7.38,0,0,0,2.66.54,6.29,6.29,0,0,0,2-.32,5.89,5.89,0,0,0,1.81-.85,9.15,9.15,0,0,0,1.49-1.28,9.38,9.38,0,0,0,1.06-1.7h-7v-2.66H197v.53c0,.21,0,.43-.1.53s-.11.43-.11.64a8.17,8.17,0,0,1-1.17,3.19,7.71,7.71,0,0,1-2.23,2.66,12.51,12.51,0,0,1-3,1.81A11.28,11.28,0,0,1,187.11,425.81Z"/><polygon class="cls-3" points="203.49 409.43 203.49 414.11 211.58 414.11 211.58 416.98 203.49 416.98 203.49 422.41 211.9 422.41 211.9 425.38 200.51 425.38 200.51 406.56 211.9 406.56 211.9 409.43 203.49 409.43"/><polygon class="cls-4" points="203.49 409.43 203.49 414.11 211.58 414.11 211.58 416.98 203.49 416.98 203.49 422.41 211.9 422.41 211.9 425.38 200.51 425.38 200.51 406.56 211.9 406.56 211.9 409.43 203.49 409.43"/><polygon class="cls-3" points="219.34 412.51 219.34 425.38 216.47 425.38 216.47 405.6 230.62 419.43 230.62 406.56 233.49 406.56 233.49 426.34 219.34 412.51"/><polygon class="cls-4" points="219.34 412.51 219.34 425.38 216.47 425.38 216.47 405.6 230.62 419.43 230.62 406.56 233.49 406.56 233.49 426.34 219.34 412.51"/><polygon class="cls-3" points="241.25 409.43 241.25 414.11 249.34 414.11 249.34 416.98 241.25 416.98 241.25 422.41 249.66 422.41 249.66 425.38 238.28 425.38 238.28 406.56 249.66 406.56 249.66 409.43 241.25 409.43"/><polygon class="cls-4" points="241.25 409.43 241.25 414.11 249.34 414.11 249.34 416.98 241.25 416.98 241.25 422.41 249.66 422.41 249.66 425.38 238.28 425.38 238.28 406.56 249.66 406.56 249.66 409.43 241.25 409.43"/><path class="cls-3" d="M265.19,426l-5.43-6.49h-3.08v5.86h-2.87V406.56h6.27a8.32,8.32,0,0,1,5.11,1.49,6.2,6.2,0,0,1,1.7,2,6.94,6.94,0,0,1,0,5.32,5.84,5.84,0,0,1-1.49,2.12,6.09,6.09,0,0,1-2.23,1.39l4.25,5.1Zm-8.51-9.46H260a5.71,5.71,0,0,0,1.91-.22,4.32,4.32,0,0,0,1.38-.85,3.57,3.57,0,0,0,1.07-2.76,2.8,2.8,0,0,0-1.07-2.45,3.3,3.3,0,0,0-1.38-.64,10,10,0,0,0-1.91-.21h-3.3Z"/><path class="cls-4" d="M265.19,426l-5.43-6.49h-3.08v5.86h-2.87V406.56h6.27a8.32,8.32,0,0,1,5.11,1.49,6.2,6.2,0,0,1,1.7,2,6.94,6.94,0,0,1,0,5.32,5.84,5.84,0,0,1-1.49,2.12,6.09,6.09,0,0,1-2.23,1.39l4.25,5.1Zm-8.51-9.46H260a5.71,5.71,0,0,0,1.91-.22,4.32,4.32,0,0,0,1.38-.85,3.57,3.57,0,0,0,1.07-2.76,2.8,2.8,0,0,0-1.07-2.45,3.3,3.3,0,0,0-1.38-.64,10,10,0,0,0-1.91-.21h-3.3Z"/><path class="cls-3" d="M285.61,426l-2.55-5.32h-8L272.63,426,270,424.75l9-19.26,9.14,19.26Zm-9-8.19h5.11l-2.56-5.42Z"/><path class="cls-4" d="M285.61,426l-2.55-5.32h-8L272.63,426,270,424.75l9-19.26,9.14,19.26Zm-9-8.19h5.11l-2.56-5.42Z"/><polygon class="cls-3" points="291.46 425.38 291.46 406.45 294.44 406.45 294.44 422.41 303.06 422.41 303.06 425.38 291.46 425.38"/><polygon class="cls-4" points="291.46 425.38 291.46 406.45 294.44 406.45 294.44 422.41 303.06 422.41 303.06 425.38 291.46 425.38"/><path class="cls-3" d="M329.76,426l-2.56-5.32h-8L316.78,426l-2.66-1.27,9-19.26,9.15,19.26Zm-9.05-8.19h5.11l-2.55-5.42Z"/><path class="cls-4" d="M329.76,426l-2.56-5.32h-8L316.78,426l-2.66-1.27,9-19.26,9.15,19.26Zm-9.05-8.19h5.11l-2.55-5.42Z"/><path class="cls-3" d="M343,425.7a12.11,12.11,0,0,1-2.88-.31,6.66,6.66,0,0,1-2.12-1,5.9,5.9,0,0,1-1.49-1.28,8,8,0,0,1-1-1.38c-.21-.53-.43-1-.64-1.49s-.21-1-.32-1.38a5.08,5.08,0,0,1-.1-1.17V406.45h3v11.06a2.24,2.24,0,0,0,.11.85,3.31,3.31,0,0,0,.21,1,8.5,8.5,0,0,0,.43,1.07c.85,1.59,2.45,2.34,4.79,2.34s4-.75,4.78-2.34a3.12,3.12,0,0,0,.43-1.07,3.31,3.31,0,0,0,.21-1c0-.31.11-.63.11-.85V406.45h3v11.28a4.63,4.63,0,0,1-.11,1.17c-.11.42-.21,1-.32,1.38a4.57,4.57,0,0,1-.64,1.49,8,8,0,0,1-1,1.38,6,6,0,0,1-1.48,1.28,8.32,8.32,0,0,1-2.13,1,10.87,10.87,0,0,1-2.87.31"/><path class="cls-4" d="M343,425.7a12.11,12.11,0,0,1-2.88-.31,6.66,6.66,0,0,1-2.12-1,5.9,5.9,0,0,1-1.49-1.28,8,8,0,0,1-1-1.38c-.21-.53-.43-1-.64-1.49s-.21-1-.32-1.38a5.08,5.08,0,0,1-.1-1.17V406.45h3v11.06a2.24,2.24,0,0,0,.11.85,3.31,3.31,0,0,0,.21,1,8.5,8.5,0,0,0,.43,1.07c.85,1.59,2.45,2.34,4.79,2.34s4-.75,4.78-2.34a3.12,3.12,0,0,0,.43-1.07,3.31,3.31,0,0,0,.21-1c0-.31.11-.63.11-.85V406.45h3v11.28a4.63,4.63,0,0,1-.11,1.17c-.11.42-.21,1-.32,1.38a4.57,4.57,0,0,1-.64,1.49,8,8,0,0,1-1,1.38,6,6,0,0,1-1.48,1.28,8.32,8.32,0,0,1-2.13,1A10.87,10.87,0,0,1,343,425.7Z"/><polygon class="cls-3" points="369.75 409.43 363.8 409.43 363.8 425.38 360.92 425.38 360.92 409.43 354.97 409.43 354.97 406.56 369.75 406.56 369.75 409.43"/><polygon class="cls-4" points="369.75 409.43 363.8 409.43 363.8 425.38 360.92 425.38 360.92 409.43 354.97 409.43 354.97 406.56 369.75 406.56 369.75 409.43"/><polygon class="cls-3" points="389.54 406.45 389.54 425.38 386.56 425.38 386.56 416.45 376.45 416.45 376.45 425.38 373.58 425.38 373.58 406.45 376.45 406.45 376.45 413.58 386.56 413.58 386.56 406.45 389.54 406.45"/><polygon class="cls-4" points="389.54 406.45 389.54 425.38 386.56 425.38 386.56 416.45 376.45 416.45 376.45 425.38 373.58 425.38 373.58 406.45 376.45 406.45 376.45 413.58 386.56 413.58 386.56 406.45 389.54 406.45"/><path class="cls-3" d="M402.94,425.81a9.16,9.16,0,0,1-3.83-.74,10.61,10.61,0,0,1-3.19-2.13,10.43,10.43,0,0,1-2.13-3.19,9.88,9.88,0,0,1-.74-3.83,9.47,9.47,0,0,1,.74-3.83,10.31,10.31,0,0,1,2.13-3.19,10.43,10.43,0,0,1,3.19-2.13,9.84,9.84,0,0,1,3.83-.74,9.16,9.16,0,0,1,3.83.74A10.43,10.43,0,0,1,410,408.9a10.31,10.31,0,0,1,2.13,3.19,9.81,9.81,0,0,1,.74,3.83,9.51,9.51,0,0,1-.74,3.83,10.43,10.43,0,0,1-2.13,3.19,10.61,10.61,0,0,1-3.19,2.13,9.16,9.16,0,0,1-3.83.74m0-16.91a8,8,0,0,0-2.77.53,6.87,6.87,0,0,0-3.72,3.72,7.37,7.37,0,0,0-.53,2.66,6.93,6.93,0,0,0,.53,2.66,8.13,8.13,0,0,0,1.49,2.23,6.34,6.34,0,0,0,2.23,1.49,7.59,7.59,0,0,0,2.77.54,6.93,6.93,0,0,0,2.66-.54,6.87,6.87,0,0,0,3.72-3.72,7.37,7.37,0,0,0,.53-2.66,7,7,0,0,0-.53-2.66,6.34,6.34,0,0,0-1.49-2.23,6.25,6.25,0,0,0-2.23-1.49,6.93,6.93,0,0,0-2.66-.53"/><path class="cls-4" d="M402.94,425.81a9.16,9.16,0,0,1-3.83-.74,10.61,10.61,0,0,1-3.19-2.13,10.43,10.43,0,0,1-2.13-3.19,9.88,9.88,0,0,1-.74-3.83,9.47,9.47,0,0,1,.74-3.83,10.31,10.31,0,0,1,2.13-3.19,10.43,10.43,0,0,1,3.19-2.13,9.84,9.84,0,0,1,3.83-.74,9.16,9.16,0,0,1,3.83.74A10.43,10.43,0,0,1,410,408.9a10.31,10.31,0,0,1,2.13,3.19,9.81,9.81,0,0,1,.74,3.83,9.51,9.51,0,0,1-.74,3.83,10.43,10.43,0,0,1-2.13,3.19,10.61,10.61,0,0,1-3.19,2.13A9.16,9.16,0,0,1,402.94,425.81Zm0-16.91a8,8,0,0,0-2.77.53,6.87,6.87,0,0,0-3.72,3.72,7.37,7.37,0,0,0-.53,2.66,6.93,6.93,0,0,0,.53,2.66,8.13,8.13,0,0,0,1.49,2.23,6.34,6.34,0,0,0,2.23,1.49,7.59,7.59,0,0,0,2.77.54,6.93,6.93,0,0,0,2.66-.54,6.87,6.87,0,0,0,3.72-3.72,7.37,7.37,0,0,0,.53-2.66,7,7,0,0,0-.53-2.66,6.34,6.34,0,0,0-1.49-2.23,6.25,6.25,0,0,0-2.23-1.49A6.93,6.93,0,0,0,402.94,408.9Z"/><path class="cls-3" d="M427.73,426l-5.43-6.49h-3.08v5.86h-3V406.56h6.27a8.32,8.32,0,0,1,5.11,1.49,6.08,6.08,0,0,1,1.7,2,7.37,7.37,0,0,1,.53,2.66,5.64,5.64,0,0,1-.53,2.66,5.84,5.84,0,0,1-1.49,2.12,6.09,6.09,0,0,1-2.23,1.39l4.25,5.1Zm-8.51-9.46h3.29a5.74,5.74,0,0,0,1.92-.22,4.32,4.32,0,0,0,1.38-.85,3.57,3.57,0,0,0,1.06-2.76,2.79,2.79,0,0,0-1.06-2.45,3.3,3.3,0,0,0-1.38-.64,10,10,0,0,0-1.92-.21h-3.29Z"/><path class="cls-4" d="M427.73,426l-5.43-6.49h-3.08v5.86h-3V406.56h6.27a8.32,8.32,0,0,1,5.11,1.49,6.08,6.08,0,0,1,1.7,2,7.37,7.37,0,0,1,.53,2.66,5.64,5.64,0,0,1-.53,2.66,5.84,5.84,0,0,1-1.49,2.12,6.09,6.09,0,0,1-2.23,1.39l4.25,5.1Zm-8.51-9.46h3.29a5.74,5.74,0,0,0,1.92-.22,4.32,4.32,0,0,0,1.38-.85,3.57,3.57,0,0,0,1.06-2.76,2.79,2.79,0,0,0-1.06-2.45,3.3,3.3,0,0,0-1.38-.64,10,10,0,0,0-1.92-.21h-3.29Z"/><rect class="cls-3" x="434.53" y="406.56" width="2.87" height="18.83"/><rect class="cls-4" x="434.53" y="406.56" width="2.87" height="18.83"/><polygon class="cls-3" points="455.7 409.43 449.74 409.43 449.74 425.38 446.77 425.38 446.77 409.43 440.81 409.43 440.81 406.56 455.7 406.56 455.7 409.43"/><polygon class="cls-4" points="455.7 409.43 449.74 409.43 449.74 425.38 446.77 425.38 446.77 409.43 440.81 409.43 440.81 406.56 455.7 406.56 455.7 409.43"/><polygon class="cls-3" points="468.68 418.05 468.68 425.38 465.81 425.38 465.81 418.05 457.83 407.51 460.17 405.71 467.19 415.17 474.32 405.71 476.66 407.51 468.68 418.05"/><polygon class="cls-4" points="468.68 418.05 468.68 425.38 465.81 425.38 465.81 418.05 457.83 407.51 460.17 405.71 467.19 415.17 474.32 405.71 476.66 407.51 468.68 418.05"/></svg>