<svg id="Layer_1" data-name="Layer 1" xmlns="http://www.w3.org/2000/svg" xmlns:xlink="http://www.w3.org/1999/xlink" viewBox="0 0 458.86 500.16"><defs><style>.cls-1{fill:none;}.cls-2{clip-path:url(#clip-path);}.cls-3{fill:url(#linear-gradient);}.cls-4{fill:#00a5b8;}.cls-5{fill:#50c2c6;}.cls-6{fill:#484847;}</style><clipPath id="clip-path"><polygon class="cls-1" points="539.24 413.7 683.26 269.68 539.53 -10.78 539.24 413.7"/></clipPath><linearGradient id="linear-gradient" x1="4168.15" y1="-276.77" x2="4173.32" y2="-276.77" gradientTransform="matrix(27.86, 54.27, 54.27, -27.86, -100579.45, -233896.47)" gradientUnits="userSpaceOnUse"><stop offset="0" stop-color="#aaacaf"/><stop offset="1" stop-color="#fafafa"/></linearGradient></defs><g class="cls-2"><polygon class="cls-3" points="653.31 -69.22 855.78 325.31 569.47 472.15 367.01 77.9 653.31 -69.22"/></g><polygon class="cls-4" points="221.49 190.07 221.49 236.86 230.3 236.86 239.11 236.86 239.11 190.07 230.3 190.07 221.49 190.07"/><polygon class="cls-4" points="221.49 132.4 221.49 183.82 230.3 183.82 239.11 183.82 239.11 132.4 230.3 132.4 221.49 132.4"/><polygon class="cls-4" points="230.3 80.29 221.49 95.84 221.49 126.15 230.3 126.15 239.11 126.15 239.11 95.84 230.3 80.29"/><path class="cls-4" d="M203.25,89.16c-20.24,46.05-8.56,83-8.56,83,10.12-62.36,35.49-95.29,35.49-95.29L220.68,81C214.43,83.79,208.69,86.47,203.25,89.16Z"/><path class="cls-5" d="M119.34,142.89s35.49-68.48,111-89.72,111.22,5.31,111.22,5.31-65.86-3.43-111.34,16S166.57,105.84,119.34,142.89Z"/><path class="cls-5" d="M245.74,213.12v30.49H214.62V213.12l-138-84.6s-.06,3.13,3.63,5.94,116.65,86.22,116.65,86.22v55.48a32.59,32.59,0,0,0,17.74,29h0V279.23h31.12v25.93a32.59,32.59,0,0,0,17.74-29V220.68s113-83.35,116.65-86.22,3.63-5.94,3.63-5.94Zm0,56.17H214.62V253.86h31.12Z"/><path class="cls-4" d="M272.73,258v24.24c-3.38,31.62-33.68,37.87-33.68,37.87V286H221.37v34.12s-30.3-6.25-33.68-37.87V258l-16.18,28.93s3.12,41.61,51.05,50.67l7.49,5v.19l.13-.06.12.06v-.19l7.5-5c48-9.06,51.05-50.67,51.05-50.67Z"/><path class="cls-4" d="M230.18,76.91s25.43,32.93,35.49,95.29c0,0,11.81-37.49-8.94-83.85Z"/><path class="cls-5" d="M196.19,64.54a173.54,173.54,0,0,1,30.68-12.68c-8-2.44-58.3-16.43-107.53,6.56C119.34,58.48,159.45,55.92,196.19,64.54Z"/><path class="cls-4" d="M207,45.24S174.07,10.5,158.89,0c0,0,46.92,14.25,74,49.23l-2.75,1.32A160.86,160.86,0,0,0,207,45.24Z"/><path class="cls-4" d="M253.61,45.61c.87-.25,1.37-.37,1.37-.37C269.92,27.49,303.22,1,303.22,1,262,12.25,232.43,45.24,232.43,45.24L236,49.42C241.92,47.86,247.8,46.61,253.61,45.61Z"/><path class="cls-5" d="M264.29,66.67l-.62-.07a184.68,184.68,0,0,0-29.24,8.5l-.69.63C285.1,94,341.58,142.89,341.58,142.89,311.22,88.47,264.29,66.67,264.29,66.67Z"/><path class="cls-6" d="M297,391h-8.62a21.07,21.07,0,0,0-21.06,21.06v7.12a20.08,20.08,0,0,0,20.06,20.06h10.56a20.08,20.08,0,0,0,20-20.06v-7.12A20.93,20.93,0,0,0,297,391Zm7.12,28.12a7.94,7.94,0,0,1-7.93,7.93h-7.25a7.94,7.94,0,0,1-7.93-7.93V412a8.93,8.93,0,0,1,8.93-8.94h5.25a8.93,8.93,0,0,1,8.93,8.94v7.12Z"/><path class="cls-6" d="M308.53,446.05v11.62H318s18.75,1.44,24.31-18.62a66.07,66.07,0,0,0,1.56-10.18V392.25H330.21v35C330.27,427.24,331.52,448.05,308.53,446.05Z"/><path class="cls-6" d="M361.58,446.05v11.62H371s18.74,1.44,24.3-18.62a65.46,65.46,0,0,0,1.57-10.18V392.25H383.26v35S384.57,448.05,361.58,446.05Z"/><rect class="cls-6" x="352.83" y="370.51" width="13.62" height="68.54"/><rect class="cls-6" x="230.18" y="370.51" width="13.62" height="68.54"/><path class="cls-6" d="M207.81,370.51v41.92s.56,14-9.43,15.19H187.75l.57-1.75V392.5h-14v29.74s.13,5.38-5.44,5.38h-8.74a20.19,20.19,0,0,0,2.68-10v-8.93a21.06,21.06,0,0,0-21-21.06h-8.62a21.06,21.06,0,0,0-21.06,21.06v8.87a20,20,0,0,0,2.69,10H68.23V370.38H54.48v53.55S51.36,441.55,34,441.55,13.5,426.8,13.5,426.8s-4.44-18,15.68-22.68V392.07S.56,394.13.56,422s22.81,32.31,32,32.31,22.06-2.25,30.87-15.19H200.06s21.37.13,21.37-24.24V370.51ZM149,416.68a11,11,0,0,1-9.31,10.87h-4.5a11,11,0,0,1-9.31-10.87v-7.12a10.61,10.61,0,0,1,10.62-10.62h1.87A10.62,10.62,0,0,1,149,409.56v7.12Z"/><rect class="cls-6" x="174.38" y="370.51" width="13.93" height="11.37"/><rect class="cls-6" x="141.14" y="370.51" width="13.93" height="11.37"/><rect class="cls-6" x="120.28" y="370.51" width="13.93" height="11.37"/><rect class="cls-6" x="297.59" y="369.32" width="13.93" height="11.37"/><rect class="cls-6" x="382.94" y="370.51" width="13.93" height="11.37"/><rect class="cls-6" x="276.73" y="369.32" width="13.93" height="11.37"/><path class="cls-6" d="M435.8,390.44h-8.25s-19.55-1.31-21.8,20.68,11.18,27.93,22.24,27.93h14.75s1.37,8.62-7.31,10.06-23.43.69-23.43.69V461h21.8s21.5.19,22.37-18V411.62C456.23,411.75,458.23,392.75,435.8,390.44ZM442.86,412v15.43H429.62c-9.81,0-10.19-8.25-10.19-12.37s.19-13.37,11.94-13.37S442.86,412,442.86,412Z"/><path class="cls-6" d="M286.72,480.54l-7.56,11.12H278l-7.56-11.12v19.12H264V469.73h6.31L278.6,482,287,469.73h6.31v29.93h-6.49l-.07-19.12Z"/><path class="cls-6" d="M300.66,469.67h6.49v29.92h-6.49Z"/><path class="cls-6" d="M321.09,480.66v19h-6.5V469.73h5.62l12.62,19v-19h6.56v29.93h-5.74Z"/><path class="cls-6" d="M346.89,469.67h6.5v29.92h-6.5Z"/><path class="cls-6" d="M360.58,491.66a14.91,14.91,0,0,0,7.81,2.56c2.31,0,4.37-1.06,4.37-3.31,0-1.44-.75-2.56-3-3.25l-3.94-1.25c-4.37-1.31-6.43-3.81-6.43-8.18,0-4.63,3.56-8.94,10.37-8.94a19.82,19.82,0,0,1,9,2.13L377,477a15,15,0,0,0-7-1.94c-2.69,0-4.19,1.13-4.19,2.94,0,1.56.94,2.31,2.75,2.94l3.87,1.25c4.94,1.62,7,4.37,7,8.37,0,5.37-4.31,9.49-10.87,9.49a21.62,21.62,0,0,1-9.5-2.31Z"/><path class="cls-6" d="M396.94,475.41v24.25h-6.5V475.41h-7.68v-5.74h21.68v5.74Z"/><path class="cls-6" d="M442.8,487.85l-9.68-17.68v-.5h7.18l5.75,12.18,5.75-12.18h7.06v.5l-9.69,17.68v11.81H442.8Z"/><path class="cls-6" d="M14.18,475.48v24.24H7.69V475.48H0v-5.75H21.68v5.75Z"/><path class="cls-6" d="M26.68,469.79H39.61c5.5,0,9.12,4.06,9.12,9.81a9.14,9.14,0,0,1-6.43,9l7.37,10v1.12H42.74L35.3,489H33.11v10.75H26.62l.06-29.93Zm6.5,5.69V484h4.68a4,4,0,0,0,4.19-4.24,3.89,3.89,0,0,0-4.19-4.25Z"/><path class="cls-6" d="M61.42,469.79H69l9.56,29.93H72l-1.69-5.87H59.79l-1.68,5.87h-6.5Zm0,19.25h7.37l-3.62-12.81Z"/><path class="cls-6" d="M89.53,480.73v19H83V469.79h5.62l12.62,19v-19h6.56v29.93h-5.75Z"/><path class="cls-6" d="M115,491.72a14.85,14.85,0,0,0,7.81,2.56c2.31,0,4.37-1.06,4.37-3.31,0-1.43-.75-2.56-3-3.25l-3.93-1.25c-4.38-1.31-6.44-3.81-6.44-8.18,0-4.62,3.56-8.94,10.37-8.94a19.82,19.82,0,0,1,9,2.13l-1.81,5.62a15.15,15.15,0,0,0-7-1.94c-2.69,0-4.19,1.13-4.19,2.94,0,1.56.94,2.31,2.75,2.94l3.88,1.25c4.93,1.62,7,4.37,7,8.37,0,5.37-4.31,9.5-10.87,9.5a21.66,21.66,0,0,1-9.5-2.31Z"/><path class="cls-6" d="M139.64,469.79h12.75c5.06,0,9.5,3.44,9.5,10.94,0,6.81-4.38,10.8-9.5,10.8h-6.25v8.19h-6.5V469.79Zm6.5,5.69v10.37H151c2.37,0,4.24-2,4.24-5.12,0-3.38-1.87-5.25-4.24-5.25Z"/><path class="cls-6" d="M178.63,469.35c8.12,0,13.19,6.44,13.19,15.44s-5.07,15.37-13.19,15.37-13.06-6.38-13.06-15.37S170.63,469.35,178.63,469.35Zm0,24.68c4.06,0,6.81-2.93,6.81-9.24s-2.75-9.31-6.81-9.31-6.62,2.93-6.62,9.31S174.7,494,178.63,494Z"/><path class="cls-6" d="M237.11,475.48v24.24h-6.49V475.48h-7.69v-5.75h21.68v5.75Z"/><path class="cls-6" d="M214.87,488.1h-.31a9.1,9.1,0,0,0,5.18-8.5c0-5.75-3.62-9.81-9.12-9.81H197.69v29.93h6.5v-9.31h4.5c1,1,5,5.19,5.24,9.18h7.63C221.56,499.66,219.68,491.6,214.87,488.1Zm-10.62-11.62v-1h4.69a3.89,3.89,0,0,1,4.18,4.25v1a4,4,0,0,1-4.18,4.24h-4.69Z"/><path class="cls-6" d="M426.62,488.1h-.32a9.09,9.09,0,0,0,5.19-8.5c0-5.75-3.62-9.81-9.12-9.81H409.44v29.93h6.49v-9.31h4.5c1,1,5,5.19,5.25,9.18h7.62C433.3,499.66,431.43,491.6,426.62,488.1Zm-10.69-11.62v-1h4.69a3.89,3.89,0,0,1,4.19,4.25v1a4,4,0,0,1-4.19,4.24h-4.69Z"/></svg>