<svg id="Layer_1" data-name="Layer 1" xmlns="http://www.w3.org/2000/svg" xmlns:xlink="http://www.w3.org/1999/xlink" viewBox="0 0 1189.5 1227.85"><defs><style>.cls-1{fill:url(#linear-gradient);}.cls-2{fill:url(#linear-gradient-2);}.cls-3{fill:url(#linear-gradient-3);}.cls-4{fill:url(#linear-gradient-4);}.cls-5{fill:url(#linear-gradient-5);}.cls-6{fill:url(#linear-gradient-6);}.cls-7{fill:url(#linear-gradient-7);}.cls-8{fill:url(#radial-gradient);}.cls-11,.cls-12,.cls-16,.cls-9{stroke:#000;}.cls-11,.cls-12,.cls-13,.cls-16,.cls-17,.cls-9{stroke-miterlimit:10;}.cls-10,.cls-11{fill:#caca7e;}.cls-12{stroke-width:2px;}.cls-13,.cls-16{fill:#f0df94;}.cls-13,.cls-17{stroke:#2b2624;}.cls-14{fill:#ee8f22;}.cls-15{fill:#2b2624;}.cls-17{fill:#fff;}</style><linearGradient id="linear-gradient" x1="24.06" y1="613.92" x2="1213.56" y2="613.92" gradientUnits="userSpaceOnUse"><stop offset="0" stop-color="#eaf3e7"/><stop offset="0.31" stop-color="#e8f1e4"/><stop offset="0.54" stop-color="#e1ecdb"/><stop offset="0.73" stop-color="#d6e3cb"/><stop offset="0.91" stop-color="#c6d7b5"/><stop offset="1" stop-color="#bccfa7"/></linearGradient><linearGradient id="linear-gradient-2" x1="29.95" y1="498.22" x2="260.46" y2="385.97" gradientUnits="userSpaceOnUse"><stop offset="0.02" stop-color="#c0d3af"/><stop offset="0.19" stop-color="#d5e3cb"/><stop offset="0.36" stop-color="#e4efe0"/><stop offset="0.47" stop-color="#eaf3e7"/><stop offset="0.64" stop-color="#e8f1e4"/><stop offset="0.76" stop-color="#e1ecdb"/><stop offset="0.86" stop-color="#d6e3cb"/><stop offset="0.95" stop-color="#c6d7b5"/><stop offset="1" stop-color="#bccfa7"/></linearGradient><linearGradient id="linear-gradient-3" x1="12.03" y1="939.6" x2="606.66" y2="939.6" xlink:href="#linear-gradient"/><linearGradient id="linear-gradient-4" x1="-1757.23" y1="1158.45" x2="-2135.08" y2="696.81" gradientTransform="matrix(-1, 0, 0, 1, -1025.89, 0)" gradientUnits="userSpaceOnUse"><stop offset="0" stop-color="#bccfa7" stop-opacity="0.2"/><stop offset="0.04" stop-color="#bfd1ab" stop-opacity="0.25"/><stop offset="0.11" stop-color="#c6d7b5" stop-opacity="0.37"/><stop offset="0.21" stop-color="#d1e0c5" stop-opacity="0.57"/><stop offset="0.32" stop-color="#e1ecdb" stop-opacity="0.85"/><stop offset="0.38" stop-color="#eaf3e7"/><stop offset="0.52" stop-color="#e8f1e4"/><stop offset="0.64" stop-color="#e0ecda"/><stop offset="0.74" stop-color="#d4e2c9"/><stop offset="0.84" stop-color="#c3d5b1"/><stop offset="0.88" stop-color="#bccfa7"/></linearGradient><linearGradient id="linear-gradient-5" x1="-2004.68" y1="497.92" x2="-1774.17" y2="385.67" gradientTransform="matrix(-1, 0, 0, 1, -845.13, 0)" xlink:href="#linear-gradient-2"/><linearGradient id="linear-gradient-6" x1="587.3" y1="43.18" x2="258.27" y2="242.67" gradientUnits="userSpaceOnUse"><stop offset="0.03" stop-color="#bccfa7"/><stop offset="0.13" stop-color="#c4d5b2"/><stop offset="0.31" stop-color="#dae6d0"/><stop offset="0.42" stop-color="#eaf3e7"/><stop offset="0.63" stop-color="#d5e2c9"/><stop offset="0.86" stop-color="#c3d4b0"/><stop offset="1" stop-color="#bccfa7"/></linearGradient><linearGradient id="linear-gradient-7" x1="602.56" y1="141.33" x2="987.28" y2="141.33" gradientUnits="userSpaceOnUse"><stop offset="0.03" stop-color="#a3b58c"/><stop offset="0.11" stop-color="#acbd97"/><stop offset="0.24" stop-color="#c3d1b5"/><stop offset="0.41" stop-color="#e9f2e6"/><stop offset="0.42" stop-color="#eaf3e7"/><stop offset="0.51" stop-color="#e1ecdb" stop-opacity="0.88"/><stop offset="0.67" stop-color="#d1e0c5" stop-opacity="0.68"/><stop offset="0.82" stop-color="#c6d7b4" stop-opacity="0.53"/><stop offset="0.93" stop-color="#bfd1ab" stop-opacity="0.43"/><stop offset="1" stop-color="#bccfa7" stop-opacity="0.4"/></linearGradient><radialGradient id="radial-gradient" cx="564.86" cy="430.84" fx="1158.8857840954047" fy="-11.970503995593162" r="740.91" gradientTransform="translate(-93.92 118.95) rotate(-13.86) scale(1 1.07)" gradientUnits="userSpaceOnUse"><stop offset="0.03" stop-color="#8aad8e"/><stop offset="0.18" stop-color="#8eb091"/><stop offset="0.33" stop-color="#99b89c"/><stop offset="0.47" stop-color="#adc7ac"/><stop offset="0.61" stop-color="#c8dac4"/><stop offset="0.65" stop-color="#d1e1cc"/><stop offset="1" stop-color="#8aad8e"/></radialGradient></defs><path class="cls-1" d="M1189.5,655.68c-70-39-219-124-210-418L594.79.05V0l0,0,0,0V.05L210,237.68c9,294-140,379-210,418H0C43.58,951.4,426.34,1239.23,587.26,1227.5a104,104,0,0,1,15,0c160.92,11.73,543.68-276.1,587.26-571.82Z"/><path class="cls-2" d="M71.18,650.49h0c61.6-34.32,192.69-109.11,184.87-367.71l-46-45.3h0c9,294-140,379-210,418H0c.09.58.19,1.17.28,1.76l71-6.09C71.25,650.94,71.21,650.71,71.18,650.49Z"/><path class="cls-3" d="M587.88,1154.07C446.34,1164.39,109.85,911.45,71,651.35L0,657.44c44.84,295.1,426.39,581.77,587,570.06q3.82-.29,7.65-.27l-1.32-73.38C591.5,1153.87,589.69,1153.94,587.88,1154.07Z"/><path class="cls-4" d="M601.62,1154.07c141.54,10.32,478-242.62,516.87-502.72l71,6.09c-44.84,295.1-426.39,581.77-587,570.06q-3.82-.29-7.65-.27l-1.93-73.34C594.75,1153.91,599.81,1153.94,601.62,1154.07Z"/><path class="cls-5" d="M1118.32,650.19h0c-61.6-34.32-192.69-109.11-184.87-367.71l46-45.3h0c-9,294,140,379,210,418h0c-.09.58-.19,1.17-.27,1.75l-71-6.08C1118.25,650.64,1118.29,650.41,1118.32,650.19Z"/><polygon class="cls-6" points="594.78 73.47 594.79 0 210 237.63 256.05 282.66 594.78 73.47"/><polygon class="cls-7" points="594.79 0 594.78 73.47 933.46 282.66 979.5 237.63 594.79 0"/><path class="cls-8" d="M1118.32,650.64c-61.62-34.34-192.79-109.16-184.86-368L594.78,73.47v0l0,0,0,0v0L256,282.66C264,541.48,132.8,616.3,71.18,650.64h0C109.54,911,446.5,1164.35,588.15,1154a90.87,90.87,0,0,1,13.2,0C743,1164.35,1080,911,1118.32,650.64Z"/><circle cx="594.75" cy="716.27" r="199"/><path class="cls-9" d="M1039.43,639C770.27,430.76,402.68,429,150.07,653.76,496.76,483.9,779,531.81,1039.43,639Z"/><path class="cls-9" d="M973.81,853.07c-225.77,146.3-534.1,147.53-746-10.4C518.62,962,755.35,928.36,973.81,853.07Z"/><path class="cls-10" d="M589.25,800l-3.5,3.49-2.08,2.1c-11.19,11.19-18.17,18.88-18.17,18.88l-2.81-1a2.57,2.57,0,0,0,.35-1.75,4.6,4.6,0,1,0-4.28,4.89h.79l.35,1.74s-6.65,7.35-15,7.35c-7,0-11.88-7.35-17.12-6.29-8.4,1.75-9.09,15,7,21.32,13.27,5.24,37-12.94,37-12.94l1.06.71c0,.35-.36,1-.36,1.39a4.6,4.6,0,1,0,4.28-4.89h-.09a1.31,1.31,0,0,0-1,.33l-.35-1.74s7.34-8.39,18.88-19.57l1.75-1.75,3.14-2.79Z"/><path class="cls-10" d="M539.9,841.54c-7.34-.7-15-5.24-12.58-8,3.5-4.19,7,3.15,13.27,4.59,8,1.4,13.29-.35,12.94.36C553.53,838.75,547.87,842.25,539.9,841.54Z"/><path class="cls-10" d="M716.75,743.68s-29.71-.69-65,21.67c-15.72,10.14-32.85,24.52-46.83,37.74l-1.75,1.75L600,808c-3.5-3.5-7.33-7-9.78-9.09l2.79-2.45,2.1-2.1c16.43-15.73,37.74-33.55,58.37-44.45A81.42,81.42,0,0,1,716.75,743.68Z"/><path class="cls-10" d="M666.42,827.27c-5.24-.7-9.79,6.64-16.78,7-8.73.71-15.32-6.63-15.32-6.63l.35-1.75h.71a4.6,4.6,0,1,0-4.6-4.6,3,3,0,0,0,.35,1.75l-2.79,1.06s-7.34-7.67-18.88-18.18l-3.84-3.49-5.94-5.24a35.34,35.34,0,0,1-3.84-3.5c-17.13-14.34-38.45-30.42-58.73-39.84A84.67,84.67,0,0,0,472.75,751s29.7-2.1,66,18.53c15.74,8.74,32.5,22,46.83,33.9,1.06,1.06,2.45,2.1,3.5,3.14l6.65,5.59,3.49,3.16c11.88,10.48,19.57,18.51,19.57,18.51l-.35,1.75c-.35,0-.69-.34-1-.34a4.6,4.6,0,1,0,4.59,4.6c0-.7,0-1-.35-1.39l1.06-.71s24.81,16.78,37.74,11.19C676.2,841.54,674.81,828.61,666.42,827.27Z"/><path class="cls-10" d="M616.83,825.11c-.69,1.06-3.84-3.14-8.38-7.34-2.8-2.79-6.3-5.59-9.79-8.73L589.25,800c-1.4-1.39-2.09-2.45-1.75-2.79s1.41.34,2.81,1.75c2.45,2.08,5.94,5.59,9.77,9.09,2.1,1.74,3.85,3.83,5.6,5.24C613.29,820.22,617.84,823.37,616.83,825.11Z"/><path class="cls-10" d="M654.23,842.94h-3.15a1.3,1.3,0,0,1-1-.36,1.33,1.33,0,0,1-1.06-.33c-.69-.36-1.39-.36-2.08-.71h-.35c-.35,0-.35,0-.35-.35-.36,0-.71-.35-1.06-.35s-.69-.34-1-.34a1.27,1.27,0,0,0-1.05-.35,1.22,1.22,0,0,1-.7-.36c-1-.35-1.75-1-2.1-1H642a1.34,1.34,0,0,1,1,.34h3.85a20.45,20.45,0,0,0,8-1c6.64-2.45,8.05-8.39,10.48-5.6,1.7,3.15-3.89,9.8-11.23,10.49Z"/><path class="cls-10" d="M524.16,661.15c17.7-23.9,28.85-28.14,42.91-31.09C552.82,642.5,539.2,671,543.32,691.28c7.52-21.62,20.84-42.56,33.25-50.1-7,13.1-7.28,29.46-.49,43.54,1.45-18,10.9-35.28,18.67-47.13,7.75,11.79,17.21,29.14,18.66,47.13,6.79-14.08,6.55-30.47-.48-43.54,12.36,7.54,25.45,28.48,33.25,50.1,4.12-20.3-9.2-48.78-23.75-61.22,14.06,3,25.45,7.19,42.91,31.09-5.82-32.07-26.19-42.88-42.67-46.81,17.94-2,21.58.34,37.33,9.17-17.2-22.91-29.33-27.18-46.55-24.88,2.91-3.6,5.82-5.23,10.19-6.87-7.28-3.92-18.67-2-23,3.93,0,0-1-10.48-6.07-14.73h0c-5.1,4.25-6.06,14.73-6.06,14.73-4.37-5.56-15.76-7.85-23-3.93,4.37,1.61,7.28,3.21,10.19,6.87-17.22-2.3-29.33,2-46.55,24.88,16-8.83,19.41-11.46,37.34-9.17-16.08,4-36.7,15.06-42.27,46.81"/><rect class="cls-10" x="589.21" y="628.85" width="11.09" height="142.02"/><path class="cls-11" d="M845.54,757.19c-3.55,3.17-13.8,15.71-17.87,21.13,0-1.07-.11-11.39,4.63-18.92a2,2,0,0,0,.08-.22,130.82,130.82,0,0,0,15.76-24c2.88-6,.29-4.66-2.77-.27-2.77,3.76-10.27,14.72-13.78,20.68a37.15,37.15,0,0,1,2.2-16.64c3.12-5.1,9.28-16,12.92-27.85,1.71-5.7.28-4.89-1.82-1.82-1.66,2.43-8.52,17.28-11.65,24.5-.79-1.65-3.13-8.2,1.75-20.54a1.13,1.13,0,0,0,.06-.59,112,112,0,0,0,8.65-25.07c.91-5.32-1.57-2.27-2.9.64-1.09,2.38-6.34,16.21-8.51,22.48-1.07-1.7-3.32-6.8-.38-16.55a3,3,0,0,0,.14-.62,111,111,0,0,0,5.71-27.2c.07-4.69-1.66-1.57-2.16.73s-3.13,10.91-5.1,22c-1.55-.46-4.69-3.22-2.3-18.75l-.18-.16a185.92,185.92,0,0,0,3.33-21.85c.62-4.63-1-3.39-2,.74-.58,3.24-2.5,14.65-3.31,19.49-1-.69-4-3.78-4.22-15a1.53,1.53,0,0,0-.05-.41c.78-6,1.94-17.18.8-24.42-.27-2.13-.7-.33-.8.4s-2.22,15.1-2,23.5c-1.37-1.88-5.93-8.59-5.5-14.13l0-.06c.52-5.3,1.49-18.22-.59-25.57,0,0-1-2.64-1.33.1-.33,2.41-.61,16.27-.34,21.86-1-.68-4.46-3.44-5.55-10.69l-.13-.2c-.17-4.36-.9-18.52-3.32-25.08,0,0-1.17-2.45-1.39.58-.19,2.62,1.52,16.24,2.3,21-1.54-1.54-7.5-7.78-9-13.23l-.09-.1a95.3,95.3,0,0,0-3.2-20.9s-1.44-1.79-1.38.56c.18,1.85,1.31,11.89,2.22,17.73a51.55,51.55,0,0,1-4.4-4l-.07-.12h-.07a26.48,26.48,0,0,1-5.36-7.31l-.11-.12c-.48-2.49-2.53-12.73-5.16-18.73,0,0-.93-1.51-1,.36s2.39,12.74,3.94,16.41a28.37,28.37,0,0,1-4.51-3.24c-2-2.4-7-7.53-17.28-12.82-2.12-.92-2.06,0-1.08,1.07s8.67,9.37,18.52,13.23c2.5,2.14,7.51,6.76,9.29,10.91-4.2-.35-12.08-.89-16-.45-3.07.63-2.34,2.11.25,2.37,2.43.24,11.44,1.92,18.58,1a27.87,27.87,0,0,1,8.83,11.72c-3.49-.9-12-3-17.22-3.52-3-.29-2.1,1.68.8,2.43A100,100,0,0,0,799,617.83a29.94,29.94,0,0,1,7.46,12.74l.18.64c-4.1-1.6-13.68-5.27-16-5.5-3-.3-6.58.11-.94,2.73a116.26,116.26,0,0,0,18.51,6.27c1.79,2.15,5.76,7.58,5.32,13l-.05.7a79.47,79.47,0,0,0-14.25-6.14s-8.87-2.29-.92,2.72c5.66,3.64,13.26,6.23,17,7.37,3.43,3.33,5.34,8.61,5.06,14.37l.22.85a119,119,0,0,0-16.2-10.23c-4.43-1.85-7.58-2.12-1.55,3.14,5.18,4.51,15.47,9.89,19.19,11.72a21.67,21.67,0,0,1,1.71,9.87l.19.91c-3.92-3-11.65-8.57-16.14-10.54-6.19-2.73-3,1.11-1.64,2.42s11.71,10,19.33,14c.71,1.88,1.68,5.82.6,12V701c-3.92-3.66-9.92-9-14.87-12.24-4-2.24-5.53-.75-2.08,2.88a138.55,138.55,0,0,0,17.28,14.8v.12s2.79,10.25.27,16.83a119.33,119.33,0,0,0-14.7-17.16c-2.11-2.09-4.85-2.6-1.94,2.15,2.27,3.92,10.35,14.65,16,19.85.3,1.12,2.52,9.85-.62,15.46-3.13-5.11-8.89-14.1-13.12-18.43-3.63-3.88-6.19-5.53-2,2.62,3,5.86,9.35,14,13.62,18.91,1.23,7-.81,14.38-1.34,16.79-2.45-5.45-6.89-14.38-12.41-21.16-2.86-3.8-3.94-3-2.07,1.43a220.06,220.06,0,0,0,13.15,23l-.09.24c2.23,2.26-.27,12.19-3.43,20-1.95-6.67-5.79-18.88-10.17-27.77-2.71-5-4.65-5.86-3,1.58a200.93,200.93,0,0,0,9.79,27.58v0c.52,8.87-2.37,13.84-3.78,16.15-1.75-8-5.32-23.16-8.23-28.71-4-7.67-4.21-4.87-3.27,2,.72,5.29,5.34,20.91,8.45,29.91l-.34.33s.31,9.5-4.34,13.05c-1.26-9.15-3.55-23.4-6.33-29.94-4.27-10-2.93-.53-2.85,1.6.19,1.84,2.75,20.22,6,31.69l-.17.21s-.44,9.9-6.51,12.79c-.41-9.32-1.33-25.49-3-31.68-2.36-8.92-3.13-6-3.33,1.07-.16,5.62.64,24.5,2.82,34.44l-.17.2c-.36,5.28-3.09,10.09-7,12.47.64-8.87,1.75-27.2.78-35.5-1.49-11.17-2.76-7.31-3.79.33-1,6.35-1.87,27-1.24,38.09l-.19.13s-.09,8.71-8.24,11.5c1.1-7.71,3.39-25,3.32-36-.1-14.56-3.26-5-4.08,1-.67,5-2.66,24.07-3.11,35.44l-.18,0s-.82,11.42-10.19,13.45c2.25-8.72,6.64-26.65,7.15-35.46.69-11.9-1-10.67-4.05-.4-2.38,7.94-6.36,26.94-7.35,37l-.29.08S750.15,890,737.21,896c3.14-7.95,10.33-26.74,12.52-37.6,2.84-14-.46-10.37-4.06-1.81-3.27,7.78-10,28.58-12.21,40.84-1,1.66-4.14,5.36-12.9,7,4-8.33,12.31-26.07,15.06-36,3.68-13.24,1-10.46-3.87-1.79-3.82,6.87-10.57,23.81-14.07,35.1l-.21-.27s-4.22,10.81-13.19,8.36c3.94-8.41,11.91-25.75,14.37-33.7,3.32-10.7,1.82-10.61-3.47-2-4.92,8-14.83,32.72-16.7,39.73-6.66,1.76-23.36,5.48-38.81,3.24l-4.75-.48c0-1-22.73,6-22.73,6-23.89,7.37-107.5,15.9-107.5,15.9,57.73,24,108.43,1,135.66-9.7.92.06,2.06.12,3.34.16,9.31.45,24.73-1.3,30.53-2.61,0,0,9.81-1.83,10.83-2.44l.68-.09c3.31,1.89,25.35,13.92,47.22,12,0,0-3.13-6.94-39-13.25,1.62-1.33,10.77-8.47,17.21-7h0c5.78,2,18.22,5.23,37.43,4.19,8.24-1.3.14-3.74.14-3.74s-12-3.74-33.2-4.28c1.92-2,7.9-8,12.77-8.23,5.49,1.09,20.1,3,39.08-2.07,5.12-1.84,3.83-3.37.32-3.72-3.31-.33-22.92-1.52-33.64.79,2-2.33,9.68-11.06,15.62-11.69l0,0c5.53.18,17.06-.57,35.25-7,3.62-1.76,2.9-2.06.31-2.32-2.44-.24-10.28-1.44-31.47,4.11.36-1.33,2.32-6.79,10.12-11,7-.85,22-3.22,31.7-8.74,5.28-3,3.71-3.62-.49-3.33-3.36.23-19.17,3.57-27.58,7l0-.07s3-6.22,7.8-9.48c4.66-.56,14.53-3.24,30.52-14.65,5.28-4.4,2.07-4.25-.67-3.35-2.29.76-20.54,9.26-27.86,13.27l0-.06a24.18,24.18,0,0,1,7.74-11.92c5.64-2.87,18.7-9.92,27.38-17.69,4.67-5.41,2.9-4.89-.64-3.59-2.94,1.09-18.52,10.73-24.58,15.38a26.68,26.68,0,0,1,7.82-13.28c5.43-3.18,16-9.81,23.44-17.17,5.18-6.06,1.41-4.56-1.28-2.71-2.09,1.45-15.06,10.53-21.26,15.73.2-1.81,1.11-8.37,4.17-12.08a104.77,104.77,0,0,0,23.6-21.29c3.18-4.14,3.07-6-2-2.07a207.76,207.76,0,0,0-20.18,18.7,31.23,31.23,0,0,1,4.9-15.94c5-5.13,16.84-17.46,19.46-22.52C848.8,756.58,850,753.41,845.54,757.19Z"/><path class="cls-11" d="M344,757.19c3.55,3.17,13.81,15.71,17.87,21.13,0-1.07.11-11.39-4.63-18.92a2,2,0,0,1-.08-.22,130.82,130.82,0,0,1-15.76-24c-2.88-6-.29-4.66,2.77-.27,2.77,3.76,10.27,14.72,13.78,20.68a37.15,37.15,0,0,0-2.2-16.64c-3.12-5.1-9.28-16-12.92-27.85-1.71-5.7-.28-4.89,1.82-1.82,1.66,2.43,8.52,17.28,11.65,24.5.79-1.65,3.13-8.2-1.75-20.54a1.13,1.13,0,0,1-.06-.59,112,112,0,0,1-8.65-25.07c-.91-5.32,1.57-2.27,2.9.64,1.09,2.38,6.34,16.21,8.51,22.48,1.07-1.7,3.33-6.8.38-16.55a3,3,0,0,1-.14-.62,111,111,0,0,1-5.71-27.2c-.07-4.69,1.66-1.57,2.16.73s3.13,10.91,5.1,22c1.55-.46,4.69-3.22,2.3-18.75l.18-.16a185.92,185.92,0,0,1-3.33-21.85c-.62-4.63,1-3.39,2,.74.58,3.24,2.5,14.65,3.31,19.49,1-.69,4-3.78,4.22-15a1.53,1.53,0,0,1,0-.41c-.78-6-1.94-17.18-.8-24.42.27-2.13.7-.33.8.4s2.22,15.1,2,23.5c1.37-1.88,5.93-8.59,5.5-14.13l0-.06c-.52-5.3-1.49-18.22.59-25.57,0,0,1-2.64,1.33.1.33,2.41.61,16.27.34,21.86,1-.68,4.46-3.44,5.55-10.69l.13-.2c.17-4.36.9-18.52,3.32-25.08,0,0,1.17-2.45,1.39.58.19,2.62-1.52,16.24-2.3,21,1.54-1.54,7.5-7.78,9-13.23l.09-.1a95.3,95.3,0,0,1,3.2-20.9s1.44-1.79,1.38.56c-.18,1.85-1.31,11.89-2.22,17.73a51.55,51.55,0,0,0,4.4-4l.08-.12h.06A26.48,26.48,0,0,0,407,593l.11-.12c.48-2.49,2.53-12.73,5.16-18.73,0,0,.93-1.51,1,.36s-2.39,12.74-3.94,16.41a28.37,28.37,0,0,0,4.51-3.24c2-2.4,7-7.53,17.28-12.82,2.12-.92,2.06,0,1.08,1.07s-8.67,9.37-18.52,13.23c-2.5,2.14-7.51,6.76-9.29,10.91,4.2-.35,12.08-.89,16-.45,3.07.63,2.34,2.11-.25,2.37-2.43.24-11.44,1.92-18.58,1a27.87,27.87,0,0,0-8.83,11.72c3.49-.9,12-3,17.22-3.52,2.95-.29,2.1,1.68-.8,2.43a100,100,0,0,1-18.56,4.16,29.94,29.94,0,0,0-7.46,12.74l-.18.64c4.1-1.6,13.68-5.27,16-5.5,3-.3,6.58.11.94,2.73a116.26,116.26,0,0,1-18.51,6.27c-1.79,2.15-5.76,7.58-5.32,13l0,.7a79.47,79.47,0,0,1,14.25-6.14s8.87-2.29.92,2.72c-5.66,3.64-13.26,6.23-17,7.37-3.43,3.33-5.34,8.61-5.06,14.37l-.22.85a119,119,0,0,1,16.2-10.23c4.43-1.85,7.58-2.12,1.55,3.14-5.18,4.51-15.47,9.89-19.19,11.72a21.67,21.67,0,0,0-1.71,9.87l-.19.91c3.92-3,11.65-8.57,16.14-10.54,6.19-2.73,3,1.11,1.64,2.42s-11.71,10-19.33,14c-.71,1.88-1.68,5.82-.6,12V701c3.92-3.66,9.92-9,14.87-12.24,4-2.24,5.53-.75,2.08,2.88a138.55,138.55,0,0,1-17.28,14.8v.12s-2.79,10.25-.27,16.83a119.33,119.33,0,0,1,14.7-17.16c2.11-2.09,4.85-2.6,1.94,2.15-2.27,3.92-10.35,14.65-16,19.85-.3,1.12-2.52,9.85.62,15.46,3.13-5.11,8.89-14.1,13.12-18.43,3.63-3.88,6.19-5.53,2,2.62-3,5.86-9.35,14-13.62,18.91-1.23,7,.81,14.38,1.34,16.79,2.45-5.45,6.89-14.38,12.41-21.16,2.86-3.8,3.94-3,2.07,1.43a220.06,220.06,0,0,1-13.15,23l.1.24c-2.24,2.26.26,12.19,3.42,20,1.95-6.67,5.79-18.88,10.17-27.77,2.71-5,4.65-5.86,3,1.58a200.93,200.93,0,0,1-9.79,27.58v0c-.52,8.87,2.37,13.84,3.78,16.15,1.75-8,5.32-23.16,8.23-28.71,4-7.67,4.21-4.87,3.27,2-.72,5.29-5.34,20.91-8.45,29.91l.34.33s-.31,9.5,4.34,13.05c1.26-9.15,3.55-23.4,6.33-29.94,4.27-10,2.93-.53,2.85,1.6-.19,1.84-2.75,20.22-6,31.69l.17.21s.44,9.9,6.51,12.79c.41-9.32,1.33-25.49,3-31.68,2.36-8.92,3.13-6,3.33,1.07.16,5.62-.64,24.5-2.82,34.44l.17.2c.36,5.28,3.09,10.09,7,12.47-.64-8.87-1.75-27.2-.78-35.5,1.49-11.17,2.76-7.31,3.79.33,1,6.35,1.87,27,1.24,38.09l.19.13s.09,8.71,8.24,11.5c-1.1-7.71-3.39-25-3.31-36,.09-14.56,3.25-5,4.07,1,.67,5,2.66,24.07,3.11,35.44l.18,0s.82,11.42,10.19,13.45c-2.25-8.72-6.64-26.65-7.15-35.46-.69-11.9,1-10.67,4.05-.4,2.38,7.94,6.36,26.94,7.35,37l.29.08s.49,6.26,13.43,12.29c-3.14-7.95-10.33-26.74-12.52-37.6-2.84-14,.46-10.37,4.06-1.81,3.27,7.78,10,28.58,12.21,40.84,1,1.66,4.14,5.36,12.9,7-4-8.33-12.31-26.07-15.06-36-3.68-13.24-1.05-10.46,3.87-1.79,3.82,6.87,10.57,23.81,14.07,35.1l.21-.27s4.22,10.81,13.19,8.36c-3.94-8.41-11.91-25.75-14.37-33.7-3.32-10.7-1.82-10.61,3.47-2,4.92,8,14.83,32.72,16.7,39.73,6.66,1.76,23.36,5.48,38.81,3.24l4.75-.48c0-1,22.73,6,22.73,6,23.89,7.37,107.5,15.9,107.5,15.9-57.73,24-108.43,1-135.66-9.7-.92.06-2.06.12-3.34.16-9.31.45-24.73-1.3-30.53-2.61,0,0-9.81-1.83-10.83-2.44l-.68-.09c-3.31,1.89-25.35,13.92-47.22,12,0,0,3.13-6.94,39-13.25-1.62-1.33-10.77-8.47-17.21-7h-.05c-5.78,2-18.22,5.23-37.43,4.19-8.24-1.3-.14-3.74-.14-3.74s12.05-3.74,33.2-4.28c-1.92-2-7.9-8-12.77-8.23-5.49,1.09-20.1,3-39.08-2.07-5.12-1.84-3.83-3.37-.32-3.72,3.31-.33,22.92-1.52,33.64.79-2-2.33-9.68-11.06-15.62-11.69l0,0c-5.53.18-17.06-.57-35.25-7-3.62-1.76-2.9-2.06-.31-2.32s10.28-1.44,31.47,4.11c-.36-1.33-2.32-6.79-10.12-11-7-.85-22-3.22-31.7-8.74-5.28-3-3.71-3.62.49-3.33,3.36.23,19.17,3.57,27.58,7l0-.07s-3-6.22-7.8-9.48c-4.66-.56-14.53-3.24-30.52-14.65-5.28-4.4-2.07-4.25.67-3.35,2.29.76,20.54,9.26,27.86,13.27l0-.06a24.18,24.18,0,0,0-7.74-11.92c-5.64-2.87-18.7-9.92-27.38-17.69-4.67-5.41-2.9-4.89.64-3.59,2.94,1.09,18.52,10.73,24.58,15.38a26.68,26.68,0,0,0-7.82-13.28c-5.43-3.18-16-9.81-23.44-17.17-5.17-6.06-1.4-4.56,1.28-2.71,2.09,1.45,15.06,10.53,21.26,15.73-.2-1.81-1.11-8.37-4.17-12.08a104.77,104.77,0,0,1-23.6-21.29c-3.18-4.14-3.07-6,2-2.07a207.76,207.76,0,0,1,20.18,18.7,31.23,31.23,0,0,0-4.9-15.94c-5-5.13-16.84-17.46-19.46-22.52C340.7,756.58,339.51,753.41,344,757.19Z"/><path class="cls-12" d="M921.5,762.42q0,13.07-7.68,19.21-8.25,6.63-26.66,6.63-11.71,0-17.93-4.11-6.79-4.5-6.79-13.82a43.88,43.88,0,0,1,1.23-10.2A72.11,72.11,0,0,1,867,749.76q1.29-3.16,4.45-9.73l2.35,1.06a80.74,80.74,0,0,0-5.42,13.3,34.21,34.21,0,0,0-1.32,8.9q0,7.28,5.18,11.05t14.8,3.78a46.58,46.58,0,0,0,19.63-3.93q10.61-4.86,10.6-13.59a34,34,0,0,0-1.76-11.13,24.41,24.41,0,0,0-4.33-8l4.86-12a30.51,30.51,0,0,1,4.28,9.66,58.68,58.68,0,0,1,1.17,13.07Zm-21.8-44.95-4.39,8.38-9.14-5,4.22-8.14Z"/><path class="cls-12" d="M968.79,762.42h-6.1a26.74,26.74,0,0,1-8.85-1.76,33.34,33.34,0,0,1-10-5.63,19.81,19.81,0,0,1-6.94,5.77q-3.54,1.62-10.34,1.62H917.4v-10.2h9a17.15,17.15,0,0,0,9.5-2.69,21.87,21.87,0,0,0,5.86-5.92,37.55,37.55,0,0,1,8.78-9,25.1,25.1,0,0,1,8.62-4.33,102.73,102.73,0,0,1,6.44,11.07q3.23,6.68,3.23,10.84Zm-6.74-11.55a30.93,30.93,0,0,0-2.35-6.68,35.12,35.12,0,0,0-3.57-5.68,10,10,0,0,0-4.75,2.64,20.5,20.5,0,0,0-3,4.16,19,19,0,0,0,5.94,4.1,23.58,23.58,0,0,0,7.24,2.22Z"/><path class="cls-12" d="M987.42,683.61a3.26,3.26,0,0,1-1.82,2.63,19.83,19.83,0,0,1-3.69,1.64L971,691.63q0-2.68,5.86-4.74a12.29,12.29,0,0,1-2.75-1.82,3.17,3.17,0,0,1-1.23-2.34q0-1.82,3.1-5.1,3.46-3.63,6.1-3.63a2.86,2.86,0,0,1,2,.79,2.73,2.73,0,0,1,.85,2.08,4.43,4.43,0,0,1-.35,1.67,14.23,14.23,0,0,1-1,1.9,5.78,5.78,0,0,0-3.93-1.64,6.5,6.5,0,0,0-2.54.53c-.85.35-1.26.76-1.26,1.23s.9,1.39,2.72,2.4a10,10,0,0,0,4.66,1.53,13,13,0,0,0,1.84-.09A14.26,14.26,0,0,0,987.42,683.61Zm42.19,16.87L1026.79,711l-3.45-1.7.11,5.33a58.19,58.19,0,0,1-2,15.24,63.64,63.64,0,0,1-6.85,16,55.64,55.64,0,0,1,3.1,6.45,21.68,21.68,0,0,1,1.35,7.5q0,2.16-.12,3.69a29.22,29.22,0,0,1-.53,3.57,121.18,121.18,0,0,1-13.27,2.2,122.58,122.58,0,0,1-13.74.79c0-.74.06-1.36.06-1.87a38.26,38.26,0,0,1,1.41-8.27,54.16,54.16,0,0,0,16.81-13.82q-4.09-7.74-6-11-2.06-3.51-7-11a44,44,0,0,0-3.22-4c-1.29-1.37-2.3-2-3-2A6.7,6.7,0,0,0,988,719a3.79,3.79,0,0,1-1.59.47c-.86,0-2.2-.86-4-2.58a53.56,53.56,0,0,1-5-5.63,21.82,21.82,0,0,1-2.87-4.48,10.93,10.93,0,0,1-.76-4.31,26.3,26.3,0,0,1,.47-5.68c.47-2.07,1.27-3.1,2.4-3.1,1.6,0,3.93,1.52,7,4.57a103,103,0,0,1,9,10.78q4.4,5.91,8.67,12.77l6,9.61q2.64,4.33,5.4,9.84a60.24,60.24,0,0,0,5.39-16,103.54,103.54,0,0,0,1.28-17.93l-3.34-1.94a33.38,33.38,0,0,1,.68-7,25.87,25.87,0,0,1,1.9-5.71l1.35.35a5.15,5.15,0,0,0,2.81,4c.94.55,2.14,1.18,3.61,1.88S1028.82,700.17,1029.61,700.48Zm-15.24,57a7.65,7.65,0,0,0-.5-2.66,39.8,39.8,0,0,0-2.19-4.54,37.77,37.77,0,0,1-5.25,5.27,56.84,56.84,0,0,1-6.88,5.1,81.6,81.6,0,0,0,9.84-.41Q1014.37,759.55,1014.37,757.49Z"/><path class="cls-12" d="M1053.86,747.47a24.85,24.85,0,0,1-1.7,9.09,58.3,58.3,0,0,1-3.8,7.44l-1.06-.59c.12-1.13.23-2.44.32-3.92s.15-2.48.15-3q0-6.09-1-17t-2.31-22.83q-.83-7.2-1.82-14.7,1.17-2.58,2.67-5.57c1-2,1.94-3.87,2.84-5.62q.93,6.68,2.37,18.28t2.26,20.91Q1053.86,741.56,1053.86,747.47Z"/><path class="cls-12" d="M192.15,761.11h-7a70.63,70.63,0,0,0-17,1.81q-9.19,2.3-9.2,6.56a28.83,28.83,0,0,0,1.32,8.27c.88,2.93,1.78,5.89,2.69,8.9a28.45,28.45,0,0,1,1.38,8.26,23.76,23.76,0,0,1-.32,4.05q-.33,1.81-1.14,4.74-1.53-4.86-3-9.72-2.82-9.27-4.16-14c-1.41-5-2.11-8-2.11-9q0-7.5,3.13-11.51t9.64-6A91,91,0,0,1,182,750.91c-2.46-2.5-4-4-4.57-4.45a9.78,9.78,0,0,0-6-2.35,6.48,6.48,0,0,0-3.69,1.18,18.3,18.3,0,0,0-3.4,3.22l-2.69-1.7a25.7,25.7,0,0,1,4-7,11.15,11.15,0,0,1,8.73-4.34,12.16,12.16,0,0,1,7.27,2.7,32.74,32.74,0,0,1,6.09,6.21q1.53,1.93,4.51,6.56Z"/><path class="cls-12" d="M219.69,761.11h-8.2a7.58,7.58,0,0,1-6.39-3.23,20.65,20.65,0,0,1-3.19-8.38,117.86,117.86,0,0,1-1.67-13.71q-.35-6.62-.73-13.59a102.05,102.05,0,0,0-1-10.58,24.09,24.09,0,0,0-1.67-5.89,15.46,15.46,0,0,0-3.57-4.92l7.2-11.36a79.16,79.16,0,0,1,3.23,16.81q.59,6.11,1.17,28.83,1,10.42,3,13.36,1.64,2.46,3.57,2.46h8.2Z"/><path class="cls-12" d="M267,761.11h-8.61a18.37,18.37,0,0,1-7.74-1.82,14.27,14.27,0,0,1-6.8-6,28.54,28.54,0,0,1-9,5.45,38.09,38.09,0,0,1-14,2.41h-5.28v-10.2h5.28a37.83,37.83,0,0,0,9.14-1,36.9,36.9,0,0,0,9.43-3.93L237,742.77a5.45,5.45,0,0,0-4.22-2.23,4.51,4.51,0,0,0-1.88.38,5.45,5.45,0,0,0-1.81,1.67h-1.23v-3.46q0-6.43,3.4-8.84,3.1-2.17,10.78-2.17a27.87,27.87,0,0,1,10.78,1.76q5.44,2.28,5.45,7a8.43,8.43,0,0,1-2.17,5.21,43,43,0,0,1-5.8,5.51,6.87,6.87,0,0,0,3.6,2.34,13.9,13.9,0,0,0,4.49.94H267Z"/><path class="cls-12" d="M291.82,761.11H262.88v-10.2h23l-7-49.69-3.05-1.46a38.83,38.83,0,0,1,.71-7.59,35.29,35.29,0,0,1,2.11-6.88l.88.64q0,3.41,3.8,5.1l5.92,2.34a44.09,44.09,0,0,1-.47,6.27,23.23,23.23,0,0,1-1.11,5l-2.81-.94,6.91,45.94Z"/><path class="cls-12" d="M311.63,746.16a25.06,25.06,0,0,1-1.7,9.09,60.14,60.14,0,0,1-3.81,7.44l-1.06-.59c.12-1.13.23-2.44.33-3.92s.14-2.48.14-3q0-6.09-1-17t-2.32-22.83q-.83-7.2-1.81-14.7,1.17-2.58,2.66-5.57c1-2,1.94-3.87,2.84-5.62q.94,6.67,2.38,18.28t2.25,20.91Q311.64,740.25,311.63,746.16Z"/><path class="cls-12" d="M495.84,1043.08q0,6.43-5.5,13.35a45.07,45.07,0,0,1-12,10.49q-6.79,4.23-11.19,4.22a36.24,36.24,0,0,1-8.73-1.17,80.63,80.63,0,0,1-8.55-2.75c-2.82-1.06-5.61-2.11-8.38-3.17l1-2.34,8.06,1.55a41,41,0,0,0,7.59.79q7.5,0,15.64-4.8a44.87,44.87,0,0,0,12.6-11.11q5.22-6.71,5.22-12.1a20.82,20.82,0,0,0-2.7-9.72,42.35,42.35,0,0,0-6.09-8.44l3.34-9.2a33.17,33.17,0,0,1,7.09,8.91,24.45,24.45,0,0,1,2.57,11.25Z"/><path class="cls-12" d="M547.7,1039.56q0,9.66-7.15,19.22-8,10.67-18.4,10.66a37.76,37.76,0,0,1-8-.88q-3-.64-7.79-2.22-3.81-1.35-7.62-2.64l1-2,6.88,1.61a28.37,28.37,0,0,0,6.48.85,27,27,0,0,0,13.53-3.63,43.09,43.09,0,0,0,10-8.32c1.67-1.84,4.06-4.83,7.14-9q-7.9,0-11.83-2.52-4.46-2.87-4.46-9.43a23,23,0,0,1,2.82-11.19q3.27-6,8.32-6t7.32,5.92q1.75,4.63,1.76,12.89Zm-3.69-6.39c-.86-3.75-1.9-6.34-3.11-7.79a4.87,4.87,0,0,0-3.86-1.88,4.13,4.13,0,0,0-2.85,1.09,3.51,3.51,0,0,0-1.2,2.72,4.77,4.77,0,0,0,2.58,4.37Q538.15,1033.17,544,1033.17Z"/><path class="cls-12" d="M606.35,1043.08q0,6.43-5.51,13.35a44.87,44.87,0,0,1-12,10.49q-6.79,4.23-11.19,4.22A36.12,36.12,0,0,1,569,1070a80.71,80.71,0,0,1-8.56-2.75c-2.81-1.06-5.6-2.11-8.37-3.17l1-2.34,8.06,1.55a41,41,0,0,0,7.59.79q7.5,0,15.64-4.8a44.87,44.87,0,0,0,12.6-11.11q5.21-6.71,5.21-12.1a20.92,20.92,0,0,0-2.69-9.72,42,42,0,0,0-6.1-8.44l3.34-9.2a32.77,32.77,0,0,1,7.09,8.91,24.33,24.33,0,0,1,2.58,11.25Z"/><path class="cls-12" d="M631.2,1043.08h-29v-10.2h29Z"/><path class="cls-12" d="M656,1043.08H627.09v-10.2H656Z"/><path class="cls-12" d="M703.32,1043.08h-6.09a26.69,26.69,0,0,1-8.85-1.76,33.34,33.34,0,0,1-10-5.63,19.81,19.81,0,0,1-6.94,5.77q-3.54,1.62-10.34,1.62h-9.14v-10.2h9a17,17,0,0,0,9.49-2.7,21.4,21.4,0,0,0,5.86-5.91,37.78,37.78,0,0,1,8.79-9,25.1,25.1,0,0,1,8.62-4.33A102.73,102.73,0,0,1,700.1,1022q3.23,6.68,3.22,10.84Zm-6.73-11.55a30.93,30.93,0,0,0-2.35-6.68,35.12,35.12,0,0,0-3.57-5.68,10,10,0,0,0-4.75,2.64,20.5,20.5,0,0,0-3,4.16,19,19,0,0,0,5.94,4.1,23.58,23.58,0,0,0,7.24,2.22Z"/><path class="cls-12" d="M728.17,1043.08H699.22v-10.2h23l-7-49.69-3-1.46a38.85,38.85,0,0,1,.7-7.59,36.31,36.31,0,0,1,2.11-6.89l.88.65q0,3.39,3.81,5.1l5.92,2.34a45.72,45.72,0,0,1-.47,6.27,23.23,23.23,0,0,1-1.11,5l-2.82-.94,6.92,45.94Z"/><path class="cls-12" d="M748,1028.13a24.85,24.85,0,0,1-1.7,9.09,57.38,57.38,0,0,1-3.81,7.44l-1.05-.59c.12-1.13.22-2.44.32-3.92s.15-2.49.15-3q0-6.11-1-17t-2.31-22.83q-.83-7.2-1.82-14.7,1.17-2.58,2.67-5.57t2.84-5.63q.93,6.69,2.37,18.29t2.26,20.91Q748,1022.22,748,1028.13Z"/><path class="cls-13" d="M684.82,264.23s-9.16-11.63-41.15-12.58c-17.9,0-46.09-9.14-45.89-16.76h-3.62C594,242.51,565.78,252,547.88,252c-32,1.15-41.51,13-41.51,13-60-8.19-56.75,90.66-56.75,90.66,36.75,11.61,55.22,55.8,55.22,55.8s7,11.61,45.33,16.57a220.85,220.85,0,0,1-35.81-10.55c-4.38-1.75-7.43-5.27-10.66-8.78,0,0,83-40.41,178.83-2.48,0,0-1.91,7.82-11.63,11.62a213.54,213.54,0,0,1-33.89,9.9c39-5.14,46.28-17,46.28-17s19.43-44.36,56.38-56.36c0-.19,5.27-98.85-54.85-90.27M494.61,363.83,484,369.34l-13.14-21.71s2.09-47.23,24.75-61.32c0,0-8.38,38.09-.95,77.52m84.33-36.9s-43-1.9-65.32,12.95l2.67-46.08s5.27-15.43,20.75-15.43c21.91,3,43.8-8.79,47.05-12Zm37.69-.28-4-60.75c3,3.25,24.76,14.86,46.65,11.61,15.62,0,20.57,15.25,20.57,15.25l1.76,46.08c-21.89-14.47-65-12.19-65-12.19M705.74,368,697,363c8.2-39.41.77-77.5.77-77.5,22.31,13.93,23.52,61.16,23.52,61.16Z"/><path class="cls-14" d="M597.78,430.1h-8.19A323.7,323.7,0,0,1,550,428a212.82,212.82,0,0,0,86.85-.2c-10.54,1.14-23.23,2.09-39,2.29"/><path class="cls-15" d="M592.82,434.1a219.45,219.45,0,0,1-43.22-4.39l.57-3.79A288.54,288.54,0,0,0,588.26,428h9.52a295.66,295.66,0,0,0,38.65-2.48l.58,3.81a202.67,202.67,0,0,1-44.19,4.76"/><path class="cls-15" d="M587.87,432.06c-72.37,0-84.33-18.85-84.74-19.6S484.46,368.82,449,357.54l-1.34-.39v-1.32c0-2.28-1.51-55.8,22.67-80.82,9.33-9.52,21.08-13.72,35.24-12,2.85-2.86,14.06-11.8,42.17-12.77,18.65,0,44.38-9.89,44.57-15.42V233h7.41v1.9a3.26,3.26,0,0,0,1.34,2.28c6.1,6.1,27.81,12.58,42.48,12.58,28.11.75,39.23,9.52,42.08,12.3,14.28-1.76,26.09,2.3,35.23,11.82,23.43,24.76,21,78.27,20.76,80.36v1.34l-1.33.37c-35.81,11.63-55.05,54.85-55.22,55.23-.58.95-13.14,20.19-87,20.58Zm-81.31-21.39s12,17.56,81.5,17.56H598c71-.19,83.6-18.29,83.79-18.48.77-1.53,19.62-43.92,56.22-56.75.19-8.38.58-54.85-19.8-76.37-8.38-8.94-19.63-12.3-33-10.54l-1.14.19-.76-.75s-9.13-11-39.62-11.81c-16.18,0-38.46-6.87-45.31-13.72a9.71,9.71,0,0,1-2.11-3h-.56c-3.62,8.94-31.43,17.13-47.8,17.13-30.47,1.14-39.8,12.19-40,12.19l-.77.76-1.15-.2c-13.31-1.89-24.36,1.76-33.13,10.67-20.94,21.71-21.72,68.18-21.72,76.56,36.58,12.57,54.66,54.86,55.43,56.56"/><path class="cls-15" d="M585,346.31l-8.78-17.71,3.42-1.76,5.54,11.23c2.09-2.85,5.9-6.85,11-7.41,4.2-.39,8.79,1.75,13.14,6.46l5-11.61,3.42,1.53-7.43,17.57-1.9-2.48c-4-5.27-8-7.61-11.8-7.43-5.9.58-9.91,8.38-9.91,8.38Z"/><path class="cls-15" d="M499.88,401l-1.14-2.29,15.62-7.82,3.25-5.27-5.15-2.86-19,8.38-.95-2.28L512.66,380l6.46,3.62,3.06-5.13-8.24-5.18,5.51-6.68-5.27-2.46-30.27,14.46-1.14-2.28,31.17-14.85,7,3.23,4.37-5.27.39-.19c23.35-7.68,63.28-8.06,63.76-8.06h.38l6.27,4.76,6.1-4.38h.39c1.75,0,44.55,1.34,63.79,7l.39.19,4.57,4.77,6-2.46.58.19,28,12.3-.95,2.28-27.43-12.19-4.19,1.75,6.67,6.87-9.52,5.52,2.48,4.57,5.71-3,.38.19,19.22,5.27-.75,2.48-18.66-5.27-4.71,2.55,2.65,4.76L690.72,394l-.77,2.46L675.1,391.5l-3-5.78-7.8,4-3.62-6.09-4.95,2.86h-.37L608.46,381l-4.18-3.24-7.77,8-7.6-7.8-4.4,3.42h-.37l-48.94,5.27-3.82-2.47L527,390.79,520.33,387l-3.62,5.91-.37.19ZM521,384.77l4.56,2.48,3-4.77L524,379.64Zm141.5-2.67,2.46,4,5.72-2.84-2.47-4.39Zm-130.28-.37,3.06,1.9L583,378.5l3.62-2.87-4.18-4.37c-4.2.17-31.8,1.75-47.05,5.51ZM609,378.11l45.89,5.52,4.18-2.48-3.23-5.27c-4.37-.77-34.66-6.29-45.68-5.15l-4.58,4.76ZM590.28,376l5.71,5.9,5.79-5.9-5.9-4.39Zm-65,1.51,4.57,2.86,3.81-5.71.39-.19c16.37-4.37,47.22-5.71,48.56-5.71h.56l5.15,5.27,5.15-4.18-8.58-6.29,8.58-6.1-5-3.81c-4.39,0-40.41.77-62.09,7.82l-3.62,4.18,7.43,3.25Zm88.37-9.33c14.29,0,41.69,5.15,43,5.27l.58.19,3.81,6.28,5.71-3.52-4.95-9.13,7-3.06-3.43-3.51c-18.1-5.13-57.89-6.66-62.46-6.86l-5,3.52,7.6,5.9-7.8,6.29,5.73,4.34,5.54-5.52h.36c1.15,0,2.67-.19,4.4-.19m-96.18,4.57,5.71,3.62,3.8-6.1-5.27-2.48Zm147.78-4.18,3.62,6.85,6.65-3.81-4.93-5.13Zm-75.8-5,6.29,4.76,5.91-4.76-5.73-4.37Z"/><path class="cls-15" d="M549.41,371.63h0a7.2,7.2,0,0,1-5.27-2.29,7.53,7.53,0,0,1,5.46-12.82,6.86,6.86,0,0,1,5.27,2.28,7.4,7.4,0,0,1,2.09,5.27,7.87,7.87,0,0,1-7.6,7.42m0-13.71a6.35,6.35,0,0,0-6.29,6.29,6.06,6.06,0,0,0,1.75,4.38,6.2,6.2,0,0,0,4.38,1.89h0a6.34,6.34,0,0,0,6.29-6.27,6.07,6.07,0,0,0-1.76-4.39,5.28,5.28,0,0,0-4.37-1.9"/><path class="cls-15" d="M551.31,364a1.9,1.9,0,0,1-1.9,1.9h0a1.75,1.75,0,0,1-1.91-1.59,1.61,1.61,0,0,1,0-.31,1.93,1.93,0,0,1,1.91-1.92,1.9,1.9,0,0,1,1.9,1.9v0"/><path class="cls-15" d="M642.53,371.26a7.47,7.47,0,0,1-7.42-7.52v-.11a7.49,7.49,0,0,1,7.54-7.43h.07a7.82,7.82,0,0,1,5.27,2.11,7.4,7.4,0,0,1,2.09,5.27,7.65,7.65,0,0,1-7.62,7.62m.19-13.72a6.37,6.37,0,0,0-6.47,6.26v0a6.07,6.07,0,0,0,1.76,4.38,6.24,6.24,0,0,0,4.38,1.91,6.35,6.35,0,0,0,6.29-6.29,6,6,0,0,0-1.76-4.37,4.94,4.94,0,0,0-4.2-1.92"/><path class="cls-15" d="M644.64,363.63a2.07,2.07,0,0,1-1.92,1.9,1.76,1.76,0,0,1-1.9-1.6,1.5,1.5,0,0,1,0-.3,1.9,1.9,0,0,1,1.9-1.84,2.06,2.06,0,0,1,1.92,1.9"/><path class="cls-15" d="M497.6,385.91h0a7.33,7.33,0,0,1-5.13-2.09,6.51,6.51,0,0,1-1.92-5.15,7.26,7.26,0,0,1,7.24-7.24,7.17,7.17,0,0,1,7.24,7.1v.14a7.52,7.52,0,0,1-7.43,7.24m.19-13.14a5.93,5.93,0,1,0-.19,11.86,6.11,6.11,0,0,0,6.1-5.91,5.86,5.86,0,0,0-5.8-5.9h-.11m195.41,12.3a7.69,7.69,0,0,1-5.15-2.09,6.9,6.9,0,0,1-2.09-5,7.24,7.24,0,1,1,14.47,0v0a7,7,0,0,1-7,7h-.21Zm.37-13.14a6,6,0,0,0-6.1,5.95v.14a5.85,5.85,0,0,0,1.76,4.19,5.57,5.57,0,0,0,4.19,1.75h0a6,6,0,0,0,6.08-5.86v0a5.59,5.59,0,0,0-1.75-4.2,5.43,5.43,0,0,0-4.2-1.9M501.41,356.52a7.4,7.4,0,0,1-5.15-2.09,7.51,7.51,0,0,1-2.09-5.15,7.24,7.24,0,0,1,7.24-7.24,7,7,0,0,1,5.15,2.18,7.4,7.4,0,0,1,2.11,5.13,7.23,7.23,0,0,1-7.26,7.17m.19-13.14a5.93,5.93,0,1,0-.19,11.85,6.14,6.14,0,0,0,6.1-6.09,5.91,5.91,0,0,0-1.76-4.18,6.6,6.6,0,0,0-4.18-1.53M690.1,355a7.65,7.65,0,0,1-5.09-2,7.33,7.33,0,0,1-2.11-5.14,7.26,7.26,0,0,1,7.24-7.24,7.17,7.17,0,0,1,7.24,7.09v.15a7,7,0,0,1-6.81,7.23,3.08,3.08,0,0,1-.43,0Zm.2-13.14a6.05,6.05,0,0,0-4.18,10.31A5.82,5.82,0,0,0,690.3,354h0a6.11,6.11,0,0,0,6.09-5.9,5.89,5.89,0,0,0-1.75-4.19,6.06,6.06,0,0,0-4.38-1.91M517.54,352.51h0a7.24,7.24,0,1,1,7.22-7.25v0a7.22,7.22,0,0,1-7.22,7.22h0m.18-13.32a6,6,0,0,0-6.1,5.92v.18a5.81,5.81,0,0,0,5.72,5.9h.2a6.13,6.13,0,0,0,6.08-6.09,5.93,5.93,0,0,0-5.9-5.91M674.45,351h0a7.17,7.17,0,0,1-7.24-7.1v-.14a7.24,7.24,0,0,1,7.24-7.24,7.14,7.14,0,0,1,7.24,7v.21a7.24,7.24,0,0,1-7.24,7.24m.19-13.33a6.26,6.26,0,0,0-6.09,6,5.89,5.89,0,0,0,5.92,5.85h0a6.14,6.14,0,0,0,6.1-6.1,5.87,5.87,0,0,0-1.76-4.18,6.84,6.84,0,0,0-4.2-1.76M535.27,347a6.9,6.9,0,0,1-5-2.09,7.4,7.4,0,0,1-2.09-5.15,7.23,7.23,0,0,1,7.21-7.24h0a7.14,7.14,0,0,1,7.24,7v.21a7.51,7.51,0,0,1-7.41,7.24Zm.17-13.14a6,6,0,0,0-6.08,5.93v.16a5.91,5.91,0,0,0,1.76,4.18,5.51,5.51,0,0,0,4,1.76h0a6.11,6.11,0,0,0,6.09-5.9,5.91,5.91,0,0,0-1.75-4.2,4.81,4.81,0,0,0-4-1.9m122.65,12.3h0a7.13,7.13,0,1,1,7.27-7.22.74.74,0,0,1,0,.21,7.24,7.24,0,0,1-7.23,7.24m0-13.14a6.12,6.12,0,0,0-6.1,6.09,5.89,5.89,0,0,0,6,5.82h0a6.26,6.26,0,0,0,6.09-6.1,5.88,5.88,0,0,0-1.76-4.2,5.26,5.26,0,0,0-4.19-1.76M461.37,345.68h0a7.14,7.14,0,0,1-7.17-7.1v-.09a7.24,7.24,0,0,1,14.48-.07v.07a7.24,7.24,0,0,1-7.24,7.24m.19-13.14a6,6,0,0,0-6.09,5.88v0a5.56,5.56,0,0,0,1.76,4.2,5.94,5.94,0,0,0,4.19,1.76h0a6.15,6.15,0,0,0,6.1-6.1,5.91,5.91,0,0,0-1.76-4.18,6.69,6.69,0,0,0-4.18-1.53m267.76,12.95h0a7.28,7.28,0,1,1,7.23-7.31v.07a7.3,7.3,0,0,1-7.23,7.24m.19-13.34a6,6,0,0,0-6.1,6v.14a5.85,5.85,0,0,0,5.84,5.87h0a6.14,6.14,0,0,0,6.1-6.08,6,6,0,0,0-1.76-4.2,7.11,7.11,0,0,0-4.2-1.76m-178,12.21a7.73,7.73,0,0,1-5.15-2.09,7.37,7.37,0,0,1-2.09-5.11A7.24,7.24,0,0,1,551.5,330a7.4,7.4,0,0,1,5.15,2.11,6.45,6.45,0,0,1,1.9,5.13,6.84,6.84,0,0,1-6.42,7.23c-.2,0-.41,0-.61,0m.19-13.14a6.15,6.15,0,0,0-6.15,6.06,5.82,5.82,0,0,0,5.73,5.9h.18a6.27,6.27,0,0,0,6.13-6.06,5.91,5.91,0,0,0-1.76-4.18,5.27,5.27,0,0,0-4.18-1.76M641,343.06a6.88,6.88,0,0,1-5-2.09,7.31,7.31,0,0,1-2.09-5.15,7.22,7.22,0,0,1,7.22-7.22h0a7.36,7.36,0,0,1,5.14,2.09,7,7,0,0,1,2.09,5.13,7.51,7.51,0,0,1-7.41,7.24Zm.18-13.32a6.24,6.24,0,0,0-6,6.08,5.81,5.81,0,0,0,5.72,5.9h.18a6.24,6.24,0,0,0,6.08-6.08,6,6,0,0,0-1.76-4.19,5.56,5.56,0,0,0-4.2-1.76M569.4,342.46h0a7.42,7.42,0,0,1-5.14-2.09,7.34,7.34,0,0,1-2.09-5.15,7.22,7.22,0,0,1,7.2-7.24h0a7.41,7.41,0,0,1,5.15,2.18,7,7,0,0,1,2.09,5.15,7.22,7.22,0,0,1-7.24,7.15m.2-13.14a6,6,0,0,0-6.1,5.88v0a5.86,5.86,0,0,0,5.8,5.91h.1a6.16,6.16,0,0,0,6-6.06,5.9,5.9,0,0,0-1.76-4.19,7.83,7.83,0,0,0-4.18-1.52m54.66,12.94a6.9,6.9,0,0,1-4.8-2.09,7.37,7.37,0,0,1-2.09-5.14,7.23,7.23,0,0,1,7.21-7.24h0a7.13,7.13,0,0,1,7.15,7.11v.13a7.49,7.49,0,0,1-7.41,7.23Zm.19-13.14a6,6,0,0,0-5.9,6v.06a5.85,5.85,0,0,0,5.8,5.9h.1a6.21,6.21,0,0,0,6.08-5.9,5.88,5.88,0,0,0-1.76-4.2,6.13,6.13,0,0,0-4.37-1.9M501.64,341h0a7.28,7.28,0,1,1,7.2-7.35v.06a7.22,7.22,0,0,1-7.15,7.29h-.05m.19-13.14a6.14,6.14,0,0,0-6.09,6.09,5.89,5.89,0,0,0,5.86,5.91h0a6.15,6.15,0,0,0,6.06-6.15,5.89,5.89,0,0,0-5.87-5.91h0M690.33,340a7,7,0,0,1-7-7v-.22a7.18,7.18,0,1,1,7.12,7.15Zm.2-13.14a6.26,6.26,0,0,0-6.17,6.09,5.94,5.94,0,0,0,5.9,6h.07a6.15,6.15,0,0,0,6.1-6.1,6,6,0,0,0-5.94-5.94m-226.26.39a6.86,6.86,0,0,1-4.93-2.11,7.18,7.18,0,1,1,4.93,2.11Zm.39-13.14a6.14,6.14,0,0,0-6.1,6.09,5.9,5.9,0,0,0,5.87,5.91h0a6.09,6.09,0,0,0,6.09-5.91,5.89,5.89,0,0,0-1.75-4.19,5.42,5.42,0,0,0-4-1.94m261.78,12.76h0a7.13,7.13,0,0,1-7.23-7,1.76,1.76,0,0,1,0-.23,7.22,7.22,0,0,1,7.22-7.22h0a7.8,7.8,0,0,1,5.14,2.09,7.39,7.39,0,0,1,2.1,5.15,7.64,7.64,0,0,1-7.24,7.24m0-13.34a6.13,6.13,0,0,0-6.09,6.08,5.82,5.82,0,0,0,5.72,5.91h.18a6.28,6.28,0,0,0,6.1-6.1,5.89,5.89,0,0,0-5.89-5.89h0M503.4,325.74h0a7.23,7.23,0,0,1-7.24-7.21v0a7.24,7.24,0,1,1,7.24,7.24h0m0-13.34a6.25,6.25,0,0,0-6.1,6.1,5.92,5.92,0,0,0,5.9,5.9,6.27,6.27,0,0,0,6.1-6.1,5.89,5.89,0,0,0-1.76-4.18,5.25,5.25,0,0,0-4.18-1.75M690.53,324h0a7.13,7.13,0,0,1-7.24-7v-.21a7.23,7.23,0,0,1,7.22-7.23h0a7.13,7.13,0,0,1,7.23,7v.2a7.21,7.21,0,0,1-7.2,7.23h0m.19-13.31a6.25,6.25,0,0,0-6.1,6.08,5.82,5.82,0,0,0,5.73,5.9h.18a6.13,6.13,0,0,0,6.13-6.08,6,6,0,0,0-1.76-4.2,6.9,6.9,0,0,0-4.18-1.76m-93.33,11.28h0a7.27,7.27,0,1,1,7.24-7.31v.07a7.32,7.32,0,0,1-7.24,7.24m.19-13.14a6.15,6.15,0,0,0-6.09,6.1,5.84,5.84,0,0,0,5.8,5.9h.1a6.13,6.13,0,0,0,6.15-6.1,5.85,5.85,0,0,0-5.8-5.9h-.1m-128.36,2.48h0a6.94,6.94,0,0,1-5-2.09,7.44,7.44,0,0,1-2.09-5.15,7.24,7.24,0,0,1,7.19-7.24,7.42,7.42,0,0,1,5.15,2.11,8,8,0,0,1,1.89,5.13,7.22,7.22,0,0,1-7.2,7.24h0m.2-13.14a6,6,0,0,0-6.1,5.95v.14a6,6,0,0,0,1.76,4.2,5.59,5.59,0,0,0,4.18,1.76,6.14,6.14,0,0,0,6-6.15,5.85,5.85,0,0,0-5.8-5.9h-.11m253.53,12.19a6.9,6.9,0,0,1-5-2.09,7.28,7.28,0,0,1,5.15-12.39,7.72,7.72,0,0,1,5.18,2.09A7.28,7.28,0,0,1,723,310.31ZM723.1,297a6.26,6.26,0,0,0-6.1,6.09,5.87,5.87,0,0,0,1.76,4.18A5.55,5.55,0,0,0,723,309v.19a6.26,6.26,0,0,0,6.09-6.09,5.85,5.85,0,0,0-1.75-4.18,5.7,5.7,0,0,0-4.18-1.92M503.5,309.2h0a7.61,7.61,0,0,1-5.13-2.09,7.27,7.27,0,1,1,12.3-5.15,7.47,7.47,0,0,1-7.24,7.24m0-13.14a6.23,6.23,0,0,0-6.08,5.9,5.9,5.9,0,0,0,1.76,4.19,5.59,5.59,0,0,0,4.2,1.75,6.1,6.1,0,0,0,5.9-6.09,5.82,5.82,0,0,0-1.76-4.18,5,5,0,0,0-4-1.53m187.22,10.54h0a7.14,7.14,0,0,1-7.24-7v-.21a7.24,7.24,0,0,1,14.47-.07v.07a7.24,7.24,0,0,1-7.23,7.24m.19-13.14a6.26,6.26,0,0,0-6.1,6.09,6,6,0,0,0,1.76,4.2,5.6,5.6,0,0,0,4.2,1.76h0a6.16,6.16,0,0,0,6.1-6.1,5.89,5.89,0,0,0-5.87-5.9h0m-93.33,8.19a7.28,7.28,0,1,1,7.24-7.31v.07a7.22,7.22,0,0,1-7.2,7.24h0m.2-13.32a6.14,6.14,0,0,0-6.1,6.08,5.86,5.86,0,0,0,5.9,5.8h0a6.13,6.13,0,0,0,6.1-6.08,5.82,5.82,0,0,0-1.76-4.2,6.76,6.76,0,0,0-4.18-1.76m-120.93,7.42h0a7.24,7.24,0,1,1,.2-14.48h0a7.68,7.68,0,0,1,5.13,2.11,7.4,7.4,0,0,1,2.11,5.13,7.83,7.83,0,0,1-7.44,7.24m0-13.34a6,6,0,0,0-6.09,5.88v0a5.26,5.26,0,0,0,1.75,4.18,5.9,5.9,0,0,0,4.19,1.76,6.26,6.26,0,0,0,6.09-6.2,5.91,5.91,0,0,0-1.75-4.2,6.32,6.32,0,0,0-4.19-1.53M715.28,295h0a7.18,7.18,0,0,1-7.24-7.1v-.14a7.23,7.23,0,0,1,7.21-7.24h0a7.13,7.13,0,0,1,7.24,7v.22a7.24,7.24,0,0,1-7.24,7.24m.19-13.15a6.27,6.27,0,0,0-6.09,6.12,5.92,5.92,0,0,0,1.75,4.18,5.63,5.63,0,0,0,4.19,1.76h0a6.13,6.13,0,0,0,6.06-5.94,6,6,0,0,0-1.76-4.2,5.34,5.34,0,0,0-4.18-1.9M505.15,292.21h0a7.13,7.13,0,0,1-7.24-7V285a7.24,7.24,0,0,1,7.24-7.24,7.17,7.17,0,0,1,7.24,7.09V285a7.47,7.47,0,0,1-7.24,7.23m.2-13.33a6,6,0,0,0-6.1,5.88v0a5.83,5.83,0,0,0,5.73,5.91h.17a6.26,6.26,0,0,0,6.1-6.08,5.92,5.92,0,0,0-1.76-4.2,6.63,6.63,0,0,0-4.18-1.53m183,10.66a6.83,6.83,0,0,1-5-2.09,7.33,7.33,0,0,1-2.1-5.15,7.24,7.24,0,1,1,7.24,7.25h-.19Zm.37-13.14a6,6,0,0,0-6.08,5.94v.16a5.88,5.88,0,0,0,1.76,4.2,5.57,5.57,0,0,0,4.2,1.75h0a6.22,6.22,0,0,0,6.07-6.09,5.92,5.92,0,0,0-5.9-5.91m14.67,6.87a7.41,7.41,0,0,1-5.15-2.1,6.43,6.43,0,0,1-1.89-5.13,7.23,7.23,0,0,1,7.15-7.3h.15a7.24,7.24,0,1,1-.19,14.48m.19-13.14a6.14,6.14,0,0,0-6.09,6.1,5.89,5.89,0,0,0,5.87,5.9h0a6.15,6.15,0,0,0,6.1-6.1,5.85,5.85,0,0,0-5.8-5.9h-.11M489,283.27h0a7.17,7.17,0,0,1-7.24-7.1V276a7.23,7.23,0,0,1,7.21-7.24h0a7.14,7.14,0,0,1,7.22,7V276a7.24,7.24,0,0,1-7.22,7.24m.18-13.14a5.91,5.91,0,0,0-.18,11.81,6.26,6.26,0,0,0,6.08-6.1,5.88,5.88,0,0,0-1.76-4.2,6.66,6.66,0,0,0-4.19-1.51m108.56,10.28h0a7.14,7.14,0,0,1-7.24-7v-.21a7.24,7.24,0,0,1,7.24-7.24,7.38,7.38,0,0,1,5.14,2.11,7.28,7.28,0,0,1-5.14,12.3m.19-13.14a6,6,0,1,0-.14,12h0a6.14,6.14,0,0,0,6.09-6.09,5.89,5.89,0,0,0-1.75-4.19,6.67,6.67,0,0,0-4.18-1.52m-79.8,11.8h0a6.9,6.9,0,0,1-5-2.09,7.28,7.28,0,0,1,5.15-12.3,7.78,7.78,0,0,1,5.15,2.11,7.27,7.27,0,0,1-5.34,12.37m.19-13.14a6.16,6.16,0,0,0-6.1,6.1,5.85,5.85,0,0,0,5.8,5.9h.11a6.15,6.15,0,0,0,6.09-6.1,5.88,5.88,0,0,0-5.86-5.9h0M676,278.55h0a7.43,7.43,0,0,1-5.14-2.1,7,7,0,0,1-2.09-5.14,7.22,7.22,0,0,1,7.2-7.24h0a7.13,7.13,0,0,1,7.24,7v.22a7.24,7.24,0,0,1-7.24,7.24m0-13.15a6.28,6.28,0,0,0-6.09,6.1,5.9,5.9,0,0,0,1.75,4.18,5.63,5.63,0,0,0,4.19,1.76h0a6.09,6.09,0,0,0,6.09-5.9,5.91,5.91,0,0,0-1.75-4.2,5.49,5.49,0,0,0-4.15-2.18m-17.57,9.52a6.9,6.9,0,0,1-5-2.09,7.4,7.4,0,0,1-2.09-5.15,7.23,7.23,0,0,1,7.21-7.24h0a7.2,7.2,0,0,1-.14,14.39Zm.19-13.14a6.13,6.13,0,0,0-6.09,6.09,5.89,5.89,0,0,0,1.75,4.19,5.6,5.6,0,0,0,4.2,1.75h0a6.15,6.15,0,0,0,6.1-6.09,5.86,5.86,0,0,0-1.76-4.18,5.52,5.52,0,0,0-4.18-1.76m-122.09,11a6.9,6.9,0,0,1-4.93-2.11,7.31,7.31,0,0,1-2.11-5.13,7.24,7.24,0,0,1,7.22-7.22,7.14,7.14,0,0,1,7.24,7v.21a7.67,7.67,0,0,1-7.44,7.24Zm.2-13.34a6.16,6.16,0,0,0-6.1,6.1,5.91,5.91,0,0,0,1.76,4.18,5.47,5.47,0,0,0,4,1.76h0a6.28,6.28,0,0,0,6.1-6.13,6,6,0,0,0-1.76-4.2,4.69,4.69,0,0,0-4-1.76m18.28,13.14h0a7.37,7.37,0,0,1-5.14-2.09A7.28,7.28,0,0,1,560.23,260a7.29,7.29,0,0,1-5.11,12.44m.19-13.15a6.13,6.13,0,0,0-6.09,6.1,5.84,5.84,0,0,0,5.79,5.9h.11a6.14,6.14,0,0,0,6.1-6.09,5.86,5.86,0,0,0-5.8-5.91h-.11m84.93,12.2h0a7.2,7.2,0,0,1-7.24-7.17v-.07a7.24,7.24,0,0,1,7.24-7.24,7.12,7.12,0,0,1,7.22,7,1.62,1.62,0,0,1,0,.22,7.23,7.23,0,0,1-7.23,7.23m.19-13.14a6,6,0,0,0-6.1,5.92v.18a5.91,5.91,0,1,0,10.1-4.39,5.25,5.25,0,0,0-4-1.76m-16.57,9.52h0a7.17,7.17,0,0,1-7.24-7.24,7.22,7.22,0,0,1,7.21-7.23h0a7.13,7.13,0,0,1,7.24,7v.21a7.24,7.24,0,0,1-7.24,7.24m.19-13.33a6,6,0,0,0-5.9,6.08h0a5.63,5.63,0,0,0,1.76,4.19,5.91,5.91,0,0,0,4.2,1.75,6.27,6.27,0,0,0,6.09-6.09,5.91,5.91,0,0,0-1.75-4.2,7.92,7.92,0,0,0-4.38-1.76m-52.57,13.34a7.28,7.28,0,1,1,7.24-7.31v.07a7.24,7.24,0,0,1-7.24,7.24m.2-13.15a6.27,6.27,0,0,0-6.1,6.1,5.89,5.89,0,0,0,5.87,5.9h0a6,6,0,0,0,5.91-6.07v0a5.92,5.92,0,0,0-1.76-4.2,5.28,5.28,0,0,0-4-1.76m17.85,8.82h0a7.27,7.27,0,1,1,7.43-7.24,7.52,7.52,0,0,1-7.43,7.24m.19-13.32a6.26,6.26,0,0,0-6.1,6.08,5.86,5.86,0,0,0,5.75,6h.16a6,6,0,0,0,.19-12m17.57,13.14a7.73,7.73,0,0,1-5.15-2.11A7.44,7.44,0,0,1,600,256a7.24,7.24,0,0,1,7-7.24,7.14,7.14,0,0,1,7.24,7V256a7.12,7.12,0,0,1-7,7.24h0Zm.19-13.14a6.26,6.26,0,0,0-6.1,6.07,5.86,5.86,0,0,0,5.71,5.91h0a6,6,0,0,0,6.1-5.85v-.06a5.52,5.52,0,0,0-1.76-4.18,5.35,5.35,0,0,0-4.18-1.89"/><path class="cls-15" d="M479.52,375.25,477.61,372c1.14-.75,112.44-68,234.24-1.33l-1.75,3.23c-120.35-65.32-229.67.77-230.62,1.34"/><polygon class="cls-16" points="588.06 205 597.39 191.09 606.72 203.66 598.16 223.47 588.06 205"/><path class="cls-15" d="M598.53,227.65,586,204.81l11.42-17L609,203.47ZM590.15,205,598,219.06l6.47-15.24-7-9.52Z"/><path class="cls-16" d="M614.08,234.13a17.27,17.27,0,0,1-17.06,17,16.67,16.67,0,0,1-16.76-16.58v-.18a17.26,17.26,0,0,1,17.13-17A16.67,16.67,0,0,1,614.08,234v.09"/><path class="cls-15" d="M597,253a18,18,0,0,1-13.14-5.51,18.73,18.73,0,0,1-5.27-13.34,19.18,19.18,0,0,1,19-18.85,18,18,0,0,1,13.14,5.52,18.91,18.91,0,0,1,5.27,13.14A19.32,19.32,0,0,1,597,253Zm.37-33.7a15.27,15.27,0,0,0-15.23,15.24A14.93,14.93,0,0,0,597,249.35h0a15.51,15.51,0,0,0,15.31-15,14.85,14.85,0,0,0-4.2-10.54,14.42,14.42,0,0,0-10.67-4.57"/><polygon class="cls-16" points="582.35 268.02 576.64 276.79 571.5 279.65 573.39 286.12 570.35 289.17 572.44 294.69 568.26 298.7 571.5 303.83 568.82 306.3 571.5 310.87 568.46 313.74 571.88 319.83 568.82 322.7 576.64 330.3 586.16 321.36 581.21 319.64 584.25 313.93 580.63 312.4 583.88 306.69 580.82 303.83 584.25 297.36 580.82 293.94 584.83 287.26 581.6 284.22 586.36 278.12 583.3 275.26 582.35 268.02"/><path class="cls-15" d="M576.64,331.92l-9.52-9.15,3.23-3.24-3.62-6.09,3.06-2.85-2.67-4.39,2.67-2.46-3.25-5.2,4.2-4L568.65,289l3.27-3.1L570,279.21l5.46-3.18,7.43-11,1.32,9.91,3.51,3.23-4.76,6.1,3,3-4,6.68,3.42,3.42L582,303.81l3,2.86-3,5.52,3.62,1.53-3,5.71,5.27,1.76Zm-6.09-9.15,6.09,5.92,7-6.87-4.2-1.34,3.06-5.71-3.59-1.6,3.43-6.29-3-2.86,3.43-6.47-3.62-3.42,4-6.68-3.25-3,4.56-6.09L582,275.91l-.57-4.37L577,278l-4.18,2.48,1.9,6.29-3.24,3,2.18,5.52-4,3.8,3.24,5.14-2.76,2.67,2.67,4.38-3,2.86,3.62,6.1Z"/><path class="cls-15" d="M576.64,331.64l-9.13-8.79,3.23-3-3.62-6.1,3-2.88-2.65-4.38,2.65-2.44-3.23-5.13,4.18-4L569,289.37l3.23-3.13-1.9-6.66,5.52-3.06,7.24-10.66,1.14,9.33,3.51,3.25-4.76,6.1,3,3.11-4,6.65,3.42,3.43L582,304.21l2.86,2.87-3.06,5.51,3.62,1.53-3,5.71,5.27,1.76Zm-6.48-9,6.48,6.29,7.57-7.24-4.37-1.51,3.06-5.73L579.28,313l3.42-6.29-2.82-2.88,3.42-6.47-3.42-3.42,4-6.68-3.18-3,4.59-6.1-2.74-2.42-.58-5-4.78,6.8L572.81,280l1.92,6.22-3.24,3.06,2.18,5.58-4,3.82,3.15,5.11-2.67,2.69,2.67,4.34-3,2.86,3.62,6.1Z"/><polygon class="cls-14" points="612.64 268.02 618.16 276.6 623.11 279.46 621 285.92 624.25 288.98 621.97 294.5 625.96 298.31 622.73 303.65 625.4 306.11 622.53 310.7 625.59 313.54 621.97 319.45 625.01 322.5 617.02 330.11 607.69 321.17 612.64 319.64 609.78 313.93 613.4 312.4 610.34 306.5 613.4 303.65 610.16 297.17 613.59 293.74 609.78 287.08 613.01 284.03 608.44 277.93 611.5 275.08 612.64 268.02"/><polygon class="cls-16" points="612.64 268.02 618.16 276.6 623.11 279.46 621 285.92 624.25 288.98 621.97 294.5 625.96 298.31 622.73 303.65 625.4 306.11 622.53 310.7 625.59 313.54 621.97 319.45 625.01 322.5 617.02 330.11 607.69 321.17 612.64 319.64 609.78 313.93 613.4 312.4 610.34 306.5 613.4 303.65 610.16 297.17 613.59 293.74 609.78 287.08 613.01 284.03 608.44 277.93 611.5 275.08 612.64 268.02"/><path class="cls-15" d="M617,331.92,605.4,320.87l5.52-1.76-2.86-5.73,3.81-1.51L609,306.34l3-2.85L608.81,297l3.52-3.52-4-6.66,3.23-3.05-4.57-6.1,3.52-3.23,1.53-9.91,7.08,11.19,5.51,3.18-2.09,6.68,3.24,3-2.29,5.54,4.2,4-3.51,5.14,2.65,2.68-2.65,4.37,2.84,2.86-3.62,6.08,3.25,3.06Zm-7-10.1,7,6.67,6.29-5.9-2.87-2.67,3.62-6.1-2.86-3,2.67-4.38-2.67-2.65,3.42-5.11-4-3.82,2.28-5.51-3.06-3.13,1.92-6.29-4.57-2.49-4-6.1-.75,4.34L610,278.18l4.57,6.09-3.43,3.24,4,6.48-3.62,3.62,3.25,6.46-3.05,2.87,3.25,6.29-3.82,1.51,3,5.65Z"/><ellipse class="cls-17" cx="593.02" cy="409.76" rx="89.6" ry="20.2"/><circle class="cls-15" cx="597.41" cy="234.07" r="6.15"/></svg>