<?xml version="1.0" encoding="UTF-8"?><svg id="Layer_1" xmlns="http://www.w3.org/2000/svg" viewBox="0 0 191.09 49.33"><defs><style>.cls-1{fill:#00693b;}.cls-1,.cls-2,.cls-3,.cls-4,.cls-5,.cls-6{stroke-width:0px;}.cls-2{fill:#00bde0;}.cls-3{fill:#056946;}.cls-4{fill:#fff;}.cls-5{fill:#231f20;}.cls-6{fill:#004b1c;}</style></defs><path class="cls-1" d="M166.58.04c-13.5,0-24.48,11.05-24.48,24.63s10.98,24.63,24.48,24.63,24.47-11.05,24.47-24.63c0-13.58-10.98-24.63-24.47-24.63"/><path class="cls-4" d="M166.58,49.33c-13.52,0-24.51-11.06-24.51-24.66S153.06,0,166.58,0s24.51,11.07,24.51,24.67c0,13.6-10.99,24.66-24.51,24.66ZM166.58.07c-13.48,0-24.44,11.03-24.44,24.59s10.96,24.59,24.44,24.59,24.43-11.03,24.43-24.59c0-13.56-10.96-24.59-24.44-24.59Z"/><path class="cls-4" d="M166.58.23c-8.57,0-15.54,7.01-15.54,15.64s6.97,15.64,15.54,15.64,15.54-7.01,15.54-15.64c0-8.63-6.97-15.64-15.54-15.64"/><path class="cls-2" d="M166.58,1.27c-8.01,0-14.52,6.55-14.52,14.6,0,1.39.2,2.73.56,4l.97-3.63-.21-.11.42-2.09s.06-.02.09-.03v.11s.04-.01.06-.02v.06s.04-.01.07-.02v.06s.05-.02.08-.02v-.06s.04,0,.07-.02v-.06s.04,0,.06-.02v-.11s.05,0,.08-.02v.11s.04,0,.07-.01v.06s.04,0,.07,0v.06s.05,0,.08,0v-.06s.04,0,.07,0v-.06s.04,0,.06,0v-.11s.05,0,.08,0v.11s.04,0,.07,0v.06s.04,0,.07,0v.06h.08v-.06s.04,0,.07,0v-.06s.04,0,.06,0v-.11s.05,0,.08,0v.11s.04,0,.07,0v.06s.04,0,.06,0v.06s.06,0,.09,0v-.06s.04,0,.06,0v-.06s.04,0,.07.01v-.11s.05,0,.08.02v.11s.04.01.07.02v.06s.04,0,.06.02v.06s.06.02.09.02v-.06s.04.01.06.02v-.06s.04,0,.07.02v-.11s.06.02.09.03l.42,2.09-.2.11.44,1.69,4.05-2.24,1.12-4.76-.45-.24,1.43-5.68h0c.1-.04.21-.07.32-.1v.38c.07-.02.14-.04.22-.07v.2c.07-.02.15-.04.22-.06v.21c.09-.03.19-.06.28-.08v-.2c.08-.02.15-.04.22-.06v-.2c.08-.02.15-.04.22-.05v-.37c.09-.02.18-.04.27-.05v.37c.07-.01.15-.02.22-.03v.2c.07-.01.15-.02.22-.03v.2c.09-.02.19-.03.28-.04v-.2c.07,0,.15-.02.22-.03v-.19c.07,0,.15-.02.22-.02v-.37c.09,0,.18-.01.27-.02v.36c.07,0,.14,0,.22,0v.2c.07,0,.15,0,.22,0v.2s.09,0,.14,0c.04,0,.09,0,.13,0v-.2c.07,0,.15,0,.22,0v-.2c.07,0,.15,0,.22,0v-.36c.09,0,.18,0,.27.02v.37c.07,0,.15.01.22.02v.19c.07,0,.15.02.22.03v.2c.09.01.19.02.28.04v-.2c.08,0,.15.02.22.03v-.2c.08.01.15.02.22.03v-.37c.09.02.18.04.26.05v.37c.08.02.15.04.22.05v.2c.08.02.15.04.22.06v.2c.09.03.19.05.28.08v-.21c.07.02.15.04.22.06v-.2c.07.02.15.04.22.06v-.38c.11.03.21.07.32.1l1.43,5.68-.45.24,1.12,4.76,4.05,2.24.44-1.69-.21-.11.42-2.09s.06-.02.09-.03v.11s.04-.01.07-.02v.06s.04-.01.06-.02v.06s.06-.02.09-.02v-.06s.04,0,.06-.02v-.06s.04,0,.07-.02v-.11s.05,0,.08-.02v.11s.04,0,.06-.01v.06s.04,0,.07,0v.06s.06,0,.08,0v-.06s.04,0,.07,0v-.06s.04,0,.07,0v-.11s.05,0,.08,0v.11s.04,0,.06,0v.06s.04,0,.07,0v.06h.08v-.06s.04,0,.07,0v-.06s.04,0,.07,0v-.11s.05,0,.08,0v.11s.04,0,.06,0v.06s.04,0,.07,0v.06s.06,0,.08,0v-.06s.04,0,.07,0v-.06s.04,0,.06.01v-.11s.05,0,.08.02v.11s.04.01.07.02v.06s.04,0,.07.02v.06s.05.02.08.02v-.06s.04.01.07.02v-.06s.04,0,.06.02v-.11s.06.02.09.03l.42,2.09-.21.11.96,3.63c.36-1.27.56-2.61.56-4-.01-8.05-6.52-14.6-14.52-14.6"/><path class="cls-6" d="M154.91,19.32v.43c-.19,1.41-.55,4.06-.55,4.06h-.06s.61-4.49.61-4.49ZM154.91,14.07h-.02v-.06h-.07v-.06h-.07v-.11h-.13v.12s-.07,0-.07,0v.06s-.05,0-.05,0v.02s-.01.04-.01.04c0,0-.02,0-.03,0v-.06s-.06,0-.07,0v-.06s-.06,0-.06,0v-.11l-.13.02v.11s-.06.02-.06.02v.06s-.05,0-.05,0l-.02.03v.04s-.02,0-.03,0v-.06s-.06.02-.07.02v-.06s-.06.02-.06.02v-.11l-.13.04s-.02.02-.44,2.11v.02s.17.09.2.11c-.01.04-1,3.78-1,3.78h.05s1.01-3.8,1.01-3.8c.42-.13.86-.2,1.3-.2v-.19c-.52,0-1.02.09-1.5.26.02-.1.41-2.02.41-2.05.01,0,.03,0,.04-.01v.11s.05-.02.07-.02v.06s.05-.01.07-.02v.06l.13-.04v-.08s.05,0,.05,0h.02v-.06s.06-.02.06-.02v-.02s0-.09,0-.09c0,0,.01,0,.02,0v.11s.06,0,.07,0v.06s.05,0,.06,0v.06l.12-.02v-.02s.01-.04.01-.04c.01,0,.07,0,.07,0v-.06h.06s0-.03,0-.03v-.09h.02v.1h.07v.06h.06s0,.06,0,.06h.07v-.06h0ZM166.58,5.05h-.05v-.2s-.2,0-.22,0v-.2s-.2,0-.22,0v-.36h-.09s-.35.03-.35.03v.37s-.22.02-.22.02v.19s-.22.03-.22.03v.2s-.05,0-.11.01v-.2s-.19.03-.22.04v-.2s-.21.03-.22.04v-.38l-.44.09v.37s-.22.05-.22.05v.07s0,.13,0,.13c-.04.01-.22.06-.22.06v.2s-.06.02-.1.03v-.21l-.16.04s-.03,0-.06.02v-.2s-.22.06-.22.07v-.38l-.14.05-.34.11v.05s-1.46,5.75-1.46,5.75c0,0,.36.19.45.24-.01.04-.49,2.09-1.11,4.73l-3.95,2.18c-.23-.88-.42-1.62-.43-1.64.03-.02.21-.11.21-.11l-.43-2.12-.13-.04v.03s0,.08,0,.08c0,0-.07-.02-.07-.02v.06s-.05-.02-.05-.02v.03s-.01.03-.01.03c-.01,0-.02,0-.03,0v-.06s-.05-.01-.06-.02v-.06s-.06-.01-.07-.02v-.11l-.13-.02v.11s-.07,0-.07,0v.06s-.04,0-.04,0l-.02.03v.03s-.03,0-.03,0v-.06s-.05,0-.07,0v-.06s-.06,0-.07,0v-.11h-.13s0,.02,0,.02v.08h-.07v.06h-.06v.06h-.02v.05h.05s.02-.02.02-.02v-.03s.07,0,.07,0v-.06h.06v-.1h.03v.11h.06v.06s.06,0,.07,0v.06l.13.02v-.06s.07,0,.07,0v-.06s.06,0,.06,0v-.11s.02,0,.03,0v.11l.06.02v.06l.07.02v.06l.13.04v-.03s0-.02,0-.02c.02,0,.06.02.06.02v-.06s.07.02.07.02v-.11s.03,0,.04.01c0,.03.41,2.02.41,2.05,0,0,0,0-.02,0-.48-.18-.98-.27-1.48-.27v.19c.44,0,.88.07,1.3.2l.44,1.67-1.67.92-.06.47v.43c.07-.5.12-.85.12-.86,0,0,5.2-2.88,5.59-3.09-1.16,4.94-2.8,11.93-2.8,11.93l.09.02,3.94-16.77h.02c1.53-.53,3.11-.79,4.73-.79v-.43c-.17,0-.33,0-.5.01v-.99h.5v-.15h-.66v1.15c-1.55.06-3.06.36-4.52.89l1.42-5.64h0c.1-.04.21-.07.32-.1v.37c.07-.02.14-.04.22-.07v.2c.07-.02.15-.04.22-.06v.21c.09-.03.19-.06.28-.08v-.2c.08-.02.15-.04.22-.06v-.2c.08-.02.15-.04.22-.05v-.37c.09-.02.18-.04.27-.05v.37c.07-.01.15-.02.22-.03v.2c.07-.01.15-.02.22-.03v.2c.09-.02.19-.03.28-.04v-.2c.07,0,.14-.02.22-.03v-.19c.07,0,.15-.02.22-.02v-.37c.09,0,.18-.01.27-.02v.36c.07,0,.14,0,.22,0v.2c.07,0,.14,0,.22,0v.2s.09,0,.14,0v-.09h0ZM178.25,14.07h-.02v-.06h-.06v-.06h-.07v-.11h-.13v.12s-.06,0-.06,0v.06s-.05,0-.05,0l-.02.02v.04s-.02,0-.03,0v-.06s-.06,0-.06,0v-.06s-.06,0-.07,0v-.11l-.13.02v.11s-.07.02-.07.02v.06s-.05,0-.05,0l-.02.02v.04s-.02,0-.03,0v-.06s-.06.02-.07.02v-.06s-.06.02-.07.02v-.11l-.14.05h0s-.42,2.12-.42,2.12c0,0,.18.09.2.11,0,.02-.2.75-.43,1.64l-3.95-2.18c-.62-2.64-1.1-4.69-1.11-4.73.09-.05.46-.24.46-.24l-1.46-5.8-.37-.12-.11-.04v.38s-.22-.07-.22-.07v.2s-.22-.06-.22-.06v.21s-.07-.02-.11-.03v-.2s-.17-.04-.22-.06v-.2l-.15-.04s-.03,0-.07-.02v-.37l-.44-.09v.11s0,.27,0,.27c-.01,0-.22-.04-.22-.04v.2s-.22-.04-.22-.04v.2c-.05,0-.08,0-.11-.01v-.2l-.13-.02s-.05,0-.09-.01v-.19s-.2-.02-.22-.02v-.37l-.44-.03v.36s-.22,0-.22,0v.09s0,.11,0,.11c-.03,0-.22,0-.22,0v.2h-.05v.09h0s.09,0,.13,0v-.2c.07,0,.15,0,.22,0v-.2c.07,0,.15,0,.22,0v-.36c.09,0,.18,0,.27.02v.37c.07,0,.15.01.22.02v.19c.07,0,.15.02.22.03v.2c.09.01.19.02.28.04v-.2c.08,0,.15.02.22.03v-.2c.08.01.15.02.22.03v-.37c.09.02.18.03.26.05v.37c.08.02.15.04.22.05v.2c.08.02.15.04.22.06v.2c.09.02.19.05.28.08v-.21c.07.02.15.04.22.06v-.2c.07.02.15.04.22.06v-.38c.11.03.21.07.32.1l1.42,5.64c-1.45-.52-2.97-.82-4.52-.89v-1.14h-.66v.15h.5v.99c-.17,0-.33-.01-.5-.01h0v.43h0c1.6,0,3.2.27,4.72.79h.02s3.94,16.77,3.94,16.77h.02s.06-.02.06-.02c0,0-1.64-6.98-2.8-11.93.38.21,5.58,3.09,5.59,3.09,0,0,.05.35.12.86v-.42l-.06-.47-1.67-.92.44-1.67c.42-.13.86-.2,1.3-.2v-.19c-.51,0-1.02.09-1.5.26.02-.1.41-2.02.41-2.05.01,0,.02,0,.04-.01v.11s.05-.02.06-.02v.06s.05-.01.07-.02v.06l.13-.04v-.08s.04,0,.04,0h.02s0-.05,0-.06l.06-.02v-.11s.02,0,.03,0v.11s.06,0,.06,0v.06s.05,0,.07,0v.06l.12-.02.02-.02v-.04s.06,0,.06,0c0,0,0-.04,0-.06h.06v-.11h.03v.1h.06v.06s.06,0,.07,0v.06h.07v-.06h0ZM178.25,19.75v-.42l.61,4.47h-.06s-.36-2.64-.55-4.05M178.25,16.06c.44,0,.88.07,1.3.2l1.01,3.8h.05s-.99-3.75-1-3.8c.03-.02.2-.11.2-.11l-.43-2.12-.13-.04v.03s-.01.08-.01.08c0,0-.06-.02-.06-.02v.06s-.05-.02-.05-.02v.03s-.01.03-.01.03c-.01,0-.02,0-.03,0v-.06s-.05-.01-.07-.02v-.06s-.05-.01-.06-.02v-.11l-.13-.02v.11s-.06,0-.06,0v.06s-.05,0-.05,0l-.02.03v.03s-.02,0-.03,0v-.06s-.05,0-.06,0v-.06s-.06,0-.07,0v-.11h-.13s0,.02,0,.02v.08h-.06v.06h-.07v.06h-.02v.05h.05s.02-.02.02-.02v-.03h.06s0-.05,0-.05h.07v-.1h.02v.11h.07v.06s.05,0,.07,0v.06l.13.02v-.06s.07,0,.07,0v-.06s.07,0,.07,0v-.11s.02,0,.02,0v.11s.06.02.07.02v.06l.07.02v.04s0,.02,0,.02l.12.04v-.03s.01-.02.01-.02c.02,0,.07.02.07.02v-.06s.06.02.06.02v-.04s0-.08,0-.08c.02,0,.03,0,.04.01,0,.03.39,1.95.41,2.05-.48-.17-.98-.26-1.5-.26v.19h0Z"/><path class="cls-5" d="M151.81,15.88c0,8.2,6.62,14.86,14.77,14.86v-.25c-8,0-14.51-6.55-14.51-14.61s6.51-14.6,14.51-14.6v-.25c-8.14,0-14.77,6.66-14.77,14.86M166.58,30.74h0c8.14,0,14.76-6.66,14.76-14.86s-6.62-14.86-14.76-14.86h0v.25h0c8,0,14.51,6.55,14.51,14.6s-6.51,14.61-14.51,14.61h0v.25Z"/><path class="cls-1" d="M164.83,23.79s-.06-.09-.05-.15c0-.12.11-.22.23-.21.09,0,.17.06.2.15.02.06.04.17.05.3,0,.15.04.33.06.41,0,.08,0,.18.07.23.02,0,.03.02.04.03.02.01.05.03.07.05,0,0,.02.01.02.03.02.04.04.08.03.13,0,.12-.11.22-.23.21-.06,0-.12-.03-.16-.08,0,0-.02-.03-.04-.06-.02-.05-.05-.18-.06-.32-.01-.15,0-.32,0-.4-.01-.08-.06-.19-.12-.23,0,0-.02-.01-.02-.02-.03-.02-.06-.03-.08-.06h0Z"/><path class="cls-6" d="M170.69,22.18c-.49-.07-1.11,0-1.94.29-.26.09-.53.21-.8.33l-1.7.73s-.11.04-.13.06c-.06.02-.12.05-.18.07-1.11.44-1.55.45-1.55.45,0,0,.04-.17-.04-.29-.12-.17-.34-.15-.47-.09-.12.05-.3.26-.13.57.2.38.7.31,1.17.2.37-.09.8-.2,1.45-.51,0,0,.1-.04.1-.04l1.94-.87h0c.38-.16.76-.31,1.08-.42.95-.33,1.67-.34,1.67-.34,0,0-.12-.08-.45-.13"/><path class="cls-1" d="M168.33,23.79s.06-.09.05-.15c0-.12-.11-.22-.23-.21-.09,0-.17.06-.2.15-.02.06-.04.17-.05.3-.01.15-.04.33-.06.41-.01.08-.01.18-.07.23-.02,0-.03.02-.04.03-.02.01-.05.03-.07.05,0,0-.01.01-.02.03-.02.04-.04.08-.03.13,0,.12.11.22.23.21.07,0,.12-.03.16-.08.01,0,.02-.03.04-.06.02-.05.05-.18.06-.32,0-.15,0-.32,0-.4.01-.08.06-.19.12-.23,0,0,.02-.01.02-.02.03-.02.05-.03.08-.06h0Z"/><path class="cls-6" d="M162.47,22.18c.49-.07,1.11,0,1.94.29.26.09.53.21.8.33l1.69.73s.11.04.14.06c.06.02.12.05.18.07,1.11.44,1.55.45,1.55.45,0,0-.04-.17.04-.29.12-.17.34-.15.47-.09.11.05.3.26.13.57-.2.38-.7.31-1.17.2-.37-.09-.8-.2-1.45-.51,0,0-.1-.04-.1-.04l-1.94-.87h0c-.38-.16-.75-.31-1.08-.42-.95-.33-1.67-.34-1.67-.34,0,0,.12-.08.45-.13"/><path class="cls-6" d="M167.63,17.22s.16-.29.47-.31c.23-.02.52.21.52.21,0,0-.14-.38-.38-.49-.24-.11-.53-.16-.82-.06-.29.1-.47.38-.47.38,0,0,.04-.21-.09-.65-.13-.44-.27-.57-.27-.57,0,0-.15.12-.28.57-.13.45-.09.65-.09.65,0,0-.18-.28-.47-.38-.29-.1-.59-.05-.83.06-.24.11-.38.49-.38.49,0,0,.29-.23.52-.21.31.03.47.31.47.31,0,0-.29,0-.54.29-.37.42-.28.67-.28.67,0,0,.13-.35.6-.38.19,0,.3.05.33.15,0,.04,0,.06,0,.06,0,0-.43.1-.62.48-.19.38-.16.44-.16.56,0,.12.09.28.09.3,0,.02.07-.23.27-.5.14-.19.3-.21.3-.21,0,0-.12.25-.15.42-.07.35.09.65.09.65,0,0,.1-.31.39-.59.16-.16.44-.25.51-.25.07,0,.05.04.05.07s-.11,3.07-.11,3.07c0,0-.1,0-.24.04-.14.03-.26.08-.26.08,0,0,.11.29.32.44.21.16.49.3.49.3,0,0,.27-.15.48-.3.21-.15.32-.44.32-.44,0,0-.12-.05-.26-.08-.14-.03-.25-.04-.25-.04,0,0-.11-3.03-.11-3.07s-.02-.07.05-.07c.07,0,.35.09.51.25.29.28.39.59.39.59,0,0,.15-.3.09-.65-.04-.17-.15-.42-.15-.42,0,0,.15.02.3.21.2.27.27.52.27.5,0-.02.1-.19.1-.3,0-.12.03-.18-.16-.56-.19-.38-.62-.48-.62-.48,0,0-.01-.03,0-.06.02-.09.13-.15.33-.15.47.02.6.38.6.38,0,0,.09-.24-.28-.67-.25-.29-.54-.29-.54-.29"/><path class="cls-4" d="M157.48,34.03c.12-.52.63-.86,1.15-.74.52.12.86.64.74,1.16s-.63.86-1.16.74c-.52-.12-.85-.64-.74-1.16"/><path class="cls-4" d="M169.32,45.48c-.15-.52-.68-.82-1.19-.68-.52.15-.82.68-.68,1.2.15.52.68.82,1.19.68.52-.14.82-.68.68-1.2"/><path class="cls-4" d="M163.83,45.48c.14-.52.68-.82,1.19-.68.52.15.82.68.68,1.2-.14.52-.68.82-1.2.68-.52-.14-.82-.68-.67-1.2"/><path class="cls-4" d="M175.49,32.52c.23.88.15,1.83-.24,2.66-.01.03,0,.06.02.09.03.02.06.03.09.01h0c.29-.08.6-.01.83.2.01.01.02.02.04.04l1.71,1.6c-.88.81-1.85,1.53-2.89,2.14l-1.45-2.19h-.02c.03.92-.24,1.82-.8,2.56-.02.02-.02.06,0,.09.02.02.05.04.08.03h0c.3-.01.59.12.77.38,0,.02.02.03.03.04l1.05,1.65h0c.16.24.26.54.26.85,0,.84-.72,1.5-1.55,1.51,0,0,0,0,0,.02,0,.02,0,.04,0,.06.13.06.26.11.4.15,1.2.33,2.43-.37,2.76-1.58.13-.47.1-.95-.05-1.37h-.02s0,0,.01,0h0c1.21-.73,2.33-1.59,3.35-2.55h0s.08-.08.13-.12c.05-.05.1-.09.15-.14h0c.31-.31.63-.63.92-.96l-5.54-5.2h-.02Z"/><path class="cls-4" d="M179.14,32.32s-.02-.02-.04-.04c-.23-.22-.31-.53-.26-.82h0s0-.07-.02-.09c-.02-.02-.06-.03-.09-.01-.81.44-1.74.59-2.63.41l-.02.02,7,6.6c.36-.44.71-.9,1.04-1.36l-4.99-4.71Z"/><path class="cls-4" d="M157.16,36.31c-.18.04-.37.08-.57.13-.54.14-.98.33-1.29.48.38-.95.33-1.72.33-1.72h-.02c-.77.46-1.35.51-2.26.38h0s-.06.01-.08.04c-.02.03,0,.06.02.09h0c.16.25.27.52.24.84,0,.01,0,.03,0,.04-.04.43-.22.79-.52,1.02,0,0,0,0-.01,0-.19.13-.41.22-.67.23-.7.04-1.3-.5-1.33-1.21,0-.17.02-.45.08-.6.17-.47.38-.85,1.08-1.23.41-.23.78-.36,1.4-.46.35-.06.66-.13.95-.24.33-.12.38-.19.48-.33,0-.01.01-.02.02-.03.08-.12.12-.29.13-.33.02-.18-.23-.11-.32-.07-.14.06-.36.12-.56.15-.33.05-.49.1-.97.19-.43.08-.77.13-1.34.38-.77.32-1.34.9-1.66,1.42-.26.43-.42.98-.43,1.49v.17h0s0,.06,0,.08v.09c.03,1.23,1.07,2.29,2.28,2.34h.02s.07,0,.1,0h0s.08,0,.13,0c.42-.02.84-.18,1.23-.46,1.09.98,2.28,1.85,3.56,2.56v-3.09c-.4-.27-.78-.56-1.15-.86.15-.05.27-.09.32-.1.24-.07.54-.12.83-.15v-1.26h0ZM160.32,37.55s.01-.06.01-.15v-.04c0-.27-.11-.75-.77-.99-.78-.28-1.54-.23-2.4-.06v1.25c.38-.03.74,0,.91.12.38.26.2.64.2.64l-.28.88c-.28-.17-.56-.35-.83-.53v3.09s0,0,.02,0h0s.04.02.07.04c.12.07.25.13.37.2.13.07.26.14.39.2.02,0,.04.02.06.03.22.1.43.21.65.31l1.61-4.99Z"/><path class="cls-4" d="M170.77,37.69h-.02c-.23.89-.76,1.67-1.5,2.22-.02.02-.04.05-.03.09,0,.03.04.05.07.05h0c.29.07.53.28.63.59,0,.02,0,.04.01.05l.17.52c-1.14.24-2.32.38-3.53.38-1.6,0-3.14-.23-4.61-.65l1.25-3.87s0-.04.01-.05c.1-.3.34-.51.63-.58h0s.06-.02.07-.06c0-.03,0-.06-.03-.08-.74-.55-1.26-1.34-1.49-2.22h-.02s-2.85,8.82-2.85,8.82c.13.05.27.1.41.15h0s.02,0,.03,0c.23.09.47.17.71.24.03,0,.07.02.1.03.12.04.24.08.37.12h0c1.72.49,3.53.77,5.41.77,1.49,0,2.95-.17,4.36-.49,0,0,.01,0,.02,0,.26-.06.51-.12.76-.19.06-.02.13-.04.19-.05.13-.04.27-.08.41-.12h0c.09-.03.18-.06.26-.09l-1.82-5.56Z"/><path class="cls-3" d="M3.25,39.07l-1.42-2.4h-.1v2.4H.32v-6.14c.53-.03,1.18-.04,1.92-.04,1.45,0,2.32.51,2.32,1.81,0,.83-.54,1.5-1.32,1.7.16.24.33.46.46.69l1.27,1.98h-1.73ZM2.13,34.05c-.15,0-.31.01-.4.02v1.57c.08.01.23.02.36.02.6,0,.98-.31.98-.83,0-.49-.28-.78-.95-.78Z"/><path class="cls-3" d="M6.01,39.07v-6.14h1.41v6.14h-1.41Z"/><path class="cls-3" d="M11.72,36.92v2.15h-1.42v-2.14l-1.92-4h1.55l.7,1.57c.16.36.29.68.39.98h.02c.12-.35.29-.72.47-1.11l.67-1.44h1.49l-1.95,3.99Z"/><path class="cls-3" d="M17.55,39.07l-.37-1.14h-2.14l-.36,1.14h-1.41l2.04-6.14h1.68l2.12,6.14h-1.56ZM16.33,35.3c-.09-.3-.17-.58-.23-.86h-.02c-.06.27-.13.56-.22.86l-.49,1.5h1.46l-.5-1.51Z"/><path class="cls-3" d="M21.88,39.1c-.66,0-1.26-.02-1.82-.05v-6.12c.48-.02,1.27-.05,2.08-.05,1.86,0,3.08.8,3.08,2.99s-1.36,3.23-3.35,3.23ZM22.06,34.08c-.24,0-.43,0-.59.02v3.76c.13.02.32.04.54.04.97,0,1.69-.59,1.69-1.91,0-1.15-.36-1.9-1.64-1.9Z"/><path class="cls-3" d="M30.19,39.07v-2.56h-2.26v2.56h-1.41v-6.14h1.41v2.36h2.26v-2.36h1.42v6.14h-1.42Z"/><path class="cls-3" d="M38.53,39.07l-1.42-2.4h-.1v2.4h-1.41v-6.14c.53-.03,1.18-.04,1.92-.04,1.45,0,2.32.51,2.32,1.81,0,.83-.54,1.5-1.32,1.7.16.24.33.46.46.69l1.27,1.98h-1.73ZM37.41,34.04c-.15,0-.31.01-.4.02v1.57c.08.01.23.02.36.02.6,0,.98-.31.98-.83,0-.49-.28-.78-.95-.78Z"/><path class="cls-3" d="M41.29,39.07v-6.14h3.46v1.19h-2.05v1.22h1.94v1.15h-1.94v1.36h2.05v1.22h-3.46Z"/><path class="cls-3" d="M49.05,39.17c-2.08,0-3.14-1.15-3.14-2.96,0-2.05,1.24-3.38,3.49-3.38.67,0,1.3.11,1.76.25l-.27,1.29c-.45-.17-.97-.28-1.56-.28-1.33,0-1.88.86-1.88,1.94,0,1.15.58,1.85,1.75,1.85.22,0,.42-.03.59-.08v-2.01h1.41v2.98c-.6.25-1.36.4-2.15.4Z"/><path class="cls-3" d="M52.73,39.07v-6.14h1.41v6.14h-1.41Z"/><path class="cls-3" d="M58.23,39.18c-1.9,0-2.83-1.17-2.83-3.07,0-2.03,1.37-3.28,3.05-3.28,1.9,0,2.84,1.17,2.84,3.07,0,2.03-1.38,3.28-3.06,3.28ZM58.35,34.1c-.84,0-1.45.67-1.45,1.85s.46,1.94,1.43,1.94c.85,0,1.45-.66,1.45-1.85s-.46-1.94-1.43-1.94Z"/><path class="cls-3" d="M65.89,39.07l-1.58-3.02c-.21-.45-.37-.82-.48-1.19.04.46.06,1.79.06,2.59v1.63h-1.36v-6.14h1.87l1.53,2.93c.2.37.39.83.53,1.22-.04-.53-.06-1.89-.06-2.62v-1.53h1.36v6.14h-1.86Z"/><path class="cls-3" d="M77.51,39.07l-.4-2.57c-.07-.49-.14-1.06-.18-1.53h-.02c-.09.46-.21,1.04-.36,1.57l-.78,2.54h-1.32l-.75-2.35c-.16-.55-.32-1.21-.41-1.76h-.02c-.05.57-.1,1.15-.16,1.65l-.31,2.46h-1.42l.97-6.14h1.63l.86,2.72c.1.34.24.9.33,1.34h.02c.11-.49.24-1.01.35-1.35l.86-2.71h1.6l.97,6.14h-1.47Z"/><path class="cls-3" d="M82.54,39.18c-1.96,0-2.43-1.05-2.43-2.28v-3.97h1.41v3.9c0,.72.24,1.18,1.11,1.18.8,0,1.11-.35,1.11-1.26v-3.81h1.4v3.73c0,1.73-.97,2.52-2.6,2.52Z"/><path class="cls-3" d="M90.16,39.07l-1.58-3.02c-.21-.45-.37-.82-.48-1.19.04.46.06,1.79.06,2.59v1.63h-1.36v-6.14h1.87l1.53,2.93c.2.37.39.83.53,1.22-.04-.53-.06-1.89-.06-2.62v-1.53h1.36v6.14h-1.86Z"/><path class="cls-3" d="M93.73,39.07v-6.14h1.41v6.14h-1.41Z"/><path class="cls-3" d="M99.32,39.14c-2.27,0-2.88-1.53-2.88-2.92,0-1.99,1.08-3.35,3.12-3.35.42,0,.86.06,1.25.18l-.18,1.29c-.34-.13-.72-.19-1.1-.19-.99,0-1.53.72-1.53,1.83,0,1.2.49,1.87,1.6,1.87.32,0,.75-.08,1.05-.23l.2,1.25c-.44.17-.99.26-1.53.26Z"/><path class="cls-3" d="M102.19,39.07v-6.14h1.41v6.14h-1.41Z"/><path class="cls-3" d="M107.06,37.1c-.18,0-.34-.02-.34-.02v1.98h-1.41v-6.14s.87-.04,1.84-.04c1.57,0,2.42.67,2.42,1.96,0,1.25-.85,2.26-2.51,2.26ZM107.09,34.05c-.17,0-.36.01-.36.01v1.84s.18.04.41.04c.64,0,.97-.35.97-.96s-.29-.93-1.02-.93Z"/><path class="cls-3" d="M113.86,39.07l-.37-1.14h-2.14l-.36,1.14h-1.41l2.04-6.14h1.68l2.12,6.14h-1.56ZM112.64,35.3c-.09-.3-.17-.58-.23-.86h-.02c-.06.27-.13.56-.22.86l-.49,1.5h1.46l-.5-1.51Z"/><path class="cls-3" d="M116.37,39.07v-6.14h1.41v4.89h1.86v1.25h-3.27Z"/><path class="cls-3" d="M120.74,39.07v-6.14h1.41v6.14h-1.41Z"/><path class="cls-3" d="M126.16,34.14v4.93h-1.42v-4.93h-1.47v-1.21h4.36v1.21h-1.47Z"/><path class="cls-3" d="M131.53,36.92v2.15h-1.42v-2.14l-1.92-4h1.55l.7,1.57c.16.36.29.68.39.98h.02c.12-.35.29-.72.47-1.11l.67-1.44h1.49l-1.95,3.99Z"/><path class="cls-3" d="M11.57,17.06c-1.47,0-2.93.83-3.56,2.34h-.03c.15-.64.19-1.34.19-1.91v-.22h-2.37v5.91c0,2.02-.64,2.68-1.68,2.68-.94,0-1.76-.57-1.76-2.67,0-.88.14-1.85.42-2.78l-2.44.43c-.22.85-.34,1.77-.34,2.56,0,2.93,1.37,4.29,3.96,4.29,2.13,0,3.8-.98,4.09-3.42h2.07c3.4,0,4.71-1.64,4.71-3.83,0-2.08-1.09-3.38-3.26-3.38ZM10.33,22.42h-2.19c.34-1.91,1.61-3.49,2.93-3.49.91,0,1.33.6,1.33,1.64s-.43,1.85-2.07,1.85Z"/><path class="cls-3" d="M10.77,16.44c.6,0,1.1-.49,1.1-1.1s-.51-1.09-1.1-1.09-1.09.49-1.09,1.09c0,.6.49,1.1,1.09,1.1Z"/><polygon class="cls-3" points="30.54 17.27 28.18 17.27 28.18 22.42 19.24 22.42 19.03 22.42 17.97 22.42 17.97 13.77 15.62 13.77 15.62 24.27 19.03 24.27 19.24 24.27 30.54 24.27 30.54 17.27"/><path class="cls-3" d="M29.53,25.31c-.58,0-1.04.45-1.04,1.03s.45,1.03,1.04,1.03,1.04-.46,1.04-1.03-.48-1.03-1.04-1.03Z"/><ellipse class="cls-3" cx="27" cy="26.34" rx="1.04" ry="1.03"/><path class="cls-3" d="M38.43,22.42h-2.5v-5.15h-2.35v7.15c0,1.38-.49,1.77-1.36,1.77-.43,0-.71-.05-1.01-.12l-.15,1.85c.3.07.66.1,1.04.1,3.26,0,3.83-1.93,3.83-3.69v-.06h4.85v-10.5h-2.35v8.65Z"/><rect class="cls-3" x="42.91" y="13.77" width="2.35" height="10.5"/><ellipse class="cls-3" cx="54.67" cy="15.29" rx="1.04" ry="1.03"/><ellipse class="cls-3" cx="52.14" cy="15.29" rx="1.04" ry="1.03"/><ellipse class="cls-3" cx="66.49" cy="15.29" rx="1.04" ry="1.03"/><path class="cls-3" d="M63.96,16.32c.58,0,1.04-.46,1.04-1.03s-.48-1.03-1.04-1.03-1.04.46-1.04,1.03.45,1.03,1.04,1.03Z"/><path class="cls-3" d="M83.3,16.44c.6,0,1.1-.49,1.1-1.1s-.51-1.09-1.1-1.09-1.09.49-1.09,1.09.49,1.1,1.09,1.1Z"/><path class="cls-3" d="M89.87,17.06c-2.65,0-3.98,1.74-3.98,3.6,0,.83.19,1.38.55,1.76h-1.96v-5.15h-2.35v5.15h-2.56c.33-.57.48-1.24.48-1.98,0-2.09-1.07-3.38-3.25-3.38-1.47,0-2.93.83-3.56,2.34h-.03c.14-.64.18-1.34.18-1.91v-3.72h-2.35v8.65h-1.75c-.49,0-1.03.07-1.03.07.43-.42.66-1.24.66-1.97,0-2.29-1.3-3.47-3.54-3.47s-3.92,1.52-3.92,3.75c0,.59.15,1.17.46,1.61h-5.08v-4.84s-1.36-.52-3.2-.52c-2.86,0-4.07,1.82-4.07,3.77,0,2.1,1.12,3.44,4.04,3.44h39.74v-3.74c0-2.04-1.03-3.47-3.47-3.47ZM54.55,22.42h-.71c-1.34,0-1.92-.66-1.92-1.8,0-.95.54-1.71,1.47-1.71.7,0,1.16.22,1.16.22v3.29ZM65.18,22.42c-.92,0-1.36-.57-1.36-1.82s.69-1.7,1.4-1.7c.94,0,1.34.6,1.34,1.74s-.57,1.77-1.38,1.77ZM69.75,24.26l.09-.11c.11.06.11.1-.09.11ZM75.55,22.42h-2.17c.34-1.91,1.59-3.49,2.93-3.49.89,0,1.33.6,1.33,1.64s-.45,1.85-2.09,1.85ZM80.92,24.26l.08-.1c.07.05.06.08-.08.1ZM91.05,22.42h-.91c-1.31,0-1.91-.61-1.91-1.8,0-.95.54-1.71,1.47-1.71.83,0,1.34.58,1.34,1.88v1.64h0Z"/><ellipse class="cls-3" cx="99.53" cy="15.29" rx="1.04" ry="1.03"/><ellipse class="cls-3" cx="102.06" cy="15.29" rx="1.04" ry="1.03"/><path class="cls-3" d="M110.09,22.42h-5.87v-4.84s-1.36-.52-3.2-.52c-2.86,0-4.07,1.82-4.07,3.77,0,2.1,1.12,3.44,4.04,3.44h11.46v-7h-2.35v5.15ZM101.94,22.42h-.71c-1.34,0-1.92-.66-1.92-1.8,0-.95.54-1.71,1.47-1.71.7,0,1.16.22,1.16.22v3.29h0Z"/><path class="cls-3" d="M111.27,16.44c.6,0,1.1-.49,1.1-1.1s-.51-1.09-1.1-1.09-1.09.49-1.09,1.09c0,.6.49,1.1,1.09,1.1Z"/><path class="cls-3" d="M125.7,17.06c-2.65,0-3.98,1.74-3.98,3.6,0,.92.24,1.5.67,1.88,0,0-.31-.12-.82-.12h-4.73v-8.65h-2.35v10.5h14.67v-3.74c0-2.04-1.03-3.47-3.47-3.47ZM126.88,22.42h-.91c-1.31,0-1.91-.61-1.91-1.8,0-.95.54-1.71,1.47-1.71.83,0,1.34.58,1.34,1.88v1.64h0Z"/><rect class="cls-3" x="130.75" y="14.22" width="2.35" height="10.05"/><path class="cls-3" d="M132.86,12.27c-.82,0-1.03-.16-1.03-.49,0-.25.21-.46.7-.46.43,0,.79.09.83.1l.22-1.16c-.06-.02-.48-.1-.92-.1-1.68,0-2.35.85-2.35,1.59,0,.25.12.48.3.6-.19-.04-.52-.07-.79-.07v1.19h3.99v-1.19h-.95Z"/></svg>